<?xml version="1.0" encoding="UTF-8" standalone="no"?>
<!-- Created with Inkscape (http://www.inkscape.org/) -->

<svg
   width="117.21042mm"
   height="65.881248mm"
   viewBox="0 0 117.21042 65.881248"
   version="1.1"
   id="svg1"
   inkscape:export-filename="bitmap.svg"
   inkscape:export-xdpi="96"
   inkscape:export-ydpi="96"
   sodipodi:docname="app-mauc-logo.svg"
   inkscape:version="1.3.2 (091e20e, 2023-11-25, custom)"
   xmlns:inkscape="http://www.inkscape.org/namespaces/inkscape"
   xmlns:sodipodi="http://sodipodi.sourceforge.net/DTD/sodipodi-0.dtd"
   xmlns="http://www.w3.org/2000/svg"
   xmlns:svg="http://www.w3.org/2000/svg">
  <sodipodi:namedview
     id="namedview1"
     pagecolor="#ffffff"
     bordercolor="#000000"
     borderopacity="0.25"
     inkscape:showpageshadow="2"
     inkscape:pageopacity="0.0"
     inkscape:pagecheckerboard="0"
     inkscape:deskcolor="#d1d1d1"
     inkscape:document-units="mm"
     inkscape:zoom="0.82123348"
     inkscape:cx="122.37689"
     inkscape:cy="169.86643"
     inkscape:window-width="1920"
     inkscape:window-height="1017"
     inkscape:window-x="-8"
     inkscape:window-y="-8"
     inkscape:window-maximized="1"
     inkscape:current-layer="layer1" />
  <defs
     id="defs1">
    <clipPath
       clipPathUnits="userSpaceOnUse"
       id="clipPath1130">
      <path
         d="M 0,595.276 H 841.89 V 0 H 0 Z"
         transform="translate(-163.40378,-287.43121)"
         id="path1130" />
    </clipPath>
    <clipPath
       clipPathUnits="userSpaceOnUse"
       id="clipPath1132">
      <path
         d="M 0,595.276 H 841.89 V 0 H 0 Z"
         transform="translate(-187.9077,-281.81581)"
         id="path1132" />
    </clipPath>
    <clipPath
       clipPathUnits="userSpaceOnUse"
       id="clipPath1134">
      <path
         d="M 0,595.276 H 841.89 V 0 H 0 Z"
         transform="translate(-192.5022,-300.19361)"
         id="path1134" />
    </clipPath>
    <clipPath
       clipPathUnits="userSpaceOnUse"
       id="clipPath1136">
      <path
         d="M 0,595.276 H 841.89 V 0 H 0 Z"
         transform="translate(-180.25013,-292.53631)"
         id="path1136" />
    </clipPath>
    <clipPath
       clipPathUnits="userSpaceOnUse"
       id="clipPath1138">
      <path
         d="M 0,595.276 H 841.89 V 0 H 0 Z"
         transform="translate(-184.33418,-301.21491)"
         id="path1138" />
    </clipPath>
    <clipPath
       clipPathUnits="userSpaceOnUse"
       id="clipPath1140">
      <path
         d="M 0,595.276 H 841.89 V 0 H 0 Z"
         transform="translate(-167.9982,-298.66201)"
         id="path1140" />
    </clipPath>
    <clipPath
       clipPathUnits="userSpaceOnUse"
       id="clipPath1142">
      <path
         d="M 0,595.276 H 841.89 V 0 H 0 Z"
         transform="translate(-175.14533,-300.19361)"
         id="path1142" />
    </clipPath>
    <clipPath
       clipPathUnits="userSpaceOnUse"
       id="clipPath1144">
      <path
         d="M 0,595.276 H 841.89 V 0 H 0 Z"
         transform="translate(-197.09663,-302.74591)"
         id="path1144" />
    </clipPath>
    <clipPath
       clipPathUnits="userSpaceOnUse"
       id="clipPath1146">
      <path
         d="M 0,595.276 H 841.89 V 0 H 0 Z"
         transform="translate(-158.80928,-306.57491)"
         id="path1146" />
    </clipPath>
    <clipPath
       clipPathUnits="userSpaceOnUse"
       id="clipPath1148">
      <path
         d="M 0,595.276 H 841.89 V 0 H 0 Z"
         transform="translate(-203.22271,-305.80911)"
         id="path1148" />
    </clipPath>
    <clipPath
       clipPathUnits="userSpaceOnUse"
       id="clipPath1150">
      <path
         d="M 0,595.276 H 841.89 V 0 H 0 Z"
         transform="translate(-174.12428,-303.25681)"
         id="path1150" />
    </clipPath>
    <clipPath
       clipPathUnits="userSpaceOnUse"
       id="clipPath1152">
      <path
         d="M 0,595.276 H 841.89 V 0 H 0 Z"
         transform="translate(-159.31988,-302.23551)"
         id="path1152" />
    </clipPath>
    <clipPath
       clipPathUnits="userSpaceOnUse"
       id="clipPath1154">
      <path
         d="M 0,595.276 H 841.89 V 0 H 0 Z"
         transform="translate(-236.62741,-302.33651)"
         id="path1154" />
    </clipPath>
    <clipPath
       clipPathUnits="userSpaceOnUse"
       id="clipPath1156">
      <path
         d="M 0,595.276 H 841.89 V 0 H 0 Z"
         id="path1156" />
    </clipPath>
    <clipPath
       clipPathUnits="userSpaceOnUse"
       id="clipPath1158">
      <path
         d="M 0,595.276 H 841.89 V 0 H 0 Z"
         transform="translate(-255.56221,-278.18161)"
         id="path1158" />
    </clipPath>
    <clipPath
       clipPathUnits="userSpaceOnUse"
       id="clipPath1160">
      <path
         d="M 0,595.276 H 841.89 V 0 H 0 Z"
         id="path1160" />
    </clipPath>
    <clipPath
       clipPathUnits="userSpaceOnUse"
       id="clipPath1162">
      <path
         d="M 0,595.276 H 841.89 V 0 H 0 Z"
         transform="translate(-253.22663,-319.86401)"
         id="path1162" />
    </clipPath>
    <clipPath
       clipPathUnits="userSpaceOnUse"
       id="clipPath1164">
      <path
         d="M 0,595.276 H 841.89 V 0 H 0 Z"
         transform="translate(-268.12801,-319.86401)"
         id="path1164" />
    </clipPath>
    <clipPath
       clipPathUnits="userSpaceOnUse"
       id="clipPath1166">
      <path
         d="M 0,595.276 H 841.89 V 0 H 0 Z"
         transform="translate(-275.40473,-277.85761)"
         id="path1166" />
    </clipPath>
    <clipPath
       clipPathUnits="userSpaceOnUse"
       id="clipPath1168">
      <path
         d="M 0,595.276 H 841.89 V 0 H 0 Z"
         transform="translate(-248.06041,-278.0096)"
         id="path1168" />
    </clipPath>
    <clipPath
       clipPathUnits="userSpaceOnUse"
       id="clipPath1170">
      <path
         d="M 0,595.276 H 841.89 V 0 H 0 Z"
         transform="translate(-296.05583,-278.09971)"
         id="path1170" />
    </clipPath>
    <clipPath
       clipPathUnits="userSpaceOnUse"
       id="clipPath1130-2">
      <path
         d="M 0,595.276 H 841.89 V 0 H 0 Z"
         transform="translate(-163.40378,-287.43121)"
         id="path1130-2" />
    </clipPath>
    <clipPath
       clipPathUnits="userSpaceOnUse"
       id="clipPath1132-8">
      <path
         d="M 0,595.276 H 841.89 V 0 H 0 Z"
         transform="translate(-187.9077,-281.81581)"
         id="path1132-4" />
    </clipPath>
    <clipPath
       clipPathUnits="userSpaceOnUse"
       id="clipPath1134-4">
      <path
         d="M 0,595.276 H 841.89 V 0 H 0 Z"
         transform="translate(-192.5022,-300.19361)"
         id="path1134-3" />
    </clipPath>
    <clipPath
       clipPathUnits="userSpaceOnUse"
       id="clipPath1136-6">
      <path
         d="M 0,595.276 H 841.89 V 0 H 0 Z"
         transform="translate(-180.25013,-292.53631)"
         id="path1136-6" />
    </clipPath>
    <clipPath
       clipPathUnits="userSpaceOnUse"
       id="clipPath1138-7">
      <path
         d="M 0,595.276 H 841.89 V 0 H 0 Z"
         transform="translate(-184.33418,-301.21491)"
         id="path1138-7" />
    </clipPath>
    <clipPath
       clipPathUnits="userSpaceOnUse"
       id="clipPath1140-5">
      <path
         d="M 0,595.276 H 841.89 V 0 H 0 Z"
         transform="translate(-167.9982,-298.66201)"
         id="path1140-2" />
    </clipPath>
    <clipPath
       clipPathUnits="userSpaceOnUse"
       id="clipPath1142-4">
      <path
         d="M 0,595.276 H 841.89 V 0 H 0 Z"
         transform="translate(-175.14533,-300.19361)"
         id="path1142-9" />
    </clipPath>
    <clipPath
       clipPathUnits="userSpaceOnUse"
       id="clipPath1144-7">
      <path
         d="M 0,595.276 H 841.89 V 0 H 0 Z"
         transform="translate(-197.09663,-302.74591)"
         id="path1144-7" />
    </clipPath>
    <clipPath
       clipPathUnits="userSpaceOnUse"
       id="clipPath1146-0">
      <path
         d="M 0,595.276 H 841.89 V 0 H 0 Z"
         transform="translate(-158.80928,-306.57491)"
         id="path1146-2" />
    </clipPath>
    <clipPath
       clipPathUnits="userSpaceOnUse"
       id="clipPath1148-0">
      <path
         d="M 0,595.276 H 841.89 V 0 H 0 Z"
         transform="translate(-203.22271,-305.80911)"
         id="path1148-6" />
    </clipPath>
    <clipPath
       clipPathUnits="userSpaceOnUse"
       id="clipPath1150-9">
      <path
         d="M 0,595.276 H 841.89 V 0 H 0 Z"
         transform="translate(-174.12428,-303.25681)"
         id="path1150-4" />
    </clipPath>
    <clipPath
       clipPathUnits="userSpaceOnUse"
       id="clipPath1152-8">
      <path
         d="M 0,595.276 H 841.89 V 0 H 0 Z"
         transform="translate(-159.31988,-302.23551)"
         id="path1152-0" />
    </clipPath>
    <clipPath
       clipPathUnits="userSpaceOnUse"
       id="clipPath1154-2">
      <path
         d="M 0,595.276 H 841.89 V 0 H 0 Z"
         transform="translate(-236.62741,-302.33651)"
         id="path1154-8" />
    </clipPath>
    <clipPath
       clipPathUnits="userSpaceOnUse"
       id="clipPath1156-3">
      <path
         d="M 0,595.276 H 841.89 V 0 H 0 Z"
         id="path1156-3" />
    </clipPath>
    <clipPath
       clipPathUnits="userSpaceOnUse"
       id="clipPath1158-1">
      <path
         d="M 0,595.276 H 841.89 V 0 H 0 Z"
         transform="translate(-255.56221,-278.18161)"
         id="path1158-2" />
    </clipPath>
    <clipPath
       clipPathUnits="userSpaceOnUse"
       id="clipPath1160-7">
      <path
         d="M 0,595.276 H 841.89 V 0 H 0 Z"
         id="path1160-4" />
    </clipPath>
    <clipPath
       clipPathUnits="userSpaceOnUse"
       id="clipPath1162-5">
      <path
         d="M 0,595.276 H 841.89 V 0 H 0 Z"
         transform="translate(-253.22663,-319.86401)"
         id="path1162-6" />
    </clipPath>
    <clipPath
       clipPathUnits="userSpaceOnUse"
       id="clipPath1164-3">
      <path
         d="M 0,595.276 H 841.89 V 0 H 0 Z"
         transform="translate(-268.12801,-319.86401)"
         id="path1164-5" />
    </clipPath>
    <clipPath
       clipPathUnits="userSpaceOnUse"
       id="clipPath1166-7">
      <path
         d="M 0,595.276 H 841.89 V 0 H 0 Z"
         transform="translate(-275.40473,-277.85761)"
         id="path1166-8" />
    </clipPath>
    <clipPath
       clipPathUnits="userSpaceOnUse"
       id="clipPath1168-6">
      <path
         d="M 0,595.276 H 841.89 V 0 H 0 Z"
         transform="translate(-248.06041,-278.0096)"
         id="path1168-5" />
    </clipPath>
    <clipPath
       clipPathUnits="userSpaceOnUse"
       id="clipPath1170-4">
      <path
         d="M 0,595.276 H 841.89 V 0 H 0 Z"
         transform="translate(-296.05583,-278.09971)"
         id="path1170-8" />
    </clipPath>
  </defs>
  <g
     inkscape:label="Camada 1"
     inkscape:groupmode="layer"
     id="layer1">
    <path
       id="path1129"
       d="m 0,0 c -0.695,0 -1.258,0.563 -1.258,1.258 v 34.203 c 0,0.695 0.563,1.258 1.258,1.258 0.695,0 1.258,-0.563 1.258,-1.258 V 1.258 C 1.258,0.563 0.695,0 0,0"
       style="fill:#3871c1;fill-opacity:1;fill-rule:nonzero;stroke:none"
       transform="matrix(0.83071147,0,0,-0.83071147,13.646102,-30.061062)"
       clip-path="url(#clipPath1130)" />
    <path
       id="path1131"
       d="m 0,0 c -0.695,0 -1.258,0.563 -1.258,1.258 v 38.287 c 0,0.695 0.563,1.258 1.258,1.258 0.695,0 1.258,-0.563 1.258,-1.258 V 1.258 C 1.258,0.563 0.695,0 0,0"
       style="fill:#3871c1;fill-opacity:1;fill-rule:nonzero;stroke:none"
       transform="matrix(0.83071147,0,0,-0.83071147,34.001794,-25.396304)"
       clip-path="url(#clipPath1132)" />
    <path
       id="path1133"
       d="m 0,0 c -0.695,0 -1.258,0.563 -1.258,1.258 v 11.231 c 0,0.694 0.563,1.257 1.258,1.257 0.695,0 1.258,-0.563 1.258,-1.257 V 1.258 C 1.258,0.563 0.695,0 0,0"
       style="fill:#82b7e6;fill-opacity:1;fill-rule:nonzero;stroke:none"
       transform="matrix(0.83071147,0,0,-0.83071147,37.818499,-40.662932)"
       clip-path="url(#clipPath1134)" />
    <path
       id="path1135"
       d="m 0,0 c -0.695,0 -1.258,0.563 -1.258,1.258 v 21.441 c 0,0.694 0.563,1.257 1.258,1.257 0.695,0 1.258,-0.563 1.258,-1.257 V 1.258 C 1.258,0.563 0.695,0 0,0"
       style="fill:#3871c1;fill-opacity:1;fill-rule:nonzero;stroke:none"
       transform="matrix(0.83071147,0,0,-0.83071147,27.640559,-34.301937)"
       clip-path="url(#clipPath1136)" />
    <path
       id="path1137"
       d="m 0,0 c -0.695,0 -1.258,0.563 -1.258,1.258 v 7.657 c 0,0.695 0.563,1.258 1.258,1.258 0.695,0 1.258,-0.563 1.258,-1.258 V 1.258 C 1.258,0.563 0.695,0 0,0"
       style="fill:#82b7e6;fill-opacity:1;fill-rule:nonzero;stroke:none"
       transform="matrix(0.83071147,0,0,-0.83071147,31.033226,-41.511357)"
       clip-path="url(#clipPath1138)" />
    <path
       id="path1139"
       d="M 0,0 C -0.695,0 -1.258,0.563 -1.258,1.258 V 14.02 c 0,0.695 0.563,1.258 1.258,1.258 0.695,0 1.258,-0.563 1.258,-1.258 V 1.258 C 1.258,0.563 0.695,0 0,0"
       style="fill:#82b7e6;fill-opacity:1;fill-rule:nonzero;stroke:none"
       transform="matrix(0.83071147,0,0,-0.83071147,17.462743,-39.390625)"
       clip-path="url(#clipPath1140)" />
    <path
       id="path1141"
       d="m 0,0 c -0.695,0 -1.258,0.563 -1.258,1.258 v 8.168 c 0,0.695 0.563,1.258 1.258,1.258 0.695,0 1.258,-0.563 1.258,-1.258 V 1.258 C 1.258,0.563 0.695,0 0,0"
       style="fill:#82b7e6;fill-opacity:1;fill-rule:nonzero;stroke:none"
       transform="matrix(0.83071147,0,0,-0.83071147,23.399943,-40.662932)"
       clip-path="url(#clipPath1142)" />
    <path
       id="path1143"
       d="m 0,0 c -0.695,0 -1.258,0.563 -1.258,1.258 v 5.616 c 0,0.694 0.563,1.257 1.258,1.257 0.695,0 1.258,-0.563 1.258,-1.257 V 1.258 C 1.258,0.563 0.695,0 0,0"
       style="fill:#3871c1;fill-opacity:1;fill-rule:nonzero;stroke:none"
       transform="matrix(0.83071147,0,0,-0.83071147,41.635141,-42.783169)"
       clip-path="url(#clipPath1144)" />
    <path
       id="path1145"
       d="m 0,0 h -10.721 c -0.694,0 -1.257,0.563 -1.257,1.258 0,0.694 0.563,1.257 1.257,1.257 L 0,2.515 C 0.695,2.515 1.258,1.952 1.258,1.258 1.258,0.563 0.695,0 0,0"
       style="fill:#3871c1;fill-opacity:1;fill-rule:nonzero;stroke:none"
       transform="matrix(0.83071147,0,0,-0.83071147,9.8293994,-45.963973)"
       clip-path="url(#clipPath1146)" />
    <path
       id="path1147"
       d="m 0,0 h -5.616 c -0.694,0 -1.257,0.563 -1.257,1.258 0,0.694 0.563,1.257 1.257,1.257 L 0,2.515 C 0.695,2.515 1.258,1.952 1.258,1.258 1.258,0.563 0.695,0 0,0"
       style="fill:#3871c1;fill-opacity:1;fill-rule:nonzero;stroke:none"
       transform="matrix(0.83071147,0,0,-0.83071147,46.724141,-45.327808)"
       clip-path="url(#clipPath1148)" />
    <path
       id="path1149"
       d="m 0,0 h -5.615 c -0.695,0 -1.258,0.563 -1.258,1.258 0,0.694 0.563,1.257 1.258,1.257 L 0,2.515 C 0.695,2.515 1.258,1.952 1.258,1.258 1.258,0.563 0.695,0 0,0"
       style="fill:#82b7e6;fill-opacity:1;fill-rule:nonzero;stroke:none"
       transform="matrix(0.83071147,0,0,-0.83071147,22.551744,-43.20757)"
       clip-path="url(#clipPath1150)" />
    <path
       id="path1151"
       d="m 0,0 c -0.695,0 -1.258,0.563 -1.258,1.258 v 7.657 c 0,0.695 0.563,1.258 1.258,1.258 0.695,0 1.258,-0.563 1.258,-1.258 V 1.258 C 1.258,0.563 0.695,0 0,0"
       style="fill:#3871c1;fill-opacity:1;fill-rule:nonzero;stroke:none"
       transform="matrix(0.83071147,0,0,-0.83071147,10.253559,-42.359169)"
       clip-path="url(#clipPath1152)" />
    <path
       id="path1153"
       d="M 0,0 -2.949,0.666 1.635,20.97 H 5.946 L 10.582,0.814 7.635,0.137 3.798,16.819 Z"
       style="fill:#3871c1;fill-opacity:1;fill-rule:nonzero;stroke:none"
       transform="matrix(0.83071147,0,0,-0.83071147,58.133757,-45.326607)"
       clip-path="url(#clipPath1154)" />
    <path
       id="path1155"
       d="m 244.075,306.9 h -7.166 v 3.024 h 7.166 z"
       style="fill:#3871c1;fill-opacity:1;fill-rule:nonzero;stroke:none"
       transform="matrix(0.83071147,0,0,-0.83071147,-138.43532,205.82778)"
       clip-path="url(#clipPath1156)" />
    <path
       id="path1157"
       d="M 0,0 -2.949,0.666 1.636,20.97 h 4.31 L 10.582,0.814 7.635,0.137 3.798,16.818 Z"
       style="fill:#3871c1;fill-opacity:1;fill-rule:nonzero;stroke:none"
       transform="matrix(0.83071147,0,0,-0.83071147,73.863112,-25.260858)"
       clip-path="url(#clipPath1158)" />
    <path
       id="path1159"
       d="m 263.009,282.745 h -7.166 v 3.024 h 7.166 z"
       style="fill:#3871c1;fill-opacity:1;fill-rule:nonzero;stroke:none"
       transform="matrix(0.83071147,0,0,-0.83071147,-138.43532,205.82778)"
       clip-path="url(#clipPath1160)" />
    <path
       id="path1161"
       d="m 0,0 v -10.201 c 1.05,0.052 2.078,0.292 3.001,0.701 0.959,0.426 2.408,1.067 3.027,2.465 0.722,1.63 -0.153,3.318 -0.438,3.796 -1.017,1.703 -3.013,2.397 -4.471,2.903 l -0.09,0.032 C 0.692,-0.187 0.349,-0.086 0,0 M 0,-17.527 H -3.024 V 3.455 l 1.66,-0.163 C -0.203,3.179 0.936,2.929 2.022,2.551 L 2.111,2.52 C 3.792,1.936 6.605,0.959 8.186,-1.69 8.66,-2.484 10.103,-5.303 8.792,-8.26 7.7,-10.724 5.354,-11.764 4.226,-12.263 2.922,-12.842 1.471,-13.172 0,-13.228 Z"
       style="fill:#3871c1;fill-opacity:1;fill-rule:nonzero;stroke:none"
       transform="matrix(0.83071147,0,0,-0.83071147,71.922923,-59.886913)"
       clip-path="url(#clipPath1162)" />
    <path
       id="path1163"
       d="m 0,0 v -10.201 c 1.05,0.052 2.077,0.292 3,0.701 0.96,0.426 2.409,1.068 3.028,2.465 0.722,1.63 -0.153,3.318 -0.438,3.796 -1.017,1.703 -3.013,2.397 -4.471,2.903 l -0.09,0.032 C 0.692,-0.187 0.349,-0.086 0,0 M 0,-17.527 H -3.024 V 3.455 l 1.66,-0.163 C -0.203,3.179 0.936,2.929 2.022,2.551 L 2.111,2.52 C 3.792,1.936 6.605,0.959 8.186,-1.69 8.66,-2.484 10.102,-5.302 8.792,-8.26 7.7,-10.724 5.354,-11.764 4.226,-12.263 2.921,-12.842 1.471,-13.172 0,-13.228 Z"
       style="fill:#3871c1;fill-opacity:1;fill-rule:nonzero;stroke:none"
       transform="matrix(0.83071147,0,0,-0.83071147,84.301667,-59.886913)"
       clip-path="url(#clipPath1164)" />
    <path
       id="path1165"
       d="M 0,0 C -1.578,0 -2.829,0.547 -3.305,0.789 -3.998,1.142 -6.308,2.508 -6.94,5.26 -7.083,5.878 -7.127,6.519 -7.074,7.164 L -7.2,21.192 -4.176,21.218 -4.049,7.038 -4.057,6.959 C -4.09,6.61 -4.069,6.265 -3.993,5.936 -3.646,4.423 -2.216,3.627 -1.933,3.483 -1.628,3.329 -0.028,2.595 1.58,3.394 2.927,4.063 3.435,5.347 3.575,5.793 L 3.778,6.695 V 21.142 H 6.802 L 6.765,6.194 6.486,4.974 C 6.279,4.28 5.412,1.921 2.925,0.686 1.899,0.176 0.897,0 0,0"
       style="fill:#3871c1;fill-opacity:1;fill-rule:nonzero;stroke:none"
       transform="matrix(0.83071147,0,0,-0.83071147,90.346526,-24.991707)"
       clip-path="url(#clipPath1166)" />
    <path
       id="path1167"
       d="m 0,0 -3.982,16.884 -2.101,-8.32 h -3.534 l -1.944,8.91 -4.099,-17.24 -2.942,0.7 4.82,20.273 4.516,-0.068 1.502,-6.882 1.747,6.916 h 4.129 L 2.943,0.694 Z"
       style="fill:#3871c1;fill-opacity:1;fill-rule:nonzero;stroke:none"
       transform="matrix(0.83071147,0,0,-0.83071147,67.631281,-25.11797)"
       clip-path="url(#clipPath1168)" />
    <path
       id="path1169"
       d="m 0,0 c -1.311,0 -2.852,0.224 -4.465,0.928 -2.487,1.084 -4.369,2.847 -5.443,5.101 -1.69,3.547 -1.181,7.956 1.267,10.968 2.067,2.543 4.913,3.297 5.848,3.545 1.572,0.416 3.198,0.513 4.833,0.29 L 1.628,17.836 C 0.391,18.007 -0.835,17.933 -2.018,17.619 -2.792,17.414 -4.848,16.869 -6.294,15.09 -7.995,12.998 -8.358,9.806 -7.178,7.329 -6.423,5.743 -5.067,4.488 -3.257,3.7 -1.26,2.829 0.617,2.991 1.558,3.167 L 2.109,0.193 C 1.516,0.083 0.801,0 0,0"
       style="fill:#3871c1;fill-opacity:1;fill-rule:nonzero;stroke:none"
       transform="matrix(0.83071147,0,0,-0.83071147,107.50166,-25.192828)"
       clip-path="url(#clipPath1170)" />
    <path
       id="path1129-4"
       d="m 0,0 c -0.695,0 -1.258,0.563 -1.258,1.258 v 34.203 c 0,0.695 0.563,1.258 1.258,1.258 0.695,0 1.258,-0.563 1.258,-1.258 V 1.258 C 1.258,0.563 0.695,0 0,0"
       style="fill:#3871c1;fill-opacity:1;fill-rule:nonzero;stroke:none"
       transform="matrix(0.92035253,0,0,-0.92035253,55.472493,34.295341)"
       clip-path="url(#clipPath1130-2)" />
    <path
       id="path1131-6"
       d="m 0,0 c -0.695,0 -1.258,0.563 -1.258,1.258 v 38.287 c 0,0.695 0.563,1.258 1.258,1.258 0.695,0 1.258,-0.563 1.258,-1.258 V 1.258 C 1.258,0.563 0.695,0 0,0"
       style="fill:#3871c1;fill-opacity:1;fill-rule:nonzero;stroke:none"
       transform="matrix(0.92035253,0,0,-0.92035253,78.024743,39.46347)"
       clip-path="url(#clipPath1132-8)" />
    <path
       id="path1133-2"
       d="m 0,0 c -0.695,0 -1.258,0.563 -1.258,1.258 v 11.231 c 0,0.694 0.563,1.257 1.258,1.257 0.695,0 1.258,-0.563 1.258,-1.257 V 1.258 C 1.258,0.563 0.695,0 0,0"
       style="fill:#82b7e6;fill-opacity:1;fill-rule:nonzero;stroke:none"
       transform="matrix(0.92035253,0,0,-0.92035253,82.253304,22.549441)"
       clip-path="url(#clipPath1134-4)" />
    <path
       id="path1135-5"
       d="m 0,0 c -0.695,0 -1.258,0.563 -1.258,1.258 v 21.441 c 0,0.694 0.563,1.257 1.258,1.257 0.695,0 1.258,-0.563 1.258,-1.257 V 1.258 C 1.258,0.563 0.695,0 0,0"
       style="fill:#3871c1;fill-opacity:1;fill-rule:nonzero;stroke:none"
       transform="matrix(0.92035253,0,0,-0.92035253,70.977075,29.596844)"
       clip-path="url(#clipPath1136-6)" />
    <path
       id="path1137-6"
       d="m 0,0 c -0.695,0 -1.258,0.563 -1.258,1.258 v 7.657 c 0,0.695 0.563,1.258 1.258,1.258 0.695,0 1.258,-0.563 1.258,-1.258 V 1.258 C 1.258,0.563 0.695,0 0,0"
       style="fill:#82b7e6;fill-opacity:1;fill-rule:nonzero;stroke:none"
       transform="matrix(0.92035253,0,0,-0.92035253,74.73584,21.609463)"
       clip-path="url(#clipPath1138-7)" />
    <path
       id="path1139-3"
       d="M 0,0 C -0.695,0 -1.258,0.563 -1.258,1.258 V 14.02 c 0,0.695 0.563,1.258 1.258,1.258 0.695,0 1.258,-0.563 1.258,-1.258 V 1.258 C 1.258,0.563 0.695,0 0,0"
       style="fill:#82b7e6;fill-opacity:1;fill-rule:nonzero;stroke:none"
       transform="matrix(0.92035253,0,0,-0.92035253,59.700983,23.959041)"
       clip-path="url(#clipPath1140-5)" />
    <path
       id="path1141-9"
       d="m 0,0 c -0.695,0 -1.258,0.563 -1.258,1.258 v 8.168 c 0,0.695 0.563,1.258 1.258,1.258 0.695,0 1.258,-0.563 1.258,-1.258 V 1.258 C 1.258,0.563 0.695,0 0,0"
       style="fill:#82b7e6;fill-opacity:1;fill-rule:nonzero;stroke:none"
       transform="matrix(0.92035253,0,0,-0.92035253,66.278859,22.549441)"
       clip-path="url(#clipPath1142-4)" />
    <path
       id="path1143-3"
       d="m 0,0 c -0.695,0 -1.258,0.563 -1.258,1.258 v 5.616 c 0,0.694 0.563,1.257 1.258,1.257 0.695,0 1.258,-0.563 1.258,-1.257 V 1.258 C 1.258,0.563 0.695,0 0,0"
       style="fill:#3871c1;fill-opacity:1;fill-rule:nonzero;stroke:none"
       transform="matrix(0.92035253,0,0,-0.92035253,86.481795,20.200411)"
       clip-path="url(#clipPath1144-7)" />
    <path
       id="path1145-0"
       d="m 0,0 h -10.721 c -0.694,0 -1.257,0.563 -1.257,1.258 0,0.694 0.563,1.257 1.257,1.257 L 0,2.515 C 0.695,2.515 1.258,1.952 1.258,1.258 1.258,0.563 0.695,0 0,0"
       style="fill:#3871c1;fill-opacity:1;fill-rule:nonzero;stroke:none"
       transform="matrix(0.92035253,0,0,-0.92035253,51.243934,16.676371)"
       clip-path="url(#clipPath1146-0)" />
    <path
       id="path1147-5"
       d="m 0,0 h -5.616 c -0.694,0 -1.257,0.563 -1.257,1.258 0,0.694 0.563,1.257 1.257,1.257 L 0,2.515 C 0.695,2.515 1.258,1.952 1.258,1.258 1.258,0.563 0.695,0 0,0"
       style="fill:#3871c1;fill-opacity:1;fill-rule:nonzero;stroke:none"
       transform="matrix(0.92035253,0,0,-0.92035253,92.119943,17.381184)"
       clip-path="url(#clipPath1148-0)" />
    <path
       id="path1149-6"
       d="m 0,0 h -5.615 c -0.695,0 -1.258,0.563 -1.258,1.258 0,0.694 0.563,1.257 1.258,1.257 L 0,2.515 C 0.695,2.515 1.258,1.952 1.258,1.258 1.258,0.563 0.695,0 0,0"
       style="fill:#82b7e6;fill-opacity:1;fill-rule:nonzero;stroke:none"
       transform="matrix(0.92035253,0,0,-0.92035253,65.339132,19.730214)"
       clip-path="url(#clipPath1150-9)" />
    <path
       id="path1151-7"
       d="m 0,0 c -0.695,0 -1.258,0.563 -1.258,1.258 v 7.657 c 0,0.695 0.563,1.258 1.258,1.258 0.695,0 1.258,-0.563 1.258,-1.258 V 1.258 C 1.258,0.563 0.695,0 0,0"
       style="fill:#3871c1;fill-opacity:1;fill-rule:nonzero;stroke:none"
       transform="matrix(0.92035253,0,0,-0.92035253,51.713865,20.670165)"
       clip-path="url(#clipPath1152-8)" />
    <path
       id="path1153-7"
       d="M 0,0 -2.949,0.666 1.635,20.97 H 5.946 L 10.582,0.814 7.635,0.137 3.798,16.819 Z"
       style="fill:#3871c1;fill-opacity:1;fill-rule:nonzero;stroke:none"
       transform="matrix(0.80337104,0,0,-0.80337104,23.115165,61.27181)"
       clip-path="url(#clipPath1154-2)" />
    <path
       id="path1155-5"
       d="m 244.075,306.9 h -7.166 v 3.024 h 7.166 z"
       style="fill:#3871c1;fill-opacity:1;fill-rule:nonzero;stroke:none"
       transform="matrix(0.80337104,0,0,-0.80337104,-166.98437,304.16018)"
       clip-path="url(#clipPath1156-3)" />
    <path
       id="path1157-8"
       d="M 0,0 -2.949,0.666 1.636,20.97 h 4.31 L 10.582,0.814 7.635,0.137 3.798,16.818 Z"
       style="fill:#3871c1;fill-opacity:1;fill-rule:nonzero;stroke:none"
       transform="matrix(0.80337104,0,0,-0.80337104,82.447309,61.289314)"
       clip-path="url(#clipPath1158-1)" />
    <path
       id="path1159-5"
       d="m 263.009,282.745 h -7.166 v 3.024 h 7.166 z"
       style="fill:#3871c1;fill-opacity:1;fill-rule:nonzero;stroke:none"
       transform="matrix(0.80337104,0,0,-0.80337104,-122.86387,284.77234)"
       clip-path="url(#clipPath1160-7)" />
    <path
       id="path1161-7"
       d="m 0,0 v -10.201 c 1.05,0.052 2.078,0.292 3.001,0.701 0.959,0.426 2.408,1.067 3.027,2.465 0.722,1.63 -0.153,3.318 -0.438,3.796 -1.017,1.703 -3.013,2.397 -4.471,2.903 l -0.09,0.032 C 0.692,-0.187 0.349,-0.086 0,0 M 0,-17.527 H -3.024 V 3.455 l 1.66,-0.163 C -0.203,3.179 0.936,2.929 2.022,2.551 L 2.111,2.52 C 3.792,1.936 6.605,0.959 8.186,-1.69 8.66,-2.484 10.103,-5.303 8.792,-8.26 7.7,-10.724 5.354,-11.764 4.226,-12.263 2.922,-12.842 1.471,-13.172 0,-13.228 Z"
       style="fill:#3871c1;fill-opacity:1;fill-rule:nonzero;stroke:none"
       transform="matrix(0.80337104,0,0,-0.80337104,36.450502,47.190714)"
       clip-path="url(#clipPath1162-5)" />
    <path
       id="path1163-4"
       d="m 0,0 v -10.201 c 1.05,0.052 2.077,0.292 3,0.701 0.96,0.426 2.409,1.068 3.028,2.465 0.722,1.63 -0.153,3.318 -0.438,3.796 -1.017,1.703 -3.013,2.397 -4.471,2.903 l -0.09,0.032 C 0.692,-0.187 0.349,-0.086 0,0 M 0,-17.527 H -3.024 V 3.455 l 1.66,-0.163 C -0.203,3.179 0.936,2.929 2.022,2.551 L 2.111,2.52 C 3.792,1.936 6.605,0.959 8.186,-1.69 8.66,-2.484 10.102,-5.302 8.792,-8.26 7.7,-10.724 5.354,-11.764 4.226,-12.263 2.921,-12.842 1.471,-13.172 0,-13.228 Z"
       style="fill:#3871c1;fill-opacity:1;fill-rule:nonzero;stroke:none"
       transform="matrix(0.80337104,0,0,-0.80337104,48.421832,47.190714)"
       clip-path="url(#clipPath1164-3)" />
    <path
       id="path1165-5"
       d="M 0,0 C -1.578,0 -2.829,0.547 -3.305,0.789 -3.998,1.142 -6.308,2.508 -6.94,5.26 -7.083,5.878 -7.127,6.519 -7.074,7.164 L -7.2,21.192 -4.176,21.218 -4.049,7.038 -4.057,6.959 C -4.09,6.61 -4.069,6.265 -3.993,5.936 -3.646,4.423 -2.216,3.627 -1.933,3.483 -1.628,3.329 -0.028,2.595 1.58,3.394 2.927,4.063 3.435,5.347 3.575,5.793 L 3.778,6.695 V 21.142 H 6.802 L 6.765,6.194 6.486,4.974 C 6.279,4.28 5.412,1.921 2.925,0.686 1.899,0.176 0.897,0 0,0"
       style="fill:#3871c1;fill-opacity:1;fill-rule:nonzero;stroke:none"
       transform="matrix(0.80337104,0,0,-0.80337104,98.388238,61.549605)"
       clip-path="url(#clipPath1166-7)" />
    <path
       id="path1167-8"
       d="m 0,0 -3.982,16.884 -2.101,-8.32 h -3.534 l -1.944,8.91 -4.099,-17.24 -2.942,0.7 4.82,20.273 4.516,-0.068 1.502,-6.882 1.747,6.916 h 4.129 L 2.943,0.694 Z"
       style="fill:#3871c1;fill-opacity:1;fill-rule:nonzero;stroke:none"
       transform="matrix(0.80337104,0,0,-0.80337104,76.420577,61.427501)"
       clip-path="url(#clipPath1168-6)" />
    <path
       id="path1169-3"
       d="m 0,0 c -1.311,0 -2.852,0.224 -4.465,0.928 -2.487,1.084 -4.369,2.847 -5.443,5.101 -1.69,3.547 -1.181,7.956 1.267,10.968 2.067,2.543 4.913,3.297 5.848,3.545 1.572,0.416 3.198,0.513 4.833,0.29 L 1.628,17.836 C 0.391,18.007 -0.835,17.933 -2.018,17.619 -2.792,17.414 -4.848,16.869 -6.294,15.09 -7.995,12.998 -8.358,9.806 -7.178,7.329 -6.423,5.743 -5.067,4.488 -3.257,3.7 -1.26,2.829 0.617,2.991 1.558,3.167 L 2.109,0.193 C 1.516,0.083 0.801,0 0,0"
       style="fill:#3871c1;fill-opacity:1;fill-rule:nonzero;stroke:none"
       transform="matrix(0.80337104,0,0,-0.80337104,114.97881,61.355105)"
       clip-path="url(#clipPath1170-4)" />
  </g>
</svg>
