<?xml version="1.0" encoding="UTF-8" standalone="no"?>
<!-- Created with Inkscape (http://www.inkscape.org/) -->

<svg
   width="132.35277mm"
   height="59.437691mm"
   viewBox="0 0 132.35277 59.43769"
   version="1.1"
   id="svg1"
   inkscape:export-filename="app-mauc-logo.svg"
   inkscape:export-xdpi="96"
   inkscape:export-ydpi="96"
   sodipodi:docname="app-mauc-logo-1.svg"
   inkscape:version="1.3.2 (091e20e, 2023-11-25, custom)"
   xmlns:inkscape="http://www.inkscape.org/namespaces/inkscape"
   xmlns:sodipodi="http://sodipodi.sourceforge.net/DTD/sodipodi-0.dtd"
   xmlns="http://www.w3.org/2000/svg"
   xmlns:svg="http://www.w3.org/2000/svg">
  <sodipodi:namedview
     id="namedview1"
     pagecolor="#ffffff"
     bordercolor="#000000"
     borderopacity="0.25"
     inkscape:showpageshadow="2"
     inkscape:pageopacity="0.0"
     inkscape:pagecheckerboard="0"
     inkscape:deskcolor="#d1d1d1"
     inkscape:document-units="mm"
     inkscape:zoom="2.3227991"
     inkscape:cx="354.52916"
     inkscape:cy="117.31536"
     inkscape:window-width="1920"
     inkscape:window-height="1017"
     inkscape:window-x="-8"
     inkscape:window-y="-8"
     inkscape:window-maximized="1"
     inkscape:current-layer="layer1" />
  <defs
     id="defs1">
    <clipPath
       clipPathUnits="userSpaceOnUse"
       id="clipPath1106">
      <path
         d="M 0,595.276 H 841.89 V 0 H 0 Z"
         transform="translate(-137.03483,-273.12061)"
         id="path1106" />
    </clipPath>
    <clipPath
       clipPathUnits="userSpaceOnUse"
       id="clipPath1108">
      <path
         d="M 0,595.276 H 841.89 V 0 H 0 Z"
         transform="translate(-139.65833,-274.10411)"
         id="path1108" />
    </clipPath>
    <clipPath
       clipPathUnits="userSpaceOnUse"
       id="clipPath1110">
      <path
         d="M 0,595.276 H 841.89 V 0 H 0 Z"
         transform="translate(-140.56883,-275.61331)"
         id="path1110" />
    </clipPath>
    <clipPath
       clipPathUnits="userSpaceOnUse"
       id="clipPath1112">
      <path
         d="M 0,595.276 H 841.89 V 0 H 0 Z"
         transform="translate(-175.6557,-330.03921)"
         id="path1112" />
    </clipPath>
    <clipPath
       clipPathUnits="userSpaceOnUse"
       id="clipPath1114">
      <path
         d="M 0,595.276 H 841.89 V 0 H 0 Z"
         transform="translate(-183.48458,-323.47151)"
         id="path1114" />
    </clipPath>
    <clipPath
       clipPathUnits="userSpaceOnUse"
       id="clipPath1116">
      <path
         d="M 0,595.276 H 841.89 V 0 H 0 Z"
         transform="translate(-183.48458,-318.36641)"
         id="path1116" />
    </clipPath>
    <clipPath
       clipPathUnits="userSpaceOnUse"
       id="clipPath1118">
      <path
         d="M 0,595.276 H 841.89 V 0 H 0 Z"
         transform="translate(-183.48458,-312.75091)"
         id="path1118" />
    </clipPath>
    <clipPath
       clipPathUnits="userSpaceOnUse"
       id="clipPath1120">
      <path
         d="M 0,595.276 H 841.89 V 0 H 0 Z"
         transform="translate(-182.9739,-323.98181)"
         id="path1120" />
    </clipPath>
    <clipPath
       clipPathUnits="userSpaceOnUse"
       id="clipPath1122">
      <path
         d="M 0,595.276 H 841.89 V 0 H 0 Z"
         transform="translate(-182.9739,-318.87731)"
         id="path1122" />
    </clipPath>
    <clipPath
       clipPathUnits="userSpaceOnUse"
       id="clipPath1124">
      <path
         d="M 0,595.276 H 841.89 V 0 H 0 Z"
         transform="translate(-182.9739,-313.26131)"
         id="path1124" />
    </clipPath>
    <clipPath
       clipPathUnits="userSpaceOnUse"
       id="clipPath1126">
      <path
         d="M 0,595.276 H 841.89 V 0 H 0 Z"
         transform="translate(-201.69113,-311.54181)"
         id="path1126" />
    </clipPath>
    <clipPath
       clipPathUnits="userSpaceOnUse"
       id="clipPath1128">
      <path
         d="M 0,595.276 H 841.89 V 0 H 0 Z"
         transform="translate(-203.22248,-311.73621)"
         id="path1128" />
    </clipPath>
    <clipPath
       clipPathUnits="userSpaceOnUse"
       id="clipPath1130-2">
      <path
         d="M 0,595.276 H 841.89 V 0 H 0 Z"
         transform="translate(-163.40378,-287.43121)"
         id="path1130-9" />
    </clipPath>
    <clipPath
       clipPathUnits="userSpaceOnUse"
       id="clipPath1132-3">
      <path
         d="M 0,595.276 H 841.89 V 0 H 0 Z"
         transform="translate(-187.9077,-281.81581)"
         id="path1132-1" />
    </clipPath>
    <clipPath
       clipPathUnits="userSpaceOnUse"
       id="clipPath1134-7">
      <path
         d="M 0,595.276 H 841.89 V 0 H 0 Z"
         transform="translate(-192.5022,-300.19361)"
         id="path1134-7" />
    </clipPath>
    <clipPath
       clipPathUnits="userSpaceOnUse"
       id="clipPath1136-7">
      <path
         d="M 0,595.276 H 841.89 V 0 H 0 Z"
         transform="translate(-180.25013,-292.53631)"
         id="path1136-6" />
    </clipPath>
    <clipPath
       clipPathUnits="userSpaceOnUse"
       id="clipPath1138-1">
      <path
         d="M 0,595.276 H 841.89 V 0 H 0 Z"
         transform="translate(-184.33418,-301.21491)"
         id="path1138-8" />
    </clipPath>
    <clipPath
       clipPathUnits="userSpaceOnUse"
       id="clipPath1140-0">
      <path
         d="M 0,595.276 H 841.89 V 0 H 0 Z"
         transform="translate(-167.9982,-298.66201)"
         id="path1140-2" />
    </clipPath>
    <clipPath
       clipPathUnits="userSpaceOnUse"
       id="clipPath1142-2">
      <path
         d="M 0,595.276 H 841.89 V 0 H 0 Z"
         transform="translate(-175.14533,-300.19361)"
         id="path1142-0" />
    </clipPath>
    <clipPath
       clipPathUnits="userSpaceOnUse"
       id="clipPath1144-4">
      <path
         d="M 0,595.276 H 841.89 V 0 H 0 Z"
         transform="translate(-197.09663,-302.74591)"
         id="path1144-2" />
    </clipPath>
    <clipPath
       clipPathUnits="userSpaceOnUse"
       id="clipPath1146-2">
      <path
         d="M 0,595.276 H 841.89 V 0 H 0 Z"
         transform="translate(-158.80928,-306.57491)"
         id="path1146-5" />
    </clipPath>
    <clipPath
       clipPathUnits="userSpaceOnUse"
       id="clipPath1148-1">
      <path
         d="M 0,595.276 H 841.89 V 0 H 0 Z"
         transform="translate(-203.22271,-305.80911)"
         id="path1148-7" />
    </clipPath>
    <clipPath
       clipPathUnits="userSpaceOnUse"
       id="clipPath1150-9">
      <path
         d="M 0,595.276 H 841.89 V 0 H 0 Z"
         transform="translate(-174.12428,-303.25681)"
         id="path1150-6" />
    </clipPath>
    <clipPath
       clipPathUnits="userSpaceOnUse"
       id="clipPath1152-1">
      <path
         d="M 0,595.276 H 841.89 V 0 H 0 Z"
         transform="translate(-159.31988,-302.23551)"
         id="path1152-6" />
    </clipPath>
    <clipPath
       clipPathUnits="userSpaceOnUse"
       id="clipPath1154-1">
      <path
         d="M 0,595.276 H 841.89 V 0 H 0 Z"
         transform="translate(-236.62741,-302.33651)"
         id="path1154-4" />
    </clipPath>
    <clipPath
       clipPathUnits="userSpaceOnUse"
       id="clipPath1156-4">
      <path
         d="M 0,595.276 H 841.89 V 0 H 0 Z"
         id="path1156-8" />
    </clipPath>
    <clipPath
       clipPathUnits="userSpaceOnUse"
       id="clipPath1158-7">
      <path
         d="M 0,595.276 H 841.89 V 0 H 0 Z"
         transform="translate(-255.56221,-278.18161)"
         id="path1158-1" />
    </clipPath>
    <clipPath
       clipPathUnits="userSpaceOnUse"
       id="clipPath1160-4">
      <path
         d="M 0,595.276 H 841.89 V 0 H 0 Z"
         id="path1160-7" />
    </clipPath>
    <clipPath
       clipPathUnits="userSpaceOnUse"
       id="clipPath1162-9">
      <path
         d="M 0,595.276 H 841.89 V 0 H 0 Z"
         transform="translate(-253.22663,-319.86401)"
         id="path1162-0" />
    </clipPath>
    <clipPath
       clipPathUnits="userSpaceOnUse"
       id="clipPath1164-2">
      <path
         d="M 0,595.276 H 841.89 V 0 H 0 Z"
         transform="translate(-268.12801,-319.86401)"
         id="path1164-5" />
    </clipPath>
    <clipPath
       clipPathUnits="userSpaceOnUse"
       id="clipPath1166-4">
      <path
         d="M 0,595.276 H 841.89 V 0 H 0 Z"
         transform="translate(-275.40473,-277.85761)"
         id="path1166-7" />
    </clipPath>
    <clipPath
       clipPathUnits="userSpaceOnUse"
       id="clipPath1168-9">
      <path
         d="M 0,595.276 H 841.89 V 0 H 0 Z"
         transform="translate(-248.06041,-278.0096)"
         id="path1168-8" />
    </clipPath>
    <clipPath
       clipPathUnits="userSpaceOnUse"
       id="clipPath1170-5">
      <path
         d="M 0,595.276 H 841.89 V 0 H 0 Z"
         transform="translate(-296.05583,-278.09971)"
         id="path1170-8" />
    </clipPath>
  </defs>
  <g
     inkscape:label="Camada 1"
     inkscape:groupmode="layer"
     id="layer1"
     transform="translate(15.142364,5.4770253)">
    <path
       id="path1105"
       d="m 0,0 37.433,-12.782 c 0.935,-0.319 1.95,-0.315 2.882,0.011 l 36.448,12.757 c 1.769,0.619 2.953,2.288 2.953,4.162 v 61.858 c 0,3.111 -3.136,5.244 -6.03,4.101 L 39.935,56.773 c -1.01,-0.399 -2.133,-0.411 -3.152,-0.034 L 2.956,69.267 c -2.88,1.067 -5.941,-1.063 -5.941,-4.135 V 4.173 C -2.985,2.287 -1.785,0.609 0,0"
       style="fill:#4469bb;fill-opacity:1;fill-rule:nonzero;stroke:none"
       transform="matrix(0.53867257,0,0,-0.53867257,12.734699,38.689729)"
       clip-path="url(#clipPath1106)" />
    <path
       id="path1107"
       d="m 0,0 35.123,-11.251 c 0.877,-0.319 1.829,-0.315 2.703,0.011 l 34.199,11.226 c 1.659,0.619 3.281,3.026 3.281,4.899 l -1.021,61.26 c 0,3.112 -2.432,4.594 -5.147,3.451 L 37.47,56.262 C 36.522,55.863 35.469,55.851 34.513,56.228 L 2.774,68.757 C 0.072,69.824 -2.8,67.693 -2.8,64.622 V 4.173 C -2.8,2.287 -1.675,0.609 0,0"
       style="fill:#f57643;fill-opacity:1;fill-rule:nonzero;stroke:none"
       transform="matrix(0.53867257,0,0,-0.53867257,14.147906,38.159946)"
       clip-path="url(#clipPath1108)" />
    <path
       id="path1109"
       d="m 0,0 33.736,-11.251 c 0.843,-0.319 1.757,-0.315 2.597,0.011 l 32.849,11.226 c 1.593,0.619 2.661,2.288 2.661,4.162 v 61.347 c 0,3.112 -2.826,5.244 -5.434,4.101 L 35.991,56.262 C 35.08,55.863 34.069,55.851 33.15,56.228 L 2.664,68.757 C 0.069,69.824 -2.69,67.693 -2.69,64.622 V 4.173 C -2.69,2.287 -1.609,0.609 0,0"
       style="fill:#f7db3d;fill-opacity:1;fill-rule:nonzero;stroke:none"
       transform="matrix(0.53867257,0,0,-0.53867257,14.638366,37.346981)"
       clip-path="url(#clipPath1110)" />
    <path
       id="path1111"
       d="m 0,0 v -65.344 c 0,-0.267 0.256,-0.593 0.51,-0.51 l 34.529,11.364 c 1.628,0.528 2.721,2.055 2.697,3.766 l -0.885,61.961 c -0.045,3.138 -3.285,5.206 -6.15,3.927 L 1.854,2.281 C 0.449,1.653 0,1.539 0,0"
       style="fill:#f7bb44;fill-opacity:1;fill-rule:nonzero;stroke:none"
       transform="matrix(0.53867257,0,0,-0.53867257,33.538704,8.0292428)"
       clip-path="url(#clipPath1112)" />
    <path
       id="path1113"
       d="m 0,0 c -0.501,0 -0.974,0.302 -1.17,0.795 -0.255,0.646 0.061,1.377 0.707,1.633 l 21.65,8.569 c 0.646,0.256 1.377,-0.06 1.632,-0.706 0.256,-0.646 -0.06,-1.377 -0.706,-1.632 L 0.463,0.089 C 0.311,0.029 0.154,0 0,0"
       style="fill:#443314;fill-opacity:1;fill-rule:nonzero;stroke:none"
       transform="matrix(0.53867257,0,0,-0.53867257,37.755904,11.56708)"
       clip-path="url(#clipPath1114)" />
    <path
       id="path1115"
       d="m 0,0 c -0.501,0 -0.974,0.302 -1.17,0.795 -0.255,0.646 0.061,1.377 0.707,1.633 l 21.65,8.569 c 0.646,0.255 1.377,-0.06 1.632,-0.706 0.256,-0.646 -0.06,-1.377 -0.706,-1.632 L 0.463,0.089 C 0.311,0.029 0.154,0 0,0"
       style="fill:#443314;fill-opacity:1;fill-rule:nonzero;stroke:none"
       transform="matrix(0.53867257,0,0,-0.53867257,37.755904,14.317059)"
       clip-path="url(#clipPath1116)" />
    <path
       id="path1117"
       d="m 0,0 c -0.501,0 -0.974,0.302 -1.17,0.795 -0.255,0.646 0.061,1.377 0.707,1.633 l 21.65,8.569 c 0.646,0.256 1.377,-0.06 1.632,-0.706 0.256,-0.646 -0.06,-1.377 -0.706,-1.632 L 0.463,0.089 C 0.311,0.029 0.154,0 0,0"
       style="fill:#443314;fill-opacity:1;fill-rule:nonzero;stroke:none"
       transform="matrix(0.53867257,0,0,-0.53867257,37.755904,17.341974)"
       clip-path="url(#clipPath1118)" />
    <path
       id="path1119"
       d="m 0,0 c -0.501,0 -0.974,0.302 -1.17,0.795 -0.255,0.646 0.061,1.377 0.707,1.633 l 21.65,8.569 c 0.646,0.255 1.377,-0.06 1.633,-0.706 C 23.076,9.645 22.759,8.914 22.114,8.659 L 0.462,0.089 C 0.311,0.029 0.154,0 0,0"
       style="fill:#7f95d3;fill-opacity:1;fill-rule:nonzero;stroke:none"
       transform="matrix(0.53867257,0,0,-0.53867257,37.480817,11.292198)"
       clip-path="url(#clipPath1120)" />
    <path
       id="path1121"
       d="m 0,0 c -0.501,0 -0.974,0.302 -1.17,0.795 -0.255,0.646 0.061,1.377 0.707,1.633 l 21.65,8.569 c 0.646,0.256 1.377,-0.06 1.633,-0.706 C 23.076,9.645 22.759,8.914 22.114,8.659 L 0.462,0.089 C 0.311,0.029 0.154,0 0,0"
       style="fill:#7f95d3;fill-opacity:1;fill-rule:nonzero;stroke:none"
       transform="matrix(0.53867257,0,0,-0.53867257,37.480817,14.04185)"
       clip-path="url(#clipPath1122)" />
    <path
       id="path1123"
       d="m 0,0 c -0.501,0 -0.974,0.302 -1.17,0.795 -0.255,0.646 0.061,1.377 0.707,1.633 l 21.65,8.569 c 0.646,0.255 1.377,-0.06 1.633,-0.706 C 23.076,9.645 22.759,8.914 22.114,8.659 L 0.462,0.089 C 0.311,0.029 0.154,0 0,0"
       style="fill:#7f95d3;fill-opacity:1;fill-rule:nonzero;stroke:none"
       transform="matrix(0.53867257,0,0,-0.53867257,37.480817,17.067037)"
       clip-path="url(#clipPath1124)" />
    <path
       id="path1125"
       d="m 0,0 h -1.319 c -0.922,1.423 -2.463,2.406 -4.244,2.564 -0.77,1.538 -2.215,2.678 -3.95,3.022 v 3.255 c 0,3.126 -2.534,5.659 -5.66,5.659 -3.126,0 -5.66,-2.533 -5.66,-5.659 V 7.942 c -0.602,0.219 -1.249,0.344 -1.927,0.344 -3.126,0 -5.659,-2.534 -5.659,-5.659 v -0.07 c -0.444,-0.047 -0.869,-0.15 -1.276,-0.293 -0.724,1.69 -2.248,2.956 -4.095,3.323 v 4.807 c 0,3.126 -2.534,5.66 -5.66,5.66 -3.126,0 -5.66,-2.534 -5.66,-5.66 V 3.907 c -1.594,-0.474 -2.891,-1.63 -3.558,-3.13 h -5.955 c -3.126,0 -5.66,-2.534 -5.66,-5.66 0,-3.126 2.534,-5.659 5.66,-5.659 h 5.612 c 0.453,-1.995 1.957,-3.588 3.901,-4.166 v -9.595 c 0,-3.126 2.534,-5.66 5.66,-5.66 3.126,0 5.66,2.534 5.66,5.66 v 5.843 c 1.36,0.271 2.541,1.03 3.361,2.086 0.613,-0.32 1.29,-0.533 2.01,-0.609 v -2.142 c 0,-3.125 2.533,-5.659 5.659,-5.659 0.678,0 1.325,0.125 1.927,0.343 V -30 c 0,-3.126 2.534,-5.66 5.66,-5.66 3.126,0 5.66,2.534 5.66,5.66 v 13.094 c 1.528,0.304 2.832,1.224 3.648,2.49 2.119,0.075 3.938,1.312 4.842,3.097 H 0 c 3.126,0 5.66,2.534 5.66,5.659 C 5.66,-2.534 3.126,0 0,0"
       style="fill:#d76626;fill-opacity:1;fill-rule:nonzero;stroke:none"
       transform="matrix(0.53867257,0,0,-0.53867257,47.563274,17.993285)"
       clip-path="url(#clipPath1126)" />
    <path
       id="path1127"
       d="m 0,0 h -1.667 c -0.88,1.49 -2.481,2.499 -4.326,2.546 -0.732,1.638 -2.287,2.825 -4.142,3.034 v 3.534 c 0,2.861 -2.319,5.18 -5.18,5.18 -2.861,0 -5.18,-2.319 -5.18,-5.18 V 7.537 c -0.736,0.402 -1.58,0.631 -2.477,0.631 -2.861,0 -5.18,-2.319 -5.18,-5.18 v -0.44 c -0.77,-0.011 -1.497,-0.192 -2.15,-0.503 -0.619,1.893 -2.298,3.306 -4.337,3.535 v 5.065 c 0,2.861 -2.319,5.18 -5.18,5.18 -2.861,0 -5.18,-2.319 -5.18,-5.18 v -6.68 c -1.716,-0.37 -3.113,-1.591 -3.733,-3.199 h -6.402 c -2.86,0 -5.179,-2.319 -5.179,-5.18 0,-2.861 2.319,-5.18 5.179,-5.18 h 6.126 c 0.343,-2.101 1.945,-3.776 4.009,-4.221 v -9.743 c 0,-2.861 2.319,-5.18 5.18,-5.18 2.861,0 5.18,2.319 5.18,5.18 v 6.086 c 1.575,0.178 2.934,1.061 3.757,2.326 0.789,-0.51 1.724,-0.811 2.73,-0.825 v -2.482 c 0,-2.861 2.319,-5.18 5.18,-5.18 0.897,0 1.741,0.229 2.477,0.631 v -6.171 c 0,-2.861 2.319,-5.18 5.18,-5.18 2.861,0 5.18,2.319 5.18,5.18 v 13.233 c 1.655,0.186 3.071,1.153 3.877,2.524 0.044,-10e-4 0.088,-0.007 0.132,-0.007 2.106,0 3.915,1.259 4.725,3.063 H 0 c 2.861,0 5.18,2.319 5.18,5.18 C 5.18,-2.319 2.861,0 0,0"
       style="fill:#f5772a;fill-opacity:1;fill-rule:nonzero;stroke:none"
       transform="matrix(0.53867257,0,0,-0.53867257,48.388171,17.888566)"
       clip-path="url(#clipPath1128)" />
    <path
       id="path1129-6"
       d="m 0,0 c -0.695,0 -1.258,0.563 -1.258,1.258 v 34.203 c 0,0.695 0.563,1.258 1.258,1.258 0.695,0 1.258,-0.563 1.258,-1.258 V 1.258 C 1.258,0.563 0.695,0 0,0"
       style="fill:#4850a7;fill-opacity:1;fill-rule:nonzero;stroke:none"
       transform="matrix(0.53867257,0,0,-0.53867257,26.938929,30.981002)"
       clip-path="url(#clipPath1130-2)" />
    <path
       id="path1131-3"
       d="m 0,0 c -0.695,0 -1.258,0.563 -1.258,1.258 v 38.287 c 0,0.695 0.563,1.258 1.258,1.258 0.695,0 1.258,-0.563 1.258,-1.258 V 1.258 C 1.258,0.563 0.695,0 0,0"
       style="fill:#4850a7;fill-opacity:1;fill-rule:nonzero;stroke:none"
       transform="matrix(0.53867257,0,0,-0.53867257,40.138521,34.005864)"
       clip-path="url(#clipPath1132-3)" />
    <path
       id="path1133-2"
       d="m 0,0 c -0.695,0 -1.258,0.563 -1.258,1.258 v 11.231 c 0,0.694 0.563,1.257 1.258,1.257 0.695,0 1.258,-0.563 1.258,-1.257 V 1.258 C 1.258,0.563 0.695,0 0,0"
       style="fill:#82b7e6;fill-opacity:1;fill-rule:nonzero;stroke:none"
       transform="matrix(0.53867257,0,0,-0.53867257,42.613452,24.106247)"
       clip-path="url(#clipPath1134-7)" />
    <path
       id="path1135-7"
       d="m 0,0 c -0.695,0 -1.258,0.563 -1.258,1.258 v 21.441 c 0,0.694 0.563,1.257 1.258,1.257 0.695,0 1.258,-0.563 1.258,-1.257 V 1.258 C 1.258,0.563 0.695,0 0,0"
       style="fill:#4850a7;fill-opacity:1;fill-rule:nonzero;stroke:none"
       transform="matrix(0.53867257,0,0,-0.53867257,36.013594,28.231023)"
       clip-path="url(#clipPath1136-7)" />
    <path
       id="path1137-3"
       d="m 0,0 c -0.695,0 -1.258,0.563 -1.258,1.258 v 7.657 c 0,0.695 0.563,1.258 1.258,1.258 0.695,0 1.258,-0.563 1.258,-1.258 V 1.258 C 1.258,0.563 0.695,0 0,0"
       style="fill:#82b7e6;fill-opacity:1;fill-rule:nonzero;stroke:none"
       transform="matrix(0.53867257,0,0,-0.53867257,38.213561,23.556102)"
       clip-path="url(#clipPath1138-1)" />
    <path
       id="path1139-1"
       d="M 0,0 C -0.695,0 -1.258,0.563 -1.258,1.258 V 14.02 c 0,0.695 0.563,1.258 1.258,1.258 0.695,0 1.258,-0.563 1.258,-1.258 V 1.258 C 1.258,0.563 0.695,0 0,0"
       style="fill:#82b7e6;fill-opacity:1;fill-rule:nonzero;stroke:none"
       transform="matrix(0.53867257,0,0,-0.53867257,29.413818,24.931278)"
       clip-path="url(#clipPath1140-0)" />
    <path
       id="path1141-7"
       d="m 0,0 c -0.695,0 -1.258,0.563 -1.258,1.258 v 8.168 c 0,0.695 0.563,1.258 1.258,1.258 0.695,0 1.258,-0.563 1.258,-1.258 V 1.258 C 1.258,0.563 0.695,0 0,0"
       style="fill:#82b7e6;fill-opacity:1;fill-rule:nonzero;stroke:none"
       transform="matrix(0.53867257,0,0,-0.53867257,33.263778,24.106247)"
       clip-path="url(#clipPath1142-2)" />
    <path
       id="path1143-3"
       d="m 0,0 c -0.695,0 -1.258,0.563 -1.258,1.258 v 5.616 c 0,0.694 0.563,1.257 1.258,1.257 0.695,0 1.258,-0.563 1.258,-1.257 V 1.258 C 1.258,0.563 0.695,0 0,0"
       style="fill:#4850a7;fill-opacity:1;fill-rule:nonzero;stroke:none"
       transform="matrix(0.53867257,0,0,-0.53867257,45.088343,22.731392)"
       clip-path="url(#clipPath1144-4)" />
    <path
       id="path1145-9"
       d="m 0,0 h -10.721 c -0.694,0 -1.257,0.563 -1.257,1.258 0,0.694 0.563,1.257 1.257,1.257 L 0,2.515 C 0.695,2.515 1.258,1.952 1.258,1.258 1.258,0.563 0.695,0 0,0"
       style="fill:#4850a7;fill-opacity:1;fill-rule:nonzero;stroke:none"
       transform="matrix(0.53867257,0,0,-0.53867257,24.463998,20.668815)"
       clip-path="url(#clipPath1146-2)" />
    <path
       id="path1147-2"
       d="m 0,0 h -5.616 c -0.694,0 -1.257,0.563 -1.257,1.258 0,0.694 0.563,1.257 1.257,1.257 L 0,2.515 C 0.695,2.515 1.258,1.952 1.258,1.258 1.258,0.563 0.695,0 0,0"
       style="fill:#4850a7;fill-opacity:1;fill-rule:nonzero;stroke:none"
       transform="matrix(0.53867257,0,0,-0.53867257,48.388293,21.081332)"
       clip-path="url(#clipPath1148-1)" />
    <path
       id="path1149-9"
       d="m 0,0 h -5.615 c -0.695,0 -1.258,0.563 -1.258,1.258 0,0.694 0.563,1.257 1.258,1.257 L 0,2.515 C 0.695,2.515 1.258,1.952 1.258,1.258 1.258,0.563 0.695,0 0,0"
       style="fill:#82b7e6;fill-opacity:1;fill-rule:nonzero;stroke:none"
       transform="matrix(0.53867257,0,0,-0.53867257,32.713768,22.456185)"
       clip-path="url(#clipPath1150-9)" />
    <path
       id="path1151-8"
       d="m 0,0 c -0.695,0 -1.258,0.563 -1.258,1.258 v 7.657 c 0,0.695 0.563,1.258 1.258,1.258 0.695,0 1.258,-0.563 1.258,-1.258 V 1.258 C 1.258,0.563 0.695,0 0,0"
       style="fill:#4850a7;fill-opacity:1;fill-rule:nonzero;stroke:none"
       transform="matrix(0.53867257,0,0,-0.53867257,24.739044,23.006334)"
       clip-path="url(#clipPath1152-1)" />
    <path
       id="path1153-5"
       d="M 0,0 -2.949,0.666 1.635,20.97 H 5.946 L 10.582,0.814 7.635,0.137 3.798,16.819 Z"
       style="fill:#3871c1;fill-opacity:1;fill-rule:nonzero;stroke:none"
       transform="matrix(0.77162253,0,0,-0.77162253,69.746185,22.261542)"
       clip-path="url(#clipPath1154-1)" />
    <path
       id="path1155-7"
       d="m 244.075,306.9 h -7.166 v 3.024 h 7.166 z"
       style="fill:#3871c1;fill-opacity:1;fill-rule:nonzero;stroke:none"
       transform="matrix(0.77162253,0,0,-0.77162253,-112.84085,255.55122)"
       clip-path="url(#clipPath1156-4)" />
    <path
       id="path1157-1"
       d="M 0,0 -2.949,0.666 1.636,20.97 h 4.31 L 10.582,0.814 7.635,0.137 3.798,16.818 Z"
       style="fill:#3871c1;fill-opacity:1;fill-rule:nonzero;stroke:none"
       transform="matrix(0.77162253,0,0,-0.77162253,84.356702,40.900003)"
       clip-path="url(#clipPath1158-7)" />
    <path
       id="path1159-4"
       d="m 263.009,282.745 h -7.166 v 3.024 h 7.166 z"
       style="fill:#3871c1;fill-opacity:1;fill-rule:nonzero;stroke:none"
       transform="matrix(0.77162253,0,0,-0.77162253,-112.84085,255.55122)"
       clip-path="url(#clipPath1160-4)" />
    <path
       id="path1161-9"
       d="m 0,0 v -10.201 c 1.05,0.052 2.078,0.292 3.001,0.701 0.959,0.426 2.408,1.067 3.027,2.465 0.722,1.63 -0.153,3.318 -0.438,3.796 -1.017,1.703 -3.013,2.397 -4.471,2.903 l -0.09,0.032 C 0.692,-0.187 0.349,-0.086 0,0 M 0,-17.527 H -3.024 V 3.455 l 1.66,-0.163 C -0.203,3.179 0.936,2.929 2.022,2.551 L 2.111,2.52 C 3.792,1.936 6.605,0.959 8.186,-1.69 8.66,-2.484 10.103,-5.303 8.792,-8.26 7.7,-10.724 5.354,-11.764 4.226,-12.263 2.922,-12.842 1.471,-13.172 0,-13.228 Z"
       style="fill:#3871c1;fill-opacity:1;fill-rule:nonzero;stroke:none"
       transform="matrix(0.77162253,0,0,-0.77162253,82.55452,8.7369258)"
       clip-path="url(#clipPath1162-9)" />
    <path
       id="path1163-4"
       d="m 0,0 v -10.201 c 1.05,0.052 2.077,0.292 3,0.701 0.96,0.426 2.409,1.068 3.028,2.465 0.722,1.63 -0.153,3.318 -0.438,3.796 -1.017,1.703 -3.013,2.397 -4.471,2.903 l -0.09,0.032 C 0.692,-0.187 0.349,-0.086 0,0 M 0,-17.527 H -3.024 V 3.455 l 1.66,-0.163 C -0.203,3.179 0.936,2.929 2.022,2.551 L 2.111,2.52 C 3.792,1.936 6.605,0.959 8.186,-1.69 8.66,-2.484 10.102,-5.302 8.792,-8.26 7.7,-10.724 5.354,-11.764 4.226,-12.263 2.921,-12.842 1.471,-13.172 0,-13.228 Z"
       style="fill:#3871c1;fill-opacity:1;fill-rule:nonzero;stroke:none"
       transform="matrix(0.77162253,0,0,-0.77162253,94.05276,8.7369258)"
       clip-path="url(#clipPath1164-2)" />
    <path
       id="path1165-4"
       d="M 0,0 C -1.578,0 -2.829,0.547 -3.305,0.789 -3.998,1.142 -6.308,2.508 -6.94,5.26 -7.083,5.878 -7.127,6.519 -7.074,7.164 L -7.2,21.192 -4.176,21.218 -4.049,7.038 -4.057,6.959 C -4.09,6.61 -4.069,6.265 -3.993,5.936 -3.646,4.423 -2.216,3.627 -1.933,3.483 -1.628,3.329 -0.028,2.595 1.58,3.394 2.927,4.063 3.435,5.347 3.575,5.793 L 3.778,6.695 V 21.142 H 6.802 L 6.765,6.194 6.486,4.974 C 6.279,4.28 5.412,1.921 2.925,0.686 1.899,0.176 0.897,0 0,0"
       style="fill:#3871c1;fill-opacity:1;fill-rule:nonzero;stroke:none"
       transform="matrix(0.77162253,0,0,-0.77162253,99.66765,41.150009)"
       clip-path="url(#clipPath1166-4)" />
    <path
       id="path1167-0"
       d="m 0,0 -3.982,16.884 -2.101,-8.32 h -3.534 l -1.944,8.91 -4.099,-17.24 -2.942,0.7 4.82,20.273 4.516,-0.068 1.502,-6.882 1.747,6.916 h 4.129 L 2.943,0.694 Z"
       style="fill:#3871c1;fill-opacity:1;fill-rule:nonzero;stroke:none"
       transform="matrix(0.77162253,0,0,-0.77162253,78.568144,41.032728)"
       clip-path="url(#clipPath1168-9)" />
    <path
       id="path1169-1"
       d="m 0,0 c -1.311,0 -2.852,0.224 -4.465,0.928 -2.487,1.084 -4.369,2.847 -5.443,5.101 -1.69,3.547 -1.181,7.956 1.267,10.968 2.067,2.543 4.913,3.297 5.848,3.545 1.572,0.416 3.198,0.513 4.833,0.29 L 1.628,17.836 C 0.391,18.007 -0.835,17.933 -2.018,17.619 -2.792,17.414 -4.848,16.869 -6.294,15.09 -7.995,12.998 -8.358,9.806 -7.178,7.329 -6.423,5.743 -5.067,4.488 -3.257,3.7 -1.26,2.829 0.617,2.991 1.558,3.167 L 2.109,0.193 C 1.516,0.083 0.801,0 0,0"
       style="fill:#3871c1;fill-opacity:1;fill-rule:nonzero;stroke:none"
       transform="matrix(0.77162253,0,0,-0.77162253,115.60255,40.9632)"
       clip-path="url(#clipPath1170-5)" />
  </g>
</svg>
