<svg width="320" height="353" viewBox="0 0 320 353" fill="none" xmlns="http://www.w3.org/2000/svg">
<path d="M90.5574 307.063V209.631C90.558 207.021 91.4361 204.486 93.0506 202.434C94.6652 200.382 96.9224 198.933 99.4598 198.319C115.412 194.468 131.758 192.489 148.168 192.422C164.657 192.496 181.074 194.614 197.042 198.727C199.53 199.382 201.731 200.842 203.301 202.88C204.871 204.917 205.723 207.417 205.722 209.99V339.76" fill="#FFFEFC"/>
<mask id="mask0_840_12658" style="mask-type:luminance" maskUnits="userSpaceOnUse" x="90" y="192" width="116" height="148">
<path d="M90.5591 307.063V209.631C90.5597 207.021 91.4378 204.486 93.0524 202.434C94.6669 200.382 96.9241 198.933 99.4615 198.319C115.414 194.468 131.76 192.489 148.17 192.422C164.659 192.496 181.076 194.614 197.044 198.727C199.531 199.382 201.732 200.842 203.303 202.88C204.873 204.917 205.724 207.417 205.724 209.99V339.76" fill="white"/>
</mask>
<g mask="url(#mask0_840_12658)">
<path opacity="0.4" d="M203.744 203.491C184.203 223.003 126.886 219.653 126.886 219.653L90.5591 292.307V209.631C90.5597 207.021 91.4378 204.486 93.0524 202.434C94.6669 200.382 96.9241 198.933 99.4615 198.319C115.414 194.468 131.76 192.489 148.17 192.422C164.659 192.496 181.076 194.614 197.044 198.727C199.784 199.442 202.168 201.137 203.744 203.491Z" fill="#A57C52"/>
<path opacity="0.4" d="M205.724 231.74C205.724 231.74 201.42 229.151 191.786 239.366C182.152 249.581 182.704 260.169 181.284 270.212C179.863 280.255 170.229 282.723 167.51 291.546C164.792 300.37 160.265 308.892 168.78 317.687C177.295 326.482 195.516 338.124 205.703 335.284L205.724 231.74Z" fill="#A57C52"/>
</g>
<path d="M90.5574 307.063V209.631C90.558 207.021 91.4361 204.486 93.0506 202.434C94.6652 200.382 96.9224 198.933 99.4598 198.319C115.412 194.468 131.758 192.489 148.168 192.422C164.657 192.496 181.074 194.614 197.042 198.727C199.53 199.382 201.731 200.842 203.301 202.88C204.871 204.917 205.723 207.417 205.722 209.99V339.76" stroke="#1C1B1F" stroke-linecap="round" stroke-linejoin="round"/>
<path d="M130.542 195.284C135.246 197.757 140.465 199.091 145.778 199.179C151.125 199.081 156.377 197.748 161.123 195.284" stroke="#1C1B1F" stroke-linecap="round" stroke-linejoin="round"/>
<path opacity="0.3" d="M124.01 144.904C124.078 144.715 124.167 144.535 124.276 144.366L124.01 144.904Z" fill="#1C1B1F"/>
<path d="M117.793 170.148C117.793 165.836 118.528 161.697 119.997 157.733C121.536 153.768 123.81 150.22 126.818 147.09C129.896 144.03 133.709 141.595 138.256 139.787C142.804 137.978 148.156 137.074 154.312 137.074C160.329 137.074 165.611 137.978 170.158 139.787C174.705 141.595 178.483 144.065 181.491 147.195C184.57 150.325 186.878 153.872 188.417 157.837C189.957 161.802 190.726 165.905 190.726 170.148C190.726 174.461 189.957 178.565 188.417 182.46C186.948 186.425 184.71 189.972 181.701 193.102C178.693 196.232 174.88 198.701 170.263 200.51C165.716 202.318 160.399 203.223 154.312 203.223C148.226 203.223 142.909 202.318 138.361 200.51C133.814 198.701 130.001 196.232 126.923 193.102C123.915 190.042 121.641 186.529 120.102 182.564C118.563 178.6 117.793 174.461 117.793 170.148ZM123.88 170.148C123.88 173.696 125.209 176.513 127.867 178.6C130.526 180.756 134.129 182.321 138.676 183.295C143.293 184.268 148.505 184.755 154.312 184.755C160.119 184.755 165.296 184.268 169.843 183.295C174.391 182.321 177.993 180.756 180.652 178.6C183.31 176.513 184.64 173.696 184.64 170.148C184.64 166.671 183.31 163.854 180.652 161.697C177.993 159.541 174.391 157.976 169.843 157.002C165.296 156.028 160.119 155.541 154.312 155.541C148.505 155.541 143.293 156.028 138.676 157.002C134.129 157.976 130.526 159.541 127.867 161.697C125.209 163.854 123.88 166.671 123.88 170.148Z" fill="#707070"/>
<path d="M164.966 112.872H163.338C163.311 114.561 163.284 116.25 163.257 117.939C163.257 119.601 163.257 121.195 163.257 122.721H164.803C166.16 122.721 167.218 122.489 167.978 122.026C168.737 121.563 169.28 120.95 169.606 120.187C169.931 119.424 170.094 118.607 170.094 117.735C170.094 114.493 168.385 112.872 164.966 112.872ZM153.408 112.709V110.502H166.635C169.836 110.502 172.291 111.101 174.001 112.3C175.737 113.499 176.605 115.161 176.605 117.286C176.605 118.185 176.375 119.084 175.913 119.983C175.452 120.854 174.693 121.631 173.634 122.312C172.576 122.966 171.138 123.443 169.321 123.742C170.867 123.933 172.074 124.314 172.943 124.886C173.811 125.431 174.462 126.153 174.896 127.052C175.33 127.924 175.642 129 175.832 130.281L176.605 134.817L179.698 135.144V137.35C179.047 137.487 178.504 137.596 178.07 137.677C177.636 137.786 177.202 137.854 176.768 137.882C176.361 137.909 175.846 137.922 175.222 137.922C173.485 137.922 172.115 137.623 171.111 137.023C170.135 136.424 169.538 135.334 169.321 133.754L168.588 129.014C168.398 127.652 168.005 126.644 167.408 125.99C166.838 125.336 165.943 125.009 164.722 125.009H163.257C163.257 126.753 163.257 128.428 163.257 130.035C163.284 131.643 163.311 133.237 163.338 134.817L166.513 135.144V137.35H153.408V135.144L156.461 134.817C156.515 133.155 156.542 131.479 156.542 129.79C156.542 128.101 156.542 126.398 156.542 124.682V123.17C156.542 121.481 156.542 119.792 156.542 118.103C156.542 116.387 156.515 114.697 156.461 113.036L153.408 112.709Z" fill="#707070"/>
<path d="M156.903 93.2275L156.903 95.6605C159.393 95.7011 161.883 95.7416 164.373 95.7822C166.823 95.7822 169.172 95.7822 171.422 95.7822L171.422 93.4708C171.422 91.4433 171.08 89.8618 170.397 88.7264C169.715 87.591 168.811 86.78 167.686 86.2934C166.562 85.8068 165.357 85.5635 164.072 85.5635C159.292 85.5635 156.903 88.1182 156.903 93.2275ZM156.662 110.502L153.408 110.502L153.408 90.7337C153.408 85.9487 154.292 82.2789 156.059 79.7243C157.826 77.129 160.276 75.8314 163.409 75.8314C164.734 75.8314 166.06 76.1761 167.385 76.8655C168.67 77.5548 169.815 78.6902 170.819 80.2717C171.783 81.8531 172.486 84.0023 172.928 86.7192C173.209 84.4078 173.771 82.6033 174.614 81.3057C175.418 80.0081 176.482 79.0349 177.807 78.3861C179.093 77.7373 180.679 77.271 182.567 76.9871L189.254 75.8314L189.736 71.2087L192.989 71.2087C193.19 72.1819 193.351 72.9929 193.471 73.6417C193.632 74.2905 193.732 74.9393 193.772 75.5881C193.812 76.1964 193.832 76.9668 193.832 77.8995C193.832 80.4947 193.391 82.5425 192.507 84.0429C191.623 85.5027 190.017 86.3948 187.688 86.7192L180.699 87.814C178.691 88.0979 177.205 88.6859 176.241 89.578C175.277 90.4295 174.795 91.7677 174.795 93.5925L174.795 95.7822C177.366 95.7822 179.836 95.7822 182.205 95.7822C184.575 95.7416 186.924 95.7011 189.254 95.6605L189.736 90.9161L192.989 90.9161L192.989 110.502L189.736 110.502L189.254 105.94C186.804 105.859 184.334 105.818 181.844 105.818C179.354 105.818 176.844 105.818 174.313 105.818L172.084 105.818C169.594 105.818 167.104 105.818 164.614 105.818C162.084 105.818 159.594 105.859 157.144 105.94L156.662 110.502Z" fill="#707070"/>
<path d="M123.162 28.7941V24.5654H162.896L163.441 38.0345H156.975L155.416 28.9507H142.406C142.354 31.9264 142.302 34.9283 142.25 37.9562C142.25 40.9841 142.25 44.0382 142.25 47.1183H150.664L151.599 41.0102H156.118V57.8466H151.599L150.664 51.7385H142.25C142.25 55.3407 142.25 58.7602 142.25 61.9969C142.302 65.2337 142.354 68.4443 142.406 71.6289H156.975L158.533 62.5451H164.999L164.454 76.0142H123.162V71.7855L129.005 71.159C129.109 67.9745 129.161 64.7638 129.161 61.5271C129.161 58.2903 129.161 55.0275 129.161 51.7385V48.8411C129.161 45.6043 129.161 42.3676 129.161 39.1308C129.161 35.8419 129.109 32.6051 129.005 29.4206L123.162 28.7941Z" fill="#707070"/>
<path d="M116.66 169.583C116.66 165.27 117.394 161.132 118.863 157.167C120.403 153.202 122.676 149.655 125.684 146.525C128.763 143.464 132.575 141.03 137.123 139.221C141.67 137.413 147.022 136.509 153.179 136.509C159.195 136.509 164.477 137.413 169.024 139.221C173.572 141.03 177.35 143.499 180.358 146.629C183.436 149.759 185.745 153.307 187.284 157.271C188.823 161.236 189.593 165.34 189.593 169.583C189.593 173.895 188.823 177.999 187.284 181.895C185.815 185.859 183.576 189.407 180.568 192.537C177.559 195.667 173.747 198.136 169.129 199.944C164.582 201.753 159.265 202.657 153.179 202.657C147.092 202.657 141.775 201.753 137.228 199.944C132.68 198.136 128.868 195.667 125.789 192.537C122.781 189.476 120.507 185.964 118.968 181.999C117.429 178.034 116.66 173.895 116.66 169.583ZM122.746 169.583C122.746 173.13 124.075 175.947 126.734 178.034C129.392 180.19 132.995 181.755 137.543 182.729C142.16 183.703 147.372 184.19 153.179 184.19C158.985 184.19 164.162 183.703 168.71 182.729C173.257 181.755 176.86 180.19 179.518 178.034C182.177 175.947 183.506 173.13 183.506 169.583C183.506 166.105 182.177 163.288 179.518 161.132C176.86 158.976 173.257 157.411 168.71 156.437C164.162 155.463 158.985 154.976 153.179 154.976C147.372 154.976 142.16 155.463 137.543 156.437C132.995 157.411 129.392 158.976 126.734 161.132C124.075 163.288 122.746 166.105 122.746 169.583Z" fill="#A57C52"/>
<path d="M163.838 112.307H162.21C162.183 113.996 162.156 115.685 162.129 117.374C162.129 119.036 162.129 120.63 162.129 122.155H163.675C165.032 122.155 166.09 121.924 166.849 121.46C167.609 120.997 168.152 120.384 168.477 119.622C168.803 118.859 168.965 118.041 168.965 117.17C168.965 113.928 167.256 112.307 163.838 112.307ZM152.28 112.143V109.937H165.506C168.708 109.937 171.163 110.536 172.872 111.735C174.609 112.933 175.477 114.595 175.477 116.72C175.477 117.619 175.246 118.518 174.785 119.417C174.324 120.289 173.564 121.065 172.506 121.747C171.448 122.4 170.01 122.877 168.192 123.177C169.739 123.368 170.946 123.749 171.814 124.321C172.682 124.866 173.334 125.588 173.768 126.487C174.202 127.359 174.514 128.435 174.704 129.715L175.477 134.251L178.57 134.578V136.785C177.919 136.921 177.376 137.03 176.942 137.112C176.508 137.221 176.074 137.289 175.64 137.316C175.233 137.343 174.717 137.357 174.093 137.357C172.357 137.357 170.987 137.057 169.983 136.458C169.006 135.859 168.409 134.769 168.192 133.189L167.46 128.448C167.27 127.086 166.876 126.078 166.28 125.424C165.71 124.771 164.814 124.444 163.594 124.444H162.129C162.129 126.187 162.129 127.863 162.129 129.47C162.156 131.077 162.183 132.671 162.21 134.251L165.384 134.578V136.785H152.28V134.578L155.332 134.251C155.387 132.589 155.414 130.914 155.414 129.225C155.414 127.536 155.414 125.833 155.414 124.117V122.605C155.414 120.916 155.414 119.227 155.414 117.537C155.414 115.821 155.387 114.132 155.332 112.47L152.28 112.143Z" fill="#A57C52"/>
<path d="M155.774 92.6621L155.774 95.0951C158.264 95.1357 160.754 95.1762 163.245 95.2168C165.694 95.2168 168.044 95.2168 170.293 95.2168L170.293 92.9054C170.293 90.8779 169.952 89.2964 169.269 88.161C168.586 87.0256 167.683 86.2146 166.558 85.728C165.433 85.2414 164.229 84.9981 162.943 84.9981C158.164 84.9981 155.774 87.5527 155.774 92.6621ZM155.533 109.937L152.28 109.937L152.28 90.1682C152.28 85.3833 153.164 81.7135 154.931 79.1588C156.698 76.5636 159.148 75.266 162.281 75.266C163.606 75.266 164.931 75.6107 166.257 76.3C167.542 76.9894 168.687 78.1248 169.691 79.7063C170.655 81.2877 171.357 83.4369 171.799 86.1538C172.08 83.8424 172.643 82.0379 173.486 80.7403C174.289 79.4427 175.354 78.4695 176.679 77.8207C177.964 77.1719 179.551 76.7055 181.438 76.4217L188.125 75.266L188.607 70.6433L191.861 70.6433C192.061 71.6165 192.222 72.4275 192.343 73.0763C192.503 73.7251 192.604 74.3739 192.644 75.0227C192.684 75.6309 192.704 76.4014 192.704 77.3341C192.704 79.9293 192.262 81.9771 191.379 83.4774C190.495 84.9372 188.889 85.8294 186.559 86.1538L179.571 87.2486C177.563 87.5325 176.077 88.1204 175.113 89.0126C174.149 89.8641 173.667 91.2023 173.667 93.027L173.667 95.2168C176.237 95.2168 178.707 95.2168 181.077 95.2168C183.446 95.1762 185.796 95.1357 188.125 95.0951L188.607 90.3507L191.861 90.3507L191.861 109.937L188.607 109.937L188.125 105.375C185.676 105.294 183.205 105.253 180.715 105.253C178.225 105.253 175.715 105.253 173.185 105.253L170.956 105.253C168.466 105.253 165.976 105.253 163.485 105.253C160.955 105.253 158.465 105.294 156.015 105.375L155.533 109.937Z" fill="#A57C52"/>
<path d="M122.033 28.2287V24H161.767L162.313 37.4691H155.846L154.288 28.3853H141.277C141.225 31.361 141.173 34.3628 141.121 37.3908C141.121 40.4187 141.121 43.4727 141.121 46.5529H149.536L150.47 40.4448H154.989V57.2811H150.47L149.536 51.1731H141.121C141.121 54.7753 141.121 58.1947 141.121 61.4315C141.173 64.6683 141.225 67.8789 141.277 71.0635H155.846L157.404 61.9797H163.871L163.326 75.4487H122.033V71.2201L127.877 70.5936C127.981 67.409 128.032 64.1984 128.032 60.9616C128.032 57.7249 128.032 54.462 128.032 51.1731V48.2757C128.032 45.0389 128.032 41.8021 128.032 38.5654C128.032 35.2764 127.981 32.0397 127.877 28.8551L122.033 28.2287Z" fill="#A57C52"/>
<path d="M44.5798 275.054C44.5798 274.222 44.5798 273.39 44.5798 272.558" stroke="#1C1B1F" stroke-linecap="round" stroke-linejoin="round"/>
<path d="M47.9878 282.651V285.312" stroke="#1C1B1F" stroke-linecap="round" stroke-linejoin="round"/>
<path d="M48.0139 274.832C48.0139 276.668 48.0139 278.505 48.0139 280.341" stroke="#1C1B1F" stroke-linecap="round" stroke-linejoin="round"/>
<path d="M48.0591 246.424C48.0591 254.554 48.0591 262.684 48.0591 270.814" stroke="#1C1B1F" stroke-linecap="round" stroke-linejoin="round"/>
<path d="M251.698 275.054C251.698 274.222 251.698 273.39 251.698 272.558" stroke="#1C1B1F" stroke-linecap="round" stroke-linejoin="round"/>
<path d="M248.288 282.651V285.312" stroke="#1C1B1F" stroke-linecap="round" stroke-linejoin="round"/>
<path d="M248.26 274.832C248.26 276.668 248.26 278.505 248.26 280.341" stroke="#1C1B1F" stroke-linecap="round" stroke-linejoin="round"/>
<path d="M248.219 246.424C248.219 254.554 248.219 262.684 248.219 270.814" stroke="#1C1B1F" stroke-linecap="round" stroke-linejoin="round"/>
<path d="M253.304 228.512C253.304 228.512 260.112 238.139 272.787 239.365" stroke="#1C1B1F" stroke-linecap="round" stroke-linejoin="round"/>
<path d="M258.059 237.967C260.979 240.534 264.427 242.429 268.159 243.519" stroke="#1C1B1F" stroke-linecap="round" stroke-linejoin="round"/>
<path d="M253.304 232.608C253.893 233.485 254.535 234.326 255.226 235.126" stroke="#1C1B1F" stroke-linecap="round" stroke-linejoin="round"/>
<path d="M246.49 231.202C244.604 231.833 242.674 232.357 240.752 232.83" stroke="#1C1B1F" stroke-linecap="round" stroke-linejoin="round"/>
<path d="M20.0227 284.853V238.354C20.0227 237.403 20.4006 236.49 21.0732 235.818C21.7459 235.145 22.6582 234.767 23.6095 234.767C24.5608 234.767 25.4731 235.145 26.1457 235.818C26.8184 236.49 27.1963 237.403 27.1963 238.354V289.157" fill="#A0A0A0"/>
<mask id="mask1_840_12658" style="mask-type:luminance" maskUnits="userSpaceOnUse" x="20" y="234" width="8" height="56">
<path d="M20.019 284.853V238.354C20.019 237.403 20.3969 236.49 21.0696 235.818C21.7422 235.145 22.6546 234.767 23.6058 234.767C24.5571 234.767 25.4694 235.145 26.1421 235.818C26.8147 236.49 27.1926 237.403 27.1926 238.354V289.157" fill="white"/>
</mask>
<g mask="url(#mask1_840_12658)">
<path opacity="0.3" d="M27.1968 242.4V289.157H20.0232V252.163C22.1096 248.071 23.7914 243.784 25.0447 239.365L27.1968 242.4Z" fill="#1C1B1F"/>
</g>
<path d="M20.0227 284.853V238.354C20.0227 237.403 20.4006 236.49 21.0732 235.818C21.7459 235.145 22.6582 234.767 23.6095 234.767C24.5608 234.767 25.4731 235.145 26.1457 235.818C26.8184 236.49 27.1963 237.403 27.1963 238.354V289.157" stroke="#1C1B1F" stroke-linecap="round" stroke-linejoin="round"/>
<path d="M27.6252 232.543C27.6251 233.52 27.2702 234.464 26.6265 235.199C25.9828 235.934 25.0941 236.41 24.1257 236.539C23.1573 236.668 22.175 236.44 21.3615 235.899C20.548 235.358 19.9586 234.54 19.703 233.597C19.4473 232.655 19.5428 231.651 19.9716 230.773C20.4004 229.895 21.1335 229.203 22.0344 228.825C22.9353 228.447 23.9428 228.409 24.8695 228.718C25.7963 229.028 26.5793 229.663 27.0728 230.506C27.4396 231.122 27.6306 231.826 27.6252 232.543Z" fill="#A0A0A0"/>
<mask id="mask2_840_12658" style="mask-type:luminance" maskUnits="userSpaceOnUse" x="19" y="228" width="9" height="9">
<path d="M27.6218 232.544C27.6216 233.521 27.2668 234.465 26.6231 235.2C25.9794 235.935 25.0907 236.411 24.1223 236.54C23.1539 236.669 22.1716 236.441 21.3581 235.9C20.5446 235.359 19.9552 234.541 19.6996 233.598C19.4439 232.656 19.5394 231.652 19.9682 230.774C20.397 229.896 21.13 229.204 22.0309 228.826C22.9319 228.448 23.9394 228.41 24.8661 228.719C25.7929 229.029 26.5758 229.664 27.0694 230.507C27.4362 231.123 27.6272 231.827 27.6218 232.544Z" fill="white"/>
</mask>
<g mask="url(#mask2_840_12658)">
<path opacity="0.3" d="M27.6244 232.544C27.6377 233.516 27.2994 234.46 26.6719 235.202C26.0443 235.944 25.1697 236.435 24.2092 236.583C23.2486 236.732 22.2667 236.528 21.4444 236.01C20.6221 235.492 20.0146 234.694 19.7339 233.763C21.7782 234.481 24.3965 234.115 27.0577 230.507C27.4295 231.121 27.6255 231.826 27.6244 232.544Z" fill="#1C1B1F"/>
</g>
<path d="M27.6252 232.543C27.6251 233.52 27.2702 234.464 26.6265 235.199C25.9828 235.934 25.0941 236.41 24.1257 236.539C23.1573 236.668 22.175 236.44 21.3615 235.899C20.548 235.358 19.9586 234.54 19.703 233.597C19.4473 232.655 19.5428 231.651 19.9716 230.773C20.4004 229.895 21.1335 229.203 22.0344 228.825C22.9353 228.447 23.9428 228.409 24.8695 228.718C25.7963 229.028 26.5793 229.663 27.0728 230.506C27.4396 231.122 27.6306 231.826 27.6252 232.543Z" stroke="#1C1B1F" stroke-linecap="round" stroke-linejoin="round"/>
<path d="M147.579 256.388V264.839C147.579 264.839 111.589 276.252 76.3958 269.444C41.2022 262.637 25.033 246.891 25.033 246.891V239.401C25.8149 240.061 72.0988 280.872 147.579 256.388Z" fill="#A57C52"/>
<mask id="mask3_840_12658" style="mask-type:luminance" maskUnits="userSpaceOnUse" x="25" y="239" width="123" height="33">
<path d="M147.579 256.389V264.839C147.579 264.839 111.589 276.253 76.3958 269.445C41.2022 262.637 25.033 246.891 25.033 246.891V239.402C25.8149 240.062 72.0988 280.872 147.579 256.389Z" fill="white"/>
</mask>
<g mask="url(#mask3_840_12658)">
<path opacity="0.3" d="M147.579 257.429V264.839C147.579 264.839 111.589 276.253 76.3958 269.445C41.2022 262.637 25.033 246.891 25.033 246.891V239.402C25.4777 239.926 39.8536 256.848 74.3082 263.247C109.322 269.725 138.347 262.357 147.579 257.429Z" fill="#1C1B1F"/>
</g>
<path d="M147.579 256.388V264.839C147.579 264.839 111.589 276.252 76.3958 269.444C41.2022 262.637 25.033 246.891 25.033 246.891V239.401C25.8149 240.061 72.0988 280.872 147.579 256.388Z" stroke="#1C1B1F" stroke-linecap="round" stroke-linejoin="round"/>
<path d="M276.26 304.222V238.354C276.26 237.403 275.883 236.49 275.21 235.818C274.537 235.145 273.625 234.767 272.674 234.767C271.722 234.767 270.81 235.145 270.137 235.818C269.465 236.49 269.087 237.403 269.087 238.354V309.96" fill="#A0A0A0"/>
<mask id="mask4_840_12658" style="mask-type:luminance" maskUnits="userSpaceOnUse" x="269" y="234" width="8" height="76">
<path d="M276.257 304.222V238.354C276.257 237.403 275.879 236.491 275.207 235.818C274.534 235.145 273.622 234.768 272.671 234.768C271.719 234.768 270.807 235.145 270.134 235.818C269.462 236.491 269.084 237.403 269.084 238.354V309.961" fill="white"/>
</mask>
<g mask="url(#mask4_840_12658)">
<path opacity="0.3" d="M269.07 242.4V309.961L276.243 304.222V252.163C274.157 248.071 272.475 243.785 271.222 239.366L269.07 242.4Z" fill="#1C1B1F"/>
</g>
<path d="M276.26 304.222V238.354C276.26 237.403 275.883 236.49 275.21 235.818C274.537 235.145 273.625 234.767 272.674 234.767C271.722 234.767 270.81 235.145 270.137 235.818C269.465 236.49 269.087 237.403 269.087 238.354V309.96" stroke="#1C1B1F" stroke-linecap="round" stroke-linejoin="round"/>
<path d="M268.655 232.543C268.642 233.515 268.98 234.459 269.607 235.201C270.235 235.943 271.11 236.434 272.07 236.582C273.031 236.731 274.013 236.527 274.835 236.009C275.657 235.491 276.265 234.693 276.545 233.762C276.675 233.369 276.741 232.957 276.739 232.543C276.739 231.658 276.448 230.797 275.91 230.094C275.372 229.39 274.618 228.884 273.763 228.652C272.909 228.42 272.002 228.476 271.182 228.811C270.363 229.146 269.676 229.742 269.229 230.506C268.855 231.12 268.656 231.824 268.655 232.543Z" fill="#A0A0A0"/>
<mask id="mask5_840_12658" style="mask-type:luminance" maskUnits="userSpaceOnUse" x="268" y="228" width="9" height="9">
<path d="M268.654 232.543C268.641 233.515 268.979 234.459 269.607 235.201C270.235 235.943 271.109 236.434 272.07 236.582C273.03 236.731 274.012 236.527 274.834 236.009C275.657 235.491 276.264 234.693 276.545 233.762C276.675 233.369 276.74 232.957 276.739 232.543C276.739 231.658 276.447 230.797 275.909 230.094C275.372 229.39 274.617 228.884 273.763 228.652C272.908 228.42 272.001 228.476 271.182 228.811C270.362 229.146 269.676 229.742 269.228 230.506C268.854 231.12 268.656 231.824 268.654 232.543Z" fill="white"/>
</mask>
<g mask="url(#mask5_840_12658)">
<path opacity="0.3" d="M268.654 232.544C268.641 233.515 268.979 234.459 269.607 235.202C270.235 235.944 271.109 236.434 272.07 236.583C273.03 236.731 274.012 236.528 274.834 236.009C275.657 235.491 276.264 234.694 276.545 233.763C274.501 234.48 271.882 234.114 269.228 230.506C268.854 231.12 268.656 231.825 268.654 232.544Z" fill="#1C1B1F"/>
</g>
<path d="M268.655 232.543C268.642 233.515 268.98 234.459 269.607 235.201C270.235 235.943 271.11 236.434 272.07 236.582C273.031 236.731 274.013 236.527 274.835 236.009C275.657 235.491 276.265 234.693 276.545 233.762C276.675 233.369 276.741 232.957 276.739 232.543C276.739 231.658 276.448 230.797 275.91 230.094C275.372 229.39 274.618 228.884 273.763 228.652C272.909 228.42 272.002 228.476 271.182 228.811C270.363 229.146 269.676 229.742 269.229 230.506C268.855 231.12 268.656 231.824 268.655 232.543Z" stroke="#1C1B1F" stroke-linecap="round" stroke-linejoin="round"/>
<path d="M148.7 256.388V264.839C148.7 264.839 184.725 276.252 219.876 269.444C255.026 262.637 271.246 246.891 271.246 246.891V239.401C270.464 240.061 224.18 280.872 148.7 256.388Z" fill="#A57C52"/>
<mask id="mask6_840_12658" style="mask-type:luminance" maskUnits="userSpaceOnUse" x="148" y="239" width="124" height="33">
<path d="M148.7 256.388V264.839C148.7 264.839 184.725 276.252 219.876 269.444C255.026 262.637 271.246 246.891 271.246 246.891V239.401C270.464 240.061 224.18 280.872 148.7 256.388Z" fill="white"/>
</mask>
<g mask="url(#mask6_840_12658)">
<path opacity="0.3" d="M148.7 257.429V264.839C148.7 264.839 184.725 276.252 219.876 269.444C255.026 262.637 271.246 246.891 271.246 246.891V239.401C270.808 239.925 256.425 256.847 221.978 263.246C186.956 269.724 157.932 262.357 148.7 257.429Z" fill="#1C1B1F"/>
</g>
<path d="M148.7 256.388V264.839C148.7 264.839 184.725 276.252 219.876 269.444C255.026 262.637 271.246 246.891 271.246 246.891V239.401C270.464 240.061 224.18 280.872 148.7 256.388Z" stroke="#1C1B1F" stroke-linecap="round" stroke-linejoin="round"/>
<path d="M144.554 334.351V252.701C144.54 251.851 144.829 251.023 145.368 250.365C145.908 249.708 146.664 249.263 147.501 249.112C148.338 248.96 149.202 249.111 149.938 249.537C150.674 249.963 151.235 250.637 151.52 251.439C151.677 251.841 151.755 252.27 151.75 252.701V338.655" fill="#A0A0A0"/>
<mask id="mask7_840_12658" style="mask-type:luminance" maskUnits="userSpaceOnUse" x="144" y="249" width="8" height="90">
<path d="M144.547 334.351V252.701C144.532 251.851 144.821 251.023 145.361 250.365C145.9 249.708 146.656 249.263 147.493 249.112C148.33 248.96 149.194 249.111 149.93 249.537C150.666 249.963 151.227 250.637 151.512 251.439C151.669 251.841 151.747 252.27 151.742 252.701V338.655" fill="white"/>
</mask>
<g mask="url(#mask7_840_12658)">
<path opacity="0.3" d="M151.498 251.439C150.063 252.909 148.155 253.824 146.11 254.021C146.11 254.021 147.689 306.804 146.11 324.322C145.91 326.474 144.532 332.93 144.532 332.93V252.701C144.518 251.851 144.806 251.023 145.346 250.365C145.886 249.708 146.642 249.263 147.479 249.112C148.316 248.96 149.18 249.111 149.916 249.537C150.652 249.963 151.213 250.637 151.498 251.439Z" fill="#1C1B1F"/>
</g>
<path d="M144.554 334.351V252.701C144.54 251.851 144.829 251.023 145.368 250.365C145.908 249.708 146.664 249.263 147.501 249.112C148.338 248.96 149.202 249.111 149.938 249.537C150.674 249.963 151.235 250.637 151.52 251.439C151.677 251.841 151.755 252.27 151.75 252.701V338.655" stroke="#1C1B1F" stroke-linecap="round" stroke-linejoin="round"/>
<path d="M152.178 246.89C152.135 247.931 151.69 248.914 150.938 249.635C150.187 250.356 149.185 250.759 148.144 250.759C147.102 250.759 146.101 250.356 145.349 249.635C144.597 248.914 144.153 247.931 144.109 246.89C144.105 246.838 144.105 246.785 144.109 246.733C144.13 245.663 144.574 244.646 145.345 243.905C146.116 243.164 147.15 242.759 148.219 242.78C149.288 242.801 150.305 243.246 151.046 244.017C151.788 244.787 152.192 245.821 152.171 246.89H152.178Z" fill="#A0A0A0"/>
<mask id="mask8_840_12658" style="mask-type:luminance" maskUnits="userSpaceOnUse" x="144" y="242" width="9" height="9">
<path d="M152.181 246.89C152.137 247.931 151.693 248.914 150.941 249.635C150.189 250.356 149.188 250.759 148.146 250.759C147.105 250.759 146.103 250.356 145.351 249.635C144.6 248.914 144.155 247.931 144.111 246.89C144.108 246.838 144.108 246.785 144.111 246.733C144.132 245.663 144.577 244.646 145.348 243.905C146.119 243.164 147.152 242.759 148.222 242.78C149.291 242.801 150.308 243.246 151.049 244.017C151.79 244.787 152.195 245.821 152.174 246.89H152.181Z" fill="white"/>
</mask>
<g mask="url(#mask8_840_12658)">
<path opacity="0.3" d="M151.829 248.533C151.455 249.379 150.801 250.071 149.977 250.492C149.153 250.914 148.209 251.038 147.303 250.846C146.398 250.653 145.587 250.155 145.005 249.434C144.424 248.714 144.108 247.816 144.111 246.89C144.108 246.838 144.108 246.785 144.111 246.732C145.697 248.224 148.143 249.351 151.829 248.533Z" fill="#1C1B1F"/>
</g>
<path d="M152.178 246.89C152.135 247.931 151.69 248.914 150.938 249.635C150.187 250.356 149.185 250.759 148.144 250.759C147.102 250.759 146.101 250.356 145.349 249.635C144.597 248.914 144.153 247.931 144.109 246.89C144.105 246.838 144.105 246.785 144.109 246.733C144.13 245.663 144.574 244.646 145.345 243.905C146.116 243.164 147.15 242.759 148.219 242.78C149.288 242.801 150.305 243.246 151.046 244.017C151.788 244.787 152.192 245.821 152.171 246.89H152.178Z" stroke="#1C1B1F" stroke-linecap="round" stroke-linejoin="round"/>
<path d="M235.15 280.147L231.506 295.721C231.506 295.721 227.245 298.856 225.717 298.368C224.189 297.881 225.243 296.216 225.315 296.123C224.811 296.501 224.185 296.68 223.557 296.625C222.476 296.559 221.412 296.317 220.408 295.908C220.408 295.908 219.533 296.905 218.672 296.74C217.811 296.575 215.652 294.796 215.652 294.796C214.045 295.255 212.338 293.089 212.338 293.089C212.156 292.837 212.026 292.552 211.958 292.249C211.634 291.077 211.425 289.876 211.334 288.663C211.004 284.961 211.427 280.018 214.504 278.311L235.15 280.147Z" fill="#FFFEFC"/>
<mask id="mask9_840_12658" style="mask-type:luminance" maskUnits="userSpaceOnUse" x="211" y="278" width="25" height="21">
<path d="M235.15 280.147L231.506 295.721C231.506 295.721 227.245 298.856 225.717 298.368C224.189 297.881 225.243 296.216 225.315 296.123C224.811 296.501 224.185 296.68 223.557 296.625C222.476 296.559 221.412 296.317 220.408 295.908C220.408 295.908 219.533 296.905 218.672 296.74C217.811 296.575 215.652 294.796 215.652 294.796C214.045 295.255 212.338 293.089 212.338 293.089C212.156 292.837 212.026 292.552 211.958 292.249C211.634 291.077 211.425 289.876 211.334 288.663C211.004 284.961 211.427 280.018 214.504 278.311L235.15 280.147Z" fill="white"/>
</mask>
<g mask="url(#mask9_840_12658)">
<path opacity="0.4" d="M235.149 280.147L231.505 295.721C231.505 295.721 227.244 298.856 225.716 298.368C224.188 297.881 225.243 296.216 225.314 296.123C224.81 296.501 224.184 296.68 223.557 296.625C222.475 296.559 221.411 296.317 220.408 295.908C220.408 295.908 219.532 296.905 218.672 296.74C217.811 296.575 215.651 294.796 215.651 294.796C214.045 295.255 212.337 293.089 212.337 293.089C212.155 292.837 212.026 292.552 211.957 292.249C212.674 292.794 213.679 293.404 214.468 292.881C214.658 293.173 214.915 293.417 215.216 293.593C215.518 293.769 215.857 293.872 216.205 293.894C216.554 293.915 216.903 293.855 217.224 293.718C217.545 293.58 217.829 293.37 218.055 293.103C218.055 293.103 221.584 295.406 223.7 292.759C224.747 293.025 225.808 293.231 226.878 293.376C227.517 293.376 227.373 284.007 227.373 284.007C227.373 284.007 224.633 285.922 223.7 284.932C222.768 283.942 218.083 286.704 216.943 286.848C215.038 287.354 213.162 287.967 211.326 288.684C210.996 284.982 211.419 280.04 214.497 278.333L235.149 280.147Z" fill="#A57C52"/>
</g>
<path d="M235.15 280.147L231.506 295.721C231.506 295.721 227.245 298.856 225.717 298.368C224.189 297.881 225.243 296.216 225.315 296.123C224.811 296.501 224.185 296.68 223.557 296.625C222.476 296.559 221.412 296.317 220.408 295.908C220.408 295.908 219.533 296.905 218.672 296.74C217.811 296.575 215.652 294.796 215.652 294.796C214.045 295.255 212.338 293.089 212.338 293.089C212.156 292.837 212.026 292.552 211.958 292.249C211.634 291.077 211.425 289.876 211.334 288.663C211.004 284.961 211.427 280.018 214.504 278.311L235.15 280.147Z" stroke="#1C1B1F" stroke-linecap="round" stroke-linejoin="round"/>
<path d="M225.509 285.922C225.509 285.922 223.766 292.343 223.708 293.605C223.651 294.868 225.322 296.116 225.322 296.116C225.322 296.116 227.374 296.432 228.192 295.456C229.01 294.48 230.057 290.75 230.057 290.75" stroke="#1C1B1F" stroke-linecap="round" stroke-linejoin="round"/>
<path d="M220.407 295.886C220.407 295.886 218.026 293.734 218.061 293.081C218.097 292.429 219.424 287.242 219.424 287.242" stroke="#1C1B1F" stroke-linecap="round" stroke-linejoin="round"/>
<path d="M215.649 294.774C215.202 294.17 214.806 293.529 214.465 292.859C214.243 292.263 214.329 287.967 214.329 287.967" stroke="#1C1B1F" stroke-linecap="round" stroke-linejoin="round"/>
<path d="M241.129 220.514C239.537 222.171 237.083 222.96 235.261 225.908C225.319 241.934 224.142 252.185 219.522 264.646C214.903 277.106 198.647 291.905 192.636 282.085C186.624 272.264 201.108 253.34 208.152 245.091C215.197 236.841 222.198 228.075 223.317 224.395C223.489 223.85 225.971 220.306 225.921 219.266C225.871 218.226 229.049 209.223 229.981 208.642C231.933 207.386 232.263 207.307 232.578 206.088C232.966 204.603 234.508 204.517 236.882 201.927C237.022 201.778 237.207 201.68 237.409 201.649C237.61 201.618 237.816 201.655 237.994 201.755C238.991 202.15 240.189 203.534 240.864 204.244C242.636 206.016 241.165 208.462 241.165 208.462L238.683 206.963C238.763 207.857 238.932 208.741 239.185 209.603C239.185 209.603 239.185 209.603 239.185 209.639C239.666 211.274 240.62 213.226 242.37 214.151C245.218 215.665 241.395 220.256 241.129 220.514Z" fill="#FFFEFC"/>
<mask id="mask10_840_12658" style="mask-type:luminance" maskUnits="userSpaceOnUse" x="191" y="201" width="53" height="85">
<path d="M241.128 220.514C239.535 222.171 237.082 222.96 235.26 225.908C225.317 241.934 224.141 252.185 219.521 264.646C214.901 277.106 198.646 291.905 192.635 282.085C186.623 272.264 201.107 253.34 208.151 245.091C215.195 236.841 222.197 228.075 223.316 224.395C223.488 223.85 225.97 220.306 225.92 219.266C225.87 218.226 229.048 209.223 229.98 208.642C231.931 207.386 232.261 207.307 232.577 206.088C232.964 204.603 234.507 204.517 236.881 201.927C237.02 201.778 237.206 201.68 237.407 201.649C237.609 201.618 237.815 201.655 237.993 201.755C238.99 202.15 240.188 203.534 240.862 204.244C242.634 206.016 241.164 208.462 241.164 208.462L238.682 206.963C238.762 207.857 238.93 208.741 239.184 209.603C239.184 209.603 239.184 209.603 239.184 209.639C239.664 211.274 240.619 213.226 242.369 214.151C245.217 215.665 241.393 220.256 241.128 220.514Z" fill="white"/>
</mask>
<g mask="url(#mask10_840_12658)">
<path opacity="0.4" d="M241.179 208.49L238.697 206.991C238.777 207.885 238.945 208.77 239.199 209.631L237.384 204.968C237.979 204.029 238.192 202.897 237.979 201.805C238.976 202.2 240.174 203.584 240.849 204.294C242.649 206.044 241.179 208.49 241.179 208.49Z" fill="#A57C52"/>
</g>
<path d="M241.129 220.514C239.537 222.171 237.083 222.96 235.261 225.908C225.319 241.934 224.142 252.185 219.522 264.646C214.903 277.106 198.647 291.905 192.636 282.085C186.624 272.264 201.108 253.34 208.152 245.091C215.197 236.841 222.198 228.075 223.317 224.395C223.489 223.85 225.971 220.306 225.921 219.266C225.871 218.226 229.049 209.223 229.981 208.642C231.933 207.386 232.263 207.307 232.578 206.088C232.966 204.603 234.508 204.517 236.882 201.927C237.022 201.778 237.207 201.68 237.409 201.649C237.61 201.618 237.816 201.655 237.994 201.755C238.991 202.15 240.189 203.534 240.864 204.244C242.636 206.016 241.165 208.462 241.165 208.462L238.683 206.963C238.763 207.857 238.932 208.741 239.185 209.603C239.185 209.603 239.185 209.603 239.185 209.639C239.666 211.274 240.62 213.226 242.37 214.151C245.218 215.665 241.395 220.256 241.129 220.514Z" stroke="#1C1B1F" stroke-linecap="round" stroke-linejoin="round"/>
<path d="M278.977 221.353L254.967 226.827C254.967 226.827 256.108 215.213 253.332 213.197C251.739 212.027 248.461 214.129 245.441 213.197C245.007 213.072 244.593 212.883 244.214 212.637C241.144 210.564 237.88 201.963 237.844 191.317C237.844 189.589 238.69 184.926 238.805 183.161C239.286 175.901 236.474 171.425 242.299 164.33C254.307 149.732 278.748 152.602 283.475 163.871C288.202 175.141 273.934 192.924 274.049 202.609C274.114 207.551 278.977 221.353 278.977 221.353Z" fill="#FFFEFC" stroke="#1C1B1F" stroke-linecap="round" stroke-linejoin="round"/>
<path d="M250.205 151.54C250.205 151.54 236.633 156.131 236.726 165.234C236.82 174.338 238.713 179.366 242.185 179.804C245.657 180.241 244.603 187.307 244.603 187.307C244.603 187.307 250.385 188.57 251.246 192.673C252.106 196.776 258.498 203.921 258.498 203.921C258.498 203.921 272.845 205.679 276.482 202.996C280.119 200.313 290.227 168.168 284.373 160.536C278.52 152.903 259.33 152.716 259.33 152.716C256.451 151.507 253.297 151.1 250.205 151.54Z" fill="#1C1B1F"/>
<path d="M245.7 184.646C245.7 184.646 245.068 181.841 247.766 181.475C249.2 181.282 249.918 185.779 249.918 185.779C249.918 185.779 250.743 185.916 251.467 189.739C252.192 193.563 248.813 196.404 248.813 196.404C248.813 196.404 247.794 200.794 246.388 199.223C244.688 197.322 248.096 194.467 246.926 190.256" fill="#FFFEFC"/>
<path d="M245.7 184.646C245.7 184.646 245.068 181.841 247.766 181.475C249.2 181.282 249.918 185.779 249.918 185.779C249.918 185.779 250.743 185.916 251.467 189.739C252.192 193.563 248.813 196.404 248.813 196.404C248.813 196.404 247.794 200.794 246.388 199.223C244.688 197.322 248.096 194.467 246.926 190.256" stroke="#1C1B1F" stroke-linecap="round" stroke-linejoin="round"/>
<path d="M249.809 187.58C250.09 190.567 249.756 193.58 248.827 196.432" stroke="#1C1B1F" stroke-linecap="round" stroke-linejoin="round"/>
<path d="M254.855 208.785C253.671 210.148 253.334 213.19 253.334 213.19C253.334 213.19 248.463 214.122 245.443 213.19C248.571 210.801 254.611 208.864 254.855 208.785Z" fill="#1C1B1F"/>
<path d="M240.943 213.175C241.191 213.487 241.499 213.747 241.848 213.939C242.198 214.131 242.582 214.252 242.979 214.294C243.375 214.336 243.776 214.299 244.158 214.184C244.54 214.07 244.896 213.88 245.204 213.627C246.28 212.838 248.626 211.862 250.225 212.738C251.825 213.613 251.883 215.349 250.577 215.607C249.271 215.865 246.194 218.168 244.522 219.617C242.851 221.066 238.116 222.817 238.116 222.817" fill="#FFFEFC"/>
<path d="M240.943 213.175C241.191 213.487 241.499 213.747 241.848 213.939C242.198 214.131 242.582 214.252 242.979 214.294C243.375 214.336 243.776 214.299 244.158 214.184C244.54 214.07 244.896 213.88 245.204 213.627C246.28 212.838 248.626 211.862 250.225 212.738C251.825 213.613 251.883 215.349 250.577 215.607C249.271 215.865 246.194 218.168 244.522 219.617C242.851 221.066 238.116 222.817 238.116 222.817" stroke="#1C1B1F" stroke-linecap="round" stroke-linejoin="round"/>
<path d="M239.917 211.482C239.917 211.482 238.898 210.442 238.697 206.991C238.597 205.227 236.71 204.617 236.71 204.617" stroke="#1C1B1F" stroke-linecap="round" stroke-linejoin="round"/>
<path d="M238.165 205.621C238.339 205.332 238.443 205.006 238.468 204.67C238.493 204.334 238.438 203.996 238.309 203.685" stroke="#1C1B1F" stroke-linecap="round" stroke-linejoin="round"/>
<path d="M198.972 269.531C207.286 257.529 210.234 258.132 226.124 248.555L241.662 272.307C241.662 272.307 237.917 274.064 233.125 276.353C227.522 279.029 220.5 282.422 216.403 284.552C208.807 288.49 195.428 289.179 193.663 286.941C193.49 286.713 193.331 286.473 193.19 286.224C191.698 283.799 190.787 279.559 191.282 275.155" fill="#FFFEFC"/>
<mask id="mask11_840_12658" style="mask-type:luminance" maskUnits="userSpaceOnUse" x="191" y="248" width="51" height="41">
<path d="M198.977 269.531C207.291 257.529 210.239 258.132 226.129 248.555L241.667 272.307C241.667 272.307 237.922 274.064 233.13 276.353C227.528 279.029 220.505 282.422 216.409 284.552C208.812 288.49 195.433 289.179 193.668 286.941C193.495 286.713 193.337 286.473 193.195 286.224C191.703 283.799 190.792 279.559 191.287 275.155" fill="white"/>
</mask>
<g mask="url(#mask11_840_12658)">
<path opacity="0.4" d="M234.169 273.598L233.128 276.317C227.526 278.993 220.503 282.386 216.407 284.516C208.81 288.455 195.431 289.143 193.667 286.905C193.493 286.677 193.335 286.437 193.193 286.188C200.295 285.564 212.225 281.317 212.225 281.317C209.951 272.522 216.407 257.766 216.407 257.766L234.169 273.598Z" fill="#A57C52"/>
</g>
<path d="M198.972 269.531C207.286 257.529 210.234 258.132 226.124 248.555L241.662 272.307C241.662 272.307 237.917 274.064 233.125 276.353C227.522 279.029 220.5 282.422 216.403 284.552C208.807 288.49 195.428 289.179 193.663 286.941C193.49 286.713 193.331 286.473 193.19 286.224C191.698 283.799 190.787 279.559 191.282 275.155" stroke="#1C1B1F" stroke-linecap="round" stroke-linejoin="round"/>
<path d="M299.325 268.95C299.325 268.95 302.043 253.319 298.27 237.329C294.497 221.339 284.267 219.768 284.267 219.768C284.267 219.768 280.107 212.092 275.257 213.391C256.67 218.412 251.907 226.647 251.907 226.647C251.907 226.647 237.194 228.197 230.013 236.446C222.833 244.696 215.43 254.065 215.43 254.065C215.43 254.065 208.586 277.02 226.125 282.042C226.125 282.042 227.266 288.204 229.124 291.991L226.886 333.978C245.243 331.374 284.439 308.362 299.325 268.95Z" fill="#1C1B1F"/>
<g opacity="0.2">
<path d="M243.117 240.836C242.555 239.042 241.807 237.311 240.886 235.672" stroke="#FFFEFC" stroke-linecap="round" stroke-linejoin="round"/>
<path d="M228.21 281.819C235.656 283.878 240.678 274.553 245.699 270.249C249.286 261.64 245.699 252.315 243.92 243.369" stroke="#FFFEFC" stroke-linecap="round" stroke-linejoin="round"/>
<path d="M228.211 243.297C228.211 243.297 222.53 255.184 222.156 265.944" stroke="#FFFEFC" stroke-linecap="round" stroke-linejoin="round"/>
<path d="M259.912 226.64C267.537 226.152 276.181 225.284 282.867 221.31" stroke="#FFFEFC" stroke-linecap="round" stroke-linejoin="round"/>
<path d="M254.969 226.826C255.729 226.826 256.49 226.826 257.25 226.769" stroke="#FFFEFC" stroke-linecap="round" stroke-linejoin="round"/>
<path d="M272.766 228.699C276.008 228.764 280.112 228.785 282.888 226.827" stroke="#FFFEFC" stroke-linecap="round" stroke-linejoin="round"/>
<path d="M265.476 228.104C267.075 228.34 268.682 228.498 270.296 228.598" stroke="#FFFEFC" stroke-linecap="round" stroke-linejoin="round"/>
<path d="M261.703 295.355C260.962 297.22 260.311 299.114 259.752 301.036" stroke="#FFFEFC" stroke-linecap="round" stroke-linejoin="round"/>
<path d="M291.209 254.61C279.416 265.944 269.373 278.139 263.024 292.242" stroke="#FFFEFC" stroke-linecap="round" stroke-linejoin="round"/>
<path d="M233.547 316.554C233.174 320.298 232.781 324.045 232.37 327.795" stroke="#FFFEFC" stroke-linecap="round" stroke-linejoin="round"/>
<path d="M234.832 282.07C234.222 285.313 237.091 288.182 236.374 291.769C235.657 293.204 234.939 294.638 234.939 296.073C234.939 301.812 234.939 308.268 233.806 313.95" stroke="#FFFEFC" stroke-linecap="round" stroke-linejoin="round"/>
</g>
<g opacity="0.2">
<path d="M245.629 177.889C249.732 176.928 252.752 182.358 254.854 184.345C256.956 186.332 263.082 185.342 264.488 190.4" stroke="#FFFEFC" stroke-linecap="round" stroke-linejoin="round"/>
<path d="M240.888 167.136C240.888 167.136 243.893 174.094 247.236 173.807C250.579 173.52 255.127 173.312 257.279 177.889C259.431 182.466 269.195 181.791 269.768 185.321" stroke="#FFFEFC" stroke-linecap="round" stroke-linejoin="round"/>
<path d="M247.236 156.777C245.758 159.051 246.884 167.846 250.155 167.846C253.427 167.846 256.985 167.846 258.326 171.11C259.668 174.374 263.068 175.227 266.045 176.927" stroke="#FFFEFC" stroke-linecap="round" stroke-linejoin="round"/>
<path d="M284.437 173.097C284.437 173.097 284.494 177.207 282.077 177.774" stroke="#FFFEFC" stroke-linecap="round" stroke-linejoin="round"/>
<path d="M283.618 180.479C283.618 180.479 282.557 183.613 280.032 184.883" stroke="#FFFEFC" stroke-linecap="round" stroke-linejoin="round"/>
<path d="M282.078 186.784C282.078 186.784 281.511 189.13 279.388 189.417" stroke="#FFFEFC" stroke-linecap="round" stroke-linejoin="round"/>
</g>
<path d="M23.2402 289.617L60.7795 246.109C64.5313 239.904 68.8713 228.591 69.5528 226.425C73.857 212.874 72.8527 216.439 76.1095 211.36C79.3663 206.282 80.3706 198.233 85.1482 198.34H85.3562C90.306 198.692 100.349 200.399 100.019 201.59C99.689 202.781 105.342 234.488 104.589 235.091C103.835 235.693 101.719 247.286 101.719 247.286C101.719 247.286 96.1811 246.733 97.1998 242.3C97.1998 242.3 82.6661 260.478 77.5729 260.829C76.5901 260.894 66.8125 278.907 60.177 291.281C56.7121 297.737 54.1225 302.687 54.1225 302.687" fill="#FFFEFC"/>
<mask id="mask12_840_12658" style="mask-type:luminance" maskUnits="userSpaceOnUse" x="23" y="198" width="82" height="105">
<path d="M23.2368 289.617L60.7761 246.109C64.5279 239.904 68.8679 228.591 69.5494 226.425C73.8535 212.874 72.8492 216.439 76.106 211.36C79.3628 206.282 80.3672 198.233 85.1448 198.34H85.3528C90.3025 198.692 100.346 200.399 100.016 201.59C99.6856 202.781 105.338 234.488 104.585 235.091C103.832 235.693 101.716 247.286 101.716 247.286C101.716 247.286 96.1777 246.733 97.1964 242.3C97.1964 242.3 82.6627 260.478 77.5695 260.829C76.5867 260.894 66.8091 278.907 60.1735 291.281C56.7087 297.737 54.119 302.687 54.119 302.687" fill="white"/>
</mask>
<g mask="url(#mask12_840_12658)">
<path opacity="0.4" d="M104.587 235.098C103.87 235.694 101.718 247.293 101.718 247.293C101.718 247.293 96.1798 246.741 97.1984 242.308C97.1984 242.308 82.6647 260.486 77.5715 260.837C76.5887 260.902 66.8111 278.914 60.1756 291.289C62.2201 285.17 70.4338 269.237 70.5701 268.871C70.4123 269.008 59.7308 282.422 59.3793 282.724C59.0278 283.025 72.4783 260.78 76.4596 259.366C80.4409 257.953 83.4251 251.87 83.4251 251.87C82.5171 252.237 81.5288 252.36 80.5584 252.227C79.5881 252.093 78.6696 251.708 77.8943 251.11C77.8943 251.11 77.1339 234.481 78.5615 227.58C79.989 220.679 78.5973 217.121 78.4897 216.82C78.3821 216.519 81.2444 212.738 81.7394 209.008C82.2343 205.278 83.7049 198.822 83.7049 198.822L85.1396 198.276H85.3477C90.2974 198.628 100.34 200.335 100.01 201.526C99.6805 202.717 105.34 234.51 104.587 235.098Z" fill="#A57C52"/>
</g>
<path d="M23.2402 289.617L60.7795 246.109C64.5313 239.904 68.8713 228.591 69.5528 226.425C73.857 212.874 72.8527 216.439 76.1095 211.36C79.3663 206.282 80.3706 198.233 85.1482 198.34H85.3562C90.306 198.692 100.349 200.399 100.019 201.59C99.689 202.781 105.342 234.488 104.589 235.091C103.835 235.693 101.719 247.286 101.719 247.286C101.719 247.286 96.1811 246.733 97.1998 242.3C97.1998 242.3 82.6661 260.478 77.5729 260.829C76.5901 260.894 66.8125 278.907 60.177 291.281C56.7121 297.737 54.1225 302.687 54.1225 302.687" stroke="#1C1B1F" stroke-linecap="round" stroke-linejoin="round"/>
<path d="M120.541 246.023L87.1622 241.432C86.3915 241.306 85.6925 240.905 85.1941 240.304C84.6957 239.703 84.4316 238.941 84.4505 238.161L83.4678 168.685C83.4678 167.042 86.1937 166.475 87.7073 166.64L121.954 170.414C122.723 170.543 123.421 170.944 123.918 171.545C124.416 172.145 124.682 172.905 124.666 173.685L124.163 242.551C124.12 244.172 122.047 246.188 120.541 246.023Z" fill="#1C1B1F"/>
<path d="M119.501 246.052L85.2547 242.271C84.4854 242.139 83.7888 241.736 83.2913 241.135C82.7939 240.533 82.5284 239.773 82.5431 238.993L83.0452 170.127C83.0243 169.763 83.0819 169.399 83.214 169.06C83.3462 168.72 83.5498 168.413 83.8111 168.159C84.0724 167.905 84.3852 167.711 84.7284 167.589C85.0715 167.466 85.437 167.419 85.7999 167.451L120.046 171.253C120.816 171.382 121.513 171.783 122.011 172.384C122.509 172.984 122.774 173.744 122.758 174.524L122.256 243.39C122.275 243.753 122.216 244.115 122.082 244.453C121.949 244.791 121.745 245.096 121.484 245.348C121.223 245.6 120.911 245.794 120.569 245.915C120.227 246.036 119.863 246.083 119.501 246.052Z" fill="#707070" stroke="#1C1B1F" stroke-linecap="round" stroke-linejoin="round"/>
<path d="M120.829 176.439L120.506 220.033L120.356 241.052C120.354 241.319 120.295 241.583 120.181 241.825C120.067 242.067 119.902 242.281 119.698 242.453C119.493 242.625 119.253 242.751 118.995 242.821C118.737 242.891 118.467 242.904 118.203 242.859L88.7918 239.631L86.5537 239.38C85.9876 239.318 85.4633 239.052 85.0781 238.633C84.6929 238.213 84.4729 237.668 84.459 237.099L84.9253 172.487C84.9267 172.219 84.9863 171.955 85.0999 171.713C85.2134 171.471 85.3783 171.257 85.5831 171.085C85.7878 170.913 86.0275 170.787 86.2855 170.717C86.5435 170.647 86.8137 170.634 87.0773 170.679L94.6455 171.511L95.2767 173.132L110.506 174.839L111.166 173.355L118.727 174.158C119.293 174.222 119.818 174.487 120.204 174.906C120.59 175.325 120.812 175.87 120.829 176.439Z" fill="#FFFEFC"/>
<mask id="mask13_840_12658" style="mask-type:luminance" maskUnits="userSpaceOnUse" x="84" y="170" width="37" height="73">
<path d="M120.834 176.44L120.512 220.033L120.361 241.052C120.359 241.319 120.3 241.583 120.186 241.825C120.073 242.067 119.908 242.282 119.703 242.454C119.498 242.626 119.259 242.751 119.001 242.821C118.743 242.891 118.472 242.905 118.209 242.86L88.7972 239.632L86.559 239.381C85.9929 239.318 85.4687 239.053 85.0835 238.633C84.6983 238.214 84.4783 237.669 84.4644 237.099L84.9306 172.487C84.9321 172.22 84.9916 171.956 85.1052 171.714C85.2188 171.472 85.3837 171.257 85.5884 171.085C85.7932 170.913 86.0329 170.788 86.2909 170.718C86.5489 170.648 86.8191 170.635 87.0827 170.679L94.6508 171.511L95.2821 173.133L110.512 174.84L111.172 173.355L118.733 174.158C119.299 174.222 119.823 174.488 120.209 174.907C120.595 175.326 120.817 175.87 120.834 176.44Z" fill="white"/>
</mask>
<g mask="url(#mask13_840_12658)">
<path opacity="0.4" d="M120.508 220.034L120.358 241.052C120.356 241.319 120.297 241.583 120.183 241.825C120.069 242.067 119.905 242.282 119.7 242.454C119.495 242.626 119.255 242.751 118.997 242.821C118.739 242.891 118.469 242.905 118.206 242.86L88.7939 239.632L89.1024 220.184C93.9557 218.822 98.9622 218.082 104.002 217.982C104.719 217.982 105.437 217.982 106.19 217.982C111.029 218.075 115.838 218.764 120.508 220.034Z" fill="#A57C52"/>
<path opacity="0.3" d="M99.28 203.814C99.3015 203.758 99.3305 203.705 99.3661 203.656C99.3343 203.707 99.3055 203.76 99.28 203.814Z" fill="#1C1B1F"/>
<path d="M93.9443 215.496C93.9443 214.145 94.1745 212.848 94.635 211.605C95.1174 210.362 95.83 209.25 96.7729 208.269C97.7377 207.31 98.9328 206.547 100.358 205.98C101.783 205.413 103.461 205.13 105.39 205.13C107.276 205.13 108.932 205.413 110.357 205.98C111.782 206.547 112.966 207.321 113.909 208.302C114.874 209.283 115.598 210.395 116.08 211.638C116.563 212.88 116.804 214.167 116.804 215.496C116.804 216.848 116.563 218.134 116.08 219.355C115.62 220.598 114.918 221.71 113.975 222.691C113.032 223.672 111.837 224.446 110.39 225.013C108.965 225.579 107.298 225.863 105.39 225.863C103.483 225.863 101.816 225.579 100.391 225.013C98.9657 224.446 97.7706 223.672 96.8058 222.691C95.8629 221.732 95.1503 220.631 94.6679 219.388C94.1855 218.145 93.9443 216.848 93.9443 215.496ZM95.852 215.496C95.852 216.608 96.2686 217.491 97.1018 218.145C97.9351 218.821 99.0643 219.312 100.49 219.617C101.937 219.922 103.57 220.075 105.39 220.075C107.21 220.075 108.833 219.922 110.258 219.617C111.684 219.312 112.813 218.821 113.646 218.145C114.479 217.491 114.896 216.608 114.896 215.496C114.896 214.406 114.479 213.523 113.646 212.848C112.813 212.172 111.684 211.681 110.258 211.376C108.833 211.071 107.21 210.918 105.39 210.918C103.57 210.918 101.937 211.071 100.49 211.376C99.0643 211.681 97.9351 212.172 97.1018 212.848C96.2686 213.523 95.852 214.406 95.852 215.496Z" fill="#707070"/>
<path d="M108.729 197.544H108.218C108.21 198.074 108.201 198.603 108.193 199.132C108.193 199.653 108.193 200.153 108.193 200.631H108.677C109.103 200.631 109.434 200.558 109.672 200.413C109.911 200.268 110.081 200.076 110.183 199.837C110.285 199.598 110.336 199.342 110.336 199.068C110.336 198.052 109.8 197.544 108.729 197.544ZM105.106 197.493V196.801H109.251C110.255 196.801 111.024 196.989 111.56 197.365C112.104 197.741 112.377 198.261 112.377 198.927C112.377 199.209 112.304 199.491 112.16 199.773C112.015 200.046 111.777 200.289 111.445 200.503C111.114 200.708 110.663 200.857 110.093 200.951C110.578 201.011 110.956 201.131 111.229 201.31C111.501 201.481 111.705 201.707 111.841 201.989C111.977 202.262 112.075 202.599 112.134 203.001L112.377 204.422L113.346 204.525V205.216C113.142 205.259 112.972 205.293 112.836 205.319C112.7 205.353 112.564 205.374 112.428 205.383C112.3 205.391 112.138 205.396 111.943 205.396C111.399 205.396 110.969 205.302 110.655 205.114C110.348 204.926 110.161 204.585 110.093 204.089L109.864 202.603C109.804 202.177 109.681 201.861 109.494 201.656C109.315 201.451 109.035 201.348 108.652 201.348H108.193C108.193 201.895 108.193 202.42 108.193 202.924C108.201 203.427 108.21 203.927 108.218 204.422L109.213 204.525V205.216H105.106V204.525L106.063 204.422C106.08 203.901 106.088 203.376 106.088 202.847C106.088 202.317 106.088 201.784 106.088 201.246V200.772C106.088 200.242 106.088 199.713 106.088 199.184C106.088 198.646 106.08 198.116 106.063 197.595L105.106 197.493Z" fill="#707070"/>
<path d="M106.201 191.387L106.201 192.149C106.982 192.162 107.762 192.175 108.543 192.188C109.31 192.188 110.047 192.188 110.752 192.188L110.752 191.463C110.752 190.828 110.645 190.332 110.431 189.976C110.217 189.62 109.934 189.366 109.581 189.214C109.229 189.061 108.851 188.985 108.448 188.985C106.95 188.985 106.201 189.785 106.201 191.387ZM106.126 196.801L105.106 196.801L105.106 190.605C105.106 189.106 105.383 187.955 105.937 187.155C106.491 186.341 107.259 185.934 108.24 185.934C108.656 185.934 109.071 186.042 109.487 186.259C109.89 186.475 110.248 186.83 110.563 187.326C110.865 187.822 111.085 188.495 111.224 189.347C111.312 188.623 111.488 188.057 111.753 187.65C112.004 187.244 112.338 186.939 112.753 186.735C113.156 186.532 113.653 186.386 114.245 186.297L116.341 185.934L116.492 184.486L117.512 184.486C117.575 184.791 117.625 185.045 117.663 185.248C117.713 185.451 117.745 185.655 117.757 185.858C117.77 186.049 117.776 186.29 117.776 186.583C117.776 187.396 117.638 188.038 117.361 188.508C117.084 188.966 116.58 189.245 115.85 189.347L113.66 189.69C113.03 189.779 112.565 189.963 112.262 190.243C111.96 190.51 111.809 190.929 111.809 191.501L111.809 192.188C112.615 192.188 113.389 192.188 114.132 192.188C114.875 192.175 115.611 192.162 116.341 192.149L116.492 190.662L117.512 190.662L117.512 196.801L116.492 196.801L116.341 195.371C115.573 195.346 114.799 195.333 114.018 195.333C113.238 195.333 112.451 195.333 111.658 195.333L110.96 195.333C110.179 195.333 109.399 195.333 108.618 195.333C107.825 195.333 107.045 195.346 106.277 195.371L106.126 196.801Z" fill="#707070"/>
<path d="M95.6267 171.192V169.866H108.081L108.251 174.088H106.225L105.736 171.241H101.658C101.642 172.173 101.626 173.114 101.609 174.063C101.609 175.012 101.609 175.97 101.609 176.935H104.247L104.54 175.021H105.956V180.298H104.54L104.247 178.383H101.609C101.609 179.512 101.609 180.584 101.609 181.598C101.626 182.613 101.642 183.619 101.658 184.617H106.225L106.713 181.77H108.74L108.569 185.992H95.6267V184.666L97.4582 184.47C97.4907 183.472 97.507 182.466 97.507 181.451C97.507 180.437 97.507 179.414 97.507 178.383V177.475C97.507 176.46 97.507 175.446 97.507 174.431C97.507 173.401 97.4907 172.386 97.4582 171.388L95.6267 171.192Z" fill="#707070"/>
<path d="M93.7673 215.585C93.7673 214.234 93.9975 212.936 94.458 211.694C94.9404 210.451 95.653 209.339 96.5959 208.358C97.5607 207.399 98.7558 206.636 100.181 206.069C101.606 205.502 103.284 205.219 105.213 205.219C107.099 205.219 108.755 205.502 110.18 206.069C111.605 206.636 112.789 207.41 113.732 208.391C114.697 209.372 115.421 210.484 115.903 211.726C116.386 212.969 116.627 214.255 116.627 215.585C116.627 216.937 116.386 218.223 115.903 219.444C115.443 220.687 114.741 221.799 113.798 222.78C112.855 223.761 111.66 224.535 110.213 225.101C108.788 225.668 107.121 225.952 105.213 225.952C103.306 225.952 101.639 225.668 100.214 225.101C98.7887 224.535 97.5936 223.761 96.6288 222.78C95.6859 221.82 94.9733 220.719 94.4909 219.477C94.0085 218.234 93.7673 216.937 93.7673 215.585ZM95.6749 215.585C95.6749 216.697 96.0916 217.58 96.9248 218.234C97.7581 218.91 98.8873 219.4 100.313 219.706C101.76 220.011 103.393 220.164 105.213 220.164C107.033 220.164 108.656 220.011 110.081 219.706C111.507 219.4 112.636 218.91 113.469 218.234C114.302 217.58 114.719 216.697 114.719 215.585C114.719 214.495 114.302 213.612 113.469 212.936C112.636 212.261 111.507 211.77 110.081 211.465C108.656 211.16 107.033 211.007 105.213 211.007C103.393 211.007 101.76 211.16 100.313 211.465C98.8873 211.77 97.7581 212.261 96.9248 212.936C96.0916 213.612 95.6749 214.495 95.6749 215.585Z" fill="#A57C52"/>
<path d="M108.551 197.633H108.041C108.033 198.162 108.024 198.691 108.016 199.221C108.016 199.742 108.016 200.241 108.016 200.719H108.5C108.925 200.719 109.257 200.647 109.495 200.502C109.733 200.356 109.903 200.164 110.005 199.925C110.107 199.686 110.158 199.43 110.158 199.157C110.158 198.141 109.623 197.633 108.551 197.633ZM104.929 197.581V196.89H109.074C110.078 196.89 110.847 197.078 111.383 197.453C111.927 197.829 112.199 198.35 112.199 199.016C112.199 199.298 112.127 199.579 111.982 199.861C111.838 200.134 111.6 200.378 111.268 200.591C110.937 200.796 110.486 200.946 109.916 201.04C110.401 201.099 110.779 201.219 111.051 201.398C111.323 201.569 111.528 201.795 111.664 202.077C111.8 202.35 111.897 202.688 111.957 203.089L112.199 204.511L113.169 204.613V205.305C112.965 205.347 112.795 205.382 112.659 205.407C112.522 205.441 112.386 205.463 112.25 205.471C112.123 205.48 111.961 205.484 111.766 205.484C111.221 205.484 110.792 205.39 110.477 205.202C110.171 205.014 109.984 204.673 109.916 204.178L109.687 202.692C109.627 202.265 109.504 201.949 109.317 201.744C109.138 201.539 108.857 201.437 108.475 201.437H108.016C108.016 201.983 108.016 202.508 108.016 203.012C108.024 203.516 108.033 204.015 108.041 204.511L109.036 204.613V205.305H104.929V204.613L105.885 204.511C105.902 203.99 105.911 203.465 105.911 202.935C105.911 202.406 105.911 201.872 105.911 201.334V200.86C105.911 200.331 105.911 199.801 105.911 199.272C105.911 198.734 105.902 198.205 105.885 197.684L104.929 197.581Z" fill="#A57C52"/>
<path d="M106.024 191.475L106.024 192.238C106.804 192.251 107.585 192.263 108.365 192.276C109.133 192.276 109.87 192.276 110.575 192.276L110.575 191.552C110.575 190.916 110.468 190.42 110.254 190.065C110.04 189.709 109.756 189.454 109.404 189.302C109.051 189.149 108.674 189.073 108.271 189.073C106.773 189.073 106.024 189.874 106.024 191.475ZM105.948 196.89L104.929 196.89L104.929 190.694C104.929 189.194 105.206 188.044 105.76 187.243C106.313 186.43 107.081 186.023 108.063 186.023C108.479 186.023 108.894 186.131 109.309 186.347C109.712 186.563 110.071 186.919 110.386 187.415C110.688 187.91 110.908 188.584 111.047 189.435C111.135 188.711 111.311 188.145 111.575 187.739C111.827 187.332 112.161 187.027 112.576 186.824C112.979 186.62 113.476 186.474 114.068 186.385L116.164 186.023L116.315 184.574L117.335 184.574C117.397 184.879 117.448 185.133 117.486 185.336C117.536 185.54 117.567 185.743 117.58 185.947C117.593 186.137 117.599 186.379 117.599 186.671C117.599 187.484 117.46 188.126 117.183 188.597C116.907 189.054 116.403 189.334 115.673 189.435L113.482 189.779C112.853 189.868 112.387 190.052 112.085 190.331C111.783 190.598 111.632 191.018 111.632 191.59L111.632 192.276C112.438 192.276 113.212 192.276 113.955 192.276C114.697 192.263 115.434 192.251 116.164 192.238L116.315 190.751L117.335 190.751L117.335 196.89L116.315 196.89L116.164 195.46C115.396 195.434 114.622 195.422 113.841 195.422C113.061 195.422 112.274 195.422 111.481 195.422L110.782 195.422C110.002 195.422 109.221 195.422 108.441 195.422C107.648 195.422 106.867 195.434 106.099 195.46L105.948 196.89Z" fill="#A57C52"/>
<path d="M95.4497 171.28V169.955H107.904L108.074 174.177H106.048L105.559 171.33H101.481C101.465 172.262 101.449 173.203 101.432 174.152C101.432 175.101 101.432 176.058 101.432 177.024H104.07L104.363 175.109H105.779V180.386H104.363L104.07 178.472H101.432C101.432 179.601 101.432 180.673 101.432 181.687C101.449 182.702 101.465 183.708 101.481 184.706H106.048L106.536 181.859H108.563L108.392 186.081H95.4497V184.755L97.2812 184.559C97.3137 183.561 97.33 182.555 97.33 181.54C97.33 180.526 97.33 179.503 97.33 178.472V177.564C97.33 176.549 97.33 175.535 97.33 174.52C97.33 173.489 97.3137 172.475 97.2812 171.477L95.4497 171.28Z" fill="#A57C52"/>
</g>
<path d="M120.829 176.439L120.506 220.033L120.356 241.052C120.354 241.319 120.295 241.583 120.181 241.825C120.067 242.067 119.902 242.281 119.698 242.453C119.493 242.625 119.253 242.751 118.995 242.821C118.737 242.891 118.467 242.904 118.203 242.859L88.7918 239.631L86.5537 239.38C85.9876 239.318 85.4633 239.052 85.0781 238.633C84.6929 238.213 84.4729 237.668 84.459 237.099L84.9253 172.487C84.9267 172.219 84.9863 171.955 85.0999 171.713C85.2134 171.471 85.3783 171.257 85.5831 171.085C85.7878 170.913 86.0275 170.787 86.2855 170.717C86.5435 170.647 86.8137 170.634 87.0773 170.679L94.6455 171.511L95.2767 173.132L110.506 174.839L111.166 173.355L118.727 174.158C119.293 174.222 119.818 174.487 120.204 174.906C120.59 175.325 120.812 175.87 120.829 176.439Z" stroke="#1C1B1F" stroke-linecap="round" stroke-linejoin="round"/>
<path d="M76.9867 225.772C76.9867 225.772 87.7973 217.479 89.7701 210.22C91.7428 202.96 93.4716 197.824 95.6165 201.798C99.3253 208.692 94.6768 217.407 93.9522 220.686C93.2277 223.964 95.4874 242.02 85.344 248.44C81.8507 250.682 77.6855 251.635 73.5649 251.138" fill="#FFFEFC"/>
<path d="M76.9867 225.772C76.9867 225.772 87.7973 217.479 89.7701 210.22C91.7428 202.96 93.4716 197.824 95.6165 201.798C99.3253 208.692 94.6768 217.407 93.9522 220.686C93.2277 223.964 95.4874 242.02 85.344 248.44C81.8507 250.682 77.6855 251.635 73.5649 251.138" stroke="#1C1B1F" stroke-linecap="round" stroke-linejoin="round"/>
<path d="M53.4506 252.314C57.1372 252.618 60.7183 253.696 63.9599 255.478C68.9814 258.347 73.6083 268.871 73.6083 268.871L69.1105 276.705H68.0775C68.0775 276.705 60.6816 261.124 48.4291 260.421L48.0059 258.627L53.4506 252.314Z" fill="#1C1B1F"/>
<path d="M62.9957 267.931C62.9957 267.931 68.6556 260.377 69.1075 260.485C69.5595 260.593 72.8163 264.509 71.4174 265.227C71.4174 265.227 69.7245 261.948 69.1936 262.623C68.6628 263.297 64.7101 267.759 64.7388 268.362C64.7675 268.964 66.3959 272.207 66.3959 272.207C66.3959 272.207 65.6355 273.261 65.1693 272.58C63.2324 269.725 62.5796 268.512 62.9957 267.931Z" fill="#FFFEFC" stroke="#1C1B1F" stroke-linecap="round" stroke-linejoin="round"/>
<path d="M66.7405 264.56C66.8077 264.474 66.8932 264.406 66.9907 264.358C67.0883 264.311 67.1952 264.287 67.3036 264.287C67.412 264.287 67.519 264.311 67.6165 264.358C67.714 264.406 67.7996 264.474 67.8667 264.56L68.6844 265.564C68.8074 265.696 68.8758 265.871 68.8758 266.052C68.8758 266.232 68.8074 266.407 68.6844 266.539L68.6127 266.618C68.5394 266.703 68.4474 266.769 68.344 266.811C68.2406 266.854 68.1287 266.872 68.0172 266.863C67.9057 266.855 67.7977 266.821 67.7018 266.763C67.606 266.706 67.5249 266.627 67.465 266.532L66.7118 265.456C66.614 265.326 66.5635 265.166 66.5687 265.003C66.5739 264.84 66.6345 264.684 66.7405 264.56Z" fill="#FFFEFC" stroke="#1C1B1F" stroke-linecap="round" stroke-linejoin="round"/>
<path d="M91.9417 206.324C91.9417 207.436 93.3762 206.956 93.7851 206.769C94.194 206.583 95.4923 204.244 95.4923 204.244" stroke="#1C1B1F" stroke-linecap="round" stroke-linejoin="round"/>
<path opacity="0.2" d="M320 235.077L160 0L0 235.077L80 352.616H240L320 235.077Z" fill="#A57C52"/>
</svg>
