<svg width="461" height="258" viewBox="0 0 461 258" fill="none" xmlns="http://www.w3.org/2000/svg">
<path d="M451.665 83.7808C451.866 108.948 446.265 132.01 437.376 154.399C436.176 157.423 434.956 160.455 433.526 163.374C427.004 176.678 419.994 176.649 408.808 171.938C407.351 171.324 407.215 170.144 407.1 169.071C406.458 163.032 406.671 157.165 409.263 151.401C412.488 144.227 415.212 136.824 417.991 129.459C418.387 128.408 419.836 126.647 417.062 125.964C403.003 122.509 391.237 114.07 378.369 108.021C375.468 106.657 374.114 106.499 374.588 110.085C376.026 120.947 375.695 132.175 379.986 142.466C381.812 146.843 384.56 150.715 383.204 155.777C382.162 159.673 380.113 162.66 375.954 163.512C370.832 164.563 366.685 162.409 364.198 158.226C357.096 146.293 352.947 133.257 352.053 119.43C350.822 100.357 351.648 81.3298 357.077 62.8637C362.786 43.4444 373.549 27.188 391.369 17.0448C402.624 10.6378 416.415 10.4945 429.151 22.9955C441.236 34.8563 446.722 49.7391 450.354 65.6945C451.794 72.0012 450.845 78.4034 451.665 83.7808Z" fill="#FFFEFC"/>
<path d="M40.5297 110.737C46.7206 127.395 57.1041 141.1 70.3339 152.803C72.4015 154.63 74.5554 156.377 76.4936 158.331C78.9014 160.763 80.4922 163.665 78.542 167.019C76.6709 170.237 73.5036 171.914 69.8356 171.446C63.2806 170.607 57.3197 168.402 52.0992 163.94C45.9802 158.711 39.0012 154.528 33.4189 148.596C20.376 134.738 12.1391 118.907 10.1002 99.6047C8.31535 82.7129 9.45577 66.4087 15.4837 50.6086C26.8423 20.8407 56.7615 5.75008 85.2527 14.6606C112.477 23.1746 125.853 53.9937 119.801 76.4349C114.803 94.9679 102.663 107.739 84.1746 114.041C72.2074 118.119 60.2618 118.035 48.3354 113.838C47.0128 113.372 45.652 113.054 45.3094 111.415C40.4555 100.653 47.7364 90.1424 57.969 90.5556C63.4626 90.7778 68.9874 90.171 74.4955 89.8605C78.185 89.6526 81.0648 88.3459 83.6835 85.8185C94.079 75.7756 96.2688 64.1489 89.4766 52.7347C86.8316 48.2914 83.1013 44.5671 79.2057 41.237C74.2199 36.9776 62.8086 37.7612 55.693 42.3025C51.4092 45.0354 47.7556 48.43 45.3597 52.9521C39.133 64.7079 35.1918 76.7789 37.0102 90.5508C37.9039 97.3663 39.4252 104 40.5297 110.737Z" fill="#FFFEFC"/>
<path d="M150.433 96.4132C152.887 118.627 161.579 137.672 178.953 152.325C180.667 153.77 182.109 155.545 183.877 156.907C187.303 159.544 188.911 162.932 186.898 166.802C184.821 170.801 180.959 172.201 176.397 171.756C168.163 170.956 162.906 165.433 157.542 160.101C137.055 139.733 127.57 114.975 126.231 86.27C125.296 66.2128 129.35 48.0286 142.283 32.7015C156.938 15.3319 176.431 9.13512 198.475 13.6668C212.21 16.4881 220.78 26.8201 226.53 39.1276C235.514 58.3558 231.032 76.5257 219.084 92.3306C211.697 102.104 199.419 106.279 187.085 106.759C178.829 107.08 170.242 107.725 162.14 103.914C159.883 102.854 159.667 101.695 159.236 100.001C155.747 91.5709 159.856 83.162 168.695 80.5175C174.219 78.8644 179.998 79.1105 185.633 78.4272C195.298 77.2567 200.178 71.65 201.891 62.964C203.492 54.8441 198.851 48.9483 193.503 43.4682C186.263 36.046 165.987 40.8405 161.006 48.1242C154.796 57.2043 151.035 66.9319 150.637 77.959C150.417 84.1104 151.301 90.2713 150.433 96.4132Z" fill="#FFFEFC"/>
<path d="M331.006 126.284C335.591 125.887 338.744 128.458 340.503 132.067C342.671 136.513 340.766 140.992 337.994 144.518C325.529 160.385 308.37 165.163 289.239 163.032C276.692 161.635 265.053 157.385 255.46 148.109C244.032 137.06 238.126 123.541 235.704 108.398C232.024 85.4076 235.843 63.5397 248.16 43.6092C255.432 31.8392 264.907 22.0447 278.604 17.7423C301.75 10.4706 318.164 16.9612 331.849 39.756C337.714 49.5265 340.376 59.9898 336.083 71.2917C333.428 78.2792 327.376 82.2089 320.066 81.4301C313.243 81.9318 310.473 78.7235 311.391 70.0853C312.496 59.6673 307.402 52.5652 301.688 45.5012C297.088 39.8133 288.381 39.1635 281.304 43.067C276.625 45.647 273.328 49.6077 270.398 53.9006C256.505 74.2491 253.759 103.217 268.201 124.437C279.8 141.48 303.715 146.496 321.825 130.264C324.4 127.949 326.566 124.437 331.006 126.284Z" fill="#FFFEFC"/>
<path d="M331.005 126.284C328.044 126.382 325.869 128.016 323.928 130.003C305.655 148.718 277.645 143.811 265.563 122.815C254.643 103.835 254.516 84.5667 262.878 64.8679C266.752 55.7423 271.61 47.1806 280.513 41.8987C288.166 37.3598 299.05 38.1171 305.368 47.5532C310.332 54.9683 314.242 62.0896 312.706 71.3513C311.788 76.8792 314.651 80.2237 320.068 81.4301C317.634 82.5911 315.603 84.4448 312.486 84.2155C305.272 83.6828 303.794 82.6412 303.362 75.5534C303.077 70.864 301.594 66.8841 298.41 63.4561C293.717 58.4012 289.289 57.7132 283.249 61.1173C274.648 65.962 271.582 74.0364 270.98 83.1309C270.357 92.5623 272.705 101.633 276.606 110.159C282.267 122.536 294.083 126.946 306.755 121.812C308.032 121.293 309.275 120.687 310.526 120.104C320.512 115.441 325.227 116.864 331.005 126.284Z" fill="#FACC21"/>
<path d="M40.5298 110.737C35.5225 103.711 35.774 95.3979 35.4722 87.4716C34.7917 69.5669 39.0995 53.1958 54.222 41.8223C61.4406 36.3924 70.6765 34.0274 78.4366 39.2829C88.9088 46.3731 96.2664 56.201 94.424 70.2764C93.0656 80.668 82.9863 90.6631 72.586 91.3655C67.3176 91.7214 62.0252 91.6951 56.7615 92.0798C48.8864 92.6555 45.0507 96.9101 45.1058 104.741C45.1226 106.967 45.2352 109.194 45.3047 111.418C43.7138 111.191 42.123 110.964 40.5298 110.737Z" fill="#FB3F1C"/>
<path d="M150.434 96.4132C147.02 78.5992 148.752 61.6262 160.35 47.0038C167.425 38.0861 178.175 36.5285 188.233 38.884C197.119 40.9647 201.731 49.1347 203.64 57.9377C205.528 66.6405 197.759 77.0106 188.985 78.9934C183.053 80.3336 177.068 81.0024 171.067 81.3775C162.71 81.9007 158.237 89.4137 159.344 96.9435C159.49 97.9397 159.284 98.986 159.236 100.004C156.301 98.8045 153.366 97.6076 150.434 96.4132Z" fill="#65AD91"/>
<path d="M426.532 87.3163C426.254 90.6822 425.734 95.4695 425.502 100.271C425.332 103.804 424.263 103.687 421.515 102.094C411.577 96.3367 401.826 90.1471 390.815 86.5064C387.404 85.3789 383.839 84.7219 380.372 83.7473C378.46 83.2098 376.879 82.3928 377.437 79.8032C380.647 64.9037 386.17 51.1987 398.4 41.2776C405.298 35.6852 408.417 36.6073 414.009 43.8695C423.605 56.3276 426.784 70.563 426.532 87.3163Z" fill="#52B9D2"/>
<path d="M22.2949 188.373C22.2949 187.898 22.5249 187.659 22.9825 187.659H30.4072C31.3943 187.659 32.3071 187.843 33.148 188.211C33.989 188.579 34.7197 189.078 35.3354 189.706C35.9536 190.337 36.4351 191.073 36.7849 191.911C37.1323 192.75 37.3072 193.636 37.3072 194.57C37.3072 195.483 37.1347 196.352 36.7921 197.177C36.4471 198.001 35.9703 198.729 35.357 199.358C34.7437 199.988 34.0225 200.49 33.1912 200.863C32.3598 201.235 31.4566 201.422 30.4791 201.422H25.1771V209.121C25.1771 209.558 24.9567 209.776 24.5207 209.776H22.9514C22.5129 209.776 22.2949 209.558 22.2949 209.121V188.373ZM34.425 194.542C34.425 194.016 34.3196 193.51 34.1112 193.022C33.9027 192.537 33.6152 192.107 33.2511 191.735C32.8869 191.362 32.4628 191.066 31.9741 190.841C31.4853 190.619 30.963 190.507 30.4048 190.507H25.1771V198.579H30.4048C30.9415 198.579 31.4542 198.469 31.9429 198.252C32.4317 198.034 32.8582 197.738 33.2271 197.365C33.5961 196.993 33.886 196.563 34.1016 196.078C34.3172 195.588 34.425 195.077 34.425 194.542Z" fill="#FFFEFC"/>
<path d="M40.6592 188.373C40.6592 187.898 40.8772 187.659 41.3156 187.659H49.9358C50.9325 187.659 51.8573 187.846 52.715 188.218C53.5727 188.591 54.3178 189.097 54.9551 189.738C55.5924 190.378 56.0931 191.128 56.4573 191.985C56.8215 192.845 57.0036 193.76 57.0036 194.733C57.0036 195.428 56.9053 196.097 56.7113 196.737C56.5172 197.377 56.2465 197.97 55.8967 198.517C55.5469 199.064 55.13 199.551 54.6413 199.983C54.1525 200.416 53.6111 200.777 53.0121 201.063L56.9556 209.121V209.314C56.9556 209.623 56.7712 209.776 56.4022 209.776H54.5957C54.2867 209.776 54.0471 209.592 53.8794 209.224L50.2952 201.715C50.2162 201.725 50.1275 201.73 50.0341 201.73C49.9382 201.73 49.8041 201.732 49.6316 201.737C49.4567 201.742 49.2267 201.744 48.9368 201.744C48.6469 201.744 48.266 201.744 47.794 201.744C47.322 201.744 46.7422 201.744 46.0546 201.744C45.367 201.744 44.5356 201.744 43.5605 201.744V209.116C43.5605 209.553 43.3305 209.771 42.8729 209.771H41.3204C40.882 209.771 40.664 209.553 40.664 209.116V188.373H40.6592ZM54.1333 194.704C54.1333 194.159 54.0255 193.631 53.8123 193.125C53.5967 192.619 53.3044 192.172 52.9306 191.785C52.5569 191.398 52.1137 191.087 51.601 190.853C51.0882 190.619 50.5324 190.502 49.9358 190.502H43.5581V198.904H49.9957C50.5827 198.904 51.1314 198.789 51.6393 198.56C52.1472 198.333 52.5856 198.025 52.9546 197.638C53.3236 197.251 53.6111 196.804 53.8219 196.297C54.0303 195.791 54.1333 195.261 54.1333 194.704Z" fill="#FFFEFC"/>
<path d="M71.3733 187.361C72.4179 187.361 73.4265 187.494 74.3992 187.762C75.3695 188.029 76.2751 188.412 77.1185 188.909C77.9594 189.405 78.7285 189.998 79.4257 190.688C80.1228 191.379 80.717 192.148 81.2106 192.996C81.7041 193.846 82.0874 194.757 82.3606 195.729C82.6337 196.701 82.7702 197.714 82.7702 198.768C82.7702 199.809 82.6361 200.815 82.3677 201.782C82.0994 202.75 81.7161 203.655 81.2177 204.494C80.7194 205.332 80.1252 206.099 79.4328 206.787C78.7405 207.477 77.9714 208.067 77.1257 208.56C76.2799 209.052 75.3671 209.432 74.392 209.699C73.4169 209.967 72.4011 210.1 71.3445 210.1C70.288 210.1 69.2745 209.967 68.3042 209.699C67.3339 209.432 66.4259 209.049 65.5849 208.552C64.744 208.056 63.9773 207.463 63.2849 206.773C62.5925 206.082 62.0008 205.318 61.5072 204.479C61.0137 203.641 60.6327 202.735 60.3644 201.768C60.0961 200.8 59.9619 199.79 59.9619 198.736C59.9619 197.695 60.0961 196.689 60.3644 195.722C60.6327 194.754 61.0161 193.846 61.5144 193.003C62.0127 192.16 62.6069 191.391 63.2993 190.695C63.9917 190 64.7608 189.408 65.6065 188.916C66.4522 188.424 67.3626 188.041 68.333 187.769C69.3033 187.497 70.3167 187.361 71.3733 187.361ZM62.8273 198.696C62.8273 199.479 62.9303 200.232 63.134 200.953C63.3376 201.675 63.6251 202.348 63.9941 202.979C64.3631 203.61 64.8063 204.183 65.3238 204.699C65.8413 205.215 66.4163 205.657 67.0488 206.025C67.6813 206.393 68.3593 206.677 69.0805 206.883C69.8016 207.086 70.5563 207.188 71.3445 207.188C72.1208 207.188 72.8731 207.086 73.6014 206.883C74.3273 206.68 75.0054 206.393 75.6331 206.025C76.2608 205.657 76.8334 205.215 77.3509 204.699C77.8684 204.183 78.3116 203.61 78.6806 202.979C79.0495 202.348 79.3346 201.672 79.5407 200.953C79.7443 200.234 79.8473 199.482 79.8473 198.696C79.8473 197.525 79.6221 196.424 79.1741 195.397C78.7261 194.37 78.1175 193.474 77.3509 192.709C76.5842 191.945 75.6858 191.338 74.6556 190.891C73.6253 190.445 72.5209 190.222 71.3469 190.222C70.5611 190.222 69.8064 190.325 69.0829 190.528C68.3617 190.731 67.6837 191.018 67.0512 191.386C66.4187 191.754 65.8437 192.196 65.3262 192.712C64.8087 193.228 64.3655 193.799 63.9965 194.425C63.6275 195.05 63.3424 195.726 63.1364 196.45C62.9304 197.172 62.8273 197.922 62.8273 198.696Z" fill="#FFFEFC"/>
<path d="M101.494 200.662C101.494 200.225 101.712 200.007 102.151 200.007H103.689C103.868 200.007 104.027 200.065 104.168 200.179C104.307 200.294 104.376 200.454 104.376 200.664V207.322C104.376 207.442 104.352 207.554 104.302 207.657C104.252 207.762 104.168 207.848 104.048 207.917L103.928 208.005C102.992 208.681 101.961 209.2 100.835 209.563C99.7092 209.926 98.4945 210.108 97.1912 210.108C96.1346 210.108 95.1212 209.974 94.1509 209.706C93.1806 209.439 92.2726 209.056 91.4316 208.559C90.5907 208.063 89.824 207.47 89.1316 206.78C88.4392 206.089 87.8474 205.325 87.3539 204.486C86.8604 203.648 86.4794 202.743 86.2111 201.775C85.9428 200.808 85.8086 199.797 85.8086 198.744C85.8086 197.702 85.9428 196.699 86.2111 195.736C86.4794 194.773 86.8628 193.87 87.3611 193.025C87.8594 192.181 88.4536 191.412 89.146 190.717C89.8384 190.022 90.6051 189.427 91.446 188.93C92.2869 188.433 93.1926 188.048 94.1653 187.776C95.1356 187.504 96.149 187.368 97.2056 187.368C98.4298 187.368 99.611 187.554 100.747 187.927C101.882 188.299 102.944 188.832 103.928 189.527C104.038 189.606 104.127 189.699 104.197 189.802C104.266 189.907 104.302 190.012 104.302 190.122C104.302 190.261 104.261 190.38 104.182 190.48L103.392 191.792C103.222 192.031 103.049 192.15 102.869 192.15C102.8 192.15 102.723 192.134 102.637 192.098C102.553 192.062 102.455 192.004 102.347 191.926C101.631 191.419 100.85 191.02 100.009 190.726C99.1678 190.435 98.2693 190.287 97.3134 190.287C96.0795 190.287 94.9367 190.521 93.8849 190.987C92.8332 191.453 91.9228 192.079 91.1513 192.865C90.3798 193.648 89.7737 194.553 89.3353 195.576C88.8968 196.598 88.6788 197.666 88.6788 198.779C88.6788 199.962 88.904 201.066 89.3496 202.093C89.7977 203.12 90.4062 204.013 91.1729 204.773C91.9395 205.533 92.8332 206.132 93.8538 206.567C94.8744 207.004 95.9621 207.222 97.1169 207.222C97.8429 207.222 98.5688 207.105 99.2899 206.871C100.011 206.636 100.747 206.362 101.494 206.044V200.662Z" fill="#FFFEFC"/>
<path d="M108.771 188.373C108.771 187.898 108.989 187.659 109.427 187.659H118.047C119.044 187.659 119.969 187.846 120.826 188.218C121.684 188.591 122.429 189.097 123.066 189.738C123.704 190.378 124.204 191.128 124.569 191.985C124.933 192.845 125.115 193.76 125.115 194.733C125.115 195.428 125.017 196.097 124.823 196.737C124.629 197.377 124.358 197.97 124.008 198.517C123.658 199.064 123.241 199.551 122.753 199.983C122.264 200.416 121.722 200.777 121.123 201.063L125.067 209.121V209.314C125.067 209.623 124.882 209.776 124.514 209.776H122.707C122.398 209.776 122.158 209.592 121.991 209.224L118.407 201.715C118.327 201.725 118.239 201.73 118.145 201.73C118.05 201.73 117.915 201.732 117.743 201.737C117.568 201.742 117.338 201.744 117.048 201.744C116.758 201.744 116.377 201.744 115.905 201.744C115.433 201.744 114.854 201.744 114.166 201.744C113.478 201.744 112.647 201.744 111.672 201.744V209.116C111.672 209.553 111.442 209.771 110.984 209.771H109.432C108.993 209.771 108.775 209.553 108.775 209.116V188.373H108.771ZM122.245 194.704C122.245 194.159 122.137 193.631 121.924 193.125C121.708 192.619 121.416 192.172 121.042 191.785C120.668 191.398 120.225 191.087 119.712 190.853C119.2 190.619 118.644 190.502 118.047 190.502H111.667V198.904H118.105C118.692 198.904 119.24 198.789 119.748 198.56C120.256 198.333 120.695 198.025 121.064 197.638C121.432 197.251 121.72 196.804 121.931 196.297C122.139 195.791 122.245 195.261 122.245 194.704Z" fill="#FFFEFC"/>
<path d="M130.963 209.226C130.893 209.396 130.793 209.529 130.663 209.627C130.534 209.728 130.369 209.776 130.17 209.776H128.586C128.128 209.776 127.898 209.601 127.898 209.255C127.898 209.185 127.901 209.128 127.906 209.083C127.91 209.037 127.918 208.994 127.927 208.956C127.937 208.916 127.946 208.882 127.956 208.851L136.576 188.206C136.595 188.156 136.622 188.099 136.65 188.034C136.679 187.97 136.72 187.91 136.77 187.855C136.821 187.8 136.892 187.752 136.988 187.714C137.082 187.676 137.209 187.654 137.369 187.654H138.354C138.502 187.654 138.625 187.676 138.72 187.714C138.814 187.755 138.886 187.803 138.936 187.855C138.986 187.91 139.025 187.97 139.056 188.034C139.087 188.099 139.111 188.156 139.13 188.206L147.674 208.851C147.683 208.901 147.693 208.951 147.702 208.999C147.712 209.049 147.722 209.097 147.731 209.14C147.741 209.185 147.746 209.221 147.746 209.252C147.746 209.601 147.516 209.773 147.058 209.773H145.474C145.275 209.773 145.11 209.723 144.981 209.625C144.851 209.527 144.751 209.393 144.681 209.224L143.038 205.127H132.551C132.201 206.011 131.883 206.809 131.595 207.525C131.315 208.244 131.102 208.81 130.963 209.226ZM133.754 202.241H141.895L137.863 192.052L133.754 202.241Z" fill="#FFFEFC"/>
<path d="M162.063 208.825C161.843 208.825 161.649 208.641 161.481 208.273L154.924 192.454L153.175 209.121C153.175 209.558 152.954 209.776 152.518 209.776H150.966C150.508 209.776 150.278 209.558 150.278 209.121L152.638 188.314C152.638 188.115 152.712 187.955 152.863 187.838C153.012 187.719 153.177 187.659 153.357 187.659H155.657C155.976 187.659 156.194 187.843 156.313 188.211L162.797 204.014L169.34 188.211C169.39 188.032 169.469 187.896 169.579 187.803C169.689 187.707 169.814 187.662 169.953 187.662H172.327C172.536 187.662 172.699 187.726 172.814 187.855C172.929 187.984 172.986 188.139 172.986 188.316L175.346 209.123C175.346 209.561 175.126 209.778 174.689 209.778H173.137C172.679 209.778 172.449 209.561 172.449 209.123L170.7 192.456L164.112 208.275C163.942 208.643 163.743 208.827 163.515 208.827H162.063V208.825Z" fill="#FFFEFC"/>
<path d="M180.971 209.226C180.901 209.396 180.8 209.529 180.671 209.627C180.542 209.728 180.376 209.776 180.178 209.776H178.594C178.136 209.776 177.906 209.601 177.906 209.255C177.906 209.185 177.909 209.128 177.913 209.083C177.918 209.037 177.925 208.994 177.935 208.956C177.945 208.916 177.954 208.882 177.964 208.851L186.584 188.206C186.603 188.156 186.629 188.099 186.658 188.034C186.687 187.97 186.728 187.91 186.778 187.855C186.828 187.8 186.9 187.752 186.996 187.714C187.089 187.676 187.216 187.654 187.377 187.654H188.362C188.51 187.654 188.632 187.676 188.728 187.714C188.822 187.755 188.894 187.803 188.944 187.855C188.994 187.91 189.033 187.97 189.064 188.034C189.095 188.099 189.119 188.156 189.138 188.206L197.681 208.851C197.691 208.901 197.701 208.951 197.71 208.999C197.72 209.049 197.729 209.097 197.739 209.14C197.749 209.185 197.753 209.221 197.753 209.252C197.753 209.601 197.523 209.773 197.066 209.773H195.482C195.283 209.773 195.118 209.723 194.989 209.625C194.859 209.527 194.759 209.393 194.689 209.224L193.046 205.127H182.559C182.209 206.011 181.891 206.809 181.603 207.525C181.325 208.244 181.109 208.81 180.971 209.226ZM183.764 202.241H191.905L187.873 192.052L183.764 202.241Z" fill="#FFFEFC"/>
<path d="M210.504 188.373C210.504 187.898 210.734 187.659 211.192 187.659H218.168C219.234 187.659 220.25 187.788 221.216 188.046C222.181 188.304 223.077 188.672 223.904 189.15C224.73 189.625 225.478 190.203 226.144 190.877C226.81 191.553 227.38 192.298 227.855 193.118C228.327 193.937 228.693 194.821 228.952 195.769C229.211 196.718 229.34 197.709 229.34 198.741C229.34 199.764 229.208 200.746 228.945 201.682C228.681 202.621 228.307 203.5 227.823 204.319C227.339 205.139 226.76 205.884 226.084 206.553C225.406 207.222 224.656 207.795 223.83 208.273C223.003 208.748 222.112 209.121 221.156 209.384C220.2 209.647 219.203 209.778 218.168 209.778H211.192C211.012 209.778 210.854 209.735 210.712 209.651C210.573 209.565 210.504 209.4 210.504 209.152V188.373ZM218.092 206.933C219.306 206.933 220.427 206.711 221.453 206.264C222.478 205.817 223.362 205.213 224.105 204.453C224.848 203.693 225.428 202.807 225.844 201.794C226.264 200.781 226.472 199.709 226.472 198.576C226.472 197.365 226.252 196.264 225.816 195.27C225.377 194.279 224.783 193.428 224.031 192.724C223.278 192.019 222.399 191.472 221.395 191.085C220.389 190.698 219.313 190.504 218.168 190.504H213.374V206.933H218.092Z" fill="#FFFEFC"/>
<path d="M248.356 187.659C248.814 187.659 249.044 187.898 249.044 188.373V189.847C249.044 190.036 248.987 190.201 248.872 190.339C248.757 190.478 248.574 190.547 248.325 190.547H236.286V196.67H245.757C245.937 196.67 246.09 196.723 246.219 196.825C246.349 196.93 246.413 197.107 246.413 197.353V198.873C246.413 199.052 246.358 199.212 246.248 199.35C246.138 199.489 245.975 199.558 245.755 199.558H236.284V206.887H248.383C248.84 206.887 249.07 207.121 249.07 207.587V209.121C249.07 209.558 248.852 209.775 248.414 209.775H234.046C233.608 209.775 233.39 209.568 233.39 209.15V188.342C233.39 187.886 233.608 187.657 234.046 187.657H248.356V187.659Z" fill="#FFFEFC"/>
<path d="M261.965 188.373C261.965 187.898 262.195 187.659 262.652 187.659H270.077C271.064 187.659 271.977 187.843 272.818 188.211C273.659 188.579 274.39 189.078 275.005 189.706C275.624 190.337 276.105 191.073 276.455 191.911C276.802 192.75 276.977 193.636 276.977 194.57C276.977 195.483 276.805 196.352 276.462 197.177C276.117 198.001 275.64 198.729 275.027 199.358C274.414 199.988 273.692 200.49 272.861 200.863C272.03 201.235 271.127 201.422 270.149 201.422H264.847V209.121C264.847 209.558 264.627 209.776 264.191 209.776H262.621C262.183 209.776 261.965 209.558 261.965 209.121V188.373ZM274.095 194.542C274.095 194.016 273.99 193.51 273.781 193.022C273.573 192.537 273.285 192.107 272.921 191.735C272.557 191.362 272.133 191.066 271.644 190.841C271.155 190.619 270.633 190.507 270.075 190.507H264.847V198.579H270.075C270.611 198.579 271.124 198.469 271.613 198.252C272.102 198.034 272.528 197.738 272.897 197.365C273.266 196.993 273.556 196.563 273.772 196.078C273.987 195.588 274.095 195.077 274.095 194.542Z" fill="#FFFEFC"/>
<path d="M280.331 188.373C280.331 187.898 280.549 187.659 280.988 187.659H289.608C290.604 187.659 291.529 187.846 292.387 188.218C293.245 188.591 293.99 189.097 294.627 189.738C295.264 190.378 295.765 191.128 296.129 191.985C296.493 192.845 296.675 193.76 296.675 194.733C296.675 195.428 296.577 196.097 296.383 196.737C296.189 197.377 295.918 197.97 295.569 198.517C295.219 199.064 294.802 199.551 294.313 199.983C293.824 200.416 293.283 200.777 292.684 201.063L296.628 209.121V209.314C296.628 209.623 296.443 209.776 296.074 209.776H294.268C293.959 209.776 293.719 209.592 293.551 209.224L289.967 201.715C289.888 201.725 289.799 201.73 289.706 201.73C289.61 201.73 289.476 201.732 289.303 201.737C289.129 201.742 288.899 201.744 288.609 201.744C288.319 201.744 287.938 201.744 287.466 201.744C286.994 201.744 286.414 201.744 285.726 201.744C285.039 201.744 284.208 201.744 283.232 201.744V209.116C283.232 209.553 283.002 209.771 282.545 209.771H280.992C280.554 209.771 280.336 209.553 280.336 209.116V188.373H280.331ZM293.805 194.704C293.805 194.159 293.697 193.631 293.484 193.125C293.269 192.619 292.976 192.172 292.603 191.785C292.229 191.398 291.786 191.087 291.273 190.853C290.76 190.619 290.204 190.502 289.608 190.502H283.23V198.904H289.668C290.255 198.904 290.803 198.789 291.311 198.56C291.819 198.333 292.258 198.025 292.626 197.638C292.995 197.251 293.283 196.804 293.494 196.297C293.7 195.791 293.805 195.261 293.805 194.704Z" fill="#FFFEFC"/>
<path d="M311.043 187.361C312.088 187.361 313.096 187.494 314.069 187.762C315.039 188.029 315.945 188.412 316.788 188.909C317.629 189.405 318.398 189.998 319.096 190.688C319.793 191.379 320.387 192.148 320.88 192.996C321.374 193.846 321.757 194.757 322.03 195.729C322.304 196.701 322.44 197.714 322.44 198.768C322.44 199.809 322.306 200.815 322.038 201.782C321.769 202.75 321.386 203.655 320.888 204.494C320.389 205.332 319.795 206.099 319.103 206.787C318.41 207.477 317.641 208.067 316.796 208.56C315.95 209.052 315.037 209.432 314.062 209.699C313.087 209.967 312.071 210.1 311.014 210.1C309.958 210.1 308.944 209.967 307.974 209.699C307.004 209.432 306.096 209.049 305.255 208.552C304.414 208.056 303.647 207.463 302.955 206.773C302.262 206.082 301.671 205.318 301.177 204.479C300.684 203.641 300.303 202.735 300.034 201.768C299.766 200.8 299.632 199.79 299.632 198.736C299.632 197.695 299.766 196.689 300.034 195.722C300.303 194.754 300.686 193.846 301.184 193.003C301.683 192.16 302.277 191.391 302.969 190.695C303.662 190 304.431 189.408 305.276 188.916C306.122 188.424 307.033 188.041 308.003 187.769C308.973 187.497 309.987 187.361 311.043 187.361ZM302.5 198.696C302.5 199.479 302.603 200.232 302.806 200.953C303.01 201.675 303.297 202.348 303.666 202.979C304.035 203.61 304.479 204.183 304.996 204.699C305.514 205.215 306.089 205.657 306.721 206.025C307.354 206.393 308.032 206.677 308.753 206.883C309.474 207.086 310.229 207.188 311.017 207.188C311.793 207.188 312.545 207.086 313.274 206.883C314 206.68 314.678 206.393 315.305 206.025C315.933 205.657 316.506 205.215 317.023 204.699C317.541 204.183 317.984 203.61 318.353 202.979C318.722 202.348 319.007 201.672 319.213 200.953C319.417 200.234 319.52 199.482 319.52 198.696C319.52 197.525 319.294 196.424 318.846 195.397C318.398 194.37 317.79 193.474 317.023 192.709C316.257 191.945 315.358 191.338 314.328 190.891C313.298 190.445 312.193 190.222 311.019 190.222C310.233 190.222 309.479 190.325 308.755 190.528C308.034 190.731 307.356 191.018 306.723 191.386C306.091 191.754 305.516 192.196 304.998 192.712C304.481 193.228 304.038 193.799 303.669 194.425C303.3 195.05 303.015 195.726 302.809 196.45C302.6 197.172 302.5 197.922 302.5 198.696Z" fill="#FFFEFC"/>
<path d="M337.031 208.825C336.811 208.825 336.617 208.641 336.449 208.273L329.892 192.454L328.143 209.121C328.143 209.558 327.922 209.776 327.486 209.776H325.934C325.476 209.776 325.246 209.558 325.246 209.121L327.606 188.314C327.606 188.115 327.68 187.955 327.831 187.838C327.98 187.719 328.145 187.659 328.325 187.659H330.625C330.943 187.659 331.161 187.843 331.281 188.211L337.764 204.014L344.307 188.211C344.358 188.032 344.437 187.896 344.547 187.803C344.657 187.707 344.782 187.662 344.921 187.662H347.295C347.503 187.662 347.666 187.726 347.781 187.855C347.896 187.984 347.954 188.139 347.954 188.316L350.314 209.123C350.314 209.561 350.093 209.778 349.657 209.778H348.105C347.647 209.778 347.417 209.561 347.417 209.123L345.668 192.456L339.08 208.275C338.91 208.643 338.711 208.827 338.483 208.827H337.031V208.825Z" fill="#FFFEFC"/>
<path d="M364.539 187.361C365.584 187.361 366.593 187.494 367.565 187.762C368.536 188.029 369.441 188.412 370.284 188.909C371.125 189.405 371.894 189.998 372.592 190.688C373.289 191.379 373.883 192.148 374.377 192.996C374.87 193.846 375.253 194.757 375.527 195.729C375.8 196.701 375.936 197.714 375.936 198.768C375.936 199.809 375.802 200.815 375.534 201.782C375.265 202.75 374.882 203.655 374.384 204.494C373.885 205.332 373.291 206.099 372.599 206.787C371.906 207.477 371.137 208.067 370.292 208.56C369.446 209.052 368.533 209.432 367.558 209.699C366.583 209.967 365.567 210.1 364.511 210.1C363.454 210.1 362.441 209.967 361.47 209.699C360.5 209.432 359.592 209.049 358.751 208.552C357.91 208.056 357.143 207.463 356.451 206.773C355.759 206.082 355.167 205.318 354.673 204.479C354.18 203.641 353.799 202.735 353.53 201.768C353.262 200.8 353.128 199.79 353.128 198.736C353.128 197.695 353.262 196.689 353.53 195.722C353.799 194.754 354.182 193.846 354.68 193.003C355.179 192.16 355.773 191.391 356.465 190.695C357.158 190 357.927 189.408 358.773 188.916C359.618 188.424 360.529 188.041 361.499 187.769C362.469 187.497 363.483 187.361 364.539 187.361ZM355.996 198.696C355.996 199.479 356.099 200.232 356.302 200.953C356.506 201.672 356.794 202.348 357.163 202.979C357.531 203.61 357.975 204.183 358.492 204.699C359.01 205.215 359.585 205.657 360.217 206.025C360.85 206.393 361.528 206.677 362.249 206.883C362.97 207.086 363.725 207.188 364.513 207.188C365.289 207.188 366.041 207.086 366.77 206.883C367.496 206.68 368.174 206.393 368.801 206.025C369.429 205.657 370.002 205.215 370.519 204.699C371.037 204.183 371.48 203.61 371.849 202.979C372.218 202.348 372.503 201.672 372.709 200.953C372.913 200.234 373.016 199.482 373.016 198.696C373.016 197.525 372.791 196.424 372.343 195.397C371.895 194.37 371.286 193.474 370.519 192.709C369.753 191.945 368.854 191.338 367.824 190.891C366.794 190.445 365.689 190.222 364.515 190.222C363.729 190.222 362.975 190.325 362.251 190.528C361.53 190.731 360.852 191.018 360.22 191.386C359.587 191.754 359.012 192.196 358.495 192.712C357.977 193.228 357.534 193.799 357.165 194.425C356.796 195.05 356.511 195.726 356.305 196.45C356.096 197.172 355.996 197.922 355.996 198.696Z" fill="#FFFEFC"/>
<path d="M397.04 189.52C397.15 189.599 397.238 189.692 397.308 189.795C397.377 189.9 397.413 190.005 397.413 190.115C397.413 190.254 397.373 190.373 397.294 190.473L396.503 191.785C396.333 192.024 396.16 192.143 395.981 192.143C395.911 192.143 395.835 192.126 395.748 192.091C395.664 192.055 395.566 191.997 395.456 191.919C394.74 191.412 393.985 191.025 393.192 190.758C392.401 190.49 391.565 190.33 390.691 190.282C389.406 190.282 388.221 190.514 387.135 190.975C386.05 191.436 385.111 192.057 384.32 192.838C383.53 193.617 382.909 194.522 382.461 195.55C382.013 196.577 381.788 197.661 381.788 198.803C381.788 200.015 382.018 201.135 382.475 202.162C382.933 203.189 383.549 204.076 384.32 204.821C385.092 205.566 385.988 206.147 387.008 206.562C388.029 206.978 389.102 207.188 390.228 207.188C390.636 207.188 391.045 207.16 391.453 207.1C391.86 207.04 392.277 206.938 392.701 206.794C393.125 206.651 393.566 206.467 394.023 206.242C394.481 206.018 394.97 205.743 395.487 205.416C395.676 205.306 395.832 205.253 395.949 205.253C396.129 205.253 396.292 205.378 396.443 205.626L397.294 207.026C397.363 207.155 397.399 207.274 397.399 207.384C397.399 207.623 397.279 207.812 397.04 207.95C396.103 208.626 395.073 209.154 393.947 209.537C392.821 209.919 391.606 210.11 390.303 210.11C389.246 210.11 388.233 209.976 387.262 209.709C386.292 209.441 385.384 209.059 384.543 208.562C383.702 208.065 382.935 207.473 382.243 206.782C381.551 206.092 380.959 205.327 380.465 204.489C379.972 203.65 379.591 202.745 379.322 201.778C379.054 200.81 378.92 199.8 378.92 198.746C378.92 197.704 379.054 196.699 379.322 195.731C379.591 194.764 379.974 193.856 380.472 193.013C380.971 192.169 381.565 191.4 382.257 190.705C382.95 190.01 383.719 189.417 384.565 188.925C385.41 188.433 386.321 188.051 387.291 187.779C388.261 187.506 389.275 187.37 390.331 187.37C391.577 187.37 392.756 187.554 393.872 187.922C394.989 188.28 396.043 188.815 397.04 189.52ZM391.544 209.747C391.326 209.895 391.215 210.069 391.215 210.268C391.215 210.425 391.292 210.573 391.448 210.707C391.601 210.841 391.793 210.98 392.016 211.123C392.241 211.266 392.488 211.421 392.756 211.584C393.024 211.746 393.271 211.937 393.496 212.15C393.719 212.363 393.908 212.606 394.064 212.879C394.217 213.151 394.296 213.471 394.296 213.839C394.296 214.188 394.227 214.517 394.088 214.83C393.949 215.143 393.719 215.437 393.4 215.709C393.082 215.982 392.662 216.242 392.145 216.491C391.627 216.739 390.99 216.978 390.233 217.205H390.159C390.01 217.205 389.881 217.145 389.771 217.026C389.66 216.906 389.567 216.768 389.488 216.608C389.409 216.45 389.349 216.285 389.308 216.116C389.268 215.946 389.248 215.817 389.248 215.729C389.248 215.59 389.303 215.48 389.414 215.401C391.117 214.983 391.968 214.463 391.968 213.837C391.968 213.619 391.893 213.426 391.742 213.256C391.594 213.087 391.407 212.926 391.182 212.771C390.957 212.618 390.717 212.463 390.458 212.31C390.2 212.157 389.958 211.99 389.735 211.811C389.51 211.632 389.325 211.433 389.174 211.214C389.026 210.996 388.949 210.743 388.949 210.454C388.949 210.344 388.963 210.232 388.994 210.112C389.023 209.993 389.109 209.869 389.248 209.74H391.544V209.747Z" fill="#FFFEFC"/>
<path d="M402.823 209.226C402.754 209.396 402.653 209.529 402.524 209.627C402.394 209.728 402.229 209.775 402.03 209.775H400.446C399.989 209.775 399.759 209.601 399.759 209.255C399.759 209.185 399.761 209.128 399.766 209.083C399.771 209.037 399.778 208.994 399.788 208.956C399.797 208.915 399.807 208.882 399.816 208.851L408.436 188.206C408.456 188.156 408.482 188.099 408.511 188.034C408.54 187.97 408.58 187.91 408.631 187.855C408.681 187.8 408.753 187.752 408.849 187.714C408.942 187.676 409.069 187.654 409.23 187.654H410.214C410.363 187.654 410.485 187.676 410.581 187.714C410.674 187.755 410.746 187.802 410.796 187.855C410.847 187.91 410.885 187.97 410.916 188.034C410.947 188.099 410.971 188.156 410.99 188.206L419.534 208.851C419.544 208.901 419.553 208.951 419.563 208.999C419.572 209.049 419.582 209.097 419.592 209.14C419.601 209.185 419.606 209.221 419.606 209.252C419.606 209.601 419.376 209.773 418.918 209.773H417.335C417.136 209.773 416.97 209.723 416.841 209.625C416.712 209.527 416.611 209.393 416.542 209.224L414.898 205.127H404.412C404.062 206.011 403.743 206.808 403.456 207.525C403.178 208.244 402.962 208.81 402.823 209.226ZM413.295 182.535C413.324 182.494 413.353 182.473 413.377 182.468C413.401 182.463 413.439 182.461 413.489 182.461C413.549 182.461 413.64 182.504 413.765 182.588C413.889 182.674 414.016 182.771 414.146 182.886C414.275 183.001 414.39 183.118 414.488 183.237C414.589 183.357 414.637 183.45 414.637 183.519C414.637 183.55 414.635 183.591 414.63 183.646C414.625 183.701 414.603 183.744 414.563 183.772L414.234 184.233C413.846 184.709 413.425 185.048 412.972 185.246C412.519 185.445 412.009 185.545 411.441 185.545C411.163 185.545 410.868 185.485 410.559 185.366C410.25 185.246 409.967 185.098 409.709 184.919L408.947 184.427C408.798 184.348 408.652 184.279 408.513 184.219C408.374 184.159 408.214 184.128 408.034 184.128C407.835 184.128 407.648 184.167 407.473 184.241C407.298 184.315 407.157 184.413 407.047 184.532C406.997 184.582 406.937 184.652 406.867 184.74C406.798 184.828 406.726 184.917 406.652 185C406.577 185.086 406.498 185.158 406.412 185.225C406.328 185.289 406.249 185.323 406.18 185.323C406.16 185.323 406.084 185.282 405.954 185.203C405.825 185.125 405.691 185.027 405.552 184.914C405.413 184.8 405.286 184.68 405.171 184.556C405.056 184.432 404.998 184.324 404.998 184.236C404.998 184.167 405.008 184.121 405.027 184.102C405.377 183.505 405.811 183.041 406.335 182.709C406.858 182.377 407.478 182.21 408.195 182.21C408.504 182.241 408.805 182.301 409.098 182.389C409.39 182.48 409.668 182.623 409.927 182.822L410.717 183.314C411.005 183.512 411.314 183.612 411.645 183.612C411.824 183.612 411.997 183.574 412.167 183.5C412.337 183.426 412.476 183.335 412.586 183.225C412.636 183.185 412.694 183.125 412.759 183.046C412.823 182.967 412.888 182.891 412.953 182.814C413.017 182.74 413.08 182.676 413.14 182.621C413.207 182.561 413.255 182.535 413.295 182.535ZM405.617 202.241H413.758L409.725 192.052L405.617 202.241Z" fill="#FFFEFC"/>
<path d="M432.239 187.361C433.283 187.361 434.292 187.494 435.264 187.762C436.235 188.029 437.14 188.412 437.984 188.909C438.825 189.405 439.594 189.998 440.291 190.688C440.988 191.379 441.582 192.148 442.076 192.996C442.569 193.846 442.953 194.757 443.226 195.729C443.499 196.701 443.635 197.714 443.635 198.768C443.635 199.809 443.501 200.815 443.233 201.782C442.965 202.75 442.581 203.655 442.083 204.494C441.585 205.332 440.99 206.099 440.298 206.787C439.606 207.477 438.837 208.067 437.991 208.56C437.145 209.052 436.232 209.432 435.257 209.699C434.282 209.967 433.266 210.1 432.21 210.1C431.153 210.1 430.14 209.967 429.169 209.699C428.199 209.432 427.291 209.049 426.45 208.552C425.609 208.056 424.843 207.463 424.15 206.773C423.458 206.082 422.866 205.318 422.372 204.479C421.879 203.641 421.498 202.735 421.23 201.768C420.961 200.8 420.827 199.79 420.827 198.736C420.827 197.695 420.961 196.689 421.23 195.722C421.498 194.754 421.881 193.846 422.38 193.003C422.878 192.16 423.472 191.391 424.165 190.695C424.857 190 425.626 189.408 426.472 188.916C427.317 188.424 428.228 188.041 429.198 187.769C430.171 187.497 431.184 187.361 432.239 187.361ZM423.695 198.696C423.695 199.479 423.798 200.232 424.002 200.953C424.205 201.675 424.493 202.348 424.862 202.979C425.231 203.61 425.674 204.183 426.191 204.699C426.709 205.215 427.284 205.657 427.916 206.025C428.549 206.393 429.227 206.677 429.948 206.883C430.669 207.086 431.424 207.188 432.212 207.188C432.988 207.188 433.741 207.086 434.469 206.883C435.195 206.68 435.873 206.393 436.501 206.025C437.128 205.657 437.701 205.215 438.218 204.699C438.736 204.183 439.179 203.61 439.548 202.979C439.917 202.348 440.202 201.672 440.408 200.953C440.612 200.234 440.715 199.482 440.715 198.696C440.715 197.525 440.49 196.424 440.042 195.397C439.594 194.37 438.985 193.474 438.218 192.709C437.452 191.945 436.553 191.338 435.523 190.891C434.493 190.445 433.388 190.222 432.215 190.222C431.429 190.222 430.674 190.325 429.95 190.528C429.229 190.731 428.551 191.018 427.919 191.386C427.286 191.754 426.711 192.196 426.194 192.712C425.676 193.228 425.233 193.799 424.864 194.425C424.495 195.05 424.21 195.726 424.004 196.45C423.796 197.172 423.695 197.922 423.695 198.696Z" fill="#FFFEFC"/>
<path d="M44.9336 224.121C44.9336 223.645 45.1636 223.406 45.6212 223.406H52.5979C53.664 223.406 54.6798 223.535 55.6454 223.793C56.6109 224.051 57.5069 224.419 58.3335 224.897C59.1601 225.373 59.9076 225.951 60.5736 226.624C61.2396 227.3 61.8098 228.046 62.2842 228.865C62.7562 229.684 63.1228 230.568 63.3815 231.517C63.6403 232.465 63.7696 233.457 63.7696 234.489C63.7696 235.511 63.6379 236.493 63.3743 237.429C63.1108 238.368 62.737 239.247 62.2531 240.067C61.7691 240.886 61.1893 241.631 60.5137 242.3C59.8357 242.969 59.0858 243.542 58.2592 244.02C57.4327 244.496 56.5414 244.868 55.5855 245.131C54.6295 245.394 53.6329 245.525 52.5979 245.525H45.6212C45.4415 245.525 45.2834 245.482 45.142 245.399C45.0031 245.315 44.9336 245.148 44.9336 244.899V224.121ZM52.5212 242.68C53.7359 242.68 54.8571 242.458 55.8826 242.011C56.908 241.564 57.792 240.96 58.5347 240.2C59.2774 239.441 59.8572 238.554 60.2741 237.542C60.6934 236.529 60.9018 235.456 60.9018 234.324C60.9018 233.113 60.6814 232.011 60.2454 231.017C59.8069 230.026 59.2128 229.176 58.4605 228.471C57.7082 227.766 56.8289 227.219 55.8251 226.832C54.8188 226.445 53.7431 226.252 52.5979 226.252H47.8038V242.68H52.5212Z" fill="#FFFEFC"/>
<path d="M70.6404 244.976C70.571 245.145 70.4703 245.279 70.341 245.377C70.2116 245.477 70.0463 245.525 69.8474 245.525H68.2638C67.8062 245.525 67.5762 245.351 67.5762 245.004C67.5762 244.935 67.5786 244.878 67.5834 244.832C67.5882 244.787 67.5953 244.744 67.6049 244.706C67.6145 244.665 67.6241 244.632 67.6337 244.601L76.2539 223.956C76.273 223.906 76.2994 223.848 76.3282 223.784C76.3569 223.719 76.3976 223.66 76.4479 223.605C76.4983 223.55 76.5701 223.502 76.666 223.464C76.7594 223.426 76.8864 223.404 77.0469 223.404H78.0316C78.1801 223.404 78.3023 223.426 78.3982 223.464C78.4916 223.504 78.5635 223.552 78.6138 223.605C78.6641 223.66 78.7024 223.719 78.7336 223.784C78.7647 223.848 78.7887 223.906 78.8078 223.956L87.3514 244.601C87.361 244.651 87.3705 244.701 87.3801 244.749C87.3897 244.799 87.3993 244.847 87.4089 244.89C87.4185 244.935 87.4233 244.971 87.4233 245.002C87.4233 245.351 87.1933 245.523 86.7357 245.523H85.152C84.9531 245.523 84.7878 245.473 84.6585 245.375C84.5291 245.277 84.4285 245.143 84.359 244.973L82.7154 240.876H72.2289C71.8791 241.76 71.5604 242.561 71.2729 243.275C70.995 243.991 70.7818 244.558 70.6404 244.976ZM73.434 237.988H81.575L77.5428 227.8L73.434 237.988Z" fill="#FFFEFC"/>
<path d="M119.101 225.27C119.211 225.349 119.3 225.442 119.369 225.545C119.439 225.65 119.475 225.755 119.475 225.865C119.475 226.003 119.434 226.123 119.355 226.223L118.564 227.535C118.394 227.773 118.222 227.893 118.042 227.893C117.973 227.893 117.896 227.876 117.81 227.84C117.726 227.804 117.628 227.747 117.517 227.668C116.801 227.162 116.046 226.775 115.253 226.507C114.46 226.24 113.627 226.08 112.752 226.032C111.468 226.032 110.282 226.264 109.197 226.725C108.111 227.186 107.172 227.807 106.382 228.588C105.591 229.367 104.971 230.27 104.522 231.299C104.074 232.327 103.849 233.411 103.849 234.553C103.849 235.764 104.079 236.885 104.537 237.912C104.994 238.939 105.61 239.825 106.382 240.571C107.153 241.316 108.049 241.897 109.07 242.312C110.09 242.728 111.164 242.938 112.29 242.938C112.697 242.938 113.107 242.909 113.514 242.85C113.921 242.79 114.338 242.687 114.762 242.544C115.186 242.401 115.627 242.217 116.085 241.992C116.542 241.768 117.031 241.493 117.549 241.166C117.738 241.056 117.894 241.003 118.011 241.003C118.191 241.003 118.354 241.127 118.505 241.376L119.355 242.776C119.425 242.905 119.461 243.024 119.461 243.134C119.461 243.373 119.341 243.562 119.101 243.7C118.164 244.376 117.134 244.904 116.008 245.286C114.882 245.669 113.667 245.86 112.364 245.86C111.307 245.86 110.294 245.726 109.324 245.458C108.353 245.191 107.445 244.809 106.604 244.312C105.764 243.815 104.997 243.222 104.304 242.532C103.612 241.842 103.02 241.077 102.527 240.239C102.033 239.4 101.652 238.495 101.384 237.527C101.116 236.56 100.981 235.549 100.981 234.496C100.981 233.454 101.116 232.448 101.384 231.481C101.652 230.513 102.036 229.606 102.534 228.762C103.032 227.919 103.626 227.15 104.319 226.455C105.011 225.76 105.78 225.167 106.626 224.675C107.472 224.183 108.382 223.801 109.352 223.528C110.323 223.256 111.336 223.12 112.393 223.12C113.639 223.12 114.817 223.304 115.934 223.672C117.048 224.028 118.104 224.565 119.101 225.27Z" fill="#FFFEFC"/>
<path d="M126.568 236.381C126.568 237.324 126.705 238.203 126.978 239.018C127.251 239.833 127.656 240.54 128.188 241.142C128.72 241.744 129.371 242.214 130.138 242.556C130.905 242.897 131.782 243.069 132.766 243.069C133.823 243.069 134.743 242.895 135.531 242.549C136.317 242.202 136.966 241.727 137.481 241.127C137.994 240.528 138.377 239.821 138.631 239.006C138.885 238.191 139.012 237.317 139.012 236.383V224.066C139.012 223.887 139.079 223.734 139.214 223.605C139.348 223.476 139.515 223.411 139.714 223.411H141.149C141.339 223.411 141.514 223.471 141.672 223.59C141.83 223.71 141.911 223.868 141.911 224.066V236.787C141.911 238.127 141.672 239.357 141.195 240.473C140.716 241.591 140.062 242.549 139.23 243.347C138.399 244.144 137.429 244.768 136.317 245.217C135.205 245.664 134.024 245.886 132.769 245.886C131.513 245.886 130.335 245.647 129.228 245.172C128.123 244.694 127.153 244.042 126.322 243.213C125.49 242.384 124.836 241.419 124.357 240.315C123.878 239.211 123.641 238.036 123.641 236.784V224.063C123.641 223.915 123.698 223.767 123.813 223.624C123.928 223.481 124.079 223.409 124.268 223.409H125.866C126.015 223.409 126.171 223.473 126.329 223.602C126.487 223.731 126.568 223.887 126.568 224.063V236.381Z" fill="#FFFEFC"/>
<path d="M160.628 242.637C160.808 242.637 160.961 242.699 161.091 242.823C161.22 242.948 161.285 243.12 161.285 243.337V244.871C161.285 245.05 161.225 245.203 161.105 245.332C160.985 245.461 160.827 245.525 160.626 245.525H147.928C147.49 245.525 147.271 245.308 147.271 244.871V224.063C147.271 223.884 147.331 223.731 147.451 223.602C147.571 223.473 147.739 223.409 147.959 223.409H149.497C149.686 223.409 149.842 223.464 149.967 223.574C150.091 223.684 150.154 223.846 150.154 224.066V242.639H160.628V242.637Z" fill="#FFFEFC"/>
<path d="M177.689 223.406C177.868 223.406 178.029 223.461 178.175 223.571C178.319 223.681 178.403 223.844 178.422 224.063V225.568C178.422 225.767 178.362 225.939 178.242 226.082C178.122 226.225 177.938 226.297 177.689 226.297H171.474V244.842C171.474 245.021 171.414 245.179 171.294 245.317C171.174 245.456 171.004 245.525 170.786 245.525H169.277C169.097 245.525 168.939 245.461 168.798 245.332C168.659 245.203 168.589 245.038 168.589 244.84V226.295H162.346C162.147 226.295 161.982 226.235 161.852 226.115C161.723 225.996 161.658 225.812 161.658 225.564V224.059C161.658 223.86 161.723 223.7 161.852 223.583C161.982 223.464 162.147 223.404 162.346 223.404H177.689V223.406Z" fill="#FFFEFC"/>
<path d="M185.245 236.381C185.245 237.324 185.382 238.203 185.655 239.018C185.928 239.833 186.333 240.54 186.865 241.142C187.397 241.744 188.048 242.214 188.815 242.556C189.582 242.897 190.458 243.069 191.443 243.069C192.497 243.069 193.42 242.895 194.208 242.549C194.994 242.202 195.645 241.727 196.158 241.127C196.671 240.528 197.054 239.821 197.308 239.006C197.562 238.191 197.689 237.317 197.689 236.383V224.066C197.689 223.887 197.756 223.734 197.89 223.605C198.024 223.476 198.192 223.411 198.391 223.411H199.826C200.015 223.411 200.19 223.471 200.348 223.59C200.507 223.71 200.588 223.868 200.588 224.066V236.787C200.588 238.127 200.348 239.357 199.872 240.473C199.392 241.591 198.738 242.549 197.907 243.347C197.076 244.144 196.105 244.768 194.994 245.217C193.882 245.664 192.701 245.886 191.446 245.886C190.19 245.886 189.011 245.647 187.904 245.172C186.8 244.694 185.83 244.042 184.998 243.213C184.167 242.384 183.513 241.419 183.034 240.315C182.555 239.211 182.317 238.036 182.317 236.784V224.063C182.317 223.915 182.375 223.767 182.49 223.624C182.605 223.481 182.756 223.409 182.945 223.409H184.543C184.692 223.409 184.847 223.473 185.006 223.602C185.164 223.731 185.245 223.887 185.245 224.063V236.381Z" fill="#FFFEFC"/>
<path d="M205.936 224.121C205.936 223.645 206.154 223.406 206.592 223.406H215.212C216.209 223.406 217.134 223.593 217.991 223.966C218.849 224.338 219.594 224.845 220.231 225.485C220.869 226.125 221.37 226.875 221.734 227.733C222.098 228.593 222.28 229.508 222.28 230.48C222.28 231.175 222.182 231.844 221.988 232.484C221.794 233.124 221.523 233.717 221.173 234.264C220.823 234.811 220.406 235.298 219.918 235.731C219.429 236.163 218.887 236.524 218.288 236.811L222.232 244.868V245.062C222.232 245.37 222.048 245.523 221.679 245.523H219.872C219.563 245.523 219.323 245.339 219.156 244.971L215.572 237.463C215.493 237.472 215.404 237.477 215.31 237.477C215.217 237.477 215.08 237.479 214.908 237.484C214.733 237.489 214.503 237.491 214.213 237.491C213.923 237.491 213.542 237.491 213.07 237.491C212.598 237.491 212.019 237.491 211.331 237.491C210.643 237.491 209.812 237.491 208.837 237.491V244.863C208.837 245.301 208.607 245.518 208.149 245.518H206.597C206.158 245.518 205.94 245.301 205.94 244.863V224.121H205.936ZM219.41 230.451C219.41 229.907 219.302 229.379 219.089 228.872C218.873 228.366 218.581 227.919 218.207 227.532C217.833 227.145 217.39 226.835 216.877 226.6C216.365 226.366 215.809 226.249 215.212 226.249H208.835V234.651H215.272C215.859 234.651 216.408 234.536 216.916 234.307C217.424 234.08 217.862 233.772 218.231 233.385C218.6 232.998 218.887 232.551 219.098 232.045C219.304 231.538 219.41 231.008 219.41 230.451Z" fill="#FFFEFC"/>
<path d="M229.105 244.976C229.036 245.145 228.935 245.279 228.806 245.377C228.676 245.477 228.511 245.525 228.312 245.525H226.729C226.271 245.525 226.041 245.351 226.041 245.004C226.041 244.935 226.043 244.878 226.048 244.832C226.053 244.787 226.06 244.744 226.07 244.706C226.079 244.665 226.089 244.632 226.099 244.601L234.719 223.956C234.738 223.906 234.764 223.848 234.793 223.784C234.822 223.719 234.862 223.66 234.913 223.605C234.963 223.55 235.035 223.502 235.131 223.464C235.224 223.426 235.351 223.404 235.512 223.404H236.496C236.645 223.404 236.767 223.426 236.863 223.464C236.956 223.504 237.028 223.552 237.079 223.605C237.129 223.66 237.167 223.719 237.198 223.784C237.23 223.848 237.254 223.906 237.273 223.956L245.816 244.601C245.826 244.651 245.835 244.701 245.845 244.749C245.855 244.799 245.864 244.847 245.874 244.89C245.883 244.935 245.888 244.971 245.888 245.002C245.888 245.351 245.658 245.523 245.2 245.523H243.617C243.418 245.523 243.253 245.473 243.123 245.375C242.994 245.277 242.893 245.143 242.824 244.973L241.18 240.876H230.694C230.344 241.76 230.025 242.561 229.738 243.275C229.457 243.991 229.244 244.558 229.105 244.976ZM231.899 237.988H240.04L236.008 227.8L231.899 237.988Z" fill="#FFFEFC"/>
<path d="M262.118 244.976C262.048 245.145 261.948 245.279 261.818 245.377C261.689 245.477 261.524 245.525 261.325 245.525H259.741C259.284 245.525 259.054 245.351 259.054 245.004C259.054 244.935 259.056 244.878 259.061 244.832C259.066 244.787 259.073 244.744 259.082 244.706C259.092 244.665 259.102 244.632 259.111 244.601L267.731 223.956C267.751 223.906 267.777 223.848 267.806 223.784C267.834 223.719 267.875 223.66 267.925 223.605C267.976 223.55 268.048 223.502 268.143 223.464C268.237 223.426 268.364 223.404 268.524 223.404H269.509C269.658 223.404 269.78 223.426 269.876 223.464C269.969 223.504 270.041 223.552 270.091 223.605C270.142 223.66 270.18 223.719 270.211 223.784C270.24 223.848 270.266 223.906 270.285 223.956L278.829 244.601C278.838 244.651 278.848 244.701 278.858 244.749C278.867 244.799 278.877 244.847 278.886 244.89C278.896 244.935 278.901 244.971 278.901 245.002C278.901 245.351 278.671 245.523 278.213 245.523H276.63C276.431 245.523 276.265 245.473 276.136 245.375C276.007 245.277 275.906 245.143 275.837 244.973L274.193 240.876H263.706C263.357 241.76 263.038 242.561 262.75 243.275C262.47 243.991 262.257 244.558 262.118 244.976ZM264.912 237.988H273.053L269.02 227.8L264.912 237.988Z" fill="#FFFEFC"/>
<path d="M283.137 224.121C283.137 223.645 283.355 223.406 283.793 223.406H292.413C293.41 223.406 294.335 223.593 295.193 223.966C296.05 224.338 296.795 224.845 297.433 225.485C298.07 226.125 298.571 226.875 298.935 227.733C299.299 228.593 299.481 229.508 299.481 230.48C299.481 231.175 299.383 231.844 299.189 232.484C298.995 233.124 298.724 233.717 298.374 234.264C298.024 234.811 297.608 235.298 297.119 235.731C296.63 236.163 296.089 236.524 295.49 236.811L299.433 244.868V245.062C299.433 245.37 299.249 245.523 298.88 245.523H297.073C296.764 245.523 296.525 245.339 296.357 244.971L292.773 237.463C292.694 237.472 292.605 237.477 292.512 237.477C292.416 237.477 292.282 237.479 292.109 237.484C291.934 237.489 291.704 237.491 291.414 237.491C291.124 237.491 290.743 237.491 290.272 237.491C289.8 237.491 289.217 237.491 288.532 237.491C287.845 237.491 287.013 237.491 286.038 237.491V244.863C286.038 245.301 285.808 245.518 285.35 245.518H283.798C283.36 245.518 283.142 245.301 283.142 244.863V224.121H283.137ZM296.611 230.451C296.611 229.907 296.503 229.379 296.29 228.872C296.074 228.366 295.782 227.919 295.408 227.532C295.034 227.145 294.591 226.835 294.078 226.6C293.566 226.366 293.01 226.249 292.413 226.249H286.036V234.651H292.473C293.06 234.651 293.609 234.536 294.117 234.307C294.625 234.08 295.063 233.772 295.432 233.385C295.801 232.998 296.089 232.551 296.299 232.045C296.505 231.538 296.611 231.008 296.611 230.451Z" fill="#FFFEFC"/>
<path d="M318.928 223.406C319.108 223.406 319.268 223.461 319.414 223.571C319.558 223.681 319.642 223.844 319.661 224.063V225.568C319.661 225.767 319.601 225.939 319.481 226.082C319.362 226.225 319.177 226.297 318.928 226.297H312.713V244.842C312.713 245.021 312.653 245.179 312.533 245.317C312.414 245.456 312.244 245.525 312.026 245.525H310.516C310.337 245.525 310.178 245.461 310.037 245.332C309.898 245.203 309.829 245.038 309.829 244.84V226.295H303.585C303.386 226.295 303.221 226.235 303.092 226.115C302.962 225.996 302.897 225.812 302.897 225.564V224.059C302.897 223.86 302.962 223.7 303.092 223.583C303.221 223.464 303.386 223.404 303.585 223.404H318.928V223.406Z" fill="#FFFEFC"/>
<path d="M323.856 224.063C323.856 223.884 323.914 223.731 324.029 223.602C324.144 223.473 324.304 223.409 324.515 223.409H326.068C326.247 223.409 326.406 223.469 326.547 223.588C326.686 223.707 326.755 223.865 326.755 224.063V244.871C326.755 245.308 326.525 245.525 326.068 245.525H324.515C324.077 245.525 323.859 245.308 323.859 244.871V224.063H323.856ZM326.875 220.8C326.686 221.216 326.422 221.426 326.085 221.426H324.709C324.51 221.426 324.379 221.39 324.314 221.321C324.249 221.252 324.216 221.147 324.216 221.008C324.235 220.939 324.252 220.862 324.261 220.776C324.271 220.693 324.312 220.59 324.381 220.471L325.696 217.418C325.816 217.2 325.934 217.04 326.046 216.94C326.161 216.839 326.312 216.792 326.501 216.792H327.98C328.238 216.792 328.368 216.902 328.368 217.119C328.368 217.198 328.363 217.284 328.353 217.372C328.344 217.463 328.303 217.561 328.234 217.671L326.875 220.8Z" fill="#FFFEFC"/>
<path d="M345.16 228.232C345.021 228.141 344.791 227.969 344.473 227.711C344.154 227.453 343.763 227.191 343.301 226.923C342.839 226.655 342.316 226.414 341.739 226.202C341.162 225.989 340.539 225.881 339.873 225.881C339.087 225.881 338.409 225.977 337.841 226.166C337.273 226.354 336.806 226.605 336.437 226.918C336.068 227.231 335.797 227.582 335.622 227.976C335.448 228.368 335.361 228.765 335.361 229.161C335.361 229.718 335.546 230.184 335.915 230.561C336.284 230.939 336.77 231.266 337.379 231.543C337.985 231.823 338.675 232.071 339.449 232.296C340.22 232.518 341.008 232.754 341.808 233.003C342.611 233.251 343.397 233.528 344.168 233.836C344.94 234.145 345.63 234.527 346.238 234.983C346.847 235.439 347.333 235.986 347.702 236.622C348.071 237.257 348.256 238.027 348.256 238.93C348.256 239.971 348.04 240.917 347.606 241.768C347.173 242.618 346.581 243.342 345.829 243.941C345.076 244.543 344.192 245.007 343.176 245.334C342.161 245.661 341.071 245.826 339.906 245.826C339.13 245.826 338.361 245.74 337.599 245.566C336.837 245.391 336.104 245.138 335.402 244.806C334.7 244.474 334.046 244.068 333.437 243.593C332.829 243.115 332.287 242.57 331.808 241.954C331.679 241.796 331.617 241.636 331.621 241.476C331.626 241.318 331.712 241.168 331.883 241.029L333.061 240.048C333.231 239.909 333.394 239.847 333.555 239.861C333.713 239.876 333.859 239.964 333.988 240.122L334.183 240.315C334.602 240.781 335.076 241.187 335.608 241.529C336.14 241.873 336.674 242.155 337.206 242.379C337.738 242.601 338.248 242.768 338.737 242.878C339.226 242.988 339.638 243.043 339.976 243.043C340.584 243.043 341.205 242.964 341.842 242.804C342.479 242.647 343.061 242.403 343.591 242.076C344.118 241.748 344.552 241.333 344.889 240.831C345.227 240.329 345.397 239.742 345.397 239.066C345.397 238.5 345.23 238.019 344.897 237.628C344.564 237.236 344.113 236.894 343.545 236.6C342.978 236.309 342.314 236.044 341.552 235.812C340.79 235.578 339.976 235.334 339.111 235.074C337.915 234.725 336.89 234.362 336.034 233.98C335.177 233.598 334.472 233.175 333.921 232.714C333.368 232.253 332.963 231.737 332.704 231.166C332.446 230.595 332.316 229.952 332.316 229.238C332.316 228.335 332.498 227.508 332.862 226.758C333.227 226.008 333.742 225.361 334.408 224.814C335.074 224.267 335.879 223.844 336.82 223.54C337.762 223.237 338.814 223.086 339.98 223.086C340.608 223.086 341.26 223.165 341.938 223.325C342.616 223.483 343.275 223.705 343.917 223.987C344.559 224.269 345.163 224.608 345.723 225C346.284 225.392 346.77 225.826 347.18 226.302C347.319 226.45 347.391 226.608 347.396 226.772C347.4 226.935 347.324 227.093 347.163 227.241L346.102 228.254C345.944 228.402 345.781 228.473 345.615 228.461C345.45 228.447 345.299 228.373 345.16 228.232Z" fill="#FFFEFC"/>
<path d="M367.566 223.406C367.745 223.406 367.906 223.461 368.052 223.571C368.196 223.681 368.28 223.844 368.299 224.063V225.568C368.299 225.767 368.239 225.939 368.119 226.082C367.999 226.225 367.815 226.297 367.566 226.297H361.351V244.842C361.351 245.021 361.291 245.179 361.171 245.317C361.051 245.456 360.881 245.525 360.663 245.525H359.154C358.974 245.525 358.816 245.461 358.675 245.332C358.536 245.203 358.466 245.038 358.466 244.84V226.295H352.223C352.024 226.295 351.859 226.235 351.729 226.115C351.6 225.996 351.535 225.812 351.535 225.564V224.059C351.535 223.86 351.6 223.7 351.729 223.583C351.859 223.464 352.024 223.404 352.223 223.404H367.566V223.406Z" fill="#FFFEFC"/>
<path d="M372.496 224.063C372.496 223.884 372.554 223.731 372.669 223.602C372.784 223.473 372.944 223.409 373.155 223.409H374.707C374.887 223.409 375.045 223.469 375.187 223.588C375.326 223.708 375.395 223.865 375.395 224.063V244.871C375.395 245.308 375.165 245.525 374.707 245.525H373.155C372.717 245.525 372.498 245.308 372.498 244.871V224.063H372.496Z" fill="#FFFEFC"/>
<path d="M398.309 225.27C398.419 225.349 398.508 225.442 398.577 225.545C398.647 225.65 398.683 225.755 398.683 225.865C398.683 226.003 398.642 226.123 398.563 226.223L397.772 227.535C397.602 227.773 397.43 227.893 397.25 227.893C397.181 227.893 397.104 227.876 397.018 227.84C396.934 227.804 396.836 227.747 396.725 227.668C396.009 227.162 395.254 226.775 394.461 226.507C393.668 226.24 392.835 226.08 391.96 226.032C390.676 226.032 389.49 226.264 388.405 226.725C387.319 227.186 386.38 227.807 385.59 228.588C384.799 229.367 384.178 230.27 383.73 231.299C383.282 232.327 383.057 233.411 383.057 234.553C383.057 235.764 383.287 236.885 383.745 237.912C384.202 238.939 384.818 239.825 385.59 240.571C386.361 241.316 387.257 241.897 388.278 242.312C389.298 242.728 390.372 242.938 391.498 242.938C391.905 242.938 392.315 242.909 392.722 242.85C393.129 242.79 393.546 242.687 393.97 242.544C394.394 242.401 394.835 242.217 395.293 241.992C395.75 241.768 396.239 241.493 396.757 241.166C396.946 241.056 397.102 241.003 397.219 241.003C397.399 241.003 397.562 241.127 397.713 241.376L398.563 242.776C398.633 242.905 398.669 243.024 398.669 243.134C398.669 243.373 398.549 243.562 398.309 243.7C397.372 244.376 396.342 244.904 395.216 245.286C394.09 245.669 392.875 245.86 391.572 245.86C390.515 245.86 389.502 245.726 388.532 245.458C387.561 245.191 386.653 244.809 385.812 244.312C384.972 243.815 384.205 243.222 383.512 242.532C382.82 241.842 382.228 241.077 381.735 240.239C381.241 239.4 380.86 238.495 380.592 237.527C380.324 236.56 380.189 235.549 380.189 234.496C380.189 233.454 380.324 232.448 380.592 231.481C380.86 230.513 381.244 229.606 381.742 228.762C382.24 227.919 382.834 227.15 383.527 226.455C384.219 225.76 384.988 225.167 385.834 224.675C386.68 224.183 387.59 223.801 388.56 223.528C389.531 223.256 390.544 223.12 391.601 223.12C392.847 223.12 394.025 223.304 395.142 223.672C396.258 224.028 397.312 224.565 398.309 225.27Z" fill="#FFFEFC"/>
<path d="M404.958 244.976C404.888 245.145 404.788 245.279 404.658 245.377C404.529 245.477 404.364 245.525 404.165 245.525H402.581C402.124 245.525 401.894 245.351 401.894 245.004C401.894 244.935 401.896 244.878 401.901 244.832C401.906 244.787 401.913 244.744 401.922 244.706C401.932 244.665 401.941 244.632 401.951 244.601L410.571 223.956C410.59 223.906 410.617 223.848 410.646 223.784C410.674 223.719 410.715 223.66 410.765 223.605C410.816 223.55 410.887 223.502 410.983 223.464C411.077 223.426 411.204 223.404 411.364 223.404H412.349C412.498 223.404 412.62 223.426 412.716 223.464C412.809 223.504 412.881 223.552 412.931 223.605C412.981 223.66 413.02 223.719 413.051 223.784C413.082 223.848 413.106 223.906 413.125 223.956L421.669 244.601C421.678 244.651 421.688 244.701 421.698 244.749C421.707 244.799 421.717 244.847 421.726 244.89C421.736 244.935 421.741 244.971 421.741 245.002C421.741 245.351 421.511 245.523 421.053 245.523H419.469C419.271 245.523 419.105 245.473 418.976 245.375C418.846 245.277 418.746 245.143 418.676 244.973L417.033 240.876H406.546C406.196 241.76 405.878 242.561 405.59 243.275C405.31 243.991 405.097 244.558 404.958 244.976ZM407.749 237.988H415.89L411.858 227.8L407.749 237.988Z" fill="#FFFEFC"/>
</svg>
