<svg width="443" height="249" viewBox="0 0 443 249" fill="none" xmlns="http://www.w3.org/2000/svg">
<path d="M434.49 80.8581C434.684 105.147 429.29 127.405 420.73 149.013C419.574 151.931 418.399 154.857 417.022 157.675C410.741 170.514 403.99 170.487 393.218 165.94C391.815 165.347 391.683 164.209 391.572 163.173C390.954 157.345 391.159 151.682 393.656 146.119C396.762 139.196 399.385 132.051 402.061 124.943C402.442 123.928 403.838 122.229 401.166 121.57C387.627 118.236 376.296 110.09 363.903 104.253C361.109 102.936 359.806 102.784 360.263 106.245C361.647 116.728 361.328 127.564 365.461 137.496C367.219 141.72 369.865 145.457 368.56 150.343C367.556 154.103 365.583 156.985 361.578 157.808C356.645 158.823 352.651 156.743 350.256 152.706C343.417 141.19 339.421 128.608 338.56 115.264C337.374 96.8564 338.17 78.4926 343.399 60.6707C348.897 41.9288 359.261 26.2395 376.423 16.4501C387.262 10.2666 400.543 10.1283 412.809 22.1932C424.447 33.6403 429.73 48.0039 433.228 63.4027C434.615 69.4894 433.701 75.6683 434.49 80.8581Z" fill="#0D0F10"/>
<path d="M38.5501 106.874C44.5121 122.951 54.512 136.178 67.2528 147.473C69.244 149.236 71.3183 150.922 73.1849 152.808C75.5037 155.155 77.0357 157.956 75.1576 161.193C73.3556 164.298 70.3054 165.917 66.7729 165.465C60.4601 164.656 54.7196 162.528 49.692 158.221C43.7992 153.174 37.0781 149.137 31.7021 143.412C19.1412 130.038 11.2087 114.759 9.2452 96.1301C7.52626 79.8275 8.62454 64.0921 14.4297 48.8432C25.3686 20.1136 54.182 5.54944 81.6203 14.1492C107.838 22.3662 120.72 52.1101 114.891 73.7685C110.078 91.655 98.3874 103.981 80.582 110.063C69.0571 113.998 57.553 113.917 46.0673 109.867C44.7936 109.417 43.4831 109.11 43.1532 107.529C38.4786 97.1422 45.4904 86.9978 55.3449 87.3967C60.6355 87.6111 65.9561 87.0255 71.2606 86.7257C74.8138 86.5252 77.5872 85.264 80.109 82.8247C90.1204 73.1322 92.2292 61.911 85.6881 50.8951C83.1408 46.6068 79.5484 43.0124 75.7967 39.7985C70.9952 35.6877 60.0056 36.4439 53.153 40.8267C49.0275 43.4643 45.5089 46.7405 43.2016 51.1049C37.205 62.4505 33.4095 74.1005 35.1607 87.392C36.0213 93.9698 37.4864 100.372 38.5501 106.874Z" fill="#0D0F10"/>
<path d="M144.392 93.0499C146.755 114.489 155.126 132.869 171.858 147.011C173.508 148.406 174.897 150.119 176.6 151.433C179.899 153.979 181.448 157.248 179.509 160.983C177.509 164.843 173.79 166.194 169.397 165.765C161.466 164.992 156.404 159.662 151.238 154.516C131.509 134.859 122.374 110.964 121.084 83.2605C120.184 63.903 124.088 46.3531 136.543 31.5607C150.657 14.797 169.429 8.81639 190.658 13.19C203.886 15.9129 212.139 25.8844 217.677 37.7626C226.329 56.3201 222.012 73.8561 210.506 89.1097C203.392 98.5417 191.567 102.572 179.689 103.035C171.738 103.344 163.469 103.967 155.666 100.289C153.492 99.2656 153.285 98.1474 152.869 96.5128C149.51 88.3765 153.467 80.2609 161.979 77.7087C167.299 76.1133 172.864 76.3507 178.291 75.6913C187.599 74.5616 192.299 69.1505 193.948 60.7675C195.49 52.9309 191.021 47.2408 185.871 41.9518C178.898 34.7885 159.371 39.4157 154.575 46.4454C148.594 55.2088 144.972 64.597 144.589 75.2394C144.376 81.1763 145.228 87.1223 144.392 93.0499Z" fill="#0D0F10"/>
<path d="M318.291 121.879C322.707 121.496 325.743 123.977 327.437 127.46C329.525 131.751 327.691 136.074 325.021 139.477C313.016 154.79 296.491 159.402 278.068 157.345C265.984 155.996 254.776 151.895 245.537 142.942C234.531 132.279 228.844 119.232 226.511 104.617C222.967 82.4282 226.645 61.3232 238.507 42.0879C245.509 30.7285 254.635 21.2757 267.826 17.1234C290.116 10.1053 305.924 16.3695 319.103 38.3691C324.751 47.7988 327.314 57.8971 323.18 68.8047C320.623 75.5485 314.795 79.3411 307.756 78.5895C301.184 79.0737 298.517 75.9773 299.401 67.6404C300.465 57.5859 295.559 50.7315 290.056 43.9139C285.626 38.4244 277.242 37.7973 270.426 41.5646C265.92 44.0546 262.745 47.8772 259.923 52.0203C246.543 71.659 243.899 99.6162 257.807 120.096C268.977 136.544 292.008 141.386 309.449 125.72C311.929 123.486 314.015 120.096 318.291 121.879Z" fill="#0D0F10"/>
<path d="M318.291 121.878C315.439 121.973 313.344 123.55 311.475 125.468C293.877 143.53 266.903 138.794 255.267 118.531C244.75 100.213 244.628 81.6166 252.68 62.605C256.411 53.7977 261.091 45.5346 269.664 40.437C277.034 36.0565 287.516 36.7874 293.6 45.8943C298.381 53.0507 302.146 59.9236 300.668 68.8622C299.784 74.1973 302.541 77.4251 307.758 78.5894C305.414 79.7099 303.457 81.499 300.455 81.2777C293.508 80.7635 292.084 79.7583 291.669 72.9177C291.395 68.3919 289.966 64.5509 286.9 61.2424C282.38 56.3638 278.116 55.6998 272.299 58.9852C264.016 63.6609 261.063 71.4537 260.484 80.2309C259.884 89.3333 262.145 98.0875 265.901 106.316C271.353 118.261 282.733 122.517 294.936 117.562C296.166 117.062 297.363 116.477 298.568 115.914C308.185 111.414 312.725 112.788 318.291 121.878Z" fill="#FACC21"/>
<path d="M38.5501 106.874C33.7278 100.093 33.9701 92.07 33.6794 84.4201C33.0241 67.14 37.1726 51.34 51.7362 40.3633C58.6881 35.1227 67.5827 32.8402 75.056 37.9125C85.1412 44.7554 92.2269 54.2404 90.4526 67.8247C89.1444 77.8539 79.4376 87.5004 69.4216 88.1782C64.3479 88.5217 59.2511 88.4964 54.182 88.8676C46.5979 89.4232 42.9039 93.5294 42.957 101.087C42.9731 103.236 43.0816 105.385 43.1485 107.531C41.6165 107.312 40.0844 107.093 38.5501 106.874Z" fill="#FB3F1C"/>
<path d="M144.393 93.0499C141.105 75.8573 142.773 59.4764 153.943 45.3641C160.756 36.7574 171.109 35.2542 180.795 37.5275C189.353 39.5356 193.794 47.4206 195.633 55.9166C197.451 64.3157 189.969 74.3241 181.519 76.2378C175.806 77.5312 170.043 78.1767 164.263 78.5387C156.215 79.0436 151.907 86.2946 152.973 93.5617C153.114 94.5231 152.916 95.5329 152.87 96.5151C150.043 95.3577 147.217 94.2026 144.393 93.0499Z" fill="#65AD91"/>
<path d="M410.287 84.2703C410.019 87.5189 409.519 92.1392 409.295 96.7734C409.131 100.183 408.102 100.07 405.455 98.5325C395.885 92.9761 386.494 87.0024 375.89 83.4887C372.604 82.4005 369.171 81.7665 365.832 80.8258C363.991 80.3071 362.468 79.5186 363.006 77.0194C366.098 62.6396 371.416 49.4126 383.195 39.8377C389.837 34.4404 392.841 35.3303 398.227 42.3392C407.467 54.3627 410.529 68.1015 410.287 84.2703Z" fill="#52B9D2"/>
<path d="M20.9893 181.802C20.9893 181.343 21.2108 181.113 21.6514 181.113H28.8017C29.7524 181.113 30.6314 181.29 31.4413 181.645C32.2511 182.001 32.9549 182.482 33.5478 183.089C34.1431 183.697 34.6069 184.408 34.9438 185.217C35.2783 186.026 35.4467 186.881 35.4467 187.783C35.4467 188.664 35.2806 189.503 34.9507 190.298C34.6184 191.094 34.1593 191.797 33.5686 192.403C32.9779 193.012 32.2834 193.496 31.4828 193.856C30.6822 194.215 29.8123 194.395 28.871 194.395H23.7649V201.826C23.7649 202.248 23.5527 202.458 23.1327 202.458H21.6215C21.1992 202.458 20.9893 202.248 20.9893 201.826V181.802ZM32.6711 187.755C32.6711 187.248 32.5696 186.759 32.3688 186.289C32.1681 185.821 31.8912 185.406 31.5405 185.046C31.1898 184.687 30.7814 184.401 30.3107 184.184C29.84 183.97 29.337 183.861 28.7994 183.861H23.7649V191.652H28.7994C29.3163 191.652 29.81 191.546 30.2807 191.336C30.7514 191.126 31.1621 190.84 31.5174 190.48C31.8728 190.121 32.1519 189.706 32.3596 189.238C32.5672 188.765 32.6711 188.272 32.6711 187.755Z" fill="#222220"/>
<path d="M38.6746 181.802C38.6746 181.343 38.8845 181.113 39.3068 181.113H47.6084C48.5682 181.113 49.4588 181.293 50.2849 181.652C51.1109 182.012 51.8284 182.501 52.4422 183.119C53.0559 183.737 53.5381 184.461 53.8888 185.288C54.2396 186.118 54.4149 187.001 54.4149 187.94C54.4149 188.611 54.3203 189.256 54.1334 189.874C53.9465 190.492 53.6858 191.064 53.3489 191.592C53.0121 192.12 52.6106 192.59 52.1399 193.007C51.6692 193.425 51.1478 193.773 50.571 194.049L54.3688 201.826V202.013C54.3688 202.31 54.1911 202.458 53.8358 202.458H52.0961C51.7984 202.458 51.5677 202.28 51.4062 201.925L47.9545 194.679C47.8783 194.688 47.793 194.693 47.703 194.693C47.6107 194.693 47.4815 194.695 47.3154 194.7C47.1469 194.704 46.9254 194.706 46.6463 194.706C46.3671 194.706 46.0002 194.706 45.5457 194.706C45.0911 194.706 44.5328 194.706 43.8706 194.706C43.2084 194.706 42.4078 194.706 41.4687 194.706V201.821C41.4687 202.243 41.2472 202.453 40.8065 202.453H39.3114C38.8891 202.453 38.6792 202.243 38.6792 201.821V181.802H38.6746ZM51.6508 187.912C51.6508 187.386 51.5469 186.877 51.3416 186.388C51.1339 185.899 50.8524 185.468 50.4925 185.095C50.1326 184.721 49.7057 184.421 49.212 184.195C48.7182 183.969 48.1829 183.857 47.6084 183.857H41.4664V191.965H47.6661C48.2314 191.965 48.7597 191.854 49.2489 191.633C49.738 191.414 50.1603 191.117 50.5156 190.743C50.8709 190.37 51.1478 189.939 51.3508 189.45C51.5516 188.961 51.6508 188.449 51.6508 187.912Z" fill="#222220"/>
<path d="M68.254 180.825C69.26 180.825 70.2314 180.954 71.1681 181.212C72.1026 181.47 72.9747 181.839 73.7869 182.319C74.5968 182.798 75.3374 183.37 76.0088 184.036C76.6803 184.703 77.2525 185.445 77.7278 186.264C78.2031 187.084 78.5722 187.963 78.8353 188.901C79.0983 189.839 79.2298 190.817 79.2298 191.834C79.2298 192.839 79.1006 193.81 78.8422 194.743C78.5838 195.677 78.2146 196.551 77.7347 197.36C77.2548 198.169 76.6826 198.909 76.0158 199.573C75.349 200.24 74.6083 200.809 73.7938 201.284C72.9794 201.759 72.1003 202.126 71.1612 202.384C70.2222 202.642 69.2439 202.771 68.2263 202.771C67.2088 202.771 66.2328 202.642 65.2984 202.384C64.3639 202.126 63.4895 201.757 62.6796 201.277C61.8698 200.798 61.1314 200.226 60.4646 199.56C59.7978 198.893 59.2279 198.156 58.7526 197.346C58.2773 196.537 57.9104 195.663 57.652 194.73C57.3936 193.796 57.2644 192.821 57.2644 191.804C57.2644 190.799 57.3936 189.828 57.652 188.894C57.9104 187.96 58.2796 187.084 58.7595 186.27C59.2394 185.457 59.8117 184.714 60.4785 184.043C61.1453 183.372 61.8859 182.801 62.7004 182.326C63.5149 181.851 64.3916 181.482 65.3261 181.219C66.2605 180.956 67.2365 180.825 68.254 180.825ZM60.0239 191.765C60.0239 192.521 60.1231 193.247 60.3193 193.943C60.5154 194.64 60.7922 195.29 61.1476 195.898C61.5029 196.507 61.9297 197.06 62.4281 197.558C62.9265 198.056 63.4802 198.483 64.0894 198.838C64.6985 199.193 65.3515 199.467 66.046 199.666C66.7404 199.862 67.4672 199.961 68.2263 199.961C68.9739 199.961 69.6984 199.862 70.3998 199.666C71.0989 199.47 71.7519 199.193 72.3564 198.838C72.9609 198.483 73.5123 198.056 74.0107 197.558C74.5091 197.06 74.936 196.507 75.2913 195.898C75.6466 195.29 75.9212 194.637 76.1196 193.943C76.3157 193.249 76.4149 192.523 76.4149 191.765C76.4149 190.635 76.198 189.572 75.7666 188.581C75.3351 187.589 74.7491 186.725 74.0107 185.987C73.2724 185.249 72.4072 184.663 71.415 184.232C70.4229 183.801 69.3592 183.587 68.2287 183.587C67.4719 183.587 66.7451 183.686 66.0483 183.882C65.3538 184.078 64.7008 184.355 64.0917 184.71C63.4826 185.065 62.9288 185.491 62.4304 185.989C61.9321 186.487 61.5052 187.038 61.1499 187.642C60.7946 188.246 60.52 188.899 60.3216 189.597C60.1231 190.294 60.0239 191.018 60.0239 191.765Z" fill="#222220"/>
<path d="M97.2614 193.662C97.2614 193.24 97.4713 193.03 97.8936 193.03H99.3748C99.5479 193.03 99.7002 193.086 99.8363 193.196C99.9701 193.307 100.037 193.461 100.037 193.664V200.09C100.037 200.205 100.014 200.313 99.9655 200.413C99.917 200.514 99.8363 200.597 99.7209 200.664L99.6056 200.749C98.7034 201.402 97.7113 201.902 96.6269 202.252C95.5424 202.603 94.3726 202.778 93.1175 202.778C92.0999 202.778 91.124 202.649 90.1895 202.391C89.2551 202.133 88.3806 201.764 87.5707 201.284C86.7609 200.805 86.0225 200.233 85.3557 199.566C84.6889 198.9 84.119 198.162 83.6437 197.353C83.1684 196.544 82.8016 195.67 82.5431 194.736C82.2847 193.803 82.1555 192.827 82.1555 191.811C82.1555 190.805 82.2847 189.837 82.5431 188.908C82.8016 187.979 83.1707 187.107 83.6506 186.291C84.1306 185.477 84.7028 184.735 85.3696 184.064C86.0364 183.393 86.7747 182.819 87.5846 182.339C88.3944 181.86 89.2666 181.489 90.2034 181.226C91.1378 180.963 92.1138 180.832 93.1313 180.832C94.3103 180.832 95.4478 181.011 96.5415 181.371C97.6351 181.731 98.6573 182.245 99.6056 182.916C99.7117 182.992 99.7971 183.082 99.864 183.181C99.9309 183.282 99.9655 183.384 99.9655 183.49C99.9655 183.624 99.9263 183.739 99.8501 183.836L99.0887 185.101C98.9249 185.332 98.7588 185.447 98.5857 185.447C98.5188 185.447 98.445 185.431 98.3619 185.397C98.2812 185.362 98.1866 185.307 98.0828 185.231C97.3929 184.742 96.6407 184.357 95.8308 184.073C95.021 183.792 94.1557 183.649 93.2351 183.649C92.0469 183.649 90.9463 183.875 89.9334 184.324C88.9205 184.774 88.0437 185.378 87.3008 186.137C86.5578 186.893 85.9741 187.767 85.5519 188.753C85.1296 189.74 84.9196 190.771 84.9196 191.845C84.9196 192.986 85.1365 194.052 85.5657 195.043C85.9972 196.034 86.5832 196.897 87.3215 197.63C88.0599 198.363 88.9205 198.942 89.9034 199.361C90.8863 199.783 91.9338 199.993 93.0459 199.993C93.745 199.993 94.4442 199.88 95.1386 199.654C95.8331 199.428 96.5415 199.163 97.2614 198.856V193.662Z" fill="#222220"/>
<path d="M104.269 181.802C104.269 181.343 104.479 181.113 104.901 181.113H113.202C114.162 181.113 115.053 181.293 115.879 181.652C116.705 182.012 117.422 182.501 118.036 183.119C118.65 183.737 119.132 184.461 119.483 185.288C119.834 186.118 120.009 187.001 120.009 187.94C120.009 188.611 119.914 189.256 119.727 189.874C119.541 190.492 119.28 191.064 118.943 191.592C118.606 192.12 118.205 192.59 117.734 193.007C117.263 193.425 116.742 193.773 116.165 194.049L119.963 201.826V202.013C119.963 202.31 119.785 202.458 119.43 202.458H117.69C117.392 202.458 117.162 202.28 117 201.925L113.548 194.679C113.472 194.688 113.387 194.693 113.297 194.693C113.205 194.693 113.075 194.695 112.909 194.7C112.741 194.704 112.519 194.706 112.24 194.706C111.961 194.706 111.594 194.706 111.14 194.706C110.685 194.706 110.127 194.706 109.465 194.706C108.802 194.706 108.002 194.706 107.063 194.706V201.821C107.063 202.243 106.841 202.453 106.4 202.453H104.905C104.483 202.453 104.273 202.243 104.273 201.821V181.802H104.269ZM117.245 187.912C117.245 187.386 117.141 186.877 116.936 186.388C116.728 185.899 116.446 185.468 116.087 185.095C115.727 184.721 115.3 184.421 114.806 184.195C114.312 183.969 113.777 183.857 113.202 183.857H107.058V191.965H113.258C113.823 191.965 114.351 191.854 114.841 191.633C115.33 191.414 115.752 191.117 116.107 190.743C116.463 190.37 116.739 189.939 116.943 189.45C117.143 188.961 117.245 188.449 117.245 187.912Z" fill="#222220"/>
<path d="M125.641 201.927C125.574 202.091 125.477 202.22 125.353 202.315C125.228 202.412 125.069 202.458 124.877 202.458H123.352C122.911 202.458 122.69 202.289 122.69 201.955C122.69 201.888 122.692 201.833 122.697 201.789C122.701 201.745 122.708 201.704 122.718 201.667C122.727 201.628 122.736 201.595 122.745 201.565L131.047 181.641C131.065 181.592 131.091 181.537 131.118 181.475C131.146 181.413 131.185 181.355 131.234 181.302C131.282 181.249 131.352 181.203 131.444 181.166C131.534 181.129 131.656 181.108 131.811 181.108H132.759C132.902 181.108 133.02 181.129 133.112 181.166C133.202 181.205 133.271 181.251 133.32 181.302C133.368 181.355 133.405 181.413 133.435 181.475C133.465 181.537 133.488 181.592 133.507 181.641L141.734 201.565C141.744 201.614 141.753 201.662 141.762 201.708C141.771 201.757 141.78 201.803 141.79 201.844C141.799 201.888 141.804 201.923 141.804 201.953C141.804 202.289 141.582 202.455 141.141 202.455H139.616C139.425 202.455 139.266 202.407 139.141 202.312C139.016 202.218 138.919 202.089 138.853 201.925L137.27 197.971H127.171C126.834 198.824 126.527 199.594 126.25 200.286C125.98 200.98 125.775 201.526 125.641 201.927ZM128.329 195.186H136.169L132.286 185.353L128.329 195.186Z" fill="#222220"/>
<path d="M155.592 201.54C155.38 201.54 155.193 201.363 155.031 201.008L148.716 185.74L147.032 201.826C147.032 202.248 146.82 202.458 146.4 202.458H144.905C144.464 202.458 144.242 202.248 144.242 201.826L146.515 181.745C146.515 181.553 146.587 181.399 146.732 181.286C146.875 181.171 147.034 181.113 147.207 181.113H149.422C149.729 181.113 149.939 181.29 150.055 181.645L156.298 196.897L162.599 181.645C162.648 181.473 162.724 181.341 162.83 181.251C162.936 181.159 163.056 181.115 163.19 181.115H165.476C165.677 181.115 165.834 181.177 165.945 181.302C166.056 181.426 166.111 181.576 166.111 181.747L168.384 201.828C168.384 202.25 168.171 202.46 167.751 202.46H166.256C165.816 202.46 165.594 202.25 165.594 201.828L163.91 185.742L157.565 201.01C157.401 201.365 157.209 201.542 156.99 201.542H155.592V201.54Z" fill="#222220"/>
<path d="M173.801 201.927C173.734 202.091 173.637 202.22 173.513 202.315C173.388 202.412 173.229 202.458 173.037 202.458H171.512C171.072 202.458 170.85 202.289 170.85 201.955C170.85 201.888 170.852 201.833 170.857 201.789C170.862 201.745 170.869 201.704 170.878 201.667C170.887 201.628 170.896 201.595 170.905 201.565L179.207 181.641C179.226 181.592 179.251 181.537 179.279 181.475C179.306 181.413 179.346 181.355 179.394 181.302C179.442 181.249 179.512 181.203 179.604 181.166C179.694 181.129 179.816 181.108 179.971 181.108H180.919C181.062 181.108 181.18 181.129 181.272 181.166C181.362 181.205 181.431 181.251 181.48 181.302C181.528 181.355 181.565 181.413 181.595 181.475C181.625 181.537 181.648 181.592 181.667 181.641L189.894 201.565C189.904 201.614 189.913 201.662 189.922 201.708C189.931 201.757 189.941 201.803 189.95 201.844C189.959 201.888 189.964 201.923 189.964 201.953C189.964 202.289 189.742 202.455 189.302 202.455H187.776C187.585 202.455 187.426 202.407 187.301 202.312C187.177 202.218 187.08 202.089 187.013 201.925L185.43 197.971H175.331C174.994 198.824 174.687 199.594 174.41 200.286C174.143 200.98 173.935 201.526 173.801 201.927ZM176.491 195.186H184.332L180.448 185.353L176.491 195.186Z" fill="#222220"/>
<path d="M202.243 181.802C202.243 181.343 202.465 181.113 202.905 181.113H209.624C210.651 181.113 211.629 181.237 212.559 181.486C213.489 181.735 214.352 182.09 215.148 182.552C215.944 183.01 216.664 183.568 217.305 184.219C217.947 184.871 218.496 185.59 218.953 186.381C219.407 187.172 219.76 188.025 220.009 188.94C220.258 189.856 220.383 190.812 220.383 191.808C220.383 192.795 220.256 193.743 220.002 194.647C219.749 195.553 219.389 196.401 218.923 197.192C218.457 197.983 217.898 198.702 217.247 199.348C216.595 199.993 215.872 200.546 215.076 201.008C214.28 201.466 213.422 201.826 212.501 202.08C211.581 202.333 210.621 202.46 209.624 202.46H202.905C202.732 202.46 202.58 202.419 202.444 202.338C202.31 202.255 202.243 202.096 202.243 201.856V181.802ZM209.55 199.714C210.72 199.714 211.8 199.5 212.787 199.069C213.775 198.637 214.626 198.054 215.342 197.321C216.057 196.588 216.615 195.732 217.017 194.755C217.421 193.777 217.621 192.742 217.621 191.649C217.621 190.48 217.409 189.418 216.989 188.458C216.567 187.502 215.995 186.681 215.27 186.001C214.546 185.321 213.699 184.793 212.732 184.419C211.763 184.046 210.727 183.859 209.624 183.859H205.007V199.714H209.55Z" fill="#222220"/>
<path d="M238.696 181.113C239.137 181.113 239.358 181.343 239.358 181.802V183.225C239.358 183.407 239.303 183.566 239.192 183.7C239.081 183.833 238.906 183.9 238.666 183.9H227.072V189.809H236.192C236.366 189.809 236.513 189.86 236.638 189.959C236.762 190.061 236.825 190.231 236.825 190.469V191.935C236.825 192.108 236.772 192.263 236.665 192.396C236.559 192.53 236.402 192.597 236.19 192.597H227.069V199.67H238.721C239.162 199.67 239.383 199.896 239.383 200.346V201.826C239.383 202.248 239.173 202.458 238.751 202.458H224.914C224.492 202.458 224.282 202.257 224.282 201.854V181.772C224.282 181.332 224.492 181.111 224.914 181.111H238.696V181.113Z" fill="#222220"/>
<path d="M251.801 181.802C251.801 181.343 252.023 181.113 252.463 181.113H259.614C260.564 181.113 261.443 181.29 262.253 181.645C263.063 182.001 263.767 182.482 264.36 183.089C264.955 183.697 265.419 184.408 265.756 185.217C266.09 186.026 266.259 186.881 266.259 187.783C266.259 188.664 266.093 189.503 265.763 190.298C265.43 191.094 264.971 191.797 264.381 192.403C263.79 193.012 263.095 193.496 262.295 193.856C261.494 194.215 260.624 194.395 259.683 194.395H254.577V201.826C254.577 202.248 254.365 202.458 253.945 202.458H252.433C252.011 202.458 251.801 202.248 251.801 201.826V181.802ZM263.483 187.755C263.483 187.248 263.382 186.759 263.181 186.289C262.98 185.821 262.703 185.406 262.353 185.046C262.002 184.687 261.593 184.401 261.123 184.184C260.652 183.97 260.149 183.861 259.611 183.861H254.577V191.652H259.611C260.128 191.652 260.622 191.546 261.093 191.336C261.563 191.126 261.974 190.84 262.329 190.48C262.685 190.121 262.964 189.706 263.172 189.238C263.379 188.765 263.483 188.272 263.483 187.755Z" fill="#222220"/>
<path d="M269.489 181.802C269.489 181.343 269.699 181.113 270.121 181.113H278.423C279.383 181.113 280.274 181.293 281.1 181.652C281.926 182.012 282.643 182.501 283.257 183.119C283.871 183.737 284.353 184.461 284.704 185.288C285.054 186.118 285.23 187.001 285.23 187.94C285.23 188.611 285.135 189.256 284.948 189.874C284.761 190.492 284.5 191.064 284.164 191.592C283.827 192.12 283.425 192.59 282.955 193.007C282.484 193.425 281.962 193.773 281.386 194.049L285.183 201.826V202.013C285.183 202.31 285.006 202.458 284.65 202.458H282.911C282.613 202.458 282.382 202.28 282.221 201.925L278.769 194.679C278.693 194.688 278.608 194.693 278.518 194.693C278.425 194.693 278.296 194.695 278.13 194.7C277.962 194.704 277.74 194.706 277.461 194.706C277.182 194.706 276.815 194.706 276.36 194.706C275.906 194.706 275.347 194.706 274.685 194.706C274.023 194.706 273.222 194.706 272.283 194.706V201.821C272.283 202.243 272.062 202.453 271.621 202.453H270.126C269.704 202.453 269.494 202.243 269.494 201.821V181.802H269.489ZM282.465 187.912C282.465 187.386 282.362 186.877 282.156 186.388C281.949 185.899 281.667 185.468 281.307 185.095C280.947 184.721 280.52 184.421 280.027 184.195C279.533 183.969 278.998 183.857 278.423 183.857H272.281V191.965H278.481C279.046 191.965 279.574 191.854 280.064 191.633C280.553 191.414 280.975 191.117 281.33 190.743C281.686 190.37 281.962 189.939 282.166 189.45C282.364 188.961 282.465 188.449 282.465 187.912Z" fill="#222220"/>
<path d="M299.066 180.825C300.072 180.825 301.044 180.954 301.98 181.212C302.915 181.47 303.787 181.839 304.599 182.319C305.409 182.798 306.15 183.37 306.821 184.036C307.493 184.703 308.065 185.445 308.54 186.264C309.015 187.084 309.384 187.963 309.648 188.901C309.911 189.839 310.042 190.817 310.042 191.834C310.042 192.839 309.913 193.81 309.654 194.743C309.396 195.677 309.027 196.551 308.547 197.36C308.067 198.169 307.495 198.909 306.828 199.573C306.161 200.24 305.421 200.809 304.606 201.284C303.792 201.759 302.913 202.126 301.973 202.384C301.034 202.642 300.056 202.771 299.039 202.771C298.021 202.771 297.045 202.642 296.111 202.384C295.176 202.126 294.302 201.757 293.492 201.277C292.682 200.798 291.944 200.226 291.277 199.56C290.61 198.893 290.04 198.156 289.565 197.346C289.09 196.537 288.723 195.663 288.464 194.73C288.206 193.796 288.077 192.821 288.077 191.804C288.077 190.799 288.206 189.828 288.464 188.894C288.723 187.96 289.092 187.084 289.572 186.27C290.052 185.457 290.624 184.714 291.291 184.043C291.958 183.372 292.698 182.801 293.513 182.326C294.327 181.851 295.204 181.482 296.138 181.219C297.073 180.956 298.049 180.825 299.066 180.825ZM290.838 191.765C290.838 192.521 290.938 193.247 291.134 193.943C291.33 194.64 291.607 195.29 291.962 195.898C292.317 196.507 292.744 197.06 293.243 197.558C293.741 198.056 294.295 198.483 294.904 198.838C295.513 199.193 296.166 199.467 296.861 199.666C297.555 199.862 298.282 199.961 299.041 199.961C299.788 199.961 300.513 199.862 301.214 199.666C301.913 199.47 302.566 199.193 303.171 198.838C303.775 198.483 304.327 198.056 304.825 197.558C305.324 197.06 305.75 196.507 306.106 195.898C306.461 195.29 306.736 194.637 306.934 193.943C307.13 193.249 307.229 192.523 307.229 191.765C307.229 190.635 307.013 189.572 306.581 188.581C306.15 187.589 305.564 186.725 304.825 185.987C304.087 185.249 303.222 184.663 302.23 184.232C301.237 183.801 300.174 183.587 299.043 183.587C298.286 183.587 297.56 183.686 296.863 183.882C296.168 184.078 295.515 184.355 294.906 184.71C294.297 185.065 293.743 185.491 293.245 185.989C292.747 186.487 292.32 187.038 291.964 187.642C291.609 188.246 291.335 188.899 291.136 189.597C290.935 190.294 290.838 191.018 290.838 191.765Z" fill="#222220"/>
<path d="M324.094 201.54C323.881 201.54 323.695 201.363 323.533 201.008L317.218 185.74L315.534 201.826C315.534 202.248 315.321 202.458 314.901 202.458H313.406C312.966 202.458 312.744 202.248 312.744 201.826L315.017 181.745C315.017 181.553 315.088 181.399 315.234 181.286C315.377 181.171 315.536 181.113 315.709 181.113H317.924C318.231 181.113 318.441 181.29 318.556 181.645L324.8 196.897L331.101 181.645C331.149 181.473 331.226 181.341 331.332 181.251C331.438 181.159 331.558 181.115 331.692 181.115H333.978C334.179 181.115 334.336 181.177 334.447 181.302C334.557 181.426 334.613 181.576 334.613 181.747L336.885 201.828C336.885 202.25 336.673 202.46 336.253 202.46H334.758C334.317 202.46 334.096 202.25 334.096 201.828L332.411 185.742L326.066 201.01C325.903 201.365 325.711 201.542 325.492 201.542H324.094V201.54Z" fill="#222220"/>
<path d="M350.586 180.825C351.592 180.825 352.563 180.954 353.5 181.212C354.434 181.47 355.307 181.839 356.119 182.319C356.929 182.798 357.669 183.37 358.341 184.036C359.012 184.703 359.584 185.445 360.06 186.264C360.535 187.084 360.904 187.963 361.167 188.901C361.43 189.839 361.562 190.817 361.562 191.834C361.562 192.839 361.432 193.81 361.174 194.743C360.916 195.677 360.546 196.551 360.067 197.36C359.587 198.169 359.014 198.909 358.348 199.573C357.681 200.24 356.94 200.809 356.126 201.284C355.311 201.759 354.432 202.126 353.493 202.384C352.554 202.642 351.576 202.771 350.558 202.771C349.541 202.771 348.565 202.642 347.63 202.384C346.696 202.126 345.821 201.757 345.011 201.277C344.202 200.798 343.463 200.226 342.796 199.56C342.13 198.893 341.56 198.156 341.084 197.346C340.609 196.537 340.242 195.663 339.984 194.73C339.725 193.796 339.596 192.821 339.596 191.804C339.596 190.799 339.725 189.828 339.984 188.894C340.242 187.96 340.611 187.084 341.091 186.27C341.571 185.457 342.143 184.714 342.81 184.043C343.477 183.372 344.218 182.801 345.032 182.326C345.847 181.851 346.723 181.482 347.658 181.219C348.592 180.956 349.568 180.825 350.586 180.825ZM342.358 191.765C342.358 192.521 342.457 193.247 342.653 193.943C342.849 194.637 343.126 195.29 343.482 195.898C343.837 196.507 344.264 197.06 344.762 197.558C345.261 198.056 345.814 198.483 346.423 198.838C347.033 199.193 347.686 199.467 348.38 199.666C349.075 199.862 349.801 199.961 350.56 199.961C351.308 199.961 352.033 199.862 352.734 199.666C353.433 199.47 354.086 199.193 354.691 198.838C355.295 198.483 355.846 198.056 356.345 197.558C356.843 197.06 357.27 196.507 357.625 195.898C357.981 195.29 358.255 194.637 358.454 193.943C358.65 193.249 358.749 192.523 358.749 191.765C358.749 190.635 358.532 189.572 358.101 188.581C357.669 187.589 357.083 186.725 356.345 185.987C355.607 185.249 354.741 184.663 353.749 184.232C352.757 183.801 351.693 183.587 350.563 183.587C349.806 183.587 349.079 183.686 348.382 183.882C347.688 184.078 347.035 184.355 346.426 184.71C345.817 185.065 345.263 185.491 344.765 185.989C344.266 186.487 343.839 187.038 343.484 187.642C343.129 188.246 342.854 188.899 342.656 189.597C342.455 190.294 342.358 191.018 342.358 191.765Z" fill="#222220"/>
<path d="M381.884 182.909C381.99 182.985 382.076 183.075 382.143 183.174C382.209 183.275 382.244 183.377 382.244 183.483C382.244 183.617 382.205 183.732 382.129 183.829L381.367 185.095C381.203 185.325 381.037 185.44 380.864 185.44C380.797 185.44 380.724 185.424 380.64 185.39C380.56 185.355 380.465 185.3 380.359 185.224C379.669 184.735 378.942 184.361 378.179 184.103C377.417 183.845 376.612 183.69 375.77 183.644C374.533 183.644 373.391 183.868 372.346 184.313C371.301 184.758 370.396 185.357 369.635 186.111C368.873 186.863 368.276 187.737 367.844 188.728C367.413 189.719 367.196 190.766 367.196 191.868C367.196 193.037 367.417 194.118 367.858 195.11C368.299 196.101 368.892 196.957 369.635 197.676C370.378 198.395 371.241 198.956 372.224 199.357C373.206 199.758 374.24 199.961 375.324 199.961C375.717 199.961 376.111 199.933 376.504 199.875C376.896 199.818 377.297 199.719 377.706 199.58C378.114 199.442 378.539 199.264 378.979 199.048C379.42 198.831 379.891 198.566 380.389 198.25C380.571 198.144 380.721 198.093 380.834 198.093C381.007 198.093 381.164 198.213 381.31 198.453L382.129 199.804C382.196 199.928 382.23 200.044 382.23 200.15C382.23 200.38 382.115 200.562 381.884 200.696C380.982 201.349 379.99 201.858 378.905 202.227C377.821 202.596 376.651 202.78 375.396 202.78C374.379 202.78 373.403 202.651 372.468 202.393C371.534 202.135 370.659 201.766 369.849 201.286C369.039 200.807 368.301 200.235 367.634 199.569C366.967 198.902 366.398 198.165 365.922 197.355C365.447 196.546 365.08 195.672 364.822 194.739C364.563 193.805 364.434 192.83 364.434 191.813C364.434 190.808 364.563 189.837 364.822 188.903C365.08 187.97 365.449 187.093 365.929 186.28C366.409 185.466 366.981 184.723 367.648 184.052C368.315 183.381 369.056 182.81 369.87 182.335C370.685 181.86 371.561 181.491 372.496 181.228C373.43 180.965 374.406 180.834 375.424 180.834C376.624 180.834 377.759 181.011 378.834 181.366C379.909 181.712 380.924 182.229 381.884 182.909ZM376.591 202.43C376.381 202.573 376.275 202.741 376.275 202.933C376.275 203.085 376.349 203.228 376.499 203.357C376.647 203.486 376.831 203.62 377.046 203.758C377.263 203.896 377.5 204.046 377.759 204.203C378.017 204.36 378.255 204.544 378.472 204.749C378.686 204.955 378.868 205.19 379.018 205.453C379.166 205.715 379.242 206.024 379.242 206.379C379.242 206.716 379.175 207.034 379.042 207.336C378.908 207.638 378.686 207.922 378.379 208.185C378.072 208.447 377.669 208.699 377.17 208.939C376.672 209.178 376.058 209.409 375.329 209.628H375.258C375.115 209.628 374.99 209.57 374.884 209.455C374.778 209.34 374.688 209.206 374.612 209.052C374.535 208.899 374.478 208.74 374.438 208.577C374.399 208.413 374.381 208.288 374.381 208.203C374.381 208.069 374.434 207.963 374.54 207.887C376.181 207.484 377 206.981 377 206.377C377 206.167 376.928 205.981 376.783 205.817C376.64 205.653 376.46 205.499 376.243 205.349C376.026 205.201 375.795 205.051 375.546 204.904C375.297 204.756 375.064 204.595 374.849 204.422C374.632 204.249 374.455 204.058 374.309 203.846C374.166 203.636 374.092 203.391 374.092 203.112C374.092 203.006 374.106 202.898 374.136 202.783C374.164 202.667 374.247 202.548 374.381 202.423H376.591V202.43Z" fill="#222220"/>
<path d="M387.454 201.927C387.387 202.091 387.29 202.22 387.166 202.315C387.041 202.412 386.882 202.458 386.69 202.458H385.165C384.724 202.458 384.503 202.289 384.503 201.955C384.503 201.888 384.505 201.833 384.51 201.789C384.514 201.745 384.521 201.704 384.531 201.667C384.54 201.628 384.549 201.595 384.558 201.565L392.86 181.641C392.878 181.592 392.904 181.537 392.931 181.475C392.959 181.413 392.998 181.355 393.047 181.302C393.095 181.249 393.165 181.203 393.257 181.166C393.347 181.129 393.469 181.108 393.624 181.108H394.572C394.715 181.108 394.833 181.129 394.925 181.166C395.015 181.205 395.084 181.251 395.133 181.302C395.181 181.355 395.218 181.413 395.248 181.475C395.278 181.537 395.301 181.592 395.32 181.641L403.547 201.565C403.557 201.614 403.566 201.662 403.575 201.708C403.584 201.757 403.593 201.803 403.603 201.844C403.612 201.888 403.617 201.923 403.617 201.953C403.617 202.289 403.395 202.455 402.954 202.455H401.429C401.238 202.455 401.079 202.407 400.954 202.312C400.829 202.218 400.732 202.089 400.666 201.925L399.083 197.971H388.984C388.647 198.824 388.34 199.594 388.063 200.286C387.795 200.98 387.588 201.526 387.454 201.927ZM397.539 176.167C397.567 176.128 397.595 176.107 397.618 176.103C397.641 176.098 397.678 176.096 397.726 176.096C397.784 176.096 397.871 176.137 397.991 176.218C398.111 176.301 398.234 176.396 398.358 176.506C398.483 176.617 398.594 176.73 398.688 176.845C398.785 176.961 398.831 177.05 398.831 177.117C398.831 177.147 398.829 177.186 398.824 177.24C398.82 177.293 398.799 177.334 398.76 177.362L398.444 177.807C398.07 178.266 397.664 178.593 397.228 178.784C396.792 178.976 396.3 179.072 395.753 179.072C395.486 179.072 395.202 179.015 394.904 178.9C394.607 178.784 394.334 178.641 394.085 178.468L393.351 177.993C393.208 177.917 393.068 177.851 392.934 177.793C392.8 177.735 392.645 177.705 392.472 177.705C392.281 177.705 392.101 177.742 391.932 177.814C391.764 177.885 391.628 177.98 391.522 178.095C391.473 178.143 391.416 178.21 391.349 178.295C391.282 178.381 391.213 178.466 391.141 178.547C391.069 178.63 390.993 178.699 390.91 178.763C390.83 178.826 390.753 178.858 390.686 178.858C390.668 178.858 390.594 178.819 390.47 178.743C390.345 178.667 390.216 178.572 390.082 178.464C389.948 178.353 389.826 178.238 389.715 178.118C389.604 177.998 389.549 177.894 389.549 177.809C389.549 177.742 389.558 177.698 389.577 177.68C389.914 177.103 390.331 176.656 390.836 176.336C391.339 176.015 391.937 175.854 392.627 175.854C392.925 175.884 393.215 175.941 393.497 176.027C393.778 176.114 394.046 176.253 394.295 176.444L395.056 176.919C395.333 177.11 395.631 177.207 395.949 177.207C396.122 177.207 396.289 177.17 396.452 177.099C396.616 177.027 396.75 176.94 396.856 176.834C396.905 176.795 396.96 176.737 397.022 176.661C397.085 176.585 397.147 176.511 397.209 176.437C397.271 176.366 397.331 176.303 397.389 176.25C397.454 176.193 397.5 176.167 397.539 176.167ZM390.144 195.186H397.984L394.101 185.353L390.144 195.186Z" fill="#222220"/>
<path d="M415.783 180.825C416.789 180.825 417.76 180.954 418.697 181.212C419.632 181.47 420.504 181.839 421.316 182.319C422.126 182.798 422.866 183.37 423.538 184.036C424.209 184.703 424.782 185.445 425.257 186.264C425.732 187.084 426.101 187.963 426.364 188.901C426.627 189.839 426.759 190.817 426.759 191.834C426.759 192.839 426.63 193.81 426.371 194.743C426.113 195.677 425.744 196.551 425.264 197.36C424.784 198.169 424.212 198.909 423.545 199.573C422.878 200.24 422.137 200.809 421.323 201.284C420.508 201.759 419.629 202.126 418.69 202.384C417.751 202.642 416.773 202.771 415.755 202.771C414.738 202.771 413.762 202.642 412.827 202.384C411.893 202.126 411.019 201.757 410.209 201.277C409.399 200.798 408.66 200.226 407.994 199.56C407.327 198.893 406.757 198.156 406.282 197.346C405.806 196.537 405.439 195.663 405.181 194.73C404.923 193.796 404.793 192.821 404.793 191.804C404.793 190.799 404.923 189.828 405.181 188.894C405.439 187.96 405.809 187.084 406.289 186.27C406.768 185.457 407.341 184.714 408.007 184.043C408.674 183.372 409.415 182.801 410.229 182.326C411.044 181.851 411.921 181.482 412.855 181.219C413.792 180.956 414.768 180.825 415.783 180.825ZM407.555 191.765C407.555 192.521 407.654 193.247 407.851 193.943C408.047 194.64 408.324 195.29 408.679 195.898C409.034 196.507 409.461 197.06 409.959 197.558C410.458 198.056 411.012 198.483 411.621 198.838C412.23 199.193 412.883 199.467 413.577 199.666C414.272 199.862 414.999 199.961 415.758 199.961C416.505 199.961 417.23 199.862 417.931 199.666C418.63 199.47 419.283 199.193 419.888 198.838C420.492 198.483 421.044 198.056 421.542 197.558C422.04 197.06 422.467 196.507 422.823 195.898C423.178 195.29 423.453 194.637 423.651 193.943C423.847 193.249 423.946 192.523 423.946 191.765C423.946 190.635 423.729 189.572 423.298 188.581C422.866 187.589 422.28 186.725 421.542 185.987C420.804 185.249 419.939 184.663 418.946 184.232C417.954 183.801 416.891 183.587 415.76 183.587C415.003 183.587 414.276 183.686 413.58 183.882C412.885 184.078 412.232 184.355 411.623 184.71C411.014 185.065 410.46 185.491 409.962 185.989C409.463 186.487 409.037 187.038 408.681 187.642C408.326 188.246 408.051 188.899 407.853 189.597C407.652 190.294 407.555 191.018 407.555 191.765Z" fill="#222220"/>
<path d="M42.7908 216.303C42.7908 215.844 43.0123 215.613 43.453 215.613H50.1718C51.1985 215.613 52.1768 215.738 53.1067 215.987C54.0365 216.236 54.8994 216.591 55.6955 217.052C56.4915 217.511 57.2113 218.069 57.8528 218.719C58.4942 219.371 59.0433 220.091 59.5002 220.881C59.9547 221.672 60.3077 222.525 60.5569 223.441C60.8061 224.356 60.9307 225.313 60.9307 226.309C60.9307 227.295 60.8038 228.243 60.55 229.147C60.2962 230.053 59.9363 230.901 59.4702 231.692C59.0041 232.483 58.4457 233.202 57.7951 233.848C57.1421 234.493 56.4199 235.047 55.6239 235.508C54.8279 235.967 53.9696 236.326 53.049 236.58C52.1284 236.833 51.1685 236.96 50.1718 236.96H43.453C43.2799 236.96 43.1276 236.919 42.9915 236.838C42.8577 236.757 42.7908 236.596 42.7908 236.356V216.303ZM50.098 234.214C51.2678 234.214 52.3476 234 53.3351 233.569C54.3226 233.138 55.174 232.554 55.8893 231.821C56.6045 231.088 57.1629 230.233 57.5644 229.255C57.9681 228.278 58.1689 227.242 58.1689 226.15C58.1689 224.981 57.9566 223.918 57.5367 222.959C57.1144 222.002 56.5422 221.181 55.8177 220.501C55.0932 219.821 54.2465 219.293 53.2797 218.919C52.3107 218.546 51.2747 218.359 50.1718 218.359H45.5549V234.214H50.098Z" fill="#222220"/>
<path d="M67.5482 236.43C67.4813 236.594 67.3844 236.723 67.2598 236.817C67.1352 236.914 66.976 236.96 66.7845 236.96H65.2594C64.8187 236.96 64.5972 236.792 64.5972 236.458C64.5972 236.391 64.5995 236.335 64.6041 236.292C64.6087 236.248 64.6156 236.206 64.6249 236.169C64.6341 236.13 64.6433 236.098 64.6525 236.068L72.9542 216.143C72.9726 216.095 72.998 216.04 73.0257 215.977C73.0534 215.915 73.0926 215.858 73.1411 215.805C73.1895 215.751 73.2587 215.705 73.351 215.668C73.441 215.632 73.5633 215.611 73.7179 215.611H74.6662C74.8092 215.611 74.9269 215.632 75.0192 215.668C75.1092 215.708 75.1784 215.754 75.2269 215.805C75.2753 215.858 75.3122 215.915 75.3422 215.977C75.3722 216.04 75.3953 216.095 75.4138 216.143L83.6416 236.068C83.6508 236.116 83.66 236.165 83.6692 236.211C83.6785 236.259 83.6877 236.306 83.6969 236.347C83.7062 236.391 83.7108 236.425 83.7108 236.455C83.7108 236.792 83.4893 236.958 83.0486 236.958H81.5235C81.3319 236.958 81.1727 236.91 81.0482 236.815C80.9236 236.721 80.8267 236.591 80.7597 236.428L79.1769 232.474H69.0779C68.7411 233.327 68.4342 234.099 68.1573 234.788C67.8897 235.48 67.6843 236.027 67.5482 236.43ZM70.2385 229.686H78.0787L74.1955 219.853L70.2385 229.686Z" fill="#222220"/>
<path d="M114.218 217.412C114.324 217.488 114.409 217.578 114.476 217.677C114.543 217.778 114.578 217.88 114.578 217.986C114.578 218.119 114.538 218.235 114.462 218.331L113.701 219.597C113.537 219.828 113.371 219.943 113.198 219.943C113.131 219.943 113.057 219.927 112.974 219.892C112.893 219.858 112.799 219.802 112.693 219.726C112.003 219.238 111.276 218.864 110.512 218.606C109.748 218.348 108.945 218.193 108.103 218.147C106.867 218.147 105.724 218.371 104.679 218.816C103.634 219.261 102.73 219.86 101.968 220.614C101.207 221.366 100.609 222.237 100.178 223.231C99.7463 224.222 99.5294 225.269 99.5294 226.371C99.5294 227.54 99.7509 228.621 100.192 229.613C100.632 230.604 101.225 231.459 101.968 232.179C102.711 232.898 103.574 233.458 104.557 233.859C105.54 234.261 106.574 234.463 107.658 234.463C108.05 234.463 108.445 234.436 108.837 234.378C109.229 234.32 109.631 234.221 110.039 234.083C110.448 233.945 110.872 233.767 111.313 233.55C111.753 233.334 112.224 233.069 112.722 232.753C112.905 232.647 113.055 232.596 113.168 232.596C113.341 232.596 113.498 232.716 113.643 232.956L114.462 234.307C114.529 234.431 114.564 234.546 114.564 234.652C114.564 234.883 114.448 235.065 114.218 235.199C113.315 235.851 112.323 236.361 111.239 236.73C110.154 237.099 108.985 237.283 107.73 237.283C106.712 237.283 105.736 237.154 104.802 236.896C103.867 236.638 102.993 236.269 102.183 235.789C101.373 235.31 100.635 234.738 99.9678 234.071C99.301 233.405 98.7311 232.667 98.2558 231.858C97.7805 231.049 97.4136 230.175 97.1552 229.241C96.8968 228.308 96.7676 227.332 96.7676 226.316C96.7676 225.31 96.8968 224.34 97.1552 223.406C97.4136 222.472 97.7828 221.596 98.2627 220.782C98.7426 219.968 99.3148 219.226 99.9816 218.555C100.648 217.884 101.389 217.312 102.204 216.837C103.018 216.363 103.895 215.994 104.829 215.731C105.764 215.468 106.74 215.337 107.757 215.337C108.957 215.337 110.092 215.514 111.167 215.869C112.24 216.213 113.258 216.731 114.218 217.412Z" fill="#222220"/>
<path d="M121.41 228.135C121.41 229.045 121.541 229.894 121.804 230.68C122.067 231.466 122.457 232.149 122.969 232.73C123.482 233.311 124.109 233.765 124.847 234.094C125.586 234.424 126.43 234.59 127.379 234.59C128.396 234.59 129.282 234.422 130.041 234.088C130.798 233.753 131.423 233.294 131.919 232.716C132.413 232.137 132.782 231.455 133.027 230.668C133.271 229.882 133.394 229.038 133.394 228.137V216.25C133.394 216.077 133.458 215.929 133.587 215.805C133.717 215.68 133.878 215.618 134.07 215.618H135.452C135.634 215.618 135.802 215.675 135.955 215.791C136.107 215.906 136.185 216.058 136.185 216.25V228.527C136.185 229.82 135.955 231.007 135.496 232.084C135.034 233.163 134.404 234.088 133.604 234.858C132.803 235.628 131.869 236.229 130.798 236.663C129.727 237.094 128.59 237.308 127.381 237.308C126.172 237.308 125.037 237.078 123.971 236.619C122.907 236.158 121.973 235.529 121.172 234.729C120.371 233.928 119.741 232.997 119.28 231.932C118.819 230.867 118.59 229.732 118.59 228.524V216.247C118.59 216.104 118.645 215.961 118.756 215.823C118.867 215.685 119.012 215.615 119.195 215.615H120.734C120.877 215.615 121.027 215.678 121.179 215.802C121.331 215.927 121.41 216.077 121.41 216.247V228.135Z" fill="#222220"/>
<path d="M154.21 234.173C154.383 234.173 154.531 234.233 154.655 234.353C154.78 234.473 154.842 234.639 154.842 234.848V236.329C154.842 236.502 154.785 236.649 154.669 236.774C154.554 236.898 154.402 236.96 154.208 236.96H141.979C141.557 236.96 141.347 236.751 141.347 236.329V216.247C141.347 216.074 141.405 215.927 141.52 215.802C141.635 215.678 141.797 215.615 142.009 215.615H143.49C143.673 215.615 143.823 215.669 143.943 215.775C144.063 215.881 144.123 216.037 144.123 216.25V234.175H154.21V234.173Z" fill="#222220"/>
<path d="M170.64 215.613C170.813 215.613 170.968 215.666 171.109 215.772C171.247 215.878 171.328 216.035 171.346 216.247V217.7C171.346 217.891 171.289 218.057 171.173 218.195C171.058 218.334 170.88 218.403 170.64 218.403H164.655V236.301C164.655 236.474 164.597 236.626 164.482 236.76C164.367 236.893 164.203 236.96 163.993 236.96H162.539C162.366 236.96 162.214 236.898 162.078 236.774C161.944 236.649 161.877 236.49 161.877 236.299V218.401H155.864C155.673 218.401 155.514 218.343 155.389 218.228C155.264 218.112 155.202 217.935 155.202 217.695V216.243C155.202 216.051 155.264 215.897 155.389 215.784C155.514 215.668 155.673 215.611 155.864 215.611H170.64V215.613Z" fill="#222220"/>
<path d="M177.917 228.135C177.917 229.045 178.049 229.894 178.312 230.68C178.575 231.466 178.965 232.149 179.477 232.73C179.989 233.311 180.617 233.765 181.355 234.094C182.093 234.424 182.938 234.59 183.886 234.59C184.901 234.59 185.79 234.422 186.549 234.088C187.306 233.753 187.933 233.294 188.427 232.716C188.921 232.137 189.29 231.455 189.534 230.668C189.779 229.882 189.901 229.038 189.901 228.137V216.25C189.901 216.077 189.966 215.929 190.095 215.805C190.224 215.68 190.386 215.618 190.577 215.618H191.959C192.142 215.618 192.31 215.675 192.462 215.791C192.615 215.906 192.693 216.058 192.693 216.25V228.527C192.693 229.82 192.462 231.007 192.003 232.084C191.542 233.163 190.912 234.088 190.111 234.858C189.311 235.628 188.376 236.229 187.306 236.663C186.235 237.094 185.097 237.308 183.888 237.308C182.679 237.308 181.544 237.078 180.478 236.619C179.415 236.158 178.48 235.529 177.68 234.729C176.879 233.928 176.249 232.997 175.788 231.932C175.326 230.867 175.098 229.732 175.098 228.524V216.247C175.098 216.104 175.153 215.961 175.264 215.823C175.375 215.685 175.52 215.615 175.702 215.615H177.241C177.384 215.615 177.534 215.678 177.686 215.802C177.839 215.927 177.917 216.077 177.917 216.247V228.135Z" fill="#222220"/>
<path d="M197.843 216.303C197.843 215.844 198.053 215.613 198.475 215.613H206.777C207.737 215.613 208.628 215.793 209.454 216.153C210.28 216.512 210.997 217.001 211.611 217.619C212.225 218.237 212.707 218.961 213.058 219.789C213.408 220.619 213.584 221.502 213.584 222.44C213.584 223.111 213.489 223.756 213.302 224.374C213.115 224.992 212.855 225.564 212.518 226.092C212.181 226.62 211.779 227.09 211.309 227.508C210.838 227.925 210.316 228.273 209.74 228.55L213.537 236.326V236.513C213.537 236.81 213.36 236.958 213.004 236.958H211.265C210.967 236.958 210.736 236.78 210.575 236.425L207.123 229.179C207.047 229.188 206.962 229.193 206.872 229.193C206.782 229.193 206.65 229.195 206.484 229.2C206.316 229.204 206.094 229.207 205.815 229.207C205.536 229.207 205.169 229.207 204.714 229.207C204.26 229.207 203.701 229.207 203.039 229.207C202.377 229.207 201.576 229.207 200.637 229.207V236.322C200.637 236.744 200.416 236.953 199.975 236.953H198.48C198.058 236.953 197.848 236.744 197.848 236.322V216.303H197.843ZM210.819 222.412C210.819 221.887 210.716 221.377 210.51 220.888C210.303 220.399 210.021 219.968 209.661 219.595C209.301 219.221 208.874 218.922 208.381 218.696C207.887 218.47 207.352 218.357 206.777 218.357H200.635V226.465H206.835C207.4 226.465 207.928 226.355 208.418 226.133C208.907 225.914 209.329 225.617 209.684 225.243C210.04 224.87 210.316 224.439 210.52 223.95C210.718 223.461 210.819 222.949 210.819 222.412Z" fill="#222220"/>
<path d="M220.157 236.43C220.09 236.594 219.993 236.723 219.869 236.817C219.744 236.914 219.585 236.96 219.393 236.96H217.868C217.428 236.96 217.206 236.792 217.206 236.458C217.206 236.391 217.208 236.335 217.213 236.292C217.218 236.248 217.225 236.206 217.234 236.169C217.243 236.13 217.252 236.098 217.261 236.068L225.563 216.143C225.582 216.095 225.607 216.04 225.635 215.977C225.662 215.915 225.701 215.858 225.75 215.805C225.798 215.751 225.868 215.705 225.96 215.668C226.05 215.632 226.172 215.611 226.327 215.611H227.275C227.418 215.611 227.536 215.632 227.628 215.668C227.718 215.708 227.787 215.754 227.836 215.805C227.884 215.858 227.921 215.915 227.951 215.977C227.981 216.04 228.004 216.095 228.023 216.143L236.25 236.068C236.26 236.116 236.269 236.165 236.278 236.211C236.287 236.259 236.297 236.306 236.306 236.347C236.315 236.391 236.32 236.425 236.32 236.455C236.32 236.792 236.098 236.958 235.657 236.958H234.132C233.941 236.958 233.782 236.91 233.657 236.815C233.532 236.721 233.436 236.591 233.369 236.428L231.786 232.474H221.687C221.35 233.327 221.043 234.099 220.766 234.788C220.496 235.48 220.291 236.027 220.157 236.43ZM222.847 229.686H230.688L226.804 219.853L222.847 229.686Z" fill="#222220"/>
<path d="M251.949 236.43C251.882 236.594 251.785 236.723 251.661 236.817C251.536 236.914 251.377 236.96 251.185 236.96H249.66C249.22 236.96 248.998 236.792 248.998 236.458C248.998 236.391 249 236.335 249.005 236.292C249.01 236.248 249.017 236.206 249.026 236.169C249.035 236.13 249.044 236.098 249.053 236.068L257.355 216.143C257.374 216.095 257.399 216.04 257.427 215.977C257.454 215.915 257.493 215.858 257.542 215.805C257.59 215.751 257.66 215.705 257.752 215.668C257.842 215.632 257.964 215.611 258.119 215.611H259.067C259.21 215.611 259.328 215.632 259.42 215.668C259.51 215.708 259.579 215.754 259.628 215.805C259.676 215.858 259.713 215.915 259.743 215.977C259.771 216.04 259.796 216.095 259.815 216.143L268.042 236.068C268.052 236.116 268.061 236.165 268.07 236.211C268.079 236.259 268.089 236.306 268.098 236.347C268.107 236.391 268.112 236.425 268.112 236.455C268.112 236.792 267.89 236.958 267.449 236.958H265.924C265.733 236.958 265.574 236.91 265.449 236.815C265.324 236.721 265.228 236.591 265.161 236.428L263.578 232.474H253.479C253.142 233.327 252.835 234.099 252.558 234.788C252.288 235.48 252.083 236.027 251.949 236.43ZM254.639 229.686H262.48L258.596 219.853L254.639 229.686Z" fill="#222220"/>
<path d="M272.191 216.303C272.191 215.844 272.401 215.613 272.823 215.613H281.125C282.085 215.613 282.975 215.793 283.801 216.153C284.627 216.512 285.345 217.001 285.959 217.619C286.572 218.237 287.055 218.961 287.405 219.789C287.756 220.619 287.931 221.502 287.931 222.44C287.931 223.111 287.837 223.756 287.65 224.374C287.463 224.992 287.202 225.564 286.865 226.092C286.528 226.62 286.127 227.09 285.656 227.508C285.186 227.925 284.664 228.273 284.087 228.55L287.885 236.326V236.513C287.885 236.81 287.707 236.958 287.352 236.958H285.612C285.315 236.958 285.084 236.78 284.923 236.425L281.471 229.179C281.395 229.188 281.309 229.193 281.219 229.193C281.127 229.193 280.998 229.195 280.832 229.2C280.663 229.204 280.442 229.207 280.163 229.207C279.883 229.207 279.517 229.207 279.062 229.207C278.608 229.207 278.047 229.207 277.387 229.207C276.725 229.207 275.924 229.207 274.985 229.207V236.322C274.985 236.744 274.764 236.953 274.323 236.953H272.828C272.405 236.953 272.196 236.744 272.196 236.322V216.303H272.191ZM285.167 222.412C285.167 221.887 285.063 221.377 284.858 220.888C284.65 220.399 284.369 219.968 284.009 219.595C283.649 219.221 283.222 218.922 282.728 218.696C282.235 218.47 281.699 218.357 281.125 218.357H274.983V226.465H281.182C281.748 226.465 282.276 226.355 282.765 226.133C283.254 225.914 283.677 225.617 284.032 225.243C284.387 224.87 284.664 224.439 284.867 223.95C285.066 223.461 285.167 222.949 285.167 222.412Z" fill="#222220"/>
<path d="M306.66 215.613C306.833 215.613 306.987 215.666 307.128 215.772C307.267 215.878 307.347 216.035 307.366 216.247V217.7C307.366 217.891 307.308 218.057 307.193 218.195C307.077 218.334 306.9 218.403 306.66 218.403H300.675V236.301C300.675 236.474 300.617 236.626 300.502 236.76C300.386 236.893 300.222 236.96 300.012 236.96H298.559C298.386 236.96 298.234 236.898 298.097 236.774C297.964 236.649 297.897 236.49 297.897 236.299V218.401H291.884C291.692 218.401 291.533 218.343 291.409 218.228C291.284 218.112 291.222 217.935 291.222 217.695V216.243C291.222 216.051 291.284 215.897 291.409 215.784C291.533 215.668 291.692 215.611 291.884 215.611H306.66V215.613Z" fill="#222220"/>
<path d="M311.406 216.247C311.406 216.074 311.461 215.927 311.572 215.802C311.683 215.678 311.837 215.616 312.04 215.616H313.535C313.708 215.616 313.861 215.673 313.997 215.788C314.131 215.904 314.198 216.056 314.198 216.247V236.329C314.198 236.751 313.976 236.96 313.535 236.96H312.04C311.618 236.96 311.408 236.751 311.408 236.329V216.247H311.406ZM314.313 213.098C314.131 213.499 313.877 213.702 313.552 213.702H312.227C312.036 213.702 311.909 213.667 311.846 213.6C311.784 213.534 311.752 213.432 311.752 213.298C311.77 213.232 311.786 213.158 311.796 213.075C311.805 212.994 311.844 212.895 311.911 212.78L313.178 209.833C313.293 209.623 313.406 209.469 313.515 209.372C313.625 209.275 313.771 209.229 313.953 209.229H315.377C315.626 209.229 315.75 209.335 315.75 209.545C315.75 209.621 315.746 209.704 315.737 209.789C315.727 209.877 315.688 209.972 315.621 210.078L314.313 213.098Z" fill="#222220"/>
<path d="M331.922 220.27C331.788 220.183 331.567 220.017 331.26 219.768C330.953 219.519 330.577 219.265 330.132 219.007C329.686 218.749 329.183 218.516 328.627 218.311C328.071 218.105 327.471 218.002 326.83 218.002C326.073 218.002 325.42 218.094 324.873 218.276C324.326 218.458 323.877 218.7 323.521 219.002C323.166 219.304 322.905 219.643 322.737 220.024C322.568 220.402 322.485 220.785 322.485 221.167C322.485 221.704 322.663 222.154 323.018 222.518C323.374 222.883 323.842 223.198 324.428 223.466C325.012 223.736 325.676 223.975 326.421 224.192C327.164 224.407 327.924 224.635 328.694 224.875C329.467 225.114 330.224 225.382 330.967 225.679C331.71 225.977 332.374 226.346 332.96 226.786C333.546 227.226 334.015 227.754 334.37 228.367C334.725 228.981 334.903 229.723 334.903 230.595C334.903 231.6 334.695 232.513 334.278 233.334C333.86 234.154 333.29 234.853 332.566 235.432C331.841 236.013 330.99 236.46 330.012 236.776C329.033 237.092 327.984 237.251 326.862 237.251C326.115 237.251 325.374 237.168 324.64 236.999C323.907 236.831 323.2 236.587 322.524 236.266C321.848 235.946 321.219 235.554 320.632 235.095C320.046 234.634 319.525 234.108 319.064 233.513C318.939 233.361 318.879 233.207 318.884 233.052C318.888 232.9 318.971 232.755 319.135 232.621L320.27 231.674C320.434 231.54 320.591 231.48 320.746 231.494C320.898 231.508 321.039 231.593 321.163 231.745L321.35 231.932C321.754 232.381 322.211 232.773 322.723 233.103C323.235 233.435 323.75 233.707 324.262 233.924C324.774 234.138 325.266 234.3 325.736 234.406C326.207 234.512 326.604 234.565 326.929 234.565C327.515 234.565 328.113 234.489 328.726 234.334C329.34 234.182 329.901 233.947 330.411 233.631C330.918 233.315 331.336 232.914 331.661 232.43C331.987 231.946 332.15 231.379 332.15 230.726C332.15 230.18 331.989 229.716 331.668 229.338C331.348 228.96 330.914 228.63 330.367 228.347C329.82 228.065 329.181 227.81 328.447 227.586C327.714 227.36 326.929 227.125 326.096 226.873C324.945 226.537 323.957 226.186 323.134 225.818C322.308 225.449 321.629 225.041 321.099 224.596C320.566 224.151 320.176 223.653 319.926 223.102C319.677 222.551 319.553 221.93 319.553 221.241C319.553 220.37 319.728 219.572 320.079 218.848C320.429 218.124 320.926 217.499 321.567 216.971C322.208 216.443 322.984 216.035 323.89 215.742C324.797 215.449 325.81 215.304 326.934 215.304C327.538 215.304 328.166 215.38 328.819 215.535C329.472 215.687 330.106 215.901 330.725 216.173C331.343 216.445 331.924 216.773 332.464 217.151C333.004 217.529 333.473 217.949 333.867 218.407C334.001 218.55 334.07 218.703 334.075 218.862C334.079 219.018 334.006 219.171 333.851 219.314L332.829 220.291C332.677 220.434 332.52 220.503 332.36 220.492C332.201 220.478 332.056 220.406 331.922 220.27Z" fill="#222220"/>
<path d="M353.5 215.613C353.673 215.613 353.828 215.666 353.968 215.772C354.107 215.878 354.188 216.035 354.206 216.247V217.7C354.206 217.891 354.148 218.057 354.033 218.195C353.918 218.334 353.74 218.403 353.5 218.403H347.515V236.301C347.515 236.474 347.457 236.626 347.342 236.76C347.227 236.893 347.063 236.96 346.853 236.96H345.399C345.226 236.96 345.074 236.898 344.938 236.774C344.804 236.649 344.737 236.49 344.737 236.299V218.401H338.724C338.533 218.401 338.374 218.343 338.249 218.228C338.124 218.112 338.062 217.935 338.062 217.695V216.243C338.062 216.051 338.124 215.897 338.249 215.784C338.374 215.668 338.533 215.611 338.724 215.611H353.5V215.613Z" fill="#222220"/>
<path d="M358.249 216.247C358.249 216.074 358.304 215.927 358.415 215.802C358.525 215.678 358.68 215.615 358.883 215.615H360.378C360.551 215.615 360.703 215.673 360.84 215.788C360.973 215.904 361.04 216.056 361.04 216.247V236.329C361.04 236.751 360.819 236.96 360.378 236.96H358.883C358.461 236.96 358.251 236.751 358.251 236.329V216.247H358.249Z" fill="#222220"/>
<path d="M383.107 217.412C383.213 217.488 383.299 217.578 383.366 217.677C383.433 217.778 383.467 217.88 383.467 217.986C383.467 218.119 383.428 218.235 383.352 218.331L382.59 219.597C382.427 219.828 382.26 219.943 382.087 219.943C382.021 219.943 381.947 219.927 381.864 219.892C381.783 219.858 381.688 219.802 381.582 219.726C380.892 219.238 380.165 218.864 379.402 218.606C378.638 218.348 377.835 218.193 376.993 218.147C375.756 218.147 374.614 218.371 373.569 218.816C372.524 219.261 371.619 219.86 370.858 220.614C370.096 221.366 369.499 222.237 369.067 223.231C368.636 224.222 368.419 225.269 368.419 226.371C368.419 227.54 368.641 228.621 369.081 229.613C369.522 230.604 370.115 231.459 370.858 232.179C371.601 232.898 372.464 233.458 373.447 233.859C374.43 234.261 375.463 234.463 376.548 234.463C376.94 234.463 377.334 234.436 377.727 234.378C378.119 234.32 378.52 234.221 378.929 234.083C379.337 233.945 379.762 233.767 380.202 233.55C380.643 233.334 381.114 233.069 381.612 232.753C381.794 232.647 381.944 232.596 382.057 232.596C382.23 232.596 382.387 232.716 382.533 232.956L383.352 234.307C383.419 234.431 383.453 234.546 383.453 234.652C383.453 234.883 383.338 235.065 383.107 235.199C382.205 235.851 381.213 236.361 380.129 236.73C379.044 237.099 377.874 237.283 376.619 237.283C375.602 237.283 374.626 237.154 373.691 236.896C372.757 236.638 371.882 236.269 371.072 235.789C370.263 235.31 369.524 234.738 368.857 234.071C368.191 233.405 367.621 232.667 367.145 231.858C366.67 231.049 366.303 230.175 366.045 229.241C365.786 228.308 365.657 227.332 365.657 226.316C365.657 225.31 365.786 224.34 366.045 223.406C366.303 222.472 366.672 221.596 367.152 220.782C367.632 219.968 368.204 219.226 368.871 218.555C369.538 217.884 370.279 217.312 371.093 216.837C371.908 216.363 372.784 215.994 373.719 215.731C374.653 215.468 375.629 215.337 376.647 215.337C377.847 215.337 378.982 215.514 380.057 215.869C381.132 216.213 382.147 216.731 383.107 217.412Z" fill="#222220"/>
<path d="M389.51 236.43C389.443 236.594 389.346 236.723 389.222 236.817C389.097 236.914 388.938 236.96 388.746 236.96H387.221C386.781 236.96 386.559 236.792 386.559 236.458C386.559 236.391 386.561 236.335 386.566 236.292C386.571 236.248 386.578 236.206 386.587 236.169C386.596 236.13 386.605 236.098 386.614 236.068L394.916 216.143C394.935 216.095 394.96 216.04 394.988 215.977C395.015 215.915 395.055 215.858 395.103 215.805C395.151 215.751 395.221 215.705 395.313 215.668C395.403 215.632 395.525 215.611 395.68 215.611H396.628C396.771 215.611 396.889 215.632 396.981 215.668C397.071 215.708 397.14 215.754 397.189 215.805C397.237 215.858 397.274 215.915 397.304 215.977C397.334 216.04 397.357 216.095 397.376 216.143L405.603 236.068C405.613 236.116 405.622 236.165 405.631 236.211C405.64 236.259 405.65 236.306 405.659 236.347C405.668 236.391 405.673 236.425 405.673 236.455C405.673 236.792 405.451 236.958 405.01 236.958H403.485C403.294 236.958 403.135 236.91 403.01 236.815C402.885 236.721 402.789 236.591 402.722 236.428L401.139 232.474H391.04C390.703 233.327 390.396 234.099 390.119 234.788C389.849 235.48 389.644 236.027 389.51 236.43ZM392.198 229.686H400.038L396.155 219.853L392.198 229.686Z" fill="#222220"/>
</svg>
