<svg width="320" height="320" viewBox="0 0 320 320" fill="none" xmlns="http://www.w3.org/2000/svg">
<path d="M320 276C320 300.301 300.301 320 276 320H44C19.6995 320 0 300.301 0 276V44C0 19.6995 19.6995 0 44 0H276C300.301 0 320 19.6995 320 44V276Z" fill="#A7BDB8"/>
<path d="M163.74 213.716C152.645 233.189 128.065 239.859 108.842 228.615C89.6227 217.375 83.0386 192.473 94.1339 173C105.233 153.527 129.809 146.857 149.032 158.101C168.251 169.341 174.839 194.24 163.74 213.716ZM169.841 122.511C156.998 115.098 142.984 111.584 129.148 111.561L165.757 48.1572H118.306L58.0937 152.455C35.4981 191.581 48.9067 241.616 88.0335 264.205C127.163 286.794 177.195 273.388 199.784 234.262C222.373 195.135 208.967 145.1 169.841 122.511Z" fill="#A57C52"/>
<path d="M249.086 275.178H207.593V89.649H182.793V48.1564H249.086V275.178Z" fill="#1C1B1F"/>
</svg>
