<svg width="41" height="41" viewBox="0 0 41 41" fill="none" xmlns="http://www.w3.org/2000/svg">
<path d="M20.5 41C31.8218 41 41 31.8218 41 20.5C41 9.17816 31.8218 0 20.5 0C9.17816 0 0 9.17816 0 20.5C0 31.8218 9.17816 41 20.5 41Z" fill="#FFFEFC"/>
<path fill-rule="evenodd" clip-rule="evenodd" d="M20.5 41C31.8218 41 41 31.8218 41 20.5C41 9.17816 31.8218 0 20.5 0C9.17816 0 0 9.17816 0 20.5C0 31.8218 9.17816 41 20.5 41ZM20.5 38C30.165 38 38 30.165 38 20.5C38 10.835 30.165 3 20.5 3C10.835 3 3 10.835 3 20.5C3 30.165 10.835 38 20.5 38ZM35 20.5C35 28.5081 28.5081 35 20.5 35C12.4919 35 6 28.5081 6 20.5C6 12.4919 12.4919 6 20.5 6C28.5081 6 35 12.4919 35 20.5ZM20.5 15C19.95 15 19.4792 14.8042 19.0875 14.4125C18.6958 14.0208 18.5 13.55 18.5 13C18.5 12.45 18.6958 11.9792 19.0875 11.5875C19.4792 11.1958 19.95 11 20.5 11C21.05 11 21.5208 11.1958 21.9125 11.5875C22.3042 11.9792 22.5 12.45 22.5 13C22.5 13.55 22.3042 14.0208 21.9125 14.4125C21.5208 14.8042 21.05 15 20.5 15ZM17.5 18V30C17.5 30.2833 17.5958 30.5208 17.7875 30.7125C17.9792 30.9042 18.2167 31 18.5 31C18.7833 31 19.0208 30.9042 19.2125 30.7125C19.4042 30.5208 19.5 30.2833 19.5 30V25H21.5V30C21.5 30.2833 21.5958 30.5208 21.7875 30.7125C21.9792 30.9042 22.2167 31 22.5 31C22.7833 31 23.0208 30.9042 23.2125 30.7125C23.4042 30.5208 23.5 30.2833 23.5 30V18H28.5C28.7833 18 29.0208 17.9042 29.2125 17.7125C29.4042 17.5208 29.5 17.2833 29.5 17C29.5 16.7167 29.4042 16.4792 29.2125 16.2875C29.0208 16.0958 28.7833 16 28.5 16H12.5C12.2167 16 11.9792 16.0958 11.7875 16.2875C11.5958 16.4792 11.5 16.7167 11.5 17C11.5 17.2833 11.5958 17.5208 11.7875 17.7125C11.9792 17.9042 12.2167 18 12.5 18H17.5Z" fill="#0062A2"/>
</svg>
