<svg width="40" height="34" viewBox="0 0 40 34" fill="none" xmlns="http://www.w3.org/2000/svg">
<mask id="mask0_254_184" style="mask-type:alpha" maskUnits="userSpaceOnUse" x="0" y="0" width="40" height="34">
<rect y="0.5" width="40" height="33" fill="#D9D9D9"/>
</mask>
<g mask="url(#mask0_254_184)">
<path d="M10.1646 25.9038C11.6896 24.849 13.2413 24.0194 14.8196 23.415C16.3979 22.8108 18.1247 22.5088 20 22.5088C21.8753 22.5088 23.6032 22.8108 25.1838 23.415C26.7643 24.0194 28.3171 24.849 29.8421 25.9038C31.0093 24.6524 31.9257 23.2369 32.5913 21.6575C33.2568 20.0778 33.5896 18.3586 33.5896 16.5C33.5896 12.7117 32.2718 9.49958 29.6363 6.86375C27.0004 4.22819 23.7883 2.91042 20 2.91042C16.2117 2.91042 12.9996 4.22819 10.3637 6.86375C7.72819 9.49958 6.41042 12.7117 6.41042 16.5C6.41042 18.3586 6.74417 20.0778 7.41167 21.6575C8.07944 23.2369 8.99708 24.6524 10.1646 25.9038ZM19.9933 17.205C18.5983 17.205 17.424 16.7263 16.4704 15.7688C15.5171 14.811 15.0404 13.6344 15.0404 12.2392C15.0404 10.8439 15.5193 9.66958 16.4771 8.71625C17.4349 7.76292 18.6114 7.28625 20.0067 7.28625C21.4017 7.28625 22.576 7.76514 23.5296 8.72292C24.4829 9.68069 24.9596 10.8571 24.9596 12.2521C24.9596 13.6474 24.4807 14.8217 23.5229 15.775C22.5651 16.7283 21.3886 17.205 19.9933 17.205ZM20.0129 31.5C17.9168 31.5 15.9583 31.1106 14.1375 30.3317C12.3169 29.5528 10.7283 28.4835 9.37167 27.1237C8.015 25.7643 6.94722 24.1779 6.16833 22.3646C5.38944 20.5513 5 18.5975 5 16.5033C5 14.4092 5.38944 12.4543 6.16833 10.6388C6.94722 8.8232 8.01653 7.2357 9.37625 5.87625C10.7357 4.51653 12.3221 3.44722 14.1354 2.66833C15.9488 1.88944 17.9025 1.5 19.9967 1.5C22.0908 1.5 24.0457 1.88944 25.8612 2.66833C27.6768 3.44722 29.2643 4.51653 30.6237 5.87625C31.9835 7.2357 33.0528 8.82347 33.8317 10.6396C34.6106 12.4557 35 14.4049 35 16.4871C35 18.5832 34.6106 20.5417 33.8317 22.3625C33.0528 24.1831 31.9835 25.7717 30.6237 27.1283C29.2643 28.485 27.6765 29.5528 25.8604 30.3317C24.0443 31.1106 22.0951 31.5 20.0129 31.5ZM20 30.0896C21.5592 30.0896 23.1047 29.8199 24.6367 29.2804C26.1689 28.741 27.5307 27.9524 28.7221 26.9146C27.5307 25.9865 26.1964 25.2551 24.7192 24.7204C23.2419 24.186 21.6689 23.9188 20 23.9188C18.3311 23.9188 16.7528 24.1807 15.265 24.7046C13.7769 25.2285 12.455 25.9651 11.2992 26.9146C12.4764 27.9524 13.8311 28.741 15.3633 29.2804C16.8953 29.8199 18.4408 30.0896 20 30.0896ZM20.0029 15.795C21.0138 15.795 21.8575 15.4557 22.5342 14.7771C23.2108 14.0985 23.5492 13.2538 23.5492 12.2429C23.5492 11.2321 23.2099 10.3883 22.5312 9.71167C21.8526 9.035 21.0079 8.69667 19.9971 8.69667C18.9862 8.69667 18.1425 9.03597 17.4658 9.71458C16.7892 10.3932 16.4508 11.2379 16.4508 12.2487C16.4508 13.2596 16.7901 14.1033 17.4688 14.78C18.1474 15.4567 18.9921 15.795 20.0029 15.795Z" />
</g>
</svg>
