<svg width="100" height="100" viewBox="0 0 100 100" fill="none" xmlns="http://www.w3.org/2000/svg">
<path d="M16.6667 83.046C21.9349 79.5977 27.2031 76.8918 32.4713 74.9282C37.7395 72.9646 43.5824 71.9828 50 71.9828C56.4176 71.9828 62.2605 72.9646 67.5287 74.9282C72.7969 76.8918 78.0651 79.5977 83.3333 83.046C87.4521 78.7356 90.7328 73.8027 93.1753 68.2471C95.6178 62.6916 96.8391 56.6092 96.8391 50C96.8391 36.9732 92.2893 25.91 83.1897 16.8103C74.09 7.71073 63.0268 3.16092 50 3.16092C36.9732 3.16092 25.91 7.71073 16.8103 16.8103C7.71073 25.91 3.16092 36.9732 3.16092 50C3.16092 56.6092 4.38218 62.6916 6.82471 68.2471C9.26724 73.8027 12.5479 78.7356 16.6667 83.046ZM49.9727 51.5805C45.3932 51.5805 41.5469 50.0148 38.4339 46.8836C35.3209 43.7534 33.7644 39.898 33.7644 35.3175C33.7644 30.738 35.33 26.8918 38.4612 23.7787C41.5915 20.6657 45.4468 19.1092 50.0273 19.1092C54.6068 19.1092 58.4531 20.6748 61.5661 23.806C64.6791 26.9363 66.2356 30.7917 66.2356 35.3721C66.2356 39.9516 64.67 43.7979 61.5388 46.9109C58.4085 50.0239 54.5532 51.5805 49.9727 51.5805ZM49.9425 100C43.0316 100 36.5287 98.7069 30.4339 96.1207C24.3391 93.5345 19.0364 89.9665 14.5259 85.4167C10.0144 80.8669 6.46552 75.5824 3.87931 69.5632C1.2931 63.5441 0 56.999 0 49.9282C0 42.9531 1.2931 36.432 3.87931 30.3649C6.46552 24.2979 10.0335 19.0134 14.5833 14.5115C19.1331 10.0096 24.4176 6.46552 30.4368 3.87931C36.4559 1.2931 43.001 0 50.0718 0C57.0469 0 63.568 1.2931 69.6351 3.87931C75.7021 6.46552 80.9866 10.0096 85.4885 14.5115C89.9904 19.0134 93.5345 24.3056 96.1207 30.3879C98.7069 36.4703 100 42.9947 100 49.9612C100 57.0244 98.7069 63.5618 96.1207 69.5733C93.5345 75.5857 89.9904 80.8669 85.4885 85.4167C80.9866 89.9665 75.6882 93.5345 69.5934 96.1207C63.4986 98.7069 56.9483 100 49.9425 100Z" fill="#A0A0A0"/>
</svg>
