<svg width="81" height="80" viewBox="0 0 81 80" fill="none" xmlns="http://www.w3.org/2000/svg">
<path d="M7.4225 80C5.50167 80 3.8675 79.3267 2.52 77.98C1.17333 76.6325 0.5 74.9983 0.5 73.0775V6.9225C0.5 5.00167 1.17333 3.3675 2.52 2.02C3.8675 0.67333 5.50167 0 7.4225 0H45.0675V3.84625H7.4225C6.52583 3.84625 5.78875 4.13458 5.21125 4.71125C4.63458 5.28875 4.34625 6.02583 4.34625 6.9225V73.0775C4.34625 73.9742 4.63458 74.7113 5.21125 75.2887C5.78875 75.8654 6.52583 76.1537 7.4225 76.1537H73.5775C74.4742 76.1537 75.2113 75.8654 75.7887 75.2887C76.3654 74.7113 76.6537 73.9742 76.6537 73.0775V35.4325H80.5V73.0775C80.5 74.9983 79.8267 76.6325 78.48 77.98C77.1325 79.3267 75.4983 80 73.5775 80H7.4225ZM14.3462 61.7688H66.6537L50.865 40.75L35.4712 60.0863L25.26 47.8563L14.3462 61.7688ZM66.26 24.6638V14.2688H55.8363V10.4225H66.26V0H70.1062V10.4225H80.5V14.2688H70.1062V24.6638H66.26Z" fill="#A0A0A0"/>
</svg>
