<?xml version="1.0" encoding="UTF-8" standalone="no"?>
<!-- Created with Inkscape (http://www.inkscape.org/) -->

<svg
   width="50"
   height="50"
   viewBox="0 0 13.229166 13.229167"
   version="1.1"
   id="svg1"
   xml:space="preserve"
   sodipodi:docname="brasilFlag.svg"
   inkscape:export-filename="todas.svg"
   inkscape:export-xdpi="96"
   inkscape:export-ydpi="96"
   inkscape:version="1.3.2 (091e20e, 2023-11-25, custom)"
   xmlns:inkscape="http://www.inkscape.org/namespaces/inkscape"
   xmlns:sodipodi="http://sodipodi.sourceforge.net/DTD/sodipodi-0.dtd"
   xmlns="http://www.w3.org/2000/svg"
   xmlns:svg="http://www.w3.org/2000/svg"><sodipodi:namedview
     id="namedview1"
     pagecolor="#ffffff"
     bordercolor="#000000"
     borderopacity="0.25"
     inkscape:showpageshadow="2"
     inkscape:pageopacity="0.0"
     inkscape:pagecheckerboard="0"
     inkscape:deskcolor="#d1d1d1"
     inkscape:zoom="7.08"
     inkscape:cx="7.4858757"
     inkscape:cy="32.415254"
     inkscape:window-width="1920"
     inkscape:window-height="1017"
     inkscape:window-x="-8"
     inkscape:window-y="-8"
     inkscape:window-maximized="1"
     inkscape:current-layer="svg1" /><defs
     id="defs1" /><g
     id="layer3"
     style="display:none;fill:#2a2faf;fill-opacity:1"><path
       id="path1"
       style="display:inline;fill:#2a2faf;fill-opacity:1;stroke:none;stroke-width:0;stroke-dasharray:none;stroke-opacity:1;paint-order:stroke fill markers"
       d="M 6.5939127,0.22427571 C 3.0628997,0.26429573 0.22908669,3.1521741 0.25579834,6.6833129 0.28251605,10.214511 3.1597909,13.059208 6.6910644,13.045715 10.222267,13.03235 13.077793,10.165965 13.077755,6.6347371 l -10e-4,-0.097152 C 13.023166,3.0069396 10.124738,0.18429335 6.5939127,0.22427571 Z"
       sodipodi:nodetypes="cccccc" /><path
       id="rect2"
       style="display:inline;fill:#fbfbfb;fill-opacity:1;stroke-width:0;paint-order:stroke fill markers"
       d="M 4.6683279,10.901345 -1.1426506,8.8450992 -1.1422333,2.8911204 A 6.410954,6.410954 0 0 0 -2.184549,2.9194633 L -2.1847903,8.476362 -7.3513929,6.6481674 a 6.410954,6.410954 0 0 0 -0.3539694,0.9801423 l 5.5206909,1.9530884 -2.175e-4,6.0751449 a 6.410954,6.410954 0 0 0 1.0421439,0.02386 l 2.133e-4,-5.7302687 5.4625373,1.9330337 a 6.410954,6.410954 0 0 0 0.3483223,-0.981823 z"
       transform="rotate(-54.453042)" /><path
       id="rect2-5"
       style="display:inline;fill:#e92b2b;fill-opacity:1;stroke-width:0;paint-order:stroke fill markers"
       d="m -1.4298617,2.8876827 a 6.410954,6.410954 0 0 0 -0.3659632,-0.00463 l -9e-6,6.2496563 -5.7447148,-2.0337296 a 6.410954,6.410954 0 0 0 -0.1089751,0.3497004 l 5.853933,2.0719181 -2.27e-5,6.1651941 a 6.410954,6.410954 0 0 0 0.3657232,0.0061 l 1.628e-4,-6.0414443 5.8291216,2.0629713 A 6.410954,6.410954 0 0 0 4.5260919,11.370716 L -1.4299705,9.2625304 Z"
       transform="rotate(-54.453042)" /><path
       id="rect4"
       style="display:inline;fill:#fbfbfb;fill-opacity:1;stroke-width:0;paint-order:stroke fill markers"
       d="M 6.5939127,0.22427571 A 6.410954,6.410954 0 0 0 5.6916422,0.29920654 V 5.7397013 H 0.32039388 a 6.410954,6.410954 0 0 0 -0.0454753,0.6428548 v 0.5426025 a 6.410954,6.410954 0 0 0 0.0604614,0.7012492 H 5.6916422 V 12.9651 a 6.410954,6.410954 0 0 0 0.9994222,0.08061 6.410954,6.410954 0 0 0 0.8867675,-0.06615 V 7.6264078 H 13.00024 a 6.410954,6.410954 0 0 0 0.07752,-0.9916707 l -10e-4,-0.097152 A 6.410954,6.410954 0 0 0 13.007991,5.7397013 H 7.5778319 V 0.2940389 A 6.410954,6.410954 0 0 0 6.5939127,0.22427571 Z" /><path
       id="rect4-9"
       style="display:inline;fill:#e92b2b;fill-opacity:1;stroke-width:0;paint-order:stroke fill markers"
       d="m 6.5815103,0.22530924 a 6.410954,6.410954 0 0 0 -0.469222,0.0387573 V 6.2140909 H 0.28577067 a 6.410954,6.410954 0 0 0 -0.0299723,0.469222 6.410954,6.410954 0 0 0 0.0413411,0.521932 H 6.1122883 v 5.8011961 a 6.410954,6.410954 0 0 0 0.5787761,0.03927 6.410954,6.410954 0 0 0 0.4123779,-0.01654 V 7.2052449 h 5.9474407 a 6.410954,6.410954 0 0 0 0.02687,-0.5705078 l -10e-4,-0.097152 a 6.410954,6.410954 0 0 0 -0.0279,-0.3234945 H 7.1034423 V 0.25476481 A 6.410954,6.410954 0 0 0 6.6109659,0.22530924 Z" /></g><g
     inkscape:groupmode="layer"
     id="layer2"
     inkscape:label="brasil"
     style="display:inline;fill:#6da544;fill-opacity:1"><path
       style="display:inline;fill:#84bb5b;fill-opacity:1;stroke-width:0;paint-order:stroke fill markers"
       id="path5"
       sodipodi:type="arc"
       sodipodi:cx="6.614583"
       sodipodi:cy="6.5590777"
       sodipodi:rx="6.4547057"
       sodipodi:ry="6.4547057"
       sodipodi:start="0"
       sodipodi:end="6.2680428"
       sodipodi:open="true"
       sodipodi:arc-type="arc"
       d="M 13.069289,6.5590777 A 6.4547057,6.4547057 0 0 1 6.6390181,13.013737 6.4547057,6.4547057 0 0 1 0.1600623,6.6079475 6.4547057,6.4547057 0 0 1 6.5412793,0.10478828 6.4547057,6.4547057 0 0 1 13.068549,6.461341" /><path
       id="path6"
       style="display:inline;fill:#ffdf5d;fill-opacity:1;stroke-width:0;paint-order:stroke fill markers"
       inkscape:transform-center-x="-0.93015577"
       inkscape:transform-center-y="-0.069987894"
       d="m -11.334706,-0.75411486 -0.0025,0.0284413 -7.061628,3.32726166 6.430415,4.5102032 -2.77e-4,0.00309 0.0029,-0.00161 0.0039,0.00284 4.44e-4,-0.00495 7.1250639,-3.3821073 -6.4530689,-4.45175551 0.0024,-0.0265864 -0.02403,0.0115877 z"
       transform="matrix(0.7417397,-0.07324111,0.06646355,0.82923575,15.091226,3.3195052)" /><path
       style="display:inline;fill:#0052b4;fill-opacity:1;stroke-width:0;paint-order:stroke fill markers"
       id="path7"
       sodipodi:type="arc"
       sodipodi:cx="6.6893249"
       sodipodi:cy="6.7640657"
       sodipodi:rx="1.9619527"
       sodipodi:ry="1.9619527"
       sodipodi:start="0"
       sodipodi:end="6.2680428"
       sodipodi:open="true"
       sodipodi:arc-type="arc"
       d="M 8.6512775,6.7640657 A 1.9619527,1.9619527 0 0 1 6.6967521,8.7260044 1.9619527,1.9619527 0 0 1 4.7274284,6.77892 1.9619527,1.9619527 0 0 1 6.6670437,4.8022396 1.9619527,1.9619527 0 0 1 8.6510526,6.734358" /><path
       id="path8"
       style="display:inline;fill:#ffffff;fill-opacity:1;stroke-width:0;paint-order:stroke fill markers"
       d="M 5.7365455,6.0073997 A 3.1486059,3.463772 84.61816 0 0 4.7939166,6.240138 1.9713395,1.9619527 0 0 0 4.7300866,6.9661881 1.9713395,1.9619527 0 0 0 4.7325066,6.9799701 3.1486059,3.463772 84.61816 0 1 5.5050014,6.8045313 3.1486059,3.463772 84.61816 0 1 8.3877152,7.7455269 1.9713395,1.9619527 0 0 0 8.6444498,6.9760281 3.1486059,3.463772 84.61816 0 0 5.7365455,6.0073997 Z" /></g></svg>
