<svg width="24" height="24" viewBox="0 0 24 24" fill="none" xmlns="http://www.w3.org/2000/svg">
<mask id="mask0_583_433" style="mask-type:alpha" maskUnits="userSpaceOnUse" x="0" y="0" width="24" height="24">
<rect width="24" height="24" fill="#D9D9D9"/>
</mask>
<g mask="url(#mask0_583_433)">
<path d="M5.6155 21C5.15517 21 4.77083 20.8459 4.4625 20.5375C4.15417 20.2292 4 19.8449 4 19.3845V6.61554C4 6.1552 4.15417 5.77087 4.4625 5.46254C4.77083 5.1542 5.15517 5.00004 5.6155 5.00004H7.3845V2.76929H8.4615V5.00004H15.6155V2.76929H16.6155V5.00004H18.3845C18.8448 5.00004 19.2292 5.1542 19.5375 5.46254C19.8458 5.77087 20 6.1552 20 6.61554V19.3845C20 19.8449 19.8458 20.2292 19.5375 20.5375C19.2292 20.8459 18.8448 21 18.3845 21H5.6155ZM5.6155 20H18.3845C18.5385 20 18.6796 19.936 18.8077 19.8078C18.9359 19.6796 19 19.5385 19 19.3845V10.6155H5V19.3845C5 19.5385 5.06408 19.6796 5.19225 19.8078C5.32042 19.936 5.4615 20 5.6155 20ZM5 9.61529H19V6.61554C19 6.46154 18.9359 6.32045 18.8077 6.19229C18.6796 6.06412 18.5385 6.00004 18.3845 6.00004H5.6155C5.4615 6.00004 5.32042 6.06412 5.19225 6.19229C5.06408 6.32045 5 6.46154 5 6.61554V9.61529ZM12 14.1538C11.7937 14.1538 11.6138 14.0772 11.4605 13.924C11.3073 13.7709 11.2308 13.591 11.2308 13.3845C11.2308 13.1782 11.3073 12.9985 11.4605 12.8453C11.6138 12.6921 11.7937 12.6155 12 12.6155C12.2063 12.6155 12.3862 12.6921 12.5395 12.8453C12.6927 12.9985 12.7692 13.1782 12.7692 13.3845C12.7692 13.591 12.6927 13.7709 12.5395 13.924C12.3862 14.0772 12.2063 14.1538 12 14.1538ZM8 14.1538C7.79367 14.1538 7.61383 14.0772 7.4605 13.924C7.30733 13.7709 7.23075 13.591 7.23075 13.3845C7.23075 13.1782 7.30733 12.9985 7.4605 12.8453C7.61383 12.6921 7.79367 12.6155 8 12.6155C8.20633 12.6155 8.38617 12.6921 8.5395 12.8453C8.69267 12.9985 8.76925 13.1782 8.76925 13.3845C8.76925 13.591 8.69267 13.7709 8.5395 13.924C8.38617 14.0772 8.20633 14.1538 8 14.1538ZM16 14.1538C15.7937 14.1538 15.6138 14.0772 15.4605 13.924C15.3073 13.7709 15.2308 13.591 15.2308 13.3845C15.2308 13.1782 15.3073 12.9985 15.4605 12.8453C15.6138 12.6921 15.7937 12.6155 16 12.6155C16.2063 12.6155 16.3862 12.6921 16.5395 12.8453C16.6927 12.9985 16.7693 13.1782 16.7693 13.3845C16.7693 13.591 16.6927 13.7709 16.5395 13.924C16.3862 14.0772 16.2063 14.1538 16 14.1538ZM12 18C11.7937 18 11.6138 17.9235 11.4605 17.7703C11.3073 17.6171 11.2308 17.4373 11.2308 17.2308C11.2308 17.0245 11.3073 16.8446 11.4605 16.6913C11.6138 16.5381 11.7937 16.4615 12 16.4615C12.2063 16.4615 12.3862 16.5381 12.5395 16.6913C12.6927 16.8446 12.7692 17.0245 12.7692 17.2308C12.7692 17.4373 12.6927 17.6171 12.5395 17.7703C12.3862 17.9235 12.2063 18 12 18ZM8 18C7.79367 18 7.61383 17.9235 7.4605 17.7703C7.30733 17.6171 7.23075 17.4373 7.23075 17.2308C7.23075 17.0245 7.30733 16.8446 7.4605 16.6913C7.61383 16.5381 7.79367 16.4615 8 16.4615C8.20633 16.4615 8.38617 16.5381 8.5395 16.6913C8.69267 16.8446 8.76925 17.0245 8.76925 17.2308C8.76925 17.4373 8.69267 17.6171 8.5395 17.7703C8.38617 17.9235 8.20633 18 8 18ZM16 18C15.7937 18 15.6138 17.9235 15.4605 17.7703C15.3073 17.6171 15.2308 17.4373 15.2308 17.2308C15.2308 17.0245 15.3073 16.8446 15.4605 16.6913C15.6138 16.5381 15.7937 16.4615 16 16.4615C16.2063 16.4615 16.3862 16.5381 16.5395 16.6913C16.6927 16.8446 16.7693 17.0245 16.7693 17.2308C16.7693 17.4373 16.6927 17.6171 16.5395 17.7703C16.3862 17.9235 16.2063 18 16 18Z" />
</g>
</svg>
