<svg width="81" height="56" viewBox="0 0 81 56" fill="none" xmlns="http://www.w3.org/2000/svg">
<path d="M17.5103 55.6288C12.768 55.6288 8.74742 53.9701 5.44845 50.6525C2.14948 47.3343 0.5 43.2886 0.5 38.5154C0.5 33.8419 2.21821 29.8041 5.65464 26.402C9.09107 23 13.0086 21.3333 17.4072 21.402C17.957 15.4226 20.4485 10.4226 24.8814 6.40202C29.3144 2.3814 34.555 0.371094 40.6031 0.371094C47.0821 0.371094 52.5337 2.6515 56.9577 7.21233C61.3811 11.7738 63.5928 17.2941 63.5928 23.7732V29.9587H66.8918C70.6718 29.7525 73.8849 30.8866 76.5309 33.3608C79.177 35.835 80.5 38.9622 80.5 42.7422C80.5 46.3161 79.2801 49.3573 76.8402 51.8659C74.4004 54.3745 71.3935 55.6288 67.8196 55.6288H44.933C43.368 55.6288 42.0488 55.0924 40.9753 54.0195C39.9024 52.946 39.366 51.6268 39.366 50.0618V23.6701L29.4691 33.6701L27.8196 32.1237L40.5 19.4433L53.1804 32.1237L51.5309 33.6701L41.634 23.6701V50.0618C41.634 50.8866 41.9777 51.6426 42.665 52.3299C43.3522 53.0171 44.1083 53.3608 44.933 53.3608H67.6134C70.5687 53.3608 73.0773 52.3244 75.1392 50.2515C77.201 48.1786 78.232 45.6872 78.232 42.7773C78.232 39.8673 77.201 37.3814 75.1392 35.3195C73.0773 33.2577 70.5567 32.2268 67.5773 32.2268H61.3247V23.7732C61.3247 17.9986 59.2973 13.0326 55.2423 8.87522C51.1873 4.71783 46.256 2.63913 40.4485 2.63913C34.6409 2.63913 29.6924 4.71783 25.6031 8.87522C21.5137 13.0326 19.4691 17.9986 19.4691 23.7732H17.201C13.3522 23.7732 9.98454 25.2165 7.09794 28.1031C4.21134 30.9896 2.76804 34.5113 2.76804 38.668C2.76804 42.6879 4.20722 46.1415 7.08557 49.0288C9.96392 51.9168 13.4388 53.3608 17.5103 53.3608H29.0567V55.6288H17.5103Z"/>
</svg>
