<svg width="49" height="48" viewBox="0 0 49 48" fill="none" xmlns="http://www.w3.org/2000/svg">
<mask id="mask0_85_50" style="mask-type:alpha" maskUnits="userSpaceOnUse" x="0" y="0" width="49" height="48">
<rect x="0.420166" width="48" height="48" fill="#D9D9D9"/>
</mask>
<g mask="url(#mask0_85_50)">
<path d="M24.4267 42C21.9377 42 19.5975 41.5277 17.4062 40.583C15.2152 39.6383 13.3092 38.3563 11.6882 36.737C10.0672 35.1177 8.784 33.2133 7.83867 31.024C6.893 28.835 6.42017 26.4958 6.42017 24.0065C6.42017 21.5175 6.8925 19.1773 7.83717 16.986C8.78183 14.795 10.0638 12.889 11.6832 11.268C13.3025 9.647 15.2068 8.36383 17.3962 7.4185C19.5852 6.47283 21.9243 6 24.4137 6C26.9027 6 29.2428 6.47233 31.4342 7.417C33.6252 8.36167 35.5312 9.64367 37.1522 11.263C38.7732 12.8823 40.0563 14.7867 41.0017 16.976C41.9473 19.165 42.4202 21.5042 42.4202 23.9935C42.4202 26.4825 41.9478 28.8227 41.0032 31.014C40.0585 33.205 38.7765 35.111 37.1572 36.732C35.5378 38.353 33.6335 39.6362 31.4442 40.5815C29.2552 41.5272 26.916 42 24.4267 42ZM24.9587 40.5C29.3457 40.295 33.0963 38.6373 36.2107 35.527C39.3247 32.4167 40.8817 28.5743 40.8817 24C40.8817 19.4257 39.3375 15.5898 36.2492 12.4925C33.1605 9.39483 29.397 7.73067 24.9587 7.5V40.5Z" />
</g>
</svg>
