<svg width="15" height="16" viewBox="0 0 15 16" fill="none" xmlns="http://www.w3.org/2000/svg">
<path d="M3.1155 16C2.668 16 2.28683 15.8427 1.972 15.528C1.65733 15.2132 1.5 14.832 1.5 14.3845V1.99999H0.5V0.999994H4.5V0.230743H10.5V0.999994H14.5V1.99999H13.5V14.3845C13.5 14.8448 13.3458 15.2292 13.0375 15.5375C12.7292 15.8458 12.3448 16 11.8845 16H3.1155ZM12.5 1.99999H2.5V14.3845C2.5 14.564 2.55767 14.7115 2.673 14.827C2.7885 14.9423 2.936 15 3.1155 15H11.8845C12.0385 15 12.1796 14.9359 12.3077 14.8077C12.4359 14.6796 12.5 14.5385 12.5 14.3845V1.99999ZM5.30775 13H6.30775V3.99999H5.30775V13ZM8.69225 13H9.69225V3.99999H8.69225V13Z"/>
</svg>
