<svg width="28" height="28" viewBox="0 0 28 28" fill="none" xmlns="http://www.w3.org/2000/svg">
<path d="M2.07717 25.923H3.73841L22.6005 7.06714L20.9392 5.40589L2.07717 24.2617V25.923ZM0.666748 27.3334V23.6817L23.2351 1.06964C23.3745 0.958527 23.5329 0.864638 23.7101 0.787971C23.887 0.711305 24.0718 0.672974 24.2642 0.672974C24.4526 0.672974 24.6324 0.705057 24.8038 0.769224C24.9752 0.83339 25.1383 0.9345 25.293 1.07256L26.9372 2.72006C27.0797 2.86034 27.1813 3.02075 27.2422 3.20131C27.303 3.38158 27.3334 3.562 27.3334 3.74256C27.3334 3.93283 27.2974 4.11756 27.2255 4.29672C27.1538 4.47589 27.0577 4.6352 26.9372 4.77464L4.31841 27.3334H0.666748ZM21.7784 6.24964L20.9392 5.40589L22.6005 7.06714L21.7784 6.24964Z" />
</svg>
