<svg width="90" height="90" viewBox="0 0 90 90" fill="none" xmlns="http://www.w3.org/2000/svg">
<path d="M7.64735 89.5413C5.59901 89.5413 3.86901 88.8354 2.45734 87.4238C1.04568 86.0121 0.339844 84.2821 0.339844 82.2338V16.8488C0.339844 14.8004 1.04568 13.0704 2.45734 11.6588C3.86901 10.2471 5.59901 9.54125 7.64735 9.54125H51.4011L47.1698 13.7725H7.64735C6.87818 13.7725 6.17318 14.0929 5.53234 14.7338C4.89151 15.3746 4.57109 16.0796 4.57109 16.8488V82.2338C4.57109 83.0029 4.89151 83.7079 5.53234 84.3488C6.17318 84.9896 6.87818 85.31 7.64735 85.31H73.0323C73.8015 85.31 74.5065 84.9896 75.1474 84.3488C75.7882 83.7079 76.1086 83.0029 76.1086 82.2338V42.0988L80.3399 37.8688V82.2338C80.3399 84.2821 79.634 86.0121 78.2224 87.4238C76.8107 88.8354 75.0807 89.5413 73.0323 89.5413H7.64735ZM30.3398 59.5413V46.4638L75.6699 1.13375C76.0974 0.706251 76.5686 0.410421 77.0836 0.246254C77.5986 0.0820873 78.1457 0 78.7249 0C79.2457 0 79.7628 0.0854151 80.2761 0.256248C80.7894 0.427082 81.254 0.715421 81.6699 1.12125L88.2599 7.5475C88.7449 8.015 89.0994 8.53625 89.3236 9.11125C89.5478 9.68625 89.6599 10.2642 89.6599 10.845C89.6599 11.4267 89.5715 11.9792 89.3949 12.5025C89.2182 13.0258 88.904 13.5175 88.4524 13.9775L42.9361 59.5413H30.3398ZM34.5711 55.31H41.1673L75.2823 21.195L72.0061 17.875L68.3686 14.4263L34.5711 48.205V55.31Z" />
</svg>
