<svg width="26" height="26" viewBox="0 0 26 26" fill="none" xmlns="http://www.w3.org/2000/svg">
<path d="M13 1C9.81742 1 6.76518 2.26428 4.51474 4.51472C2.2643 6.76516 1.00002 9.8174 1.00002 13C0.995036 15.7631 1.91799 18.4478 3.62089 20.6237C5.3238 22.7997 7.70803 24.3408 10.3913 25V21.8696H9.34785C6.61393 21.8696 5.65393 17.6957 4.13045 17.6957C7.04176 17.6957 7.60524 19.7826 9.34785 19.7826C9.48934 19.8015 9.63328 19.7875 9.76849 19.7418C9.90371 19.696 10.0266 19.6197 10.1275 19.5188C10.2284 19.4178 10.3047 19.295 10.3505 19.1598C10.3963 19.0246 10.4102 18.8806 10.3913 18.7391V18.3739C7.3548 17.5183 5.17393 15.2435 5.17393 12.4783C5.19835 11.0397 5.78665 9.66825 6.81219 8.65913C6.55079 8.09499 6.45421 7.46844 6.5336 6.85177C6.61299 6.2351 6.86512 5.65344 7.26089 5.17391C8.21547 5.46049 9.07401 6.00159 9.74437 6.73913C11.8476 5.9753 14.1524 5.9753 16.2557 6.73913C16.926 6.00159 17.7846 5.46049 18.7392 5.17391C19.1349 5.65344 19.387 6.2351 19.4664 6.85177C19.5458 7.46844 19.4493 8.09499 19.1878 8.65913C20.2134 9.66825 20.8017 11.0397 20.8261 12.4783C20.8261 15.3374 18.4365 17.6957 15.1705 18.4887C15.5069 19.2198 15.6575 20.0227 15.6087 20.8261V25C18.292 24.3408 20.6762 22.7997 22.3791 20.6237C24.0821 18.4478 25.005 15.7631 25 13C25 9.8174 23.7357 6.76516 21.4853 4.51472C19.2349 2.26428 16.1826 1 13 1Z" stroke="#0062A2" stroke-linecap="round" stroke-linejoin="round"/>
</svg>
