<svg width="93" height="32" viewBox="0 0 93 32" fill="none" xmlns="http://www.w3.org/2000/svg">
<path d="M38.3134 24.1893L35.8692 20.7706L38.1849 14.2281L40.7576 20.7706L38.3134 24.1893ZM87.2856 19.0554C85.994 22.8157 82.4294 25.5192 78.2306 25.5192C72.9427 25.5192 68.6567 21.2327 68.6567 15.9448C68.6567 10.6568 72.9427 6.37034 78.2306 6.37034C80.6246 6.37034 82.8119 7.25143 84.4907 8.70364L87.1775 3.89581C84.6793 2.03789 81.5834 0.937359 78.2306 0.937359C71.8981 0.937359 66.485 4.86221 64.282 10.4099V1.10609H58.7685V22.2963C58.7685 24.1334 57.2788 25.6225 55.4418 25.6225C53.6047 25.6225 52.1155 24.1334 52.1155 22.2963V1.10609H46.455V22.1674L38.4788 1.10609H38.148L28.8484 24.4831L24.4378 1.10609H21.24L15.561 16.9851L9.82706 1.10609H6.62926L0.840332 30.8053H7.16199L9.58818 15.0367L15.2487 30.8053H15.543L21.3499 15.0367L23.8131 30.8053H32.6714L34.2151 26.1372L38.001 30.8053H38.4418L42.0439 26.2107L44.1762 30.8053H49.9837L49.1011 28.7834C49.1011 28.7834 51.0496 31.0626 55.5707 31.0626C60.3818 31.0626 64.282 27.1619 64.282 22.3513V21.4797C66.485 27.0273 71.8981 30.9527 78.2306 30.9527C84.5442 30.9527 89.9436 27.0515 92.1598 21.5308L87.2856 19.0554Z"/>
</svg>
