<svg width="28" height="28" viewBox="0 0 28 28" fill="none" xmlns="http://www.w3.org/2000/svg">
<path d="M3.10234 27.3334C2.41956 27.3334 1.84289 27.0981 1.37234 26.6275C0.901782 26.157 0.666504 25.5803 0.666504 24.8975V3.10252C0.666504 2.41974 0.901782 1.84308 1.37234 1.37252C1.84289 0.901965 2.41956 0.666687 3.10234 0.666687H14.0257V2.0771H3.10234C2.84595 2.0771 2.61095 2.18391 2.39734 2.39752C2.18373 2.61113 2.07692 2.84613 2.07692 3.10252V24.8975C2.07692 25.1539 2.18373 25.3889 2.39734 25.6025C2.61095 25.8161 2.84595 25.9229 3.10234 25.9229H14.0257V27.3334H3.10234ZM21.7732 19.5663L20.7444 18.5704L24.6098 14.705H9.32025V13.295H24.5969L20.7315 9.4296L21.739 8.41252L27.3332 14.0171L21.7732 19.5663Z" />
</svg>
