<svg width="40" height="40" viewBox="0 0 30 30" fill="none" xmlns="http://www.w3.org/2000/svg">
<path d="M11.7071 20.8333L20.8333 15L11.7071 9.16667V20.8333ZM15.0054 30C12.9357 30 10.9913 29.6064 9.17208 28.8192C7.3532 28.0319 5.76375 26.959 4.40375 25.6004C3.04375 24.2415 1.96986 22.6535 1.18208 20.8363C0.394028 19.019 0 17.0754 0 15.0054C0 12.9312 0.393611 10.9811 1.18083 9.155C1.96806 7.32917 3.04097 5.74083 4.39958 4.39C5.75847 3.03917 7.34653 1.96986 9.16375 1.18208C10.981 0.394028 12.9246 0 14.9946 0C17.0688 0 19.0189 0.393612 20.845 1.18083C22.6708 1.96806 24.2592 3.03639 25.61 4.38583C26.9608 5.73528 28.0301 7.32222 28.8179 9.14667C29.606 10.9708 30 12.9201 30 14.9946C30 17.0643 29.6064 19.0088 28.8192 20.8279C28.0319 22.6468 26.9636 24.2362 25.6142 25.5963C24.2647 26.9563 22.6778 28.0301 20.8533 28.8179C19.0292 29.606 17.0799 30 15.0054 30Z" />
</svg>
