<svg width="26" height="36" viewBox="0 0 26 36" fill="none" xmlns="http://www.w3.org/2000/svg">
<path d="M1.47069 23.1708C1.0818 22.3588 0.796104 21.5277 0.613604 20.6775C0.431382 19.8269 0.340271 18.9622 0.340271 18.0833C0.340271 14.6233 1.56041 11.6668 4.00069 9.21371C6.44069 6.76065 9.38721 5.53412 12.8403 5.53412H15.6169L11.9078 1.82454L12.8711 0.861206L18.2494 6.23912L12.8711 11.5962L11.9011 10.6262L15.5828 6.94454H12.8403C9.76916 6.94454 7.15305 8.03079 4.99194 10.2033C2.83111 12.3761 1.75069 15.0027 1.75069 18.0833C1.75069 18.7686 1.81694 19.4587 1.94944 20.1537C2.08166 20.849 2.2668 21.51 2.50485 22.1366L1.47069 23.1708ZM12.7965 35.1795L7.41819 29.8012L12.7965 24.4445L13.7386 25.3866L10.0507 29.0962H12.8403C15.9114 29.0962 18.5275 28.0098 20.6886 25.837C22.8494 23.6643 23.9299 21.0376 23.9299 17.957C23.9299 17.272 23.8683 16.5819 23.7453 15.8866C23.6219 15.1916 23.43 14.5307 23.1694 13.9037L24.2036 12.8695C24.5783 13.6815 24.8614 14.5127 25.0528 15.3633C25.2444 16.2136 25.3403 17.0782 25.3403 17.957C25.3403 21.4173 24.1201 24.374 21.6799 26.827C19.2399 29.2798 16.2933 30.5062 12.8403 30.5062H10.0507L13.7386 34.2158L12.7965 35.1795Z" fill="#FFFEFC"/>
</svg>
