<svg width="32" height="40" viewBox="0 0 32 40" fill="none" xmlns="http://www.w3.org/2000/svg">
<mask id="mask0_421_591" style="mask-type:alpha" maskUnits="userSpaceOnUse" x="0" y="0" width="32" height="40">
<rect width="32" height="40" fill="#D9D9D9"/>
</mask>
<g mask="url(#mask0_421_591)">
<path d="M27.7658 35C26.6919 35 25.7758 34.6192 25.0175 33.8575C24.2594 33.0956 23.8804 32.1786 23.8804 31.1067C23.8804 30.9153 23.9583 30.4674 24.1142 29.7629L11.8954 22.5063C11.534 22.9396 11.0907 23.2792 10.5654 23.525C10.0404 23.7706 9.47236 23.8933 8.86125 23.8933C7.79819 23.8933 6.88889 23.5107 6.13333 22.7454C5.37778 21.9804 5 21.0636 5 19.995C5 18.9264 5.37778 18.0112 6.13333 17.2496C6.88889 16.4876 7.79583 16.1067 8.85417 16.1067C9.45556 16.1067 10.0174 16.225 10.5396 16.4617C11.0615 16.6983 11.5021 17.0381 11.8613 17.4808L24.1142 10.2692C24.0372 10.0492 23.979 9.825 23.9396 9.59667C23.9001 9.36833 23.8804 9.13278 23.8804 8.89C23.8804 7.82028 24.2619 6.90444 25.025 6.1425C25.7883 5.38083 26.7071 5 27.7812 5C28.8551 5 29.7713 5.38167 30.5296 6.145C31.2876 6.90805 31.6667 7.82667 31.6667 8.90083C31.6667 9.97472 31.2858 10.8908 30.5242 11.6492C29.7622 12.4072 28.8432 12.7863 27.7671 12.7863C27.1693 12.7863 26.6182 12.6618 26.1138 12.4129C25.609 12.164 25.1772 11.8313 24.8183 11.4146L12.5458 18.6112C12.6272 18.8313 12.6876 19.0575 12.7271 19.29C12.7665 19.5225 12.7863 19.7581 12.7863 19.9967C12.7863 20.2353 12.7676 20.4631 12.7304 20.68C12.6929 20.8969 12.6357 21.1154 12.5588 21.3354L24.8463 28.5792C25.2104 28.1625 25.6418 27.8307 26.1404 27.5838C26.639 27.3371 27.1839 27.2138 27.775 27.2138C28.8553 27.2138 29.7739 27.5953 30.5308 28.3583C31.2881 29.1217 31.6667 30.0404 31.6667 31.1146C31.6667 32.1885 31.285 33.1046 30.5217 33.8629C29.7586 34.621 28.84 35 27.7658 35ZM27.7783 33.5896C28.4831 33.5896 29.0722 33.3513 29.5458 32.8746C30.0194 32.3976 30.2563 31.8068 30.2563 31.1021C30.2563 30.3974 30.0179 29.8082 29.5413 29.3346C29.0643 28.8607 28.4735 28.6237 27.7688 28.6237C27.064 28.6237 26.4749 28.8622 26.0013 29.3392C25.5274 29.8158 25.2904 30.4067 25.2904 31.1117C25.2904 31.8164 25.5289 32.4056 26.0058 32.8792C26.4825 33.3528 27.0733 33.5896 27.7783 33.5896ZM8.86583 22.4829C9.57972 22.4829 10.1765 22.2446 10.6562 21.7679C11.1363 21.291 11.3763 20.7001 11.3763 19.9954C11.3763 19.2904 11.1347 18.7011 10.6517 18.2275C10.1686 17.7539 9.57014 17.5171 8.85625 17.5171C8.16069 17.5171 7.57917 17.7554 7.11167 18.2321C6.64417 18.709 6.41042 19.2999 6.41042 20.0046C6.41042 20.7096 6.64569 21.2989 7.11625 21.7725C7.58681 22.2461 8.17 22.4829 8.86583 22.4829ZM27.7783 11.3763C28.4831 11.3763 29.0722 11.1378 29.5458 10.6608C30.0194 10.1842 30.2563 9.59333 30.2563 8.88833C30.2563 8.18361 30.0179 7.59445 29.5413 7.12083C29.0643 6.64722 28.4735 6.41042 27.7688 6.41042C27.064 6.41042 26.4749 6.64875 26.0013 7.12542C25.5274 7.60236 25.2904 8.19319 25.2904 8.89792C25.2904 9.60264 25.5289 10.1918 26.0058 10.6654C26.4825 11.1393 27.0733 11.3763 27.7783 11.3763Z" />
</g>
</svg>
