<?xml version="1.0" encoding="UTF-8" standalone="no"?>
<!-- Created with Inkscape (http://www.inkscape.org/) -->

<svg
   width="50"
   height="50"
   viewBox="0 0 13.229166 13.229167"
   version="1.1"
   id="svg1"
   xml:space="preserve"
   sodipodi:docname="ukFlag.svg"
   inkscape:export-filename="bitmfffap.jpg"
   inkscape:export-xdpi="96"
   inkscape:export-ydpi="96"
   inkscape:version="1.3.2 (091e20e, 2023-11-25, custom)"
   xmlns:inkscape="http://www.inkscape.org/namespaces/inkscape"
   xmlns:sodipodi="http://sodipodi.sourceforge.net/DTD/sodipodi-0.dtd"
   xmlns="http://www.w3.org/2000/svg"
   xmlns:svg="http://www.w3.org/2000/svg"><sodipodi:namedview
     id="namedview1"
     pagecolor="#ffffff"
     bordercolor="#000000"
     borderopacity="0.25"
     inkscape:showpageshadow="2"
     inkscape:pageopacity="0.0"
     inkscape:pagecheckerboard="0"
     inkscape:deskcolor="#d1d1d1"
     inkscape:zoom="7.08"
     inkscape:cx="7.4858757"
     inkscape:cy="32.415254"
     inkscape:window-width="1920"
     inkscape:window-height="1017"
     inkscape:window-x="-8"
     inkscape:window-y="-8"
     inkscape:window-maximized="1"
     inkscape:current-layer="svg1" /><defs
     id="defs1" /><g
     id="layer3"
     style="display:inline;fill:#2a2faf;fill-opacity:1"><path
       id="path1"
       style="display:inline;fill:#474ccf;fill-opacity:1;stroke:none;stroke-width:0;stroke-dasharray:none;stroke-opacity:1;paint-order:stroke fill markers"
       d="M 6.5939127,0.22427571 C 3.0628997,0.26429573 0.22908669,3.1521741 0.25579834,6.6833129 0.28251605,10.214511 3.1597909,13.059208 6.6910644,13.045715 10.222267,13.03235 13.077793,10.165965 13.077755,6.6347371 l -0.001,-0.097152 C 13.023166,3.0069396 10.124738,0.18429335 6.5939127,0.22427571 Z"
       sodipodi:nodetypes="cccccc" /><path
       id="rect2"
       style="display:inline;fill:#fbfbfb;fill-opacity:1;stroke-width:0;paint-order:stroke fill markers"
       d="M 4.6683279 10.901345 L -1.1426506 8.8450992 L -1.1422333 2.8911204 A 6.410954 6.410954 0 0 0 -2.184549 2.9194633 L -2.1847903 8.476362 L -7.3513929 6.6481674 A 6.410954 6.410954 0 0 0 -7.7053623 7.6283097 L -2.1846714 9.5813981 L -2.1848889 15.656543 A 6.410954 6.410954 0 0 0 -1.142745 15.680404 L -1.1425317 9.9501353 L 4.3200056 11.883169 A 6.410954 6.410954 0 0 0 4.6683279 10.901345 z "
       transform="rotate(-54.453042)" /><path
       id="rect2-5"
       style="display:inline;fill:#ec4848;fill-opacity:1;stroke-width:0;paint-order:stroke fill markers"
       d="M -1.4298617 2.8876827 A 6.410954 6.410954 0 0 0 -1.7958249 2.8830564 L -1.7958339 9.1327127 L -7.5405487 7.0989831 A 6.410954 6.410954 0 0 0 -7.6495238 7.4486835 L -1.7955908 9.5206016 L -1.7956135 15.685796 A 6.410954 6.410954 0 0 0 -1.4298903 15.691864 L -1.4297275 9.6504194 L 4.3993941 11.713391 A 6.410954 6.410954 0 0 0 4.5260919 11.370716 L -1.4299705 9.2625304 L -1.4298617 2.8876827 z "
       transform="rotate(-54.453042)" /><path
       id="rect4"
       style="display:inline;fill:#fbfbfb;fill-opacity:1;stroke-width:0;paint-order:stroke fill markers"
       d="M 6.5939127 0.22427571 A 6.410954 6.410954 0 0 0 5.6916422 0.29920654 L 5.6916422 5.7397013 L 0.32039388 5.7397013 A 6.410954 6.410954 0 0 0 0.27491862 6.3825561 L 0.27491862 6.9251586 A 6.410954 6.410954 0 0 0 0.33538004 7.6264078 L 5.6916422 7.6264078 L 5.6916422 12.9651 A 6.410954 6.410954 0 0 0 6.6910644 13.045715 A 6.410954 6.410954 0 0 0 7.5778319 12.979569 L 7.5778319 7.6264078 L 13.00024 7.6264078 A 6.410954 6.410954 0 0 0 13.077755 6.6347371 L 13.076721 6.5375854 A 6.410954 6.410954 0 0 0 13.007991 5.7397013 L 7.5778319 5.7397013 L 7.5778319 0.2940389 A 6.410954 6.410954 0 0 0 6.5939127 0.22427571 z " /><path
       id="rect4-9"
       style="display:inline;fill:#ec4848;fill-opacity:1;stroke-width:0;paint-order:stroke fill markers"
       d="M 6.5815103 0.22530924 A 6.410954 6.410954 0 0 0 6.1122883 0.26406657 L 6.1122883 6.2140909 L 0.28577067 6.2140909 A 6.410954 6.410954 0 0 0 0.25579834 6.6833129 A 6.410954 6.410954 0 0 0 0.29713948 7.2052449 L 6.1122883 7.2052449 L 6.1122883 13.006441 A 6.410954 6.410954 0 0 0 6.6910644 13.045715 A 6.410954 6.410954 0 0 0 7.1034423 13.029179 L 7.1034423 7.2052449 L 13.050883 7.2052449 A 6.410954 6.410954 0 0 0 13.077755 6.6347371 L 13.076721 6.5375854 A 6.410954 6.410954 0 0 0 13.048816 6.2140909 L 7.1034423 6.2140909 L 7.1034423 0.25476481 A 6.410954 6.410954 0 0 0 6.6109659 0.22530924 L 6.5815103 0.22530924 z " /></g></svg>
