<?xml version="1.0" encoding="UTF-8" standalone="no"?>
<!-- Created with Inkscape (http://www.inkscape.org/) -->

<svg
   width="185.35593"
   height="137.08873"
   viewBox="0 0 49.04209 36.271394"
   version="1.1"
   id="svg1"
   xml:space="preserve"
   sodipodi:docname="favicon.svg"
   inkscape:version="1.3.2 (091e20e, 2023-11-25, custom)"
   xmlns:inkscape="http://www.inkscape.org/namespaces/inkscape"
   xmlns:sodipodi="http://sodipodi.sourceforge.net/DTD/sodipodi-0.dtd"
   xmlns="http://www.w3.org/2000/svg"
   xmlns:svg="http://www.w3.org/2000/svg"><sodipodi:namedview
     id="namedview1"
     pagecolor="#ffffff"
     bordercolor="#000000"
     borderopacity="0.25"
     inkscape:showpageshadow="2"
     inkscape:pageopacity="0.0"
     inkscape:pagecheckerboard="0"
     inkscape:deskcolor="#d1d1d1"
     inkscape:zoom="2.6074563"
     inkscape:cx="86.290996"
     inkscape:cy="106.04205"
     inkscape:window-width="1920"
     inkscape:window-height="1017"
     inkscape:window-x="-8"
     inkscape:window-y="-8"
     inkscape:window-maximized="1"
     inkscape:current-layer="svg1" /><defs
     id="defs1"><clipPath
       clipPathUnits="userSpaceOnUse"
       id="clipPath1130-2"><path
         d="M 0,595.276 H 841.89 V 0 H 0 Z"
         transform="translate(-163.40378,-287.43121)"
         id="path1130-2" /></clipPath><clipPath
       clipPathUnits="userSpaceOnUse"
       id="clipPath1140-5"><path
         d="M 0,595.276 H 841.89 V 0 H 0 Z"
         transform="translate(-167.9982,-298.66201)"
         id="path1140-2" /></clipPath><clipPath
       clipPathUnits="userSpaceOnUse"
       id="clipPath1142-4"><path
         d="M 0,595.276 H 841.89 V 0 H 0 Z"
         transform="translate(-175.14533,-300.19361)"
         id="path1142-9" /></clipPath><clipPath
       clipPathUnits="userSpaceOnUse"
       id="clipPath1146-0"><path
         d="M 0,595.276 H 841.89 V 0 H 0 Z"
         transform="translate(-158.80928,-306.57491)"
         id="path1146-2" /></clipPath><clipPath
       clipPathUnits="userSpaceOnUse"
       id="clipPath1150-9"><path
         d="M 0,595.276 H 841.89 V 0 H 0 Z"
         transform="translate(-174.12428,-303.25681)"
         id="path1150-4" /></clipPath><clipPath
       clipPathUnits="userSpaceOnUse"
       id="clipPath1152-8"><path
         d="M 0,595.276 H 841.89 V 0 H 0 Z"
         transform="translate(-159.31988,-302.23551)"
         id="path1152-0" /></clipPath><clipPath
       clipPathUnits="userSpaceOnUse"
       id="clipPath1154-2"><path
         d="M 0,595.276 H 841.89 V 0 H 0 Z"
         transform="translate(-236.62741,-302.33651)"
         id="path1154-8" /></clipPath><clipPath
       clipPathUnits="userSpaceOnUse"
       id="clipPath1162-5"><path
         d="M 0,595.276 H 841.89 V 0 H 0 Z"
         transform="translate(-253.22663,-319.86401)"
         id="path1162-6" /></clipPath><clipPath
       clipPathUnits="userSpaceOnUse"
       id="clipPath1164-3"><path
         d="M 0,595.276 H 841.89 V 0 H 0 Z"
         transform="translate(-268.12801,-319.86401)"
         id="path1164-5" /></clipPath><clipPath
       clipPathUnits="userSpaceOnUse"
       id="clipPath1168-6"><path
         d="M 0,595.276 H 841.89 V 0 H 0 Z"
         transform="translate(-248.06041,-278.0096)"
         id="path1168-5" /></clipPath><clipPath
       clipPathUnits="userSpaceOnUse"
       id="clipPath1130-0"><path
         d="M 0,595.276 H 841.89 V 0 H 0 Z"
         transform="translate(-163.40378,-287.43121)"
         id="path1130-22" /></clipPath><clipPath
       clipPathUnits="userSpaceOnUse"
       id="clipPath1132-2"><path
         d="M 0,595.276 H 841.89 V 0 H 0 Z"
         transform="translate(-187.9077,-281.81581)"
         id="path1132-9" /></clipPath><clipPath
       clipPathUnits="userSpaceOnUse"
       id="clipPath1134-41"><path
         d="M 0,595.276 H 841.89 V 0 H 0 Z"
         transform="translate(-192.5022,-300.19361)"
         id="path1134-38" /></clipPath><clipPath
       clipPathUnits="userSpaceOnUse"
       id="clipPath1136-3"><path
         d="M 0,595.276 H 841.89 V 0 H 0 Z"
         transform="translate(-180.25013,-292.53631)"
         id="path1136-63" /></clipPath><clipPath
       clipPathUnits="userSpaceOnUse"
       id="clipPath1138-0"><path
         d="M 0,595.276 H 841.89 V 0 H 0 Z"
         transform="translate(-184.33418,-301.21491)"
         id="path1138-5" /></clipPath><clipPath
       clipPathUnits="userSpaceOnUse"
       id="clipPath1140-0"><path
         d="M 0,595.276 H 841.89 V 0 H 0 Z"
         transform="translate(-167.9982,-298.66201)"
         id="path1140-8" /></clipPath><clipPath
       clipPathUnits="userSpaceOnUse"
       id="clipPath1142-7"><path
         d="M 0,595.276 H 841.89 V 0 H 0 Z"
         transform="translate(-175.14533,-300.19361)"
         id="path1142-91" /></clipPath><clipPath
       clipPathUnits="userSpaceOnUse"
       id="clipPath1144-2"><path
         d="M 0,595.276 H 841.89 V 0 H 0 Z"
         transform="translate(-197.09663,-302.74591)"
         id="path1144-9" /></clipPath><clipPath
       clipPathUnits="userSpaceOnUse"
       id="clipPath1146-7"><path
         d="M 0,595.276 H 841.89 V 0 H 0 Z"
         transform="translate(-158.80928,-306.57491)"
         id="path1146-7" /></clipPath><clipPath
       clipPathUnits="userSpaceOnUse"
       id="clipPath1148-5"><path
         d="M 0,595.276 H 841.89 V 0 H 0 Z"
         transform="translate(-203.22271,-305.80911)"
         id="path1148-0" /></clipPath><clipPath
       clipPathUnits="userSpaceOnUse"
       id="clipPath1150-8"><path
         d="M 0,595.276 H 841.89 V 0 H 0 Z"
         transform="translate(-174.12428,-303.25681)"
         id="path1150-0" /></clipPath><clipPath
       clipPathUnits="userSpaceOnUse"
       id="clipPath1152-0"><path
         d="M 0,595.276 H 841.89 V 0 H 0 Z"
         transform="translate(-159.31988,-302.23551)"
         id="path1152-1" /></clipPath><clipPath
       clipPathUnits="userSpaceOnUse"
       id="clipPath3"><path
         d="M 0,834.884 H 748.837 V 0 H 0 Z"
         transform="translate(-337.99741,-622.65592)"
         id="path3" /></clipPath><clipPath
       clipPathUnits="userSpaceOnUse"
       id="clipPath5"><path
         d="M 0,834.884 H 748.837 V 0 H 0 Z"
         transform="translate(-199.41441,-542.48991)"
         id="path5" /></clipPath><clipPath
       clipPathUnits="userSpaceOnUse"
       id="clipPath7"><path
         d="M 0,834.884 H 748.837 V 0 H 0 Z"
         transform="translate(-228.55801,-551.72671)"
         id="path7" /></clipPath><clipPath
       clipPathUnits="userSpaceOnUse"
       id="clipPath9"><path
         d="M 0,834.884 H 748.837 V 0 H 0 Z"
         transform="translate(-247.38321,-566.96551)"
         id="path9" /></clipPath><clipPath
       clipPathUnits="userSpaceOnUse"
       id="clipPath11"><path
         d="M 0,834.884 H 748.837 V 0 H 0 Z"
         transform="translate(-261.412,-567.09732)"
         id="path11" /></clipPath><clipPath
       clipPathUnits="userSpaceOnUse"
       id="clipPath13"><path
         d="M 0,834.884 H 748.837 V 0 H 0 Z"
         transform="translate(-295.1395,-551.72671)"
         id="path13" /></clipPath><clipPath
       clipPathUnits="userSpaceOnUse"
       id="clipPath15"><path
         d="M 0,834.884 H 748.837 V 0 H 0 Z"
         transform="translate(-324.97251,-557.11242)"
         id="path15" /></clipPath><clipPath
       clipPathUnits="userSpaceOnUse"
       id="clipPath17"><path
         d="M 0,834.884 H 748.837 V 0 H 0 Z"
         transform="translate(-340.84121,-567.09732)"
         id="path17" /></clipPath><clipPath
       clipPathUnits="userSpaceOnUse"
       id="clipPath19"><path
         d="M 0,834.884 H 748.837 V 0 H 0 Z"
         transform="translate(-375.01311,-552.92541)"
         id="path19" /></clipPath><clipPath
       clipPathUnits="userSpaceOnUse"
       id="clipPath21"><path
         d="M 0,834.884 H 748.837 V 0 H 0 Z"
         transform="translate(-392.04331,-567.39612)"
         id="path21" /></clipPath><clipPath
       clipPathUnits="userSpaceOnUse"
       id="clipPath23"><path
         d="M 0,834.884 H 748.837 V 0 H 0 Z"
         transform="translate(-423.98861,-567.42492)"
         id="path23" /></clipPath><clipPath
       clipPathUnits="userSpaceOnUse"
       id="clipPath25"><path
         d="M 0,834.884 H 748.837 V 0 H 0 Z"
         transform="translate(-433.87931,-567.09732)"
         id="path25" /></clipPath><clipPath
       clipPathUnits="userSpaceOnUse"
       id="clipPath27"><path
         d="M 0,834.884 H 748.837 V 0 H 0 Z"
         transform="translate(-470.12441,-557.11242)"
         id="path27" /></clipPath><clipPath
       clipPathUnits="userSpaceOnUse"
       id="clipPath29"><path
         d="M 0,834.884 H 748.837 V 0 H 0 Z"
         transform="translate(-490.11761,-552.92541)"
         id="path29" /></clipPath><clipPath
       clipPathUnits="userSpaceOnUse"
       id="clipPath31"><path
         d="M 0,834.884 H 748.837 V 0 H 0 Z"
         transform="translate(-528.72601,-551.72671)"
         id="path31" /></clipPath><clipPath
       clipPathUnits="userSpaceOnUse"
       id="clipPath33"><path
         d="M 0,834.884 H 748.837 V 0 H 0 Z"
         transform="translate(-540.69961,-567.17442)"
         id="path33" /></clipPath><clipPath
       clipPathUnits="userSpaceOnUse"
       id="clipPath35"><path
         d="M 0,834.884 H 748.837 V 0 H 0 Z"
         transform="translate(-567.79331,-572.14171)"
         id="path35" /></clipPath></defs><g
     id="g66"
     transform="translate(-16.81973,-4.7704129)"
     style="display:none"
     sodipodi:insensitive="true"><path
       d="m 65.684541,43.762351 c 0,3.8362 -3.109721,6.945918 -6.945921,6.945918 H 22.114665 c -3.836123,0 -6.945923,-3.109718 -6.945923,-6.945918 V 7.1383922 c 0,-3.8361226 3.1098,-6.94592248 6.945923,-6.94592248 H 58.73862 c 3.8362,0 6.945921,3.10979988 6.945921,6.94592248 z"
       fill="#a7bdb8"
       id="path36"
       style="display:none;fill:#005bef;fill-opacity:1;stroke-width:0.157862" /><path
       style="display:none;fill:#005bef;fill-opacity:1;stroke:#0062a2;stroke-width:0.256601;paint-order:stroke fill markers"
       id="path4"
       sodipodi:type="arc"
       sodipodi:cx="25.170376"
       sodipodi:cy="25.442257"
       sodipodi:rx="25.094704"
       sodipodi:ry="25.094704"
       sodipodi:start="0"
       sodipodi:end="6.2680428"
       sodipodi:open="true"
       sodipodi:arc-type="arc"
       d="M 50.265079,25.442257 A 25.094704,25.094704 0 0 1 25.265375,50.536781 25.094704,25.094704 0 0 1 0.07639141,25.632253 25.094704,25.094704 0 0 1 24.885384,0.34917158 25.094704,25.094704 0 0 1 50.262203,25.062275"
       transform="translate(15.06182)" /><path
       id="path37"
       d="m 0,0 c -0.695,0 -1.258,0.563 -1.258,1.258 v 34.203 c 0,0.695 0.563,1.258 1.258,1.258 0.695,0 1.258,-0.563 1.258,-1.258 V 1.258 C 1.258,0.563 0.695,0 0,0"
       style="display:none;fill:#ffffff;fill-opacity:1;fill-rule:nonzero;stroke:none"
       transform="matrix(0.42136882,0,0,0.42136882,33.951099,7.0448215)"
       clip-path="url(#clipPath1130-0)"
       sodipodi:insensitive="true" /><path
       id="path38"
       d="m 0,0 c -0.695,0 -1.258,0.563 -1.258,1.258 v 38.287 c 0,0.695 0.563,1.258 1.258,1.258 0.695,0 1.258,-0.563 1.258,-1.258 V 1.258 C 1.258,0.563 0.695,0 0,0"
       style="display:none;fill:#ffffff;fill-opacity:1;fill-rule:nonzero;stroke:none"
       transform="matrix(0.42136882,0,0,0.42136882,44.276288,4.6786755)"
       clip-path="url(#clipPath1132-2)"
       sodipodi:insensitive="true" /><path
       id="path39"
       d="m 0,0 c -0.695,0 -1.258,0.563 -1.258,1.258 v 11.231 c 0,0.694 0.563,1.257 1.258,1.257 0.695,0 1.258,-0.563 1.258,-1.257 V 1.258 C 1.258,0.563 0.695,0 0,0"
       style="display:none;fill:#ffffff;fill-opacity:1;fill-rule:nonzero;stroke:none"
       transform="matrix(0.42136882,0,0,0.42136882,46.21227,12.422499)"
       clip-path="url(#clipPath1134-41)"
       sodipodi:insensitive="true" /><path
       id="path40"
       d="m 0,0 c -0.695,0 -1.258,0.563 -1.258,1.258 v 21.441 c 0,0.694 0.563,1.257 1.258,1.257 0.695,0 1.258,-0.563 1.258,-1.257 V 1.258 C 1.258,0.563 0.695,0 0,0"
       style="display:none;fill:#ffffff;fill-opacity:1;fill-rule:nonzero;stroke:none"
       transform="matrix(0.42136882,0,0,0.42136882,41.049627,9.1959591)"
       clip-path="url(#clipPath1136-3)"
       sodipodi:insensitive="true" /><path
       id="path41"
       d="m 0,0 c -0.695,0 -1.258,0.563 -1.258,1.258 v 7.657 c 0,0.695 0.563,1.258 1.258,1.258 0.695,0 1.258,-0.563 1.258,-1.258 V 1.258 C 1.258,0.563 0.695,0 0,0"
       style="display:none;fill:#ffffff;fill-opacity:1;fill-rule:nonzero;stroke:none"
       transform="matrix(0.42136882,0,0,0.42136882,42.77052,12.852855)"
       clip-path="url(#clipPath1138-0)"
       sodipodi:insensitive="true" /><path
       id="path42"
       d="M 0,0 C -0.695,0 -1.258,0.563 -1.258,1.258 V 14.02 c 0,0.695 0.563,1.258 1.258,1.258 0.695,0 1.258,-0.563 1.258,-1.258 V 1.258 C 1.258,0.563 0.695,0 0,0"
       style="display:none;fill:#ffffff;fill-opacity:1;fill-rule:nonzero;stroke:none"
       transform="matrix(0.42136882,0,0,0.42136882,35.887045,11.777139)"
       clip-path="url(#clipPath1140-0)"
       sodipodi:insensitive="true" /><path
       id="path43"
       d="m 0,0 c -0.695,0 -1.258,0.563 -1.258,1.258 v 8.168 c 0,0.695 0.563,1.258 1.258,1.258 0.695,0 1.258,-0.563 1.258,-1.258 V 1.258 C 1.258,0.563 0.695,0 0,0"
       style="display:none;fill:#ffffff;fill-opacity:1;fill-rule:nonzero;stroke:none"
       transform="matrix(0.42136882,0,0,0.42136882,38.898621,12.422499)"
       clip-path="url(#clipPath1142-7)"
       sodipodi:insensitive="true" /><path
       id="path44"
       d="m 0,0 c -0.695,0 -1.258,0.563 -1.258,1.258 v 5.616 c 0,0.694 0.563,1.257 1.258,1.257 0.695,0 1.258,-0.563 1.258,-1.257 V 1.258 C 1.258,0.563 0.695,0 0,0"
       style="display:none;fill:#ffffff;fill-opacity:1;fill-rule:nonzero;stroke:none"
       transform="matrix(0.42136882,0,0,0.42136882,48.148218,13.497966)"
       clip-path="url(#clipPath1144-2)"
       sodipodi:insensitive="true" /><path
       id="path45"
       d="m 0,0 h -10.721 c -0.694,0 -1.257,0.563 -1.257,1.258 0,0.694 0.563,1.257 1.257,1.257 L 0,2.515 C 0.695,2.515 1.258,1.952 1.258,1.258 1.258,0.563 0.695,0 0,0"
       style="display:none;fill:#ffffff;fill-opacity:1;fill-rule:nonzero;stroke:none"
       transform="matrix(0.42136882,0,0,0.42136882,32.015121,15.11139)"
       clip-path="url(#clipPath1146-7)"
       sodipodi:insensitive="true" /><path
       id="path46"
       d="m 0,0 h -5.616 c -0.694,0 -1.257,0.563 -1.257,1.258 0,0.694 0.563,1.257 1.257,1.257 L 0,2.515 C 0.695,2.515 1.258,1.952 1.258,1.258 1.258,0.563 0.695,0 0,0"
       style="display:none;fill:#ffffff;fill-opacity:1;fill-rule:nonzero;stroke:none"
       transform="matrix(0.42136882,0,0,0.42136882,50.729555,14.788706)"
       clip-path="url(#clipPath1148-5)"
       sodipodi:insensitive="true" /><path
       id="path47"
       d="m 0,0 h -5.615 c -0.695,0 -1.258,0.563 -1.258,1.258 0,0.694 0.563,1.257 1.258,1.257 L 0,2.515 C 0.695,2.515 1.258,1.952 1.258,1.258 1.258,0.563 0.695,0 0,0"
       style="display:none;fill:#ffffff;fill-opacity:1;fill-rule:nonzero;stroke:none"
       transform="matrix(0.42136882,0,0,0.42136882,38.468382,13.713238)"
       clip-path="url(#clipPath1150-8)"
       sodipodi:insensitive="true" /><path
       id="path48"
       d="m 0,0 c -0.695,0 -1.258,0.563 -1.258,1.258 v 7.657 c 0,0.695 0.563,1.258 1.258,1.258 0.695,0 1.258,-0.563 1.258,-1.258 V 1.258 C 1.258,0.563 0.695,0 0,0"
       style="display:none;fill:#ffffff;fill-opacity:1;fill-rule:nonzero;stroke:none"
       transform="matrix(0.42136882,0,0,0.42136882,32.230272,13.282897)"
       clip-path="url(#clipPath1152-0)"
       sodipodi:insensitive="true" /><path
       id="path49"
       d="M 60.325995,29.084177 59.789816,28.836556 59.253633,28.588935 58.717458,28.341314 58.181275,28.093692"
       style="fill:#005bef;fill-opacity:1;fill-rule:nonzero;stroke:none;stroke-width:0.0996066" /><path
       id="path50"
       d="M 0,0 -10.019,14.012 0,43.418 10.021,14.012 Z M 215.281,21.563 C 209.398,5.695 193.924,-5.661 175.703,-5.661 c -23.278,0 -42.148,18.497 -42.148,41.315 0,22.818 18.87,41.316 42.148,41.316 10.289,0 19.707,-3.623 27.026,-9.626 l 12.058,21.281 c -10.992,8.226 -24.58,13.156 -39.35,13.156 -27.487,0 -51.027,-16.88 -60.926,-40.859 v 40.256 H 89.883 V 8.104 c 0,-8.541 -6.493,-15.071 -14.507,-15.071 -8.013,0 -14.507,6.53 -14.507,15.071 v 93.074 H 36.241 L 36.239,9.451 0,103.12 -41.08,-1.477 -60.373,101.175 h -15.155 l -24.329,-68.993 -24.331,68.993 h -15.155 l -24.628,-131.041 h 27.818 l 10.469,68.993 25.826,-69.602 25.826,69.602 10.469,-68.993 h 38.835 l 7.478,19.17 17.249,-19.779 17.251,19.779 7.478,-19.168 h 26.721 l -3.166,8.181 c 5.835,-5.125 14.4,-8.784 27.093,-8.784 35.56,0 39.135,28.487 39.135,38.57 v 2.284 c 9.899,-23.98 33.439,-40.859 60.926,-40.859 27.951,0 51.781,17.47 61.376,42.091 z"
       style="fill:#005bef;fill-opacity:1;fill-rule:nonzero;stroke:none"
       transform="matrix(0.09960623,0,0,-0.09960623,36.466047,25.89195)"
       clip-path="url(#clipPath3)" /><path
       id="path51"
       d="m 0,0 -5,21.083 -3.12,-9.184 h -4.531 L -15.625,20.972 -20.686,0 h -4.702 l 7.056,29.235 h 4.702 l 3.282,-10.887 3.414,10.887 h 4.702 L 4.703,0 Z"
       style="fill:#005bef;fill-opacity:1;fill-rule:nonzero;stroke:none"
       transform="matrix(0.09960623,0,0,-0.09960623,22.662316,33.876984)"
       clip-path="url(#clipPath5)" /><path
       id="path52"
       d="m 0,0 c 0,-5.787 -3.931,-9.644 -9.828,-9.644 -5.896,0 -9.827,3.857 -9.827,9.644 v 19.999 h 4.702 V 0 c 0,-3.256 2.05,-5.427 5.125,-5.427 3.076,0 5.126,2.171 5.126,5.427 V 19.999 H 0 Z"
       style="fill:#005bef;fill-opacity:1;fill-rule:nonzero;stroke:none"
       transform="matrix(0.09960623,0,0,-0.09960623,25.5652,32.956941)"
       clip-path="url(#clipPath7)" /><path
       id="path53"
       d="m 0,0 h -5.514 c -1.368,0 -2.18,-0.834 -2.18,-1.753 0,-0.793 0.446,-1.293 0.983,-1.712 l 5.557,-4.384 c 2.351,-1.879 4.531,-4.634 4.531,-7.849 0,-5.177 -4.531,-8.767 -10.302,-8.767 h -5.13 v 4.592 h 5.13 c 3.206,0 5.343,1.795 5.343,4.175 0,1.42 -0.657,2.735 -2.137,3.883 l -5.942,4.759 c -1.539,1.336 -3.077,2.881 -3.077,5.595 0,3.632 3.505,6.221 7.224,6.221 L 0,4.76 Z"
       style="fill:#005bef;fill-opacity:1;fill-rule:nonzero;stroke:none"
       transform="matrix(0.09960623,0,0,-0.09960623,27.440307,31.439059)"
       clip-path="url(#clipPath9)" /><path
       id="path54"
       d="m 0,0 v -11.411 h 4.488 v -4.452 H 0 v -4.142 h 8.122 v -4.592 H -4.702 V 4.628 H 8.122 V 0 Z"
       style="fill:#005bef;fill-opacity:1;fill-rule:nonzero;stroke:none"
       transform="matrix(0.09960623,0,0,-0.09960623,28.837662,31.425932)"
       clip-path="url(#clipPath11)" /><path
       id="path55"
       d="m 0,0 c 0,-5.787 -3.931,-9.644 -9.828,-9.644 -5.897,0 -9.827,3.857 -9.827,9.644 v 19.999 h 4.702 V 0 c 0,-3.256 2.05,-5.427 5.125,-5.427 3.076,0 5.125,2.171 5.125,5.427 V 19.999 H 0 Z"
       style="fill:#005bef;fill-opacity:1;fill-rule:nonzero;stroke:none"
       transform="matrix(0.09960623,0,0,-0.09960623,32.197132,32.956941)"
       clip-path="url(#clipPath13)" /><path
       id="path56"
       d="M 0,0 C 0,6.574 -3.375,9.653 -10.228,9.989 V -10.015 C -3.374,-9.82 0,-6.733 0,0 m 4.702,0 c 0,-8.618 -5.099,-14.254 -14.93,-14.612 h -4.702 v 29.225 h 4.702 C -0.397,14.254 4.702,8.618 4.702,0"
       style="fill:#005bef;fill-opacity:1;fill-rule:nonzero;stroke:none"
       transform="matrix(0.09960623,0,0,-0.09960623,35.168687,32.420489)"
       clip-path="url(#clipPath15)" /><path
       id="path57"
       d="m 0,0 v -11.411 h 4.488 v -4.452 H 0 v -4.142 h 8.122 v -4.592 H -4.703 V 4.628 H 8.122 V 0 Z"
       style="fill:#005bef;fill-opacity:1;fill-rule:nonzero;stroke:none"
       transform="matrix(0.09960623,0,0,-0.09960623,36.749307,31.425932)"
       clip-path="url(#clipPath17)" /><path
       id="path58"
       d="M 0,0 -2.171,11.021 -4.342,0 Z m 0.863,-4.593 h -6.067 l -1.241,-5.832 h -4.702 L -4.322,18.8 h 4.275 L 6.806,-10.425 H 2.104 Z"
       style="fill:#005bef;fill-opacity:1;fill-rule:nonzero;stroke:none"
       transform="matrix(0.09960623,0,0,-0.09960623,40.153042,32.837543)"
       clip-path="url(#clipPath19)" /><path
       id="path59"
       d="m 0,0 v -14.216 c 4.563,0.167 7.054,2.715 7.054,6.646 C 7.054,-3.395 4.48,-0.213 0,0 m 6.394,-17.098 5.128,-7.798 H 6.254 l -3.735,6.263 C 1.704,-18.821 0.861,-18.941 0,-18.993 v -5.903 H -4.487 V 4.329 h 2.992 c 7.161,0 13.251,-4.182 13.251,-11.899 0,-4.349 -2.161,-7.618 -5.362,-9.528"
       style="fill:#005bef;fill-opacity:1;fill-rule:nonzero;stroke:none"
       transform="matrix(0.09960623,0,0,-0.09960623,41.849355,31.396168)"
       clip-path="url(#clipPath21)" /><path
       id="path60"
       d="m 0,0 h -5.771 v -24.925 h -4.702 V 0 h -5.771 V 4.3 H 0 Z"
       style="fill:#005bef;fill-opacity:1;fill-rule:nonzero;stroke:none"
       transform="matrix(0.09960623,0,0,-0.09960623,45.031307,31.3933)"
       clip-path="url(#clipPath23)" /><path
       id="path61"
       d="m 0,0 v -11.411 h 4.488 v -4.452 H 0 v -4.142 h 8.122 v -4.592 H -4.702 V 4.628 H 8.122 V 0 Z"
       style="fill:#005bef;fill-opacity:1;fill-rule:nonzero;stroke:none"
       transform="matrix(0.09960623,0,0,-0.09960623,46.016482,31.425932)"
       clip-path="url(#clipPath25)" /><path
       id="path62"
       d="M 0,0 C 0,6.404 -2.688,9.575 -8.518,9.976 V -10.019 C -2.688,-9.824 0,-6.977 0,0 m 4.702,0 c 0,-9.565 -4.165,-14.213 -13.22,-14.612 h -4.702 v 29.225 h 4.702 C 0.537,14.212 4.702,9.565 4.702,0"
       style="fill:#005bef;fill-opacity:1;fill-rule:nonzero;stroke:none"
       transform="matrix(0.09960623,0,0,-0.09960623,49.62672,32.420489)"
       clip-path="url(#clipPath27)" /><path
       id="path63"
       d="M 0,0 -2.171,11.021 -4.342,0 Z m 0.863,-4.593 h -6.067 l -1.241,-5.832 h -4.702 L -4.321,18.8 h 4.274 L 6.807,-10.425 H 2.104 Z"
       style="fill:#005bef;fill-opacity:1;fill-rule:nonzero;stroke:none"
       transform="matrix(0.09960623,0,0,-0.09960623,51.618165,32.837543)"
       clip-path="url(#clipPath29)" /><path
       id="path64"
       d="m 0,0 c 0,-5.787 -3.931,-9.644 -9.827,-9.644 -5.897,0 -9.828,3.857 -9.828,9.644 v 19.999 h 4.703 V 0 c 0,-3.256 2.05,-5.427 5.125,-5.427 3.075,0 5.125,2.171 5.125,5.427 V 19.999 H 0 Z"
       style="fill:#005bef;fill-opacity:1;fill-rule:nonzero;stroke:none"
       transform="matrix(0.09960623,0,0,-0.09960623,55.463807,32.956941)"
       clip-path="url(#clipPath31)" /><path
       id="path65"
       d="m 0,0 v -11.481 h 4.916 v -4.593 H 0 v -8.6 H -4.703 V 4.592 H 8.121 V 0 Z"
       style="fill:#005bef;fill-opacity:1;fill-rule:nonzero;stroke:none"
       transform="matrix(0.09960623,0,0,-0.09960623,56.656452,31.418253)"
       clip-path="url(#clipPath33)" /><path
       id="path66"
       d="M 0,0 C 1.047,0 2.503,-0.165 3.678,-0.447 L 2.476,-4.828 c -0.792,0.183 -1.62,0.281 -2.47,0.281 -6.669,0 -10.609,-3.849 -10.609,-10.361 0,-6.512 3.94,-10.36 10.609,-10.36 0.85,0 1.678,0.096 2.47,0.28 L 3.678,-29.35 C 2.503,-29.64 1.047,-29.809 0,-29.809 c -9.564,0 -15.216,5.537 -15.216,14.907 C -15.216,-5.535 -9.564,0 0,0"
       style="fill:#005bef;fill-opacity:1;fill-rule:nonzero;stroke:none"
       transform="matrix(0.09960623,0,0,-0.09960623,59.355151,30.92348)"
       clip-path="url(#clipPath35)" /></g><g
     id="g81"
     transform="matrix(2.0101809,0,0,2.0101809,-54.107452,-9.3532189)"
     style="display:inline;fill:#005df3;fill-opacity:1"><path
       d="m 65.684541,43.762351 c 0,3.8362 -3.109721,6.945918 -6.945921,6.945918 H 22.114665 c -3.836123,0 -6.945923,-3.109718 -6.945923,-6.945918 V 7.1383922 c 0,-3.8361226 3.1098,-6.94592248 6.945923,-6.94592248 H 58.73862 c 3.8362,0 6.945921,3.10979988 6.945921,6.94592248 z"
       fill="#a7bdb8"
       id="path1"
       style="display:none;fill:#005df3;fill-opacity:1;stroke-width:0.157862" /><path
       style="display:none;fill:#005df3;fill-opacity:1;stroke:#0062a2;stroke-width:0.256601;paint-order:stroke fill markers"
       id="path2"
       sodipodi:type="arc"
       sodipodi:cx="25.170376"
       sodipodi:cy="25.442257"
       sodipodi:rx="25.094704"
       sodipodi:ry="25.094704"
       sodipodi:start="0"
       sodipodi:end="6.2680428"
       sodipodi:open="true"
       sodipodi:arc-type="arc"
       d="M 50.265079,25.442257 A 25.094704,25.094704 0 0 1 25.265375,50.536781 25.094704,25.094704 0 0 1 0.07639141,25.632253 25.094704,25.094704 0 0 1 24.885384,0.34917158 25.094704,25.094704 0 0 1 50.262203,25.062275"
       transform="translate(15.06182)" /><path
       id="path32"
       d="M 0,0 -10.019,14.012 0,43.418 10.021,14.012 Z M 215.281,21.563 C 209.398,5.695 193.924,-5.661 175.703,-5.661 c -23.278,0 -42.148,18.497 -42.148,41.315 0,22.818 18.87,41.316 42.148,41.316 10.289,0 19.707,-3.623 27.026,-9.626 l 12.058,21.281 c -10.992,8.226 -24.58,13.156 -39.35,13.156 -27.487,0 -51.027,-16.88 -60.926,-40.859 v 40.256 H 89.883 V 8.104 c 0,-8.541 -6.493,-15.071 -14.507,-15.071 -8.013,0 -14.507,6.53 -14.507,15.071 v 93.074 H 36.241 L 36.239,9.451 0,103.12 -41.08,-1.477 -60.373,101.175 h -15.155 l -24.329,-68.993 -24.331,68.993 h -15.155 l -24.628,-131.041 h 27.818 l 10.469,68.993 25.826,-69.602 25.826,69.602 10.469,-68.993 h 38.835 l 7.478,19.17 17.249,-19.779 17.251,19.779 7.478,-19.168 h 26.721 l -3.166,8.181 c 5.835,-5.125 14.4,-8.784 27.093,-8.784 35.56,0 39.135,28.487 39.135,38.57 v 2.284 c 9.899,-23.98 33.439,-40.859 60.926,-40.859 27.951,0 51.781,17.47 61.376,42.091 z"
       style="display:inline;fill:#005df3;fill-opacity:1;fill-rule:nonzero;stroke:none"
       transform="matrix(0.0601189,0,0,-0.0601189,36.974686,16.009247)"
       clip-path="url(#clipPath3)" /></g></svg>
