<?xml version="1.0" encoding="UTF-8" standalone="no"?>
<!-- Created with Inkscape (http://www.inkscape.org/) -->

<svg
   width="512"
   height="512"
   viewBox="0 0 135.46667 135.46667"
   version="1.1"
   id="svg1"
   xml:space="preserve"
   sodipodi:docname="pwa-512x512.svg"
   inkscape:export-filename="pwa-512x512.png"
   inkscape:export-xdpi="96"
   inkscape:export-ydpi="96"
   inkscape:version="1.3.2 (091e20e, 2023-11-25, custom)"
   xmlns:inkscape="http://www.inkscape.org/namespaces/inkscape"
   xmlns:sodipodi="http://sodipodi.sourceforge.net/DTD/sodipodi-0.dtd"
   xmlns="http://www.w3.org/2000/svg"
   xmlns:svg="http://www.w3.org/2000/svg"><sodipodi:namedview
     id="namedview1"
     pagecolor="#ffffff"
     bordercolor="#000000"
     borderopacity="0.25"
     inkscape:showpageshadow="2"
     inkscape:pageopacity="0.0"
     inkscape:pagecheckerboard="0"
     inkscape:deskcolor="#d1d1d1"
     inkscape:zoom="0.48889805"
     inkscape:cx="255.67703"
     inkscape:cy="-33.749368"
     inkscape:window-width="1920"
     inkscape:window-height="1017"
     inkscape:window-x="-8"
     inkscape:window-y="-8"
     inkscape:window-maximized="1"
     inkscape:current-layer="svg1" /><defs
     id="defs1"><clipPath
       clipPathUnits="userSpaceOnUse"
       id="clipPath1130-2"><path
         d="M 0,595.276 H 841.89 V 0 H 0 Z"
         transform="translate(-163.40378,-287.43121)"
         id="path1130-2" /></clipPath><clipPath
       clipPathUnits="userSpaceOnUse"
       id="clipPath1132-8"><path
         d="M 0,595.276 H 841.89 V 0 H 0 Z"
         transform="translate(-187.9077,-281.81581)"
         id="path1132-4" /></clipPath><clipPath
       clipPathUnits="userSpaceOnUse"
       id="clipPath1134-4"><path
         d="M 0,595.276 H 841.89 V 0 H 0 Z"
         transform="translate(-192.5022,-300.19361)"
         id="path1134-3" /></clipPath><clipPath
       clipPathUnits="userSpaceOnUse"
       id="clipPath1136-6"><path
         d="M 0,595.276 H 841.89 V 0 H 0 Z"
         transform="translate(-180.25013,-292.53631)"
         id="path1136-6" /></clipPath><clipPath
       clipPathUnits="userSpaceOnUse"
       id="clipPath1138-7"><path
         d="M 0,595.276 H 841.89 V 0 H 0 Z"
         transform="translate(-184.33418,-301.21491)"
         id="path1138-7" /></clipPath><clipPath
       clipPathUnits="userSpaceOnUse"
       id="clipPath1140-5"><path
         d="M 0,595.276 H 841.89 V 0 H 0 Z"
         transform="translate(-167.9982,-298.66201)"
         id="path1140-2" /></clipPath><clipPath
       clipPathUnits="userSpaceOnUse"
       id="clipPath1142-4"><path
         d="M 0,595.276 H 841.89 V 0 H 0 Z"
         transform="translate(-175.14533,-300.19361)"
         id="path1142-9" /></clipPath><clipPath
       clipPathUnits="userSpaceOnUse"
       id="clipPath1144-7"><path
         d="M 0,595.276 H 841.89 V 0 H 0 Z"
         transform="translate(-197.09663,-302.74591)"
         id="path1144-7" /></clipPath><clipPath
       clipPathUnits="userSpaceOnUse"
       id="clipPath1146-0"><path
         d="M 0,595.276 H 841.89 V 0 H 0 Z"
         transform="translate(-158.80928,-306.57491)"
         id="path1146-2" /></clipPath><clipPath
       clipPathUnits="userSpaceOnUse"
       id="clipPath1148-0"><path
         d="M 0,595.276 H 841.89 V 0 H 0 Z"
         transform="translate(-203.22271,-305.80911)"
         id="path1148-6" /></clipPath><clipPath
       clipPathUnits="userSpaceOnUse"
       id="clipPath1150-9"><path
         d="M 0,595.276 H 841.89 V 0 H 0 Z"
         transform="translate(-174.12428,-303.25681)"
         id="path1150-4" /></clipPath><clipPath
       clipPathUnits="userSpaceOnUse"
       id="clipPath1152-8"><path
         d="M 0,595.276 H 841.89 V 0 H 0 Z"
         transform="translate(-159.31988,-302.23551)"
         id="path1152-0" /></clipPath><clipPath
       clipPathUnits="userSpaceOnUse"
       id="clipPath1154-2"><path
         d="M 0,595.276 H 841.89 V 0 H 0 Z"
         transform="translate(-236.62741,-302.33651)"
         id="path1154-8" /></clipPath><clipPath
       clipPathUnits="userSpaceOnUse"
       id="clipPath1156-3"><path
         d="M 0,595.276 H 841.89 V 0 H 0 Z"
         id="path1156-3" /></clipPath><clipPath
       clipPathUnits="userSpaceOnUse"
       id="clipPath1158-1"><path
         d="M 0,595.276 H 841.89 V 0 H 0 Z"
         transform="translate(-255.56221,-278.18161)"
         id="path1158-2" /></clipPath><clipPath
       clipPathUnits="userSpaceOnUse"
       id="clipPath1160-7"><path
         d="M 0,595.276 H 841.89 V 0 H 0 Z"
         id="path1160-4" /></clipPath><clipPath
       clipPathUnits="userSpaceOnUse"
       id="clipPath1162-5"><path
         d="M 0,595.276 H 841.89 V 0 H 0 Z"
         transform="translate(-253.22663,-319.86401)"
         id="path1162-6" /></clipPath><clipPath
       clipPathUnits="userSpaceOnUse"
       id="clipPath1164-3"><path
         d="M 0,595.276 H 841.89 V 0 H 0 Z"
         transform="translate(-268.12801,-319.86401)"
         id="path1164-5" /></clipPath><clipPath
       clipPathUnits="userSpaceOnUse"
       id="clipPath1166-7"><path
         d="M 0,595.276 H 841.89 V 0 H 0 Z"
         transform="translate(-275.40473,-277.85761)"
         id="path1166-8" /></clipPath><clipPath
       clipPathUnits="userSpaceOnUse"
       id="clipPath1168-6"><path
         d="M 0,595.276 H 841.89 V 0 H 0 Z"
         transform="translate(-248.06041,-278.0096)"
         id="path1168-5" /></clipPath><clipPath
       clipPathUnits="userSpaceOnUse"
       id="clipPath1170-4"><path
         d="M 0,595.276 H 841.89 V 0 H 0 Z"
         transform="translate(-296.05583,-278.09971)"
         id="path1170-8" /></clipPath><clipPath
       clipPathUnits="userSpaceOnUse"
       id="clipPath1130-0"><path
         d="M 0,595.276 H 841.89 V 0 H 0 Z"
         transform="translate(-163.40378,-287.43121)"
         id="path1130-22" /></clipPath><clipPath
       clipPathUnits="userSpaceOnUse"
       id="clipPath1132-2"><path
         d="M 0,595.276 H 841.89 V 0 H 0 Z"
         transform="translate(-187.9077,-281.81581)"
         id="path1132-9" /></clipPath><clipPath
       clipPathUnits="userSpaceOnUse"
       id="clipPath1134-41"><path
         d="M 0,595.276 H 841.89 V 0 H 0 Z"
         transform="translate(-192.5022,-300.19361)"
         id="path1134-38" /></clipPath><clipPath
       clipPathUnits="userSpaceOnUse"
       id="clipPath1136-3"><path
         d="M 0,595.276 H 841.89 V 0 H 0 Z"
         transform="translate(-180.25013,-292.53631)"
         id="path1136-63" /></clipPath><clipPath
       clipPathUnits="userSpaceOnUse"
       id="clipPath1138-0"><path
         d="M 0,595.276 H 841.89 V 0 H 0 Z"
         transform="translate(-184.33418,-301.21491)"
         id="path1138-5" /></clipPath><clipPath
       clipPathUnits="userSpaceOnUse"
       id="clipPath1140-0"><path
         d="M 0,595.276 H 841.89 V 0 H 0 Z"
         transform="translate(-167.9982,-298.66201)"
         id="path1140-8" /></clipPath><clipPath
       clipPathUnits="userSpaceOnUse"
       id="clipPath1142-7"><path
         d="M 0,595.276 H 841.89 V 0 H 0 Z"
         transform="translate(-175.14533,-300.19361)"
         id="path1142-91" /></clipPath><clipPath
       clipPathUnits="userSpaceOnUse"
       id="clipPath1144-2"><path
         d="M 0,595.276 H 841.89 V 0 H 0 Z"
         transform="translate(-197.09663,-302.74591)"
         id="path1144-9" /></clipPath><clipPath
       clipPathUnits="userSpaceOnUse"
       id="clipPath1146-7"><path
         d="M 0,595.276 H 841.89 V 0 H 0 Z"
         transform="translate(-158.80928,-306.57491)"
         id="path1146-7" /></clipPath><clipPath
       clipPathUnits="userSpaceOnUse"
       id="clipPath1148-5"><path
         d="M 0,595.276 H 841.89 V 0 H 0 Z"
         transform="translate(-203.22271,-305.80911)"
         id="path1148-0" /></clipPath><clipPath
       clipPathUnits="userSpaceOnUse"
       id="clipPath1150-8"><path
         d="M 0,595.276 H 841.89 V 0 H 0 Z"
         transform="translate(-174.12428,-303.25681)"
         id="path1150-0" /></clipPath><clipPath
       clipPathUnits="userSpaceOnUse"
       id="clipPath1152-0"><path
         d="M 0,595.276 H 841.89 V 0 H 0 Z"
         transform="translate(-159.31988,-302.23551)"
         id="path1152-1" /></clipPath><clipPath
       clipPathUnits="userSpaceOnUse"
       id="clipPath3"><path
         d="M 0,834.884 H 748.837 V 0 H 0 Z"
         transform="translate(-337.99741,-622.65592)"
         id="path3" /></clipPath><clipPath
       clipPathUnits="userSpaceOnUse"
       id="clipPath5"><path
         d="M 0,834.884 H 748.837 V 0 H 0 Z"
         transform="translate(-199.41441,-542.48991)"
         id="path5" /></clipPath><clipPath
       clipPathUnits="userSpaceOnUse"
       id="clipPath7"><path
         d="M 0,834.884 H 748.837 V 0 H 0 Z"
         transform="translate(-228.55801,-551.72671)"
         id="path7" /></clipPath><clipPath
       clipPathUnits="userSpaceOnUse"
       id="clipPath9"><path
         d="M 0,834.884 H 748.837 V 0 H 0 Z"
         transform="translate(-247.38321,-566.96551)"
         id="path9" /></clipPath><clipPath
       clipPathUnits="userSpaceOnUse"
       id="clipPath11"><path
         d="M 0,834.884 H 748.837 V 0 H 0 Z"
         transform="translate(-261.412,-567.09732)"
         id="path11" /></clipPath><clipPath
       clipPathUnits="userSpaceOnUse"
       id="clipPath13"><path
         d="M 0,834.884 H 748.837 V 0 H 0 Z"
         transform="translate(-295.1395,-551.72671)"
         id="path13" /></clipPath><clipPath
       clipPathUnits="userSpaceOnUse"
       id="clipPath15"><path
         d="M 0,834.884 H 748.837 V 0 H 0 Z"
         transform="translate(-324.97251,-557.11242)"
         id="path15" /></clipPath><clipPath
       clipPathUnits="userSpaceOnUse"
       id="clipPath17"><path
         d="M 0,834.884 H 748.837 V 0 H 0 Z"
         transform="translate(-340.84121,-567.09732)"
         id="path17" /></clipPath><clipPath
       clipPathUnits="userSpaceOnUse"
       id="clipPath19"><path
         d="M 0,834.884 H 748.837 V 0 H 0 Z"
         transform="translate(-375.01311,-552.92541)"
         id="path19" /></clipPath><clipPath
       clipPathUnits="userSpaceOnUse"
       id="clipPath21"><path
         d="M 0,834.884 H 748.837 V 0 H 0 Z"
         transform="translate(-392.04331,-567.39612)"
         id="path21" /></clipPath><clipPath
       clipPathUnits="userSpaceOnUse"
       id="clipPath23"><path
         d="M 0,834.884 H 748.837 V 0 H 0 Z"
         transform="translate(-423.98861,-567.42492)"
         id="path23" /></clipPath><clipPath
       clipPathUnits="userSpaceOnUse"
       id="clipPath25"><path
         d="M 0,834.884 H 748.837 V 0 H 0 Z"
         transform="translate(-433.87931,-567.09732)"
         id="path25" /></clipPath><clipPath
       clipPathUnits="userSpaceOnUse"
       id="clipPath27"><path
         d="M 0,834.884 H 748.837 V 0 H 0 Z"
         transform="translate(-470.12441,-557.11242)"
         id="path27" /></clipPath><clipPath
       clipPathUnits="userSpaceOnUse"
       id="clipPath29"><path
         d="M 0,834.884 H 748.837 V 0 H 0 Z"
         transform="translate(-490.11761,-552.92541)"
         id="path29" /></clipPath><clipPath
       clipPathUnits="userSpaceOnUse"
       id="clipPath31"><path
         d="M 0,834.884 H 748.837 V 0 H 0 Z"
         transform="translate(-528.72601,-551.72671)"
         id="path31" /></clipPath><clipPath
       clipPathUnits="userSpaceOnUse"
       id="clipPath33"><path
         d="M 0,834.884 H 748.837 V 0 H 0 Z"
         transform="translate(-540.69961,-567.17442)"
         id="path33" /></clipPath><clipPath
       clipPathUnits="userSpaceOnUse"
       id="clipPath35"><path
         d="M 0,834.884 H 748.837 V 0 H 0 Z"
         transform="translate(-567.79331,-572.14171)"
         id="path35" /></clipPath></defs><g
     id="layer2"
     transform="translate(-15.06182)"
     style="display:none"><path
       d="m 99.87568,73.136928 c 0,6.42964 -5.212027,11.64166 -11.641667,11.64166 H 26.850681 c -6.429508,0 -11.641667,-5.21202 -11.641667,-11.64166 V 11.753592 c 0,-6.4295078 5.212159,-11.64166677 11.641667,-11.64166677 h 61.383332 c 6.42964,0 11.641667,5.21215897 11.641667,11.64166677 z"
       fill="#a7bdb8"
       id="path1"
       style="fill:#000000;stroke-width:0.264583" /><path
       id="path1129-9"
       d="m 0,0 c -0.695,0 -1.258,0.563 -1.258,1.258 v 34.203 c 0,0.695 0.563,1.258 1.258,1.258 0.695,0 1.258,-0.563 1.258,-1.258 V 1.258 C 1.258,0.563 0.695,0 0,0"
       style="fill:#3871c1;fill-opacity:1;fill-rule:nonzero;stroke:none"
       transform="matrix(0.70623237,0,0,0.70623237,46.689056,9.7963764)"
       clip-path="url(#clipPath1130-0)" /><path
       id="path1131-61"
       d="m 0,0 c -0.695,0 -1.258,0.563 -1.258,1.258 v 38.287 c 0,0.695 0.563,1.258 1.258,1.258 0.695,0 1.258,-0.563 1.258,-1.258 V 1.258 C 1.258,0.563 0.695,0 0,0"
       style="fill:#3871c1;fill-opacity:1;fill-rule:nonzero;stroke:none"
       transform="matrix(0.70623237,0,0,0.70623237,63.99452,5.8306133)"
       clip-path="url(#clipPath1132-2)" /><path
       id="path1133-1"
       d="m 0,0 c -0.695,0 -1.258,0.563 -1.258,1.258 v 11.231 c 0,0.694 0.563,1.257 1.258,1.257 0.695,0 1.258,-0.563 1.258,-1.257 V 1.258 C 1.258,0.563 0.695,0 0,0"
       style="fill:#82b7e6;fill-opacity:1;fill-rule:nonzero;stroke:none"
       transform="matrix(0.70623237,0,0,0.70623237,67.239309,18.809595)"
       clip-path="url(#clipPath1134-41)" /><path
       id="path1135-0"
       d="m 0,0 c -0.695,0 -1.258,0.563 -1.258,1.258 v 21.441 c 0,0.694 0.563,1.257 1.258,1.257 0.695,0 1.258,-0.563 1.258,-1.257 V 1.258 C 1.258,0.563 0.695,0 0,0"
       style="fill:#3871c1;fill-opacity:1;fill-rule:nonzero;stroke:none"
       transform="matrix(0.70623237,0,0,0.70623237,58.586497,13.401776)"
       clip-path="url(#clipPath1136-3)" /><path
       id="path1137-7"
       d="m 0,0 c -0.695,0 -1.258,0.563 -1.258,1.258 v 7.657 c 0,0.695 0.563,1.258 1.258,1.258 0.695,0 1.258,-0.563 1.258,-1.258 V 1.258 C 1.258,0.563 0.695,0 0,0"
       style="fill:#82b7e6;fill-opacity:1;fill-rule:nonzero;stroke:none"
       transform="matrix(0.70623237,0,0,0.70623237,61.470787,19.530891)"
       clip-path="url(#clipPath1138-0)" /><path
       id="path1139-6"
       d="M 0,0 C -0.695,0 -1.258,0.563 -1.258,1.258 V 14.02 c 0,0.695 0.563,1.258 1.258,1.258 0.695,0 1.258,-0.563 1.258,-1.258 V 1.258 C 1.258,0.563 0.695,0 0,0"
       style="fill:#82b7e6;fill-opacity:1;fill-rule:nonzero;stroke:none"
       transform="matrix(0.70623237,0,0,0.70623237,49.933786,17.727944)"
       clip-path="url(#clipPath1140-0)" /><path
       id="path1141-6"
       d="m 0,0 c -0.695,0 -1.258,0.563 -1.258,1.258 v 8.168 c 0,0.695 0.563,1.258 1.258,1.258 0.695,0 1.258,-0.563 1.258,-1.258 V 1.258 C 1.258,0.563 0.695,0 0,0"
       style="fill:#82b7e6;fill-opacity:1;fill-rule:nonzero;stroke:none"
       transform="matrix(0.70623237,0,0,0.70623237,54.981318,18.809595)"
       clip-path="url(#clipPath1142-7)" /><path
       id="path1143-9"
       d="m 0,0 c -0.695,0 -1.258,0.563 -1.258,1.258 v 5.616 c 0,0.694 0.563,1.257 1.258,1.257 0.695,0 1.258,-0.563 1.258,-1.257 V 1.258 C 1.258,0.563 0.695,0 0,0"
       style="fill:#3871c1;fill-opacity:1;fill-rule:nonzero;stroke:none"
       transform="matrix(0.70623237,0,0,0.70623237,70.48404,20.612125)"
       clip-path="url(#clipPath1144-2)" /><path
       id="path1145-6"
       d="m 0,0 h -10.721 c -0.694,0 -1.257,0.563 -1.257,1.258 0,0.694 0.563,1.257 1.257,1.257 L 0,2.515 C 0.695,2.515 1.258,1.952 1.258,1.258 1.258,0.563 0.695,0 0,0"
       style="fill:#3871c1;fill-opacity:1;fill-rule:nonzero;stroke:none"
       transform="matrix(0.70623237,0,0,0.70623237,43.444274,23.316293)"
       clip-path="url(#clipPath1146-7)" /><path
       id="path1147-6"
       d="m 0,0 h -5.616 c -0.694,0 -1.257,0.563 -1.257,1.258 0,0.694 0.563,1.257 1.257,1.257 L 0,2.515 C 0.695,2.515 1.258,1.952 1.258,1.258 1.258,0.563 0.695,0 0,0"
       style="fill:#3871c1;fill-opacity:1;fill-rule:nonzero;stroke:none"
       transform="matrix(0.70623237,0,0,0.70623237,74.810472,22.77546)"
       clip-path="url(#clipPath1148-5)" /><path
       id="path1149-1"
       d="m 0,0 h -5.615 c -0.695,0 -1.258,0.563 -1.258,1.258 0,0.694 0.563,1.257 1.258,1.257 L 0,2.515 C 0.695,2.515 1.258,1.952 1.258,1.258 1.258,0.563 0.695,0 0,0"
       style="fill:#82b7e6;fill-opacity:1;fill-rule:nonzero;stroke:none"
       transform="matrix(0.70623237,0,0,0.70623237,54.260218,20.97293)"
       clip-path="url(#clipPath1150-8)" /><path
       id="path1151-78"
       d="m 0,0 c -0.695,0 -1.258,0.563 -1.258,1.258 v 7.657 c 0,0.695 0.563,1.258 1.258,1.258 0.695,0 1.258,-0.563 1.258,-1.258 V 1.258 C 1.258,0.563 0.695,0 0,0"
       style="fill:#3871c1;fill-opacity:1;fill-rule:nonzero;stroke:none"
       transform="matrix(0.70623237,0,0,0.70623237,43.804876,20.251659)"
       clip-path="url(#clipPath1152-0)" /><path
       id="path1-8"
       d="M 91.135041,55.634416 90.236379,55.219392 89.337716,54.804369 88.43906,54.389345 87.540397,53.974321"
       style="fill:#005d97;fill-opacity:1;fill-rule:nonzero;stroke:none;stroke-width:0.166945" /><path
       id="path2"
       d="M 0,0 -10.019,14.012 0,43.418 10.021,14.012 Z M 215.281,21.563 C 209.398,5.695 193.924,-5.661 175.703,-5.661 c -23.278,0 -42.148,18.497 -42.148,41.315 0,22.818 18.87,41.316 42.148,41.316 10.289,0 19.707,-3.623 27.026,-9.626 l 12.058,21.281 c -10.992,8.226 -24.58,13.156 -39.35,13.156 -27.487,0 -51.027,-16.88 -60.926,-40.859 v 40.256 H 89.883 V 8.104 c 0,-8.541 -6.493,-15.071 -14.507,-15.071 -8.013,0 -14.507,6.53 -14.507,15.071 v 93.074 H 36.241 L 36.239,9.451 0,103.12 -41.08,-1.477 -60.373,101.175 h -15.155 l -24.329,-68.993 -24.331,68.993 h -15.155 l -24.628,-131.041 h 27.818 l 10.469,68.993 25.826,-69.602 25.826,69.602 10.469,-68.993 h 38.835 l 7.478,19.17 17.249,-19.779 17.251,19.779 7.478,-19.168 h 26.721 l -3.166,8.181 c 5.835,-5.125 14.4,-8.784 27.093,-8.784 35.56,0 39.135,28.487 39.135,38.57 v 2.284 c 9.899,-23.98 33.439,-40.859 60.926,-40.859 27.951,0 51.781,17.47 61.376,42.091 z"
       style="fill:#005d97;fill-opacity:1;fill-rule:nonzero;stroke:none"
       transform="matrix(0.16694435,0,0,-0.16694435,51.600364,57.57416)"
       clip-path="url(#clipPath3)" /><path
       id="path4"
       d="m 0,0 -5,21.083 -3.12,-9.184 h -4.531 L -15.625,20.972 -20.686,0 h -4.702 l 7.056,29.235 h 4.702 l 3.282,-10.887 3.414,10.887 h 4.702 L 4.703,0 Z"
       style="fill:#82b7e6;fill-opacity:1;fill-rule:nonzero;stroke:none"
       transform="matrix(0.16694435,0,0,-0.16694435,28.464713,70.957421)"
       clip-path="url(#clipPath5)" /><path
       id="path6"
       d="m 0,0 c 0,-5.787 -3.931,-9.644 -9.828,-9.644 -5.896,0 -9.827,3.857 -9.827,9.644 v 19.999 h 4.702 V 0 c 0,-3.256 2.05,-5.427 5.125,-5.427 3.076,0 5.126,2.171 5.126,5.427 V 19.999 H 0 Z"
       style="fill:#82b7e6;fill-opacity:1;fill-rule:nonzero;stroke:none"
       transform="matrix(0.16694435,0,0,-0.16694435,33.330072,69.415388)"
       clip-path="url(#clipPath7)" /><path
       id="path8"
       d="m 0,0 h -5.514 c -1.368,0 -2.18,-0.834 -2.18,-1.753 0,-0.793 0.446,-1.293 0.983,-1.712 l 5.557,-4.384 c 2.351,-1.879 4.531,-4.634 4.531,-7.849 0,-5.177 -4.531,-8.767 -10.302,-8.767 h -5.13 v 4.592 h 5.13 c 3.206,0 5.343,1.795 5.343,4.175 0,1.42 -0.657,2.735 -2.137,3.883 l -5.942,4.759 c -1.539,1.336 -3.077,2.881 -3.077,5.595 0,3.632 3.505,6.221 7.224,6.221 L 0,4.76 Z"
       style="fill:#82b7e6;fill-opacity:1;fill-rule:nonzero;stroke:none"
       transform="matrix(0.16694435,0,0,-0.16694435,36.472833,66.871354)"
       clip-path="url(#clipPath9)" /><path
       id="path10"
       d="m 0,0 v -11.411 h 4.488 v -4.452 H 0 v -4.142 h 8.122 v -4.592 H -4.702 V 4.628 H 8.122 V 0 Z"
       style="fill:#82b7e6;fill-opacity:1;fill-rule:nonzero;stroke:none"
       transform="matrix(0.16694435,0,0,-0.16694435,38.814861,66.849354)"
       clip-path="url(#clipPath11)" /><path
       id="path12"
       d="m 0,0 c 0,-5.787 -3.931,-9.644 -9.828,-9.644 -5.897,0 -9.827,3.857 -9.827,9.644 v 19.999 h 4.702 V 0 c 0,-3.256 2.05,-5.427 5.125,-5.427 3.076,0 5.125,2.171 5.125,5.427 V 19.999 H 0 Z"
       style="fill:#82b7e6;fill-opacity:1;fill-rule:nonzero;stroke:none"
       transform="matrix(0.16694435,0,0,-0.16694435,44.445477,69.415388)"
       clip-path="url(#clipPath13)" /><path
       id="path14"
       d="M 0,0 C 0,6.574 -3.375,9.653 -10.228,9.989 V -10.015 C -3.374,-9.82 0,-6.733 0,0 m 4.702,0 c 0,-8.618 -5.099,-14.254 -14.93,-14.612 h -4.702 v 29.225 h 4.702 C -0.397,14.254 4.702,8.618 4.702,0"
       style="fill:#82b7e6;fill-opacity:1;fill-rule:nonzero;stroke:none"
       transform="matrix(0.16694435,0,0,-0.16694435,49.425931,68.516273)"
       clip-path="url(#clipPath15)" /><path
       id="path16"
       d="m 0,0 v -11.411 h 4.488 v -4.452 H 0 v -4.142 h 8.122 v -4.592 H -4.703 V 4.628 H 8.122 V 0 Z"
       style="fill:#82b7e6;fill-opacity:1;fill-rule:nonzero;stroke:none"
       transform="matrix(0.16694435,0,0,-0.16694435,52.075119,66.849354)"
       clip-path="url(#clipPath17)" /><path
       id="path18"
       d="M 0,0 -2.171,11.021 -4.342,0 Z m 0.863,-4.593 h -6.067 l -1.241,-5.832 h -4.702 L -4.322,18.8 h 4.275 L 6.806,-10.425 H 2.104 Z"
       style="fill:#82b7e6;fill-opacity:1;fill-rule:nonzero;stroke:none"
       transform="matrix(0.16694435,0,0,-0.16694435,57.779927,69.215274)"
       clip-path="url(#clipPath19)" /><path
       id="path20"
       d="m 0,0 v -14.216 c 4.563,0.167 7.054,2.715 7.054,6.646 C 7.054,-3.395 4.48,-0.213 0,0 m 6.394,-17.098 5.128,-7.798 H 6.254 l -3.735,6.263 C 1.704,-18.821 0.861,-18.941 0,-18.993 v -5.903 H -4.487 V 4.329 h 2.992 c 7.161,0 13.251,-4.182 13.251,-11.899 0,-4.349 -2.161,-7.618 -5.362,-9.528"
       style="fill:#82b7e6;fill-opacity:1;fill-rule:nonzero;stroke:none"
       transform="matrix(0.16694435,0,0,-0.16694435,60.62302,66.799468)"
       clip-path="url(#clipPath21)" /><path
       id="path22"
       d="m 0,0 h -5.771 v -24.925 h -4.702 V 0 h -5.771 V 4.3 H 0 Z"
       style="fill:#82b7e6;fill-opacity:1;fill-rule:nonzero;stroke:none"
       transform="matrix(0.16694435,0,0,-0.16694435,65.956109,66.79466)"
       clip-path="url(#clipPath23)" /><path
       id="path24"
       d="m 0,0 v -11.411 h 4.488 v -4.452 H 0 v -4.142 h 8.122 v -4.592 H -4.702 V 4.628 H 8.122 V 0 Z"
       style="fill:#82b7e6;fill-opacity:1;fill-rule:nonzero;stroke:none"
       transform="matrix(0.16694435,0,0,-0.16694435,67.607306,66.849354)"
       clip-path="url(#clipPath25)" /><path
       id="path26"
       d="M 0,0 C 0,6.404 -2.688,9.575 -8.518,9.976 V -10.019 C -2.688,-9.824 0,-6.977 0,0 m 4.702,0 c 0,-9.565 -4.165,-14.213 -13.22,-14.612 h -4.702 v 29.225 h 4.702 C 0.537,14.212 4.702,9.565 4.702,0"
       style="fill:#82b7e6;fill-opacity:1;fill-rule:nonzero;stroke:none"
       transform="matrix(0.16694435,0,0,-0.16694435,73.658221,68.516273)"
       clip-path="url(#clipPath27)" /><path
       id="path28"
       d="M 0,0 -2.171,11.021 -4.342,0 Z m 0.863,-4.593 h -6.067 l -1.241,-5.832 h -4.702 L -4.321,18.8 h 4.274 L 6.807,-10.425 H 2.104 Z"
       style="fill:#82b7e6;fill-opacity:1;fill-rule:nonzero;stroke:none"
       transform="matrix(0.16694435,0,0,-0.16694435,76.99597,69.215274)"
       clip-path="url(#clipPath29)" /><path
       id="path30"
       d="m 0,0 c 0,-5.787 -3.931,-9.644 -9.827,-9.644 -5.897,0 -9.828,3.857 -9.828,9.644 v 19.999 h 4.703 V 0 c 0,-3.256 2.05,-5.427 5.125,-5.427 3.075,0 5.125,2.171 5.125,5.427 V 19.999 H 0 Z"
       style="fill:#82b7e6;fill-opacity:1;fill-rule:nonzero;stroke:none"
       transform="matrix(0.16694435,0,0,-0.16694435,83.44143,69.415388)"
       clip-path="url(#clipPath31)" /><path
       id="path32"
       d="m 0,0 v -11.481 h 4.916 v -4.593 H 0 v -8.6 H -4.703 V 4.592 H 8.121 V 0 Z"
       style="fill:#82b7e6;fill-opacity:1;fill-rule:nonzero;stroke:none"
       transform="matrix(0.16694435,0,0,-0.16694435,85.440355,66.836484)"
       clip-path="url(#clipPath33)" /><path
       id="path34"
       d="M 0,0 C 1.047,0 2.503,-0.165 3.678,-0.447 L 2.476,-4.828 c -0.792,0.183 -1.62,0.281 -2.47,0.281 -6.669,0 -10.609,-3.849 -10.609,-10.361 0,-6.512 3.94,-10.36 10.609,-10.36 0.85,0 1.678,0.096 2.47,0.28 L 3.678,-29.35 C 2.503,-29.64 1.047,-29.809 0,-29.809 c -9.564,0 -15.216,5.537 -15.216,14.907 C -15.216,-5.535 -9.564,0 0,0"
       style="fill:#82b7e6;fill-opacity:1;fill-rule:nonzero;stroke:none"
       transform="matrix(0.16694435,0,0,-0.16694435,89.96349,66.007222)"
       clip-path="url(#clipPath35)" /></g><g
     id="g66"
     transform="translate(-15.06182)"
     style="display:inline"><path
       d="m 150.45762,116.76386 c 0,10.27086 -8.32582,18.59667 -18.59668,18.59667 H 33.805699 c -10.270654,0 -18.596685,-8.32581 -18.596685,-18.59667 V 18.708609 c 0,-10.2706531 8.326031,-18.59668377 18.596685,-18.59668377 h 98.055241 c 10.27086,0 18.59668,8.32603067 18.59668,18.59668377 z"
       fill="#a7bdb8"
       id="path36"
       style="display:inline;fill:#005bef;fill-opacity:1;stroke-width:0.422651"
       sodipodi:insensitive="true" /><path
       id="path49"
       d="m 136.49511,91.680897 -1.43554,-0.66297 -1.43555,-0.662968 -1.43553,-0.662969 -1.43555,-0.66297"
       style="fill:#005d97;fill-opacity:1;fill-rule:nonzero;stroke:none;stroke-width:0.266682" /><path
       id="path50"
       d="M 0,0 -10.019,14.012 0,43.418 10.021,14.012 Z M 215.281,21.563 C 209.398,5.695 193.924,-5.661 175.703,-5.661 c -23.278,0 -42.148,18.497 -42.148,41.315 0,22.818 18.87,41.316 42.148,41.316 10.289,0 19.707,-3.623 27.026,-9.626 l 12.058,21.281 c -10.992,8.226 -24.58,13.156 -39.35,13.156 -27.487,0 -51.027,-16.88 -60.926,-40.859 v 40.256 H 89.883 V 8.104 c 0,-8.541 -6.493,-15.071 -14.507,-15.071 -8.013,0 -14.507,6.53 -14.507,15.071 v 93.074 H 36.241 L 36.239,9.451 0,103.12 -41.08,-1.477 -60.373,101.175 h -15.155 l -24.329,-68.993 -24.331,68.993 h -15.155 l -24.628,-131.041 h 27.818 l 10.469,68.993 25.826,-69.602 25.826,69.602 10.469,-68.993 h 38.835 l 7.478,19.17 17.249,-19.779 17.251,19.779 7.478,-19.168 h 26.721 l -3.166,8.181 c 5.835,-5.125 14.4,-8.784 27.093,-8.784 35.56,0 39.135,28.487 39.135,38.57 v 2.284 c 9.899,-23.98 33.439,-40.859 60.926,-40.859 27.951,0 51.781,17.47 61.376,42.091 z"
       style="fill:#ffffff;fill-opacity:1;fill-rule:nonzero;stroke:none"
       transform="matrix(0.266681,0,0,-0.266681,73.120528,70.377433)"
       clip-path="url(#clipPath3)" /><path
       id="path51"
       d="m 0,0 -5,21.083 -3.12,-9.184 h -4.531 L -15.625,20.972 -20.686,0 h -4.702 l 7.056,29.235 h 4.702 l 3.282,-10.887 3.414,10.887 h 4.702 L 4.703,0 Z"
       style="fill:#d4e9db;fill-opacity:1;fill-rule:nonzero;stroke:none"
       transform="matrix(0.266681,0,0,-0.266681,36.222549,91.756184)"
       clip-path="url(#clipPath5)" /><path
       id="path52"
       d="m 0,0 c 0,-5.787 -3.931,-9.644 -9.828,-9.644 -5.896,0 -9.827,3.857 -9.827,9.644 v 19.999 h 4.702 V 0 c 0,-3.256 2.05,-5.427 5.125,-5.427 3.076,0 5.126,2.171 5.126,5.427 V 19.999 H 0 Z"
       style="fill:#d4e9db;fill-opacity:1;fill-rule:nonzero;stroke:none"
       transform="matrix(0.266681,0,0,-0.266681,43.994592,89.292904)"
       clip-path="url(#clipPath7)" /><path
       id="path53"
       d="m 0,0 h -5.514 c -1.368,0 -2.18,-0.834 -2.18,-1.753 0,-0.793 0.446,-1.293 0.983,-1.712 l 5.557,-4.384 c 2.351,-1.879 4.531,-4.634 4.531,-7.849 0,-5.177 -4.531,-8.767 -10.302,-8.767 h -5.13 v 4.592 h 5.13 c 3.206,0 5.343,1.795 5.343,4.175 0,1.42 -0.657,2.735 -2.137,3.883 l -5.942,4.759 c -1.539,1.336 -3.077,2.881 -3.077,5.595 0,3.632 3.505,6.221 7.224,6.221 L 0,4.76 Z"
       style="fill:#d4e9db;fill-opacity:1;fill-rule:nonzero;stroke:none"
       transform="matrix(0.266681,0,0,-0.266681,49.014916,85.228999)"
       clip-path="url(#clipPath9)" /><path
       id="path54"
       d="m 0,0 v -11.411 h 4.488 v -4.452 H 0 v -4.142 h 8.122 v -4.592 H -4.702 V 4.628 H 8.122 V 0 Z"
       style="fill:#d4e9db;fill-opacity:1;fill-rule:nonzero;stroke:none"
       transform="matrix(0.266681,0,0,-0.266681,52.756129,85.193855)"
       clip-path="url(#clipPath11)" /><path
       id="path55"
       d="m 0,0 c 0,-5.787 -3.931,-9.644 -9.828,-9.644 -5.897,0 -9.827,3.857 -9.827,9.644 v 19.999 h 4.702 V 0 c 0,-3.256 2.05,-5.427 5.125,-5.427 3.076,0 5.125,2.171 5.125,5.427 V 19.999 H 0 Z"
       style="fill:#d4e9db;fill-opacity:1;fill-rule:nonzero;stroke:none"
       transform="matrix(0.266681,0,0,-0.266681,61.750613,89.292904)"
       clip-path="url(#clipPath13)" /><path
       id="path56"
       d="M 0,0 C 0,6.574 -3.375,9.653 -10.228,9.989 V -10.015 C -3.374,-9.82 0,-6.733 0,0 m 4.702,0 c 0,-8.618 -5.099,-14.254 -14.93,-14.612 h -4.702 v 29.225 h 4.702 C -0.397,14.254 4.702,8.618 4.702,0"
       style="fill:#d4e9db;fill-opacity:1;fill-rule:nonzero;stroke:none"
       transform="matrix(0.266681,0,0,-0.266681,69.706513,87.856634)"
       clip-path="url(#clipPath15)" /><path
       id="path57"
       d="m 0,0 v -11.411 h 4.488 v -4.452 H 0 v -4.142 h 8.122 v -4.592 H -4.703 V 4.628 H 8.122 V 0 Z"
       style="fill:#d4e9db;fill-opacity:1;fill-rule:nonzero;stroke:none"
       transform="matrix(0.266681,0,0,-0.266681,73.938391,85.193855)"
       clip-path="url(#clipPath17)"
       inkscape:label="path57" /><path
       id="path58"
       d="M 0,0 -2.171,11.021 -4.342,0 Z m 0.863,-4.593 h -6.067 l -1.241,-5.832 h -4.702 L -4.322,18.8 h 4.275 L 6.806,-10.425 H 2.104 Z"
       style="fill:#d4e9db;fill-opacity:1;fill-rule:nonzero;stroke:none"
       transform="matrix(0.266681,0,0,-0.266681,83.051391,88.973234)"
       clip-path="url(#clipPath19)" /><path
       id="path59"
       d="m 0,0 v -14.216 c 4.563,0.167 7.054,2.715 7.054,6.646 C 7.054,-3.395 4.48,-0.213 0,0 m 6.394,-17.098 5.128,-7.798 H 6.254 l -3.735,6.263 C 1.704,-18.821 0.861,-18.941 0,-18.993 v -5.903 H -4.487 V 4.329 h 2.992 c 7.161,0 13.251,-4.182 13.251,-11.899 0,-4.349 -2.161,-7.618 -5.362,-9.528"
       style="fill:#d4e9db;fill-opacity:1;fill-rule:nonzero;stroke:none"
       transform="matrix(0.266681,0,0,-0.266681,87.593017,85.114166)"
       clip-path="url(#clipPath21)" /><path
       id="path60"
       d="m 0,0 h -5.771 v -24.925 h -4.702 V 0 h -5.771 V 4.3 H 0 Z"
       style="fill:#d4e9db;fill-opacity:1;fill-rule:nonzero;stroke:none"
       transform="matrix(0.266681,0,0,-0.266681,96.112225,85.106486)"
       clip-path="url(#clipPath23)" /><path
       id="path61"
       d="m 0,0 v -11.411 h 4.488 v -4.452 H 0 v -4.142 h 8.122 v -4.592 H -4.702 V 4.628 H 8.122 V 0 Z"
       style="fill:#d4e9db;fill-opacity:1;fill-rule:nonzero;stroke:none"
       transform="matrix(0.266681,0,0,-0.266681,98.749887,85.193855)"
       clip-path="url(#clipPath25)" /><path
       id="path62"
       d="M 0,0 C 0,6.404 -2.688,9.575 -8.518,9.976 V -10.019 C -2.688,-9.824 0,-6.977 0,0 m 4.702,0 c 0,-9.565 -4.165,-14.213 -13.22,-14.612 h -4.702 v 29.225 h 4.702 C 0.537,14.212 4.702,9.565 4.702,0"
       style="fill:#d4e9db;fill-opacity:1;fill-rule:nonzero;stroke:none"
       transform="matrix(0.266681,0,0,-0.266681,108.41577,87.856634)"
       clip-path="url(#clipPath27)" /><path
       id="path63"
       d="M 0,0 -2.171,11.021 -4.342,0 Z m 0.863,-4.593 h -6.067 l -1.241,-5.832 h -4.702 L -4.321,18.8 h 4.274 L 6.807,-10.425 H 2.104 Z"
       style="fill:#d4e9db;fill-opacity:1;fill-rule:nonzero;stroke:none"
       transform="matrix(0.266681,0,0,-0.266681,113.74757,88.973234)"
       clip-path="url(#clipPath29)" /><path
       id="path64"
       d="m 0,0 c 0,-5.787 -3.931,-9.644 -9.827,-9.644 -5.897,0 -9.828,3.857 -9.828,9.644 v 19.999 h 4.703 V 0 c 0,-3.256 2.05,-5.427 5.125,-5.427 3.075,0 5.125,2.171 5.125,5.427 V 19.999 H 0 Z"
       style="fill:#d4e9db;fill-opacity:1;fill-rule:nonzero;stroke:none"
       transform="matrix(0.266681,0,0,-0.266681,124.04371,89.292904)"
       clip-path="url(#clipPath31)" /><path
       id="path65"
       d="m 0,0 v -11.481 h 4.916 v -4.593 H 0 v -8.6 H -4.703 V 4.592 H 8.121 V 0 Z"
       style="fill:#d4e9db;fill-opacity:1;fill-rule:nonzero;stroke:none"
       transform="matrix(0.266681,0,0,-0.266681,127.23684,85.173296)"
       clip-path="url(#clipPath33)" /><path
       id="path66"
       d="M 0,0 C 1.047,0 2.503,-0.165 3.678,-0.447 L 2.476,-4.828 c -0.792,0.183 -1.62,0.281 -2.47,0.281 -6.669,0 -10.609,-3.849 -10.609,-10.361 0,-6.512 3.94,-10.36 10.609,-10.36 0.85,0 1.678,0.096 2.47,0.28 L 3.678,-29.35 C 2.503,-29.64 1.047,-29.809 0,-29.809 c -9.564,0 -15.216,5.537 -15.216,14.907 C -15.216,-5.535 -9.564,0 0,0"
       style="fill:#d4e9db;fill-opacity:1;fill-rule:nonzero;stroke:none"
       transform="matrix(0.266681,0,0,-0.266681,134.46221,83.848613)"
       clip-path="url(#clipPath35)" /></g><g
     id="layer1"
     transform="translate(-15.06182)"
     style="display:none"><path
       id="path1129-4"
       d="m 0,0 c -0.695,0 -1.258,0.563 -1.258,1.258 v 34.203 c 0,0.695 0.563,1.258 1.258,1.258 0.695,0 1.258,-0.563 1.258,-1.258 V 1.258 C 1.258,0.563 0.695,0 0,0"
       style="fill:#3871c1;fill-opacity:1;fill-rule:nonzero;stroke:none"
       transform="matrix(0.92035253,0,0,-0.92035253,55.472493,34.295341)"
       clip-path="url(#clipPath1130-2)" /><path
       id="path1131-6"
       d="m 0,0 c -0.695,0 -1.258,0.563 -1.258,1.258 v 38.287 c 0,0.695 0.563,1.258 1.258,1.258 0.695,0 1.258,-0.563 1.258,-1.258 V 1.258 C 1.258,0.563 0.695,0 0,0"
       style="fill:#3871c1;fill-opacity:1;fill-rule:nonzero;stroke:none"
       transform="matrix(0.92035253,0,0,-0.92035253,78.024743,39.46347)"
       clip-path="url(#clipPath1132-8)" /><path
       id="path1133-2"
       d="m 0,0 c -0.695,0 -1.258,0.563 -1.258,1.258 v 11.231 c 0,0.694 0.563,1.257 1.258,1.257 0.695,0 1.258,-0.563 1.258,-1.257 V 1.258 C 1.258,0.563 0.695,0 0,0"
       style="fill:#82b7e6;fill-opacity:1;fill-rule:nonzero;stroke:none"
       transform="matrix(0.92035253,0,0,-0.92035253,82.253304,22.549441)"
       clip-path="url(#clipPath1134-4)" /><path
       id="path1135-5"
       d="m 0,0 c -0.695,0 -1.258,0.563 -1.258,1.258 v 21.441 c 0,0.694 0.563,1.257 1.258,1.257 0.695,0 1.258,-0.563 1.258,-1.257 V 1.258 C 1.258,0.563 0.695,0 0,0"
       style="fill:#3871c1;fill-opacity:1;fill-rule:nonzero;stroke:none"
       transform="matrix(0.92035253,0,0,-0.92035253,70.977075,29.596844)"
       clip-path="url(#clipPath1136-6)" /><path
       id="path1137-6"
       d="m 0,0 c -0.695,0 -1.258,0.563 -1.258,1.258 v 7.657 c 0,0.695 0.563,1.258 1.258,1.258 0.695,0 1.258,-0.563 1.258,-1.258 V 1.258 C 1.258,0.563 0.695,0 0,0"
       style="fill:#82b7e6;fill-opacity:1;fill-rule:nonzero;stroke:none"
       transform="matrix(0.92035253,0,0,-0.92035253,74.73584,21.609463)"
       clip-path="url(#clipPath1138-7)" /><path
       id="path1139-3"
       d="M 0,0 C -0.695,0 -1.258,0.563 -1.258,1.258 V 14.02 c 0,0.695 0.563,1.258 1.258,1.258 0.695,0 1.258,-0.563 1.258,-1.258 V 1.258 C 1.258,0.563 0.695,0 0,0"
       style="fill:#82b7e6;fill-opacity:1;fill-rule:nonzero;stroke:none"
       transform="matrix(0.92035253,0,0,-0.92035253,59.700983,23.959041)"
       clip-path="url(#clipPath1140-5)" /><path
       id="path1141-9"
       d="m 0,0 c -0.695,0 -1.258,0.563 -1.258,1.258 v 8.168 c 0,0.695 0.563,1.258 1.258,1.258 0.695,0 1.258,-0.563 1.258,-1.258 V 1.258 C 1.258,0.563 0.695,0 0,0"
       style="fill:#82b7e6;fill-opacity:1;fill-rule:nonzero;stroke:none"
       transform="matrix(0.92035253,0,0,-0.92035253,66.278859,22.549441)"
       clip-path="url(#clipPath1142-4)" /><path
       id="path1143-3"
       d="m 0,0 c -0.695,0 -1.258,0.563 -1.258,1.258 v 5.616 c 0,0.694 0.563,1.257 1.258,1.257 0.695,0 1.258,-0.563 1.258,-1.257 V 1.258 C 1.258,0.563 0.695,0 0,0"
       style="fill:#3871c1;fill-opacity:1;fill-rule:nonzero;stroke:none"
       transform="matrix(0.92035253,0,0,-0.92035253,86.481795,20.200411)"
       clip-path="url(#clipPath1144-7)" /><path
       id="path1145-0"
       d="m 0,0 h -10.721 c -0.694,0 -1.257,0.563 -1.257,1.258 0,0.694 0.563,1.257 1.257,1.257 L 0,2.515 C 0.695,2.515 1.258,1.952 1.258,1.258 1.258,0.563 0.695,0 0,0"
       style="fill:#3871c1;fill-opacity:1;fill-rule:nonzero;stroke:none"
       transform="matrix(0.92035253,0,0,-0.92035253,51.243934,16.676371)"
       clip-path="url(#clipPath1146-0)" /><path
       id="path1147-5"
       d="m 0,0 h -5.616 c -0.694,0 -1.257,0.563 -1.257,1.258 0,0.694 0.563,1.257 1.257,1.257 L 0,2.515 C 0.695,2.515 1.258,1.952 1.258,1.258 1.258,0.563 0.695,0 0,0"
       style="fill:#3871c1;fill-opacity:1;fill-rule:nonzero;stroke:none"
       transform="matrix(0.92035253,0,0,-0.92035253,92.119943,17.381184)"
       clip-path="url(#clipPath1148-0)" /><path
       id="path1149-6"
       d="m 0,0 h -5.615 c -0.695,0 -1.258,0.563 -1.258,1.258 0,0.694 0.563,1.257 1.258,1.257 L 0,2.515 C 0.695,2.515 1.258,1.952 1.258,1.258 1.258,0.563 0.695,0 0,0"
       style="fill:#82b7e6;fill-opacity:1;fill-rule:nonzero;stroke:none"
       transform="matrix(0.92035253,0,0,-0.92035253,65.339132,19.730214)"
       clip-path="url(#clipPath1150-9)" /><path
       id="path1151-7"
       d="m 0,0 c -0.695,0 -1.258,0.563 -1.258,1.258 v 7.657 c 0,0.695 0.563,1.258 1.258,1.258 0.695,0 1.258,-0.563 1.258,-1.258 V 1.258 C 1.258,0.563 0.695,0 0,0"
       style="fill:#3871c1;fill-opacity:1;fill-rule:nonzero;stroke:none"
       transform="matrix(0.92035253,0,0,-0.92035253,51.713865,20.670165)"
       clip-path="url(#clipPath1152-8)" /><path
       id="path1153-7"
       d="M 0,0 -2.949,0.666 1.635,20.97 H 5.946 L 10.582,0.814 7.635,0.137 3.798,16.819 Z"
       style="fill:#3871c1;fill-opacity:1;fill-rule:nonzero;stroke:none"
       transform="matrix(0.80337104,0,0,-0.80337104,23.115165,61.27181)"
       clip-path="url(#clipPath1154-2)" /><path
       id="path1155-5"
       d="m 244.075,306.9 h -7.166 v 3.024 h 7.166 z"
       style="fill:#3871c1;fill-opacity:1;fill-rule:nonzero;stroke:none"
       transform="matrix(0.80337104,0,0,-0.80337104,-166.98437,304.16018)"
       clip-path="url(#clipPath1156-3)" /><path
       id="path1157-8"
       d="M 0,0 -2.949,0.666 1.636,20.97 h 4.31 L 10.582,0.814 7.635,0.137 3.798,16.818 Z"
       style="fill:#3871c1;fill-opacity:1;fill-rule:nonzero;stroke:none"
       transform="matrix(0.80337104,0,0,-0.80337104,82.447309,61.289314)"
       clip-path="url(#clipPath1158-1)" /><path
       id="path1159-5"
       d="m 263.009,282.745 h -7.166 v 3.024 h 7.166 z"
       style="fill:#3871c1;fill-opacity:1;fill-rule:nonzero;stroke:none"
       transform="matrix(0.80337104,0,0,-0.80337104,-122.86387,284.77234)"
       clip-path="url(#clipPath1160-7)" /><path
       id="path1161-7"
       d="m 0,0 v -10.201 c 1.05,0.052 2.078,0.292 3.001,0.701 0.959,0.426 2.408,1.067 3.027,2.465 0.722,1.63 -0.153,3.318 -0.438,3.796 -1.017,1.703 -3.013,2.397 -4.471,2.903 l -0.09,0.032 C 0.692,-0.187 0.349,-0.086 0,0 M 0,-17.527 H -3.024 V 3.455 l 1.66,-0.163 C -0.203,3.179 0.936,2.929 2.022,2.551 L 2.111,2.52 C 3.792,1.936 6.605,0.959 8.186,-1.69 8.66,-2.484 10.103,-5.303 8.792,-8.26 7.7,-10.724 5.354,-11.764 4.226,-12.263 2.922,-12.842 1.471,-13.172 0,-13.228 Z"
       style="fill:#3871c1;fill-opacity:1;fill-rule:nonzero;stroke:none"
       transform="matrix(0.80337104,0,0,-0.80337104,36.450502,47.190714)"
       clip-path="url(#clipPath1162-5)" /><path
       id="path1163-4"
       d="m 0,0 v -10.201 c 1.05,0.052 2.077,0.292 3,0.701 0.96,0.426 2.409,1.068 3.028,2.465 0.722,1.63 -0.153,3.318 -0.438,3.796 -1.017,1.703 -3.013,2.397 -4.471,2.903 l -0.09,0.032 C 0.692,-0.187 0.349,-0.086 0,0 M 0,-17.527 H -3.024 V 3.455 l 1.66,-0.163 C -0.203,3.179 0.936,2.929 2.022,2.551 L 2.111,2.52 C 3.792,1.936 6.605,0.959 8.186,-1.69 8.66,-2.484 10.102,-5.302 8.792,-8.26 7.7,-10.724 5.354,-11.764 4.226,-12.263 2.921,-12.842 1.471,-13.172 0,-13.228 Z"
       style="fill:#3871c1;fill-opacity:1;fill-rule:nonzero;stroke:none"
       transform="matrix(0.80337104,0,0,-0.80337104,48.421832,47.190714)"
       clip-path="url(#clipPath1164-3)" /><path
       id="path1165-5"
       d="M 0,0 C -1.578,0 -2.829,0.547 -3.305,0.789 -3.998,1.142 -6.308,2.508 -6.94,5.26 -7.083,5.878 -7.127,6.519 -7.074,7.164 L -7.2,21.192 -4.176,21.218 -4.049,7.038 -4.057,6.959 C -4.09,6.61 -4.069,6.265 -3.993,5.936 -3.646,4.423 -2.216,3.627 -1.933,3.483 -1.628,3.329 -0.028,2.595 1.58,3.394 2.927,4.063 3.435,5.347 3.575,5.793 L 3.778,6.695 V 21.142 H 6.802 L 6.765,6.194 6.486,4.974 C 6.279,4.28 5.412,1.921 2.925,0.686 1.899,0.176 0.897,0 0,0"
       style="fill:#3871c1;fill-opacity:1;fill-rule:nonzero;stroke:none"
       transform="matrix(0.80337104,0,0,-0.80337104,98.388238,61.549605)"
       clip-path="url(#clipPath1166-7)" /><path
       id="path1167-8"
       d="m 0,0 -3.982,16.884 -2.101,-8.32 h -3.534 l -1.944,8.91 -4.099,-17.24 -2.942,0.7 4.82,20.273 4.516,-0.068 1.502,-6.882 1.747,6.916 h 4.129 L 2.943,0.694 Z"
       style="fill:#3871c1;fill-opacity:1;fill-rule:nonzero;stroke:none"
       transform="matrix(0.80337104,0,0,-0.80337104,76.420577,61.427501)"
       clip-path="url(#clipPath1168-6)" /><path
       id="path1169-3"
       d="m 0,0 c -1.311,0 -2.852,0.224 -4.465,0.928 -2.487,1.084 -4.369,2.847 -5.443,5.101 -1.69,3.547 -1.181,7.956 1.267,10.968 2.067,2.543 4.913,3.297 5.848,3.545 1.572,0.416 3.198,0.513 4.833,0.29 L 1.628,17.836 C 0.391,18.007 -0.835,17.933 -2.018,17.619 -2.792,17.414 -4.848,16.869 -6.294,15.09 -7.995,12.998 -8.358,9.806 -7.178,7.329 -6.423,5.743 -5.067,4.488 -3.257,3.7 -1.26,2.829 0.617,2.991 1.558,3.167 L 2.109,0.193 C 1.516,0.083 0.801,0 0,0"
       style="fill:#3871c1;fill-opacity:1;fill-rule:nonzero;stroke:none"
       transform="matrix(0.80337104,0,0,-0.80337104,114.97881,61.355105)"
       clip-path="url(#clipPath1170-4)" /></g></svg>
