<svg width="192" height="192" viewBox="0 0 192 192" fill="none" xmlns="http://www.w3.org/2000/svg">
<path d="M192 148C192 172.301 172.301 192 148 192H44C19.6995 192 0 172.301 0 148V44C0 19.6995 19.6995 0 44 0H148C172.301 0 192 19.6995 192 44V148Z" fill="#A7BDB8"/>
<path d="M98.2434 128.229C91.5862 139.913 76.8384 143.915 65.3047 137.169C53.773 130.425 49.8225 115.484 56.4797 103.8C63.1389 92.1161 77.8848 88.1142 89.4184 94.8603C100.95 101.604 104.903 116.544 98.2434 128.229ZM101.904 73.5066C94.1982 69.0586 85.7897 66.9501 77.4879 66.9362L99.4537 28.894H70.9827L34.8556 91.4725C21.2983 114.949 29.3434 144.969 52.8194 158.523C76.2975 172.076 106.316 164.033 119.87 140.557C133.423 117.081 125.38 87.06 101.904 73.5066Z" fill="#A57C52"/>
<path d="M149.451 165.106H124.556V53.7892H109.676V28.8936H149.451V165.106Z" fill="#1C1B1F"/>
</svg>
